<?xml version="1.0" encoding="utf-8"?>
<!-- Generator: Adobe Illustrator 22.0.0, SVG Export Plug-In . SVG Version: 6.00 Build 0)  -->
<svg version="1.1" id="图层_1" xmlns="http://www.w3.org/2000/svg" xmlns:xlink="http://www.w3.org/1999/xlink" x="0px" y="0px"
	 viewBox="0 0 110.7 96.9" style="enable-background:new 0 0 110.7 96.9;" xml:space="preserve">
<style type="text/css">
	.st0{fill:#6F8DA9;}
</style>
<path class="st0" d="M82.6,63.4C78.8,80,69.3,85.3,53.9,79c-0.4,1.7-0.8,3.3-1.2,5c-2.3,8.4-9.7,13.8-18.2,13.3
	c-8.6-0.4-15.8-6.6-16.8-15.1C16.8,74.2,14,68.1,7,63.4c-6.7-4.7-8.1-14.8-4.1-22.2c3.8-7.1,12.4-10.9,20.4-8.8
	c1.7,0.5,3.4,1.2,3.7,1.3c4.1-5.3,7.3-11.1,11.9-15c5.5-4.6,12.4-2.6,18.9,0.2c1.4-9.8,5.9-16.5,15.8-18.1
	c10.7-1.7,19,6.1,20.8,17.3c0.9,5.2,4,10.9,7.9,14.4c7.7,6.8,10.9,15.4,6.5,23.7c-4.5,8.7-13.7,12-23.4,8.3
	C84.4,64.2,83.5,63.8,82.6,63.4z M30.6,69.7c-6.6,3.4-9.2,8.8-6.6,13.9c3.4,6.7,11.8,9.7,17.7,6.4c5.3-2.9,6.9-10.5,3.7-16.9
	C42.7,67.6,37.1,66.3,30.6,69.7z M87.4,38.5c-6.4,3.5-9,9.1-6.3,14c3.5,6.3,11.6,9.4,17.3,6.5c5.7-3,7.4-11.2,3.6-17.8
	C99.2,36.3,93.5,35.2,87.4,38.5z M24.4,58.5c6.2-3.4,8.2-8.6,5.4-13.7c-3.5-6.4-11.2-9.5-16.5-6.5C7.5,41.4,5.4,50.6,9,56.6
	C11.8,61.3,18,62,24.4,58.5z M81.4,28.1c6.1-3.1,8.5-8.5,6.1-13.5c-3.2-6.5-10.7-9.7-16.4-7c-6.2,3.1-8.4,11.1-4.8,18
	C68.9,30.7,74.5,31.6,81.4,28.1z M52.3,67.7c3,6.3,11.2,9.6,17.1,6.9c6-2.7,7.8-10.5,4.2-17.6c-2.5-4.9-8-6.3-13.9-3.5
	C53,56.7,49.9,62.6,52.3,67.7z M52.4,43.5c6.6-3.4,9-8.8,6.2-13.9c-3.5-6.5-11-9.4-16.5-6.5c-6,3.2-8.1,11.8-4.5,18.3
	C40.1,46,45.9,46.8,52.4,43.5z M44.2,64.5c0.6-0.4,1.2-0.8,1.8-1.2c-1.9-5-3-10.5-7.9-13.7c-0.7,0.4-1.4,0.9-2.2,1.3
	C38.7,55.5,41.4,60,44.2,64.5z M74.1,50.5c0.2-8.9-2.8-14.1-8.8-16.2C68.1,39.5,70.7,44.2,74.1,50.5z"/>
</svg>
