<?xml version="1.0" encoding="utf-8"?>
<!-- Generator: Adobe Illustrator 22.0.0, SVG Export Plug-In . SVG Version: 6.00 Build 0)  -->
<svg version="1.1" id="图层_1" xmlns="http://www.w3.org/2000/svg" xmlns:xlink="http://www.w3.org/1999/xlink" x="0px" y="0px"
	 viewBox="0 0 102.8 121" style="enable-background:new 0 0 102.8 121;" xml:space="preserve">
<style type="text/css">
	.st0{fill:#6F8DA9;}
</style>
<path class="st0" d="M35.4,22.9c0.4-4.3,0.8-15.1,0.8-15.1c5.8,1.6,56.4,19,67.5,26.4C104.9,35,89,43.9,85.9,54
	c-3.7,12.1-5.2,11.4-7.8,27.9c-1.9,12.4-6.6,22.9-4.7,33c0,0-5-1.6-6.6-2.7c-2.1-1.6-3.9-4.3-6.6-6.2c-3.9-2.7-6.2-2.7-10.9-3.9
	c-2.3-0.6-6.6-1.6-11.6-3.1c-10.9-3.4-16-6.4-19.8-8.1c-6.6-3.1-7-3.9-10.5-4.7c-5.9-1.3-5-5.4-0.8-9.7c2.7-2.7,12-10.1,12.8-12
	c3.8-9.6,7.9-11.5,12.4-21.7C35,35.7,34.8,30.2,35.4,22.9z"/>
</svg>
