<?xml version="1.0" encoding="utf-8"?>
<!-- Generator: Adobe Illustrator 22.0.0, SVG Export Plug-In . SVG Version: 6.00 Build 0)  -->
<svg version="1.1" id="图层_1" xmlns="http://www.w3.org/2000/svg" xmlns:xlink="http://www.w3.org/1999/xlink" x="0px" y="0px"
	 viewBox="0 0 63.7 113.2" style="enable-background:new 0 0 63.7 113.2;" xml:space="preserve">
<style type="text/css">
	.st0{fill:#6F8DA9;}
</style>
<path class="st0" d="M22.6,3.5c-2.3-2.6-5.1-3.6-8.6-2.9C10,1.4,7.5,4,5.7,7.3c-3.2,5.5-4.8,11.6-4.5,18c0.2,4.6,1.3,8.8,5,11.9
	c0.6,0.5,1.2,1.1,1.8,1.6c2.2,1.9,3.5,4,2.9,7.1c-0.1,0.4-0.5,6.5-0.6,7c-0.1,0.8-0.2,1.5-0.3,2.3c-1.1,6.5-2.1,13-2.8,19.6
	c-0.5,5.7-0.6,11.4-0.8,17c-0.2,6.4,0.4,12.8,1.5,19.1c0.3,1.6,1.3,2.4,3.4,2.6c2.2,0.2,3.3-0.2,3.9-1.8c0.6-1.7,1.1-3.4,1.4-5.2
	c1.8-9.8,2.6-19.8,1.6-29.8c-0.7-6.8-1.4-13.5-2.1-20.3c-0.1-1-0.4-10.1-0.3-10.5c0.2-0.7,0.2-1.4,0.4-2c0.9-2.6,3.1-3.9,5.1-5.5
	c4.2-3.2,6.4-7.6,7.1-12.8c0.3-2,0.2-4.1,0.1-6.2C28.2,13.5,26.6,8,22.6,3.5z"/>
<path class="st0" d="M57.1,0.1c-0.2,0-0.3,0-0.5,0c-0.1,0.7-0.2,1.5-0.2,2.2c0.3,6.4,0.7,12.8,1,19.2c0.1,2.3,0.2,4.7,0.3,7
	c0,0.9-0.3,1.5-1.3,1.6c-1,0.1-0.7-0.8-0.8-1.3c-0.3-3.3-0.5-6.5-0.8-9.8c-0.5-5.5-1.1-11-1.7-16.5c-0.1-0.6-0.3-1.2-0.4-1.8
	c-0.1,0-0.3,0-0.4,0c-0.1,0.4-0.3,0.8-0.3,1.1c0.1,4.5,0.1,9,0.2,13.5c0.1,4.7,0.3,9.5,0.3,14.2c0,0.1-0.1,0.2-0.2,0.3
	c-0.5,0.6-1.4,0.5-1.7-0.2c0,0,0,0,0,0c-0.2-0.3-0.1-0.7-0.1-1c-0.1-3.5-0.2-7.1-0.4-10.6c-0.3-5-0.7-9.9-1.1-14.9
	c0-0.6-0.3-1.2-0.4-1.8c-0.1,0-0.3,0-0.4,0c-0.1,0.4-0.3,0.9-0.3,1.3c-0.1,6.6-0.2,13.1-0.3,19.7c0,2.6-0.2,5.2-0.3,7.8
	c0,0.8-0.6,1.1-1.2,1c-0.2,0-0.5-0.7-0.5-1c0-3.6,0-7.3-0.1-10.9c-0.1-5.3-0.3-10.7-0.5-16c0-0.5-0.2-1-0.3-1.4c-0.1,0-0.3,0-0.4,0
	c-0.1,0.5-0.3,1-0.3,1.6c-0.1,1.6-0.2,3.2-0.3,4.8c-0.4,6.2-0.8,12.4-1.2,18.6c-0.2,2.8-0.2,5.6-0.2,8.5c0,2.1,0.8,3.9,2.9,4.9
	c2,0.9,2.4,2.6,2.2,4.6c-0.4,4.4-0.9,8.8-1.3,13.2c-0.5,4.5-1,9.1-1.4,13.6c-0.4,4.7-0.8,9.4-1,14.1c-0.2,4,0,8.1,0.1,12.1
	c0.1,4.4,0.5,8.7,1.7,12.9c0.5,1.7,1.4,2.4,3,2.4c1.6,0,2.7-0.7,3-2.4c0.9-4.5,1.9-9,2.3-13.5c0.4-5,0.4-10.1,0.2-15.2
	c-0.3-6.8-1.1-13.5-1.5-20.3c-0.3-4.1-0.3-8.2-0.3-12.3c0-1.4,0.2-2.7,0.6-4.1c0.6-2.1,2.4-3.3,4-4.7c0.9-0.8,1.8-1.6,2.5-2.5
	c2-2.7,2-5.9,1.7-9.1c-0.4-4.3-0.9-8.7-1.4-13c-0.6-4.8-1.4-9.5-2.1-14.3C57.5,1.2,57.2,0.7,57.1,0.1z"/>
</svg>
