<?xml version="1.0" encoding="utf-8"?>
<!-- Generator: Adobe Illustrator 22.0.0, SVG Export Plug-In . SVG Version: 6.00 Build 0)  -->
<svg version="1.1" id="图层_1" xmlns="http://www.w3.org/2000/svg" xmlns:xlink="http://www.w3.org/1999/xlink" x="0px" y="0px"
	 viewBox="0 0 89.4 80" style="enable-background:new 0 0 89.4 80;" xml:space="preserve">
<style type="text/css">
	.st0{fill:#6F8DA9;}
</style>
<g>
	<polygon class="st0" points="8.5,66.1 8.2,48.5 0.4,50.6 	"/>
	<path class="st0" d="M54.5,79.9c-5.7,0-11.6-1.3-17.2-3.9c-10.2-4.6-18.1-12.8-21-21.8c-4.2-12.9,2.2-24.9,3-26.2
		c0.4-0.7,9.7-16.8,27.5-17.1c0.1,0,0.3,0,0.4,0c12.3,0,20.4,7.6,21.9,9.1c7.9,8,8.8,17.6,8.8,21.3c-0.3,8.1-3.9,15.7-9.8,20.8
		C63,66.6,56.2,68.9,50,68.2c-6-0.6-11.9-4-16.1-9.2c-4.3-5.3-6.3-12-5.6-18.2c0.6-5.3,3.3-10.1,7.5-13.4c4.2-3.3,9.4-4.8,14.8-4.2
		c4.3,0.5,8.2,2.7,10.9,6.1c2.7,3.4,3.9,7.7,3.4,12C64.1,48.6,57.5,53.9,50,53c-6-0.7-10.4-6.2-9.7-12.2c0.3-2.4,1.5-4.6,3.4-6.1
		s4.3-2.2,6.7-1.9c2,0.2,3.8,1.2,5.1,2.8c1.3,1.6,1.8,3.6,1.6,5.6c-0.2,1.7-1,3.2-2.4,4.3c-1.3,1.1-3,1.5-4.7,1.3
		c-1.4-0.2-2.7-0.9-3.6-2c-0.9-1.1-1.3-2.6-1.1-4l3.1,0.4c-0.1,0.6,0.1,1.2,0.5,1.7s0.9,0.8,1.6,0.9c0.9,0.1,1.7-0.1,2.4-0.7
		c0.7-0.5,1.1-1.3,1.2-2.2c0.1-1.2-0.2-2.4-0.9-3.3c-0.7-0.9-1.8-1.5-3-1.7c-1.6-0.2-3.2,0.3-4.4,1.3c-1.3,1-2.1,2.4-2.3,4
		c-0.5,4.3,2.6,8.3,6.9,8.8c5.6,0.7,10.8-3.4,11.4-9c0.4-3.5-0.6-7-2.8-9.8c-2.2-2.8-5.3-4.5-8.9-5c-4.5-0.5-8.9,0.7-12.5,3.5
		s-5.8,6.8-6.3,11.3c-0.6,5.4,1.2,11.2,4.9,15.9c3.7,4.6,8.8,7.5,14,8.1c5.4,0.6,11.2-1.4,15.8-5.4c5.3-4.6,8.5-11.3,8.8-18.5
		c0-3.3-0.9-12-7.9-19.1c-1.4-1.4-8.8-8.3-20.1-8.2c-16,0.2-24.5,14.9-24.9,15.5c-0.7,1.2-6.5,12.1-2.7,23.8
		c2.7,8.2,9.9,15.7,19.4,20s19.7,4.7,27.9,1.2c9.1-3.9,16-12.7,18.8-24.1C88.4,37.7,86.1,25,79,16.1C66.6,0.5,41.2,0.5,25.3,10.4
		c-0.8,0.5-18.5,11.7-19.6,31c-0.2,3.2,0.1,6.5,0.9,9.8l-3,0.7c-0.8-3.5-1.2-7.1-1-10.7C3.7,20.4,22.8,8.3,23.6,7.8
		C40.5-2.8,67.6-3.3,81.4,14.3c7.7,9.7,10.2,23.4,6.8,36.8c-3,12.3-10.6,21.9-20.5,26.2C63.6,79,59.1,79.9,54.5,79.9z"/>
</g>
</svg>
