<?xml version="1.0" encoding="utf-8"?>
<!-- Generator: Adobe Illustrator 22.0.0, SVG Export Plug-In . SVG Version: 6.00 Build 0)  -->
<svg version="1.1" id="图层_1" xmlns="http://www.w3.org/2000/svg" xmlns:xlink="http://www.w3.org/1999/xlink" x="0px" y="0px"
	 viewBox="0 0 121 150" style="enable-background:new 0 0 121 150;" xml:space="preserve">
<style type="text/css">
	.st0{fill:#6F8DA9;}
</style>
<path class="st0" d="M105.4,0.2c6.7,0,14.6,6,15.5,11.9c0.7,4.4-11.7,15.4-12.6,20c-3,15.6-4.4,45.9-42.4,79.9
	c-14.8,13.3-16.4,30.3-23,34.8c-3.5,2.3-7.5,1.6-11.1-0.8c-13.3-8.9-20.3-13-25.2-17.8c-4.4-4.5-6.3-6.8-3.7-12.6
	c3-6.7,19.3-20.7,20.8-24.4c7.4-18.4,11.9-30.4,29.7-47.4C75,23.2,87.3,22.5,90.5,18.7C97.2,10.6,100.8,0.2,105.4,0.2z"/>
</svg>
