<?xml version="1.0" encoding="utf-8"?>
<!-- Generator: Adobe Illustrator 22.0.0, SVG Export Plug-In . SVG Version: 6.00 Build 0)  -->
<svg version="1.1" id="图层_1" xmlns="http://www.w3.org/2000/svg" xmlns:xlink="http://www.w3.org/1999/xlink" x="0px" y="0px"
	 viewBox="0 0 194.7 168.4" style="enable-background:new 0 0 194.7 168.4;" xml:space="preserve">
<style type="text/css">
	.st0{opacity:0.8;fill:#DCDCDE;enable-background:new    ;}
</style>
<path class="st0" d="M162.3,19c9.4,5.6,24.5,23.5,27.3,35.7c2.4,10.2,3.8,32.9,2.8,42.3c-1,9.9-4.3,18.3-9.4,26.3
	c-5,7.9-18.2,22.2-26.3,29.2c-7.1,6.1-28.8,13.8-45.2,16.9c-18.2,3.5-55.2-3.9-66.8-9.4c-12.2-5.8-32.2-29-37.8-40.6
	C0.5,106-5.7,75,0.8,58.9c7.9-19.5,36.5-47,60-54.5c20.7-6.6,45.5-4.5,56-2.5C130.5,4.5,154.2,14.2,162.3,19z"/>
</svg>
