<?xml version="1.0" encoding="utf-8"?>
<!-- Generator: Adobe Illustrator 23.0.0, SVG Export Plug-In . SVG Version: 6.00 Build 0)  -->
<svg version="1.1" id="图层_1" xmlns="http://www.w3.org/2000/svg" xmlns:xlink="http://www.w3.org/1999/xlink" x="0px" y="0px"
	 viewBox="0 0 220 197" style="enable-background:new 0 0 220 197;" xml:space="preserve">
<style type="text/css">
	.st0{fill:#B8CFD8;}
</style>
<path class="st0" d="M60.28,99.53c0.68,0.53,1.04,1.34,1.13,2.19c0.34,3.18,2.52,5.71,5.38,8.16c3.18,2.72,6.56,4.53,10.03,4.03
	c0.82-0.12,1.65,0.04,2.3,0.55c0.71,0.57,1.43,1.14,2.12,1.7c1.18,0.95,1.09,5,2.21,6.02c15.07,13.79,27.81,24.83,44.01,37.14
	c11.85,9.01,25.62,17.17,39.79,20.87c5.64,1.47,10.19-1.03,15.08,1.03c4.52,1.91,9.07,8.64,13.21,12.32
	c8.02,7.13,12.12,2.16,17.95-4.66c5.73-6.69,10.6-9.35,2.13-17.58c-4.75-4.62-12.29-8.78-15.29-13.82
	c-2.69-4.53-1.14-10.14-2.81-15.89c-2.85-9.82-11.26-18.66-18.82-26.34c-13.26-13.47-21.91-17.83-36.25-30.17
	c-1.19-1.02-6.48-8.21-8.97-10.34c-3.57-3.06-7.85-4.39-11.54-3.99c-1.47,0.16-2.73-0.78-2.84-2.25c-0.47-6.78-0.64-7.31-4.48-11.67
	c-2.78-3.16-7.18-1.86-10.3-3.89c-1-0.65-1.51-0.65-1.85-1.39C97.38,40.41,54.6,1.46,42.4,1.61c-0.31,0-0.6,0.07-0.9,0.16
	C28.03,6.19,10.23,29.48,2.44,43.96c-2.83,6.02-0.78,9.68,6.18,15.21c6.41,5.09,38.56,37.49,48.18,37.65
	C58.28,96.84,59.12,98.62,60.28,99.53z"/>
</svg>
