<?xml version="1.0" encoding="utf-8"?>
<!-- Generator: Adobe Illustrator 23.0.0, SVG Export Plug-In . SVG Version: 6.00 Build 0)  -->
<svg version="1.1" id="图层_1" xmlns="http://www.w3.org/2000/svg" xmlns:xlink="http://www.w3.org/1999/xlink" x="0px" y="0px"
	 viewBox="0 0 1366 768" style="enable-background:new 0 0 1366 768;" xml:space="preserve">
<style type="text/css">
	.st0{opacity:0.37;fill:#808080;}
	.st1{fill:#B8CFD8;}
</style>
<polygon class="st0" points="914.92,-3950.21 914.92,-3931.67 926.66,-3945.26 922.17,-3948.75 "/>
<polygon class="st0" points="807.71,-3860.24 821.26,-3849.37 817.78,-3860.24 "/>
<polygon class="st0" points="506.48,-3860.24 507.54,-3858.57 508.86,-3860.24 "/>
<polygon class="st0" points="922.17,-3948.75 914.92,-3954.37 914.92,-3950.21 "/>
<polygon class="st0" points="907.35,-3880.29 909.13,-3879.4 907.35,-3886.26 "/>
<polygon class="st0" points="659.35,-3944.77 656.52,-3937.04 661.1,-3942.82 "/>
<polygon class="st0" points="661.52,-3949.16 635.87,-3879 652.59,-3879 681.92,-3937.34 666.1,-3954.94 "/>
<polygon class="st0" points="795.71,-3983.89 824.48,-3943.41 833.19,-3950.16 806.99,-3974.84 "/>
<polygon class="st0" points="781.99,-3942.84 767.32,-3956.66 770.71,-3951.89 "/>
<polygon class="st0" points="558.45,-4000.8 538.39,-3958.98 596.89,-3903.87 618.89,-3915.75 "/>
<polygon class="st0" points="748.79,-3977.42 772.35,-3977.42 804.32,-4014.43 724.19,-4054.38 "/>
<polygon class="st0" points="920.25,-3872.48 920.25,-3922.87 910.19,-3911.23 "/>
<polygon class="st0" points="537.58,-4243.96 580.76,-4203.29 575.37,-4248.09 "/>
<polygon class="st0" points="327.41,-4204.74 334.04,-4197.37 353.45,-4214.71 "/>
<polygon class="st0" points="644.14,-3968.14 674.01,-3968.14 699.66,-4038.3 "/>
<polygon class="st0" points="531.89,-4269.05 542.63,-4260.72 562.16,-4285.39 "/>
<polygon class="st0" points="525.05,-4246.05 512.27,-4241.16 512.27,-4221.34 531.68,-4238.68 "/>
<polygon class="st0" points="429,-3810.01 429,-3790.9 441.78,-3795.8 "/>
<polygon class="st0" points="416.1,-4201.19 415.32,-4207.74 407.77,-4201 410.29,-4198.97 "/>
<polygon class="st0" points="424.2,-4089.43 421.67,-4091.46 415.8,-4086.21 "/>
<polygon class="st0" points="483.87,-4251.79 488.19,-4215.82 505.58,-4231.35 "/>
<polygon class="st0" points="509.43,-4164.67 497.56,-4175.85 480.18,-4160.32 480.96,-4153.77 "/>
<polygon class="st0" points="644.69,-4153.39 650.56,-4158.63 605.87,-4194.49 605.87,-4157.62 618.65,-4143.41 "/>
<polygon class="st0" points="364.98,-3844.05 360.72,-3841.86 362.42,-3827.76 365.24,-3826.03 370.41,-3836.79 "/>
<polygon class="st0" points="446.55,-3834.72 459.62,-3784.36 460.3,-3783.37 499.64,-3798.45 499.21,-3804.39 447.06,-3835.73 "/>
<polygon class="st0" points="596.15,-4157.73 580.07,-4179.47 522.07,-4179.47 525.71,-4150.34 "/>
<polygon class="st0" points="390.12,-3826.27 400.65,-3826.27 398.54,-3843.81 "/>
<polygon class="st0" points="435.25,-3867.24 440.49,-3860.24 446.69,-3860.24 "/>
<polygon class="st0" points="887.61,-3836.05 906.04,-3836.05 906.04,-3856.1 873.17,-3872.49 "/>
<polygon class="st0" points="830.24,-4052.86 832.87,-4015.87 845.79,-4015.87 831.35,-4052.3 "/>
<polygon class="st0" points="447.15,-4086.05 416.08,-4073.59 416.08,-4019.38 440.77,-4019.38 523.98,-4051.15 "/>
<polygon class="st0" points="465.49,-4150.71 467.7,-4166.14 414.09,-4210.34 440.74,-4148.43 460.18,-4147.63 "/>
<polygon class="st0" points="629.28,-3850.51 629.58,-3851.11 586.65,-3852.04 582.29,-3846.41 "/>
<polygon class="st0" points="873.32,-3897.25 873.36,-3897.23 873.35,-3897.3 "/>
<polygon class="st0" points="957.59,-3868 992.24,-3868 989.6,-3904.99 989.56,-3905.01 "/>
<polygon class="st0" points="873.35,-3897.3 873.95,-3897.99 873.16,-3899.97 "/>
<polygon class="st0" points="873.36,-3897.23 874.47,-3896.68 873.95,-3897.99 873.35,-3897.3 "/>
<polygon class="st0" points="683.75,-3860.24 688.19,-3860.24 687.29,-3863.13 "/>
<polygon class="st0" points="615.91,-4247.14 665.13,-4200.77 683.06,-4200.77 620.54,-4250.93 "/>
<polygon class="st0" points="710.22,-3847.33 711.13,-3844.44 773.84,-3844.44 749.19,-3879.13 "/>
<polygon class="st0" points="667.69,-3848.53 702.98,-3772.79 758.63,-3772.79 688.17,-3874.03 "/>
<polygon class="st0" points="491.04,-3920.11 495.53,-3857.09 496.31,-3855.11 519.65,-3882.13 510.83,-3916.12 "/>
<polygon class="st0" points="638.17,-4081.47 646.99,-4047.49 657.04,-4059.13 657.04,-4077.67 "/>
<polygon class="st0" points="823.89,-4196.45 841.48,-4128.67 852.61,-4134.39 847.29,-4209.08 "/>
<polygon class="st0" points="442.93,-4160.8 437.12,-4158.57 443.85,-4153.18 "/>
<polygon class="st0" points="874.27,-3985.9 891.17,-3972.79 881.41,-4010.42 873.01,-4003.56 "/>
<polygon class="st0" points="541.43,-3782.48 575,-3753.97 607.39,-3770.63 589.81,-3838.4 531.69,-3807.04 "/>
<polygon class="st0" points="929.77,-3962.41 948.65,-3958.6 948.65,-3962.76 924.9,-3981.18 "/>
<polygon class="st0" points="806.52,-3862.57 802.04,-3925.58 779.76,-3930.07 "/>
<polygon class="st0" points="585.57,-4085.33 554.29,-4059.8 557.43,-4050 637.56,-4010.05 637.6,-4010.1 637.41,-4012.77 
	610.65,-4080.27 "/>
<polygon class="st0" points="868.27,-3960.9 870.26,-3933 890.05,-3929.01 885.17,-3947.79 "/>
<polygon class="st0" points="306.55,-3941.47 336.37,-3917.55 374.96,-3949.04 339.29,-3966.83 "/>
<polygon class="st0" points="738.91,-3942.91 766.42,-3917 771.06,-3920.78 741.24,-3944.71 "/>
<polygon class="st0" points="791.36,-3936.91 800.76,-3932.23 797.62,-3942.03 "/>
<polygon class="st0" points="819.19,-3926.16 821.51,-3927.96 792.99,-3950.84 "/>
<polygon class="st0" points="1021.52,-4028.09 1043.44,-3997.25 1057.74,-4008.92 1030.24,-4034.83 "/>
<polygon class="st0" points="603.84,-4355.98 553.96,-4349.61 584.45,-4308.86 607.97,-4321.55 "/>
<polygon class="st0" points="693.55,-3900.01 700.75,-3892 747.25,-3892 750.78,-3894.89 738.29,-3934.65 "/>
<polygon class="st0" points="619.72,-3860.24 637.26,-3860.24 630.06,-3868.25 "/>
<polygon class="st0" points="483.12,-4144.29 512.97,-4104.4 506.65,-4156.99 "/>
<polygon class="st1" points="898.92,469.79 898.92,488.33 910.66,474.74 906.17,471.25 "/>
<polygon class="st1" points="791.71,559.76 805.26,570.63 801.78,559.76 "/>
<polygon class="st1" points="490.48,559.76 491.54,561.43 492.86,559.76 "/>
<polygon class="st1" points="906.17,471.25 898.92,465.63 898.92,469.79 "/>
<polygon class="st1" points="891.35,539.71 893.13,540.6 891.35,533.74 "/>
<polygon class="st1" points="643.35,475.23 640.52,482.96 645.1,477.18 "/>
<polygon class="st1" points="645.52,470.84 619.87,541 636.59,541 665.92,482.66 650.1,465.06 "/>
<polygon class="st1" points="779.71,436.11 808.48,476.59 817.19,469.84 790.99,445.16 "/>
<polygon class="st1" points="765.99,477.16 751.32,463.34 754.71,468.11 "/>
<polygon class="st1" points="542.45,419.2 522.39,461.02 580.89,516.13 602.89,504.25 "/>
<polygon class="st1" points="732.79,442.58 756.35,442.58 788.32,405.57 708.19,365.62 "/>
<polygon class="st1" points="904.25,547.52 904.25,497.13 894.19,508.77 "/>
<polygon class="st1" points="521.58,176.04 564.76,216.71 559.37,171.91 "/>
<polygon class="st1" points="311.41,215.26 318.04,222.63 337.45,205.29 "/>
<polygon class="st1" points="628.14,451.86 658.01,451.86 683.66,381.7 "/>
<polygon class="st1" points="515.89,150.95 526.63,159.28 546.16,134.61 "/>
<polygon class="st1" points="509.05,173.95 496.27,178.84 496.27,198.66 515.68,181.32 "/>
<polygon class="st1" points="413,609.99 413,629.1 425.78,624.2 "/>
<polygon class="st1" points="400.1,218.81 399.32,212.26 391.77,219 394.29,221.03 "/>
<polygon class="st1" points="408.2,330.57 405.67,328.54 399.8,333.79 "/>
<polygon class="st1" points="467.87,168.21 472.19,204.18 489.58,188.65 "/>
<polygon class="st1" points="493.43,255.33 481.56,244.15 464.18,259.68 464.96,266.23 "/>
<polygon class="st1" points="628.69,266.61 634.56,261.37 589.87,225.51 589.87,262.38 602.65,276.59 "/>
<polygon class="st1" points="348.98,575.95 344.72,578.14 346.42,592.24 349.24,593.97 354.41,583.21 "/>
<polygon class="st1" points="430.55,585.28 443.62,635.64 444.3,636.63 483.64,621.55 483.21,615.61 431.06,584.27 "/>
<polygon class="st1" points="580.15,262.27 564.07,240.53 506.07,240.53 509.71,269.66 "/>
<polygon class="st1" points="374.12,593.73 384.65,593.73 382.54,576.19 "/>
<polygon class="st1" points="419.25,552.76 424.49,559.76 430.69,559.76 "/>
<polygon class="st1" points="871.61,583.95 890.04,583.95 890.04,563.9 857.17,547.51 "/>
<polygon class="st1" points="814.24,367.14 816.87,404.13 829.79,404.13 815.35,367.7 "/>
<polygon class="st1" points="431.15,333.95 400.08,346.41 400.08,400.62 424.77,400.62 507.98,368.85 "/>
<polygon class="st1" points="449.49,269.29 451.7,253.86 398.09,209.66 424.74,271.57 444.18,272.37 "/>
<polygon class="st1" points="613.28,569.49 613.58,568.89 570.65,567.96 566.29,573.59 "/>
<polygon class="st1" points="857.32,522.75 857.36,522.77 857.35,522.7 "/>
<polygon class="st1" points="941.59,552 976.24,552 973.6,515.01 973.56,514.99 "/>
<polygon class="st1" points="857.35,522.7 857.95,522.01 857.16,520.03 "/>
<polygon class="st1" points="857.36,522.77 858.47,523.32 857.95,522.01 857.35,522.7 "/>
<polygon class="st1" points="667.75,559.76 672.19,559.76 671.29,556.87 "/>
<polygon class="st1" points="599.91,172.86 649.13,219.23 667.06,219.23 604.54,169.07 "/>
<polygon class="st1" points="694.22,572.67 695.13,575.56 757.84,575.56 733.19,540.87 "/>
<polygon class="st1" points="651.69,571.47 686.98,647.21 742.63,647.21 672.17,545.97 "/>
<polygon class="st1" points="475.04,499.89 479.53,562.9 480.31,564.89 503.65,537.87 494.83,503.88 "/>
<polygon class="st1" points="622.17,338.53 630.99,372.51 641.04,360.87 641.04,342.34 "/>
<polygon class="st1" points="807.89,223.55 825.48,291.33 836.61,285.61 831.29,210.92 "/>
<polygon class="st1" points="426.93,259.2 421.12,261.43 427.85,266.82 "/>
<polygon class="st1" points="858.27,434.1 875.17,447.21 865.41,409.58 857.01,416.44 "/>
<polygon class="st1" points="525.43,637.52 559,666.03 591.39,649.37 573.81,581.6 515.69,612.96 "/>
<polygon class="st1" points="913.77,457.59 932.65,461.4 932.65,457.24 908.9,438.82 "/>
<polygon class="st1" points="790.52,557.43 786.04,494.42 763.76,489.93 "/>
<polygon class="st1" points="569.57,334.67 538.29,360.2 541.43,370 621.56,409.95 621.6,409.9 621.41,407.23 594.65,339.73 "/>
<polygon class="st1" points="852.27,459.1 854.26,487 874.05,490.99 869.17,472.21 "/>
<polygon class="st1" points="290.55,478.53 320.37,502.45 358.96,470.96 323.29,453.17 "/>
<polygon class="st1" points="722.91,477.09 750.42,503 755.06,499.22 725.24,475.29 "/>
<polygon class="st1" points="775.36,483.09 784.76,487.77 781.62,477.97 "/>
<polygon class="st1" points="803.19,493.84 805.51,492.04 776.99,469.16 "/>
<polygon class="st1" points="1005.52,391.91 1027.44,422.75 1041.74,411.08 1014.24,385.17 "/>
<polygon class="st1" points="587.84,64.02 537.96,70.39 568.45,111.14 591.97,98.45 "/>
<polygon class="st1" points="677.55,519.99 684.75,528 731.25,528 734.78,525.11 722.29,485.35 "/>
<polygon class="st1" points="603.72,559.76 621.26,559.76 614.06,551.75 "/>
<polygon class="st1" points="467.12,275.71 496.97,315.6 490.65,263.01 "/>
</svg>
