<?xml version="1.0" encoding="utf-8"?>
<!-- Generator: Adobe Illustrator 23.0.0, SVG Export Plug-In . SVG Version: 6.00 Build 0)  -->
<svg version="1.1" id="图层_1" xmlns="http://www.w3.org/2000/svg" xmlns:xlink="http://www.w3.org/1999/xlink" x="0px" y="0px"
	 viewBox="0 0 625 447" style="enable-background:new 0 0 625 447;" xml:space="preserve">
<style type="text/css">
	.st0{fill:#FCE4CC;}
</style>
<path class="st0" d="M602.87,354.06C602.87,354.06,602.87,354.05,602.87,354.06c0-34.35-43.26-71.91-44.73-73.18
	c-15.79-23.91-32.02-47.72-32.02-47.72c-29.07-22.1-90.71-84.89-90.71-84.89c-20.93-22.1-26.75-25.58-26.75-25.58L225.4,60.52
	L197,54.07L0,3.15V127.4c49.69,23.71,197,29.96,197,29.96v0.22c162.81,27.91,153.51,51.17,153.51,51.17
	c0,52.33,16.28,74.43,16.28,74.43c4.65,8.14,4.65,73.85,4.65,73.85c5.23,65.71,39.54,59.31,38.96,25.58
	c-0.58-33.73,12.21-87.8,12.21-87.8c11.63-18.61,46.52-10.47,46.52-10.47c4.19,1.57,8.28,3.38,12.23,5.35
	c-3.63,14.87-5.83,46.98-5.83,46.98c-5.23,9.3-6.4,33.14-6.4,33.14c-12.21,27.33,2.91,41.87,2.91,41.87
	c13.37,0,16.86-24.42,16.86-24.42l12.79-36.63c7.37-11.64,11.12-28.97,12.8-39.22c2.61,2.12,5.02,4.17,7.2,6.1l13.73,33.12
	c-3.49,10.47,5.81,32.56,5.81,32.56l-4.65,20.93c-8.14,55.82,21.51,40.7,21.51,40.7c14.8-32.63,13.01-68.23,11.38-82.09
	c0.03,0.03,0.05,0.07,0.08,0.1c5.06,25,15.29,37.8,15.29,37.8c-7.56,44.19,23.84,44.19,23.84,44.19c3.96-1.58,4.55-12.61,3.6-26.47
	c8.31,2.35,12.68-3.77,12.68-3.77C625.61,399.67,613.61,373.93,602.87,354.06z"/>
</svg>
