<?xml version="1.0" encoding="utf-8"?>
<!-- Generator: Adobe Illustrator 23.0.0, SVG Export Plug-In . SVG Version: 6.00 Build 0)  -->
<svg version="1.1" id="图层_1" xmlns="http://www.w3.org/2000/svg" xmlns:xlink="http://www.w3.org/1999/xlink" x="0px" y="0px"
	 viewBox="0 0 243 264" style="enable-background:new 0 0 243 264;" xml:space="preserve">
<style type="text/css">
	.st0{fill:#B8CFD8;}
</style>
<path class="st0" d="M177.69,176.02c15.05-18.78,68.05-76.04,65.03-79.09C212.48,66.38,166.68,24.56,130.99,1.6
	c-6.4-4.12-25.74,36.12-44.46,53.47c-10.49,9.73-21.08,24.18-30.1,35.48c-26.92,33.74-39.02,48.91-55.97,64.65
	c-6.26,5.81,24.76,14.84,47.26,65.38c38.01,62.08,50.61,51.17,91.45,4.81c13.78-15.64,26.21-32.47,39.27-48.75
	C178.19,176.43,177.94,176.23,177.69,176.02z M179.19,91.83l-35.51-28.45c-4.74-3.8-5.51-10.79-1.71-15.53
	c3.8-4.74,10.79-5.51,15.53-1.71l35.51,28.45c4.74,3.8,5.51,10.79,1.71,15.53C190.92,94.86,183.93,95.63,179.19,91.83z"/>
</svg>
