<?xml version="1.0" encoding="utf-8"?>
<!-- Generator: Adobe Illustrator 23.0.0, SVG Export Plug-In . SVG Version: 6.00 Build 0)  -->
<svg version="1.1" id="图层_1" xmlns="http://www.w3.org/2000/svg" xmlns:xlink="http://www.w3.org/1999/xlink" x="0px" y="0px"
	 viewBox="0 0 156 333" style="enable-background:new 0 0 156 333;" xml:space="preserve">
<style type="text/css">
	.st0{fill:#B8CFD8;}
</style>
<path class="st0" d="M120.46,330c2.02,0,4.08-0.41,6.05-1.29c7.56-3.34,10.97-12.18,7.62-19.74L31.45,76.99
	c-2.31-5.21-2.19-11.14,0.31-16.27c2.51-5.12,7.11-8.86,12.65-10.24l82.01-20.5c8.02-2,12.89-10.13,10.89-18.14
	c-2-8.02-10.14-12.9-18.14-10.89l-82.01,20.5C23.03,24.98,11.27,34.51,4.88,47.59C-1.51,60.66-1.8,75.79,4.09,89.1l102.68,231.99
	C109.25,326.68,114.72,330,120.46,330z"/>
</svg>
