<?xml version="1.0" encoding="utf-8"?>
<!-- Generator: Adobe Illustrator 23.0.0, SVG Export Plug-In . SVG Version: 6.00 Build 0)  -->
<svg version="1.1" id="图层_1" xmlns="http://www.w3.org/2000/svg" xmlns:xlink="http://www.w3.org/1999/xlink" x="0px" y="0px"
	 viewBox="0 0 2053 625" style="enable-background:new 0 0 2053 625;" xml:space="preserve">
<style type="text/css">
	.st0{fill:#B8CFD8;}
	.st1{fill:#FFFFFF;}
	.st2{fill:#F8FDFF;}
	.st3{fill:#486A84;}
</style>
<path class="st0" d="M918.47,170.32l-2.04-9.95c-0.46-2.24-0.29-4.57,0.5-6.72l6.64-18.25c1.72-4.73,0.41-10.03-3.32-13.4
	l-20.13-18.24c-3.77-3.42-9.25-4.18-13.81-1.91l-20.27,10.06l-3.5-3.17l6.9-23.33c1.35-4.56-0.03-9.49-3.56-12.68l-57.9-52.46
	c-2.91-2.63-6.89-3.73-10.73-2.96l-29.19,5.83l-10.79,11.91L570.62,241.02c-4.59,5.06-4.2,12.89,0.86,17.48l141.24,127.98
	c5.07,4.59,12.89,4.2,17.48-0.86l185.32-204.51C918.16,178.19,919.26,174.18,918.47,170.32z M839.55,85.28l-48-43.49
	c-2.22-2.01-2.39-5.48-0.38-7.7c2.01-2.22,5.48-2.39,7.7-0.38l48,43.49c2.22,2.01,2.39,5.48,0.38,7.7
	C845.24,87.12,841.78,87.29,839.55,85.28z"/>
<path class="st1" d="M333.93,24.35c12.31-9.13,22-16.31,33.47-24.81c4.31,5,8.61,9.47,12.31,14.4
	c13.93,18.54,28.81,36.49,41.16,56.04c14.64,23.16,33.5,37.91,60.95,42.57c20.49,3.48,35.62,15.53,48.08,32.71
	c46.14,63.59,93.27,126.46,139.97,189.65c17.37,23.51,16.43,29.31-7.01,46.7c-18.62,13.81-37.5,27.3-55.77,41.56
	c-13.16,10.27-24,7.5-33.09-4.71c-51.92-69.74-104.44-139.06-154.59-210.06c-8.62-12.2-9.61-31.84-9.17-47.91
	c0.63-23.23-4.84-42.33-19.71-60.41C371,76.31,353.56,50.83,333.93,24.35z M431.8,155.31c-5.98,20.47-3.39,39.35,9.39,56.46
	c34.99,46.81,69.64,93.88,104.81,140.56c9.64,12.8,20.66,24.56,31.05,36.79c-0.85-9.46-4.59-16.82-9.33-23.47
	c-32.83-46-65.32-92.25-99.07-137.57C452.19,205.99,432,186.37,431.8,155.31z"/>
<path class="st0" d="M193.91,349.72c1.09-0.8,2.45-1,3.78-0.78c4.93,0.83,9.65-1.4,14.54-4.67c5.43-3.64,9.57-7.97,10.29-13.4
	c0.17-1.28,0.75-2.47,1.8-3.23c1.15-0.83,2.31-1.67,3.45-2.48c1.92-1.37,7.99,0.46,9.99-0.79c27.09-16.89,49.06-31.41,74.4-50.6
	c18.54-14.04,36.62-31.33,48.16-51.1c4.59-7.86,2.74-15.77,7.9-22.27c4.77-6,16.81-10.02,24.09-14.7
	c14.1-9.06,8.34-17.33,0.55-28.98c-7.66-11.44-9.6-19.89-25.56-10.6c-8.95,5.21-18.39,14.8-27.23,17.19
	c-7.94,2.15-15.75-2.55-25.1-2.46c-15.98,0.15-32.82,9.1-47.56,17.25c-25.84,14.29-36.05,25.47-60.65,41.86
	c-2.04,1.36-15.08,6.3-19.34,9.15c-6.1,4.08-9.9,9.96-10.87,15.68c-0.38,2.28-2.32,3.79-4.58,3.32c-10.4-2.15-11.27-2.11-19.46,1.84
	c-5.93,2.86-5.81,10.02-10.19,13.86c-1.4,1.23-1.62,2-2.87,2.2C120.56,269,43.94,317,39.03,335.42c-0.13,0.47-0.15,0.93-0.13,1.42
	c0.98,22.13,28.54,58.73,47.05,76.53c7.87,6.79,14.23,5.25,25.49-2.91c10.36-7.51,72.64-42.26,76.93-56.67
	C189.02,351.59,192.07,351.07,193.91,349.72z"/>
<path class="st2" d="M-0.28,366.22c0,0,425.37-211.66,1088.81-0.05c0,0,742.43,223.43,963.2-46.99c0,0-3.66,160.08-3.66,160.09
	c-0.2,8.9-91.77,30.11-101,32.55c-91.66,24.27-188.57,38.57-285.89,44.27c-144.61,8.47-290.68-2.85-430.39-30.41
	c-138.22-27.26-259.53-84.74-395.31-116.58c-92.83-21.77-199.39-26.64-296.79-30.73c-171.5-7.21-438.95-8.57-537.01,115.61
	L-0.28,366.22z"/>
<path class="st3" d="M0.99,431.84c0,0,425.38-211.6,1088.81,0c0,0,742.43,223.43,963.2-46.99c0,0-3.66,160.08-3.66,160.09
	c-0.2,8.9-91.77,30.11-101,32.55c-91.66,24.27-188.57,38.57-285.89,44.27c-144.61,8.47-290.68-2.85-430.4-30.41
	c-115.91-22.86-215.74-70.19-328.14-99.27C678.6,433.79,152.79,369.88,2.94,559.65L0.99,431.84z"/>
<path class="st0" d="M1331.95,420.96c2.03-5.56,1.22-10.81-2.66-15.57c-4.46-5.48-10.6-7.01-17.07-7.21
	c-11.11-0.33-21.58,2.25-31.25,7.95c-6.91,4.08-12.28,9.28-14.1,17.42c-0.31,1.37-0.71,2.71-1.01,4.08
	c-1.06,4.85-3.25,8.71-8.43,10.19c-0.61,0.17-10.42,4.62-11.19,4.91c-1.24,0.46-2.47,0.95-3.71,1.42
	c-10.69,4.07-21.52,7.83-32.04,12.3c-9.07,3.85-17.84,8.43-26.67,12.82c-10,4.97-19.19,11.23-27.95,18.14
	c-2.28,1.8-2.58,4.01-1.19,7.38c1.43,3.47,3.07,4.85,6.02,4.38c3.05-0.49,6.1-1.2,9.04-2.16c16.62-5.4,32.42-12.54,46.93-22.36
	c9.78-6.62,19.53-13.29,29.3-19.92c1.49-1.01,15.14-8.93,15.72-9.07c1.18-0.26,2.29-0.85,3.47-1.06c4.69-0.83,8.6,1.55,12.58,3.34
	c8.45,3.81,16.92,3.39,25.33,0.25c3.32-1.24,6.49-3.02,9.5-4.91C1321.29,437.84,1328.35,430.81,1331.95,420.96z"/>
</svg>
