<?xml version="1.0" encoding="utf-8"?>
<!-- Generator: Adobe Illustrator 23.0.0, SVG Export Plug-In . SVG Version: 6.00 Build 0)  -->
<svg version="1.1" id="图层_1" xmlns="http://www.w3.org/2000/svg" xmlns:xlink="http://www.w3.org/1999/xlink" x="0px" y="0px"
	 viewBox="0 0 71 68" style="enable-background:new 0 0 71 68;" xml:space="preserve">
<style type="text/css">
	.st0{fill:#FFFFFF;}
	.st1{fill:#6F8DA9;}
	.st2{font-family:'Sarasa-Mono-SC-Light';}
	.st3{font-size:12px;}
</style>
<path class="st0" d="M52.41,2.73c3.74,1.32,10.57,6.8,12.71,11.2c1.79,3.67,4.46,12.18,5.06,15.84c0.62,3.84,0.32,7.33-0.64,10.83
	c-0.94,3.44-4.02,10.02-6.1,13.39c-1.81,2.92-8.44,7.75-13.67,10.39c-5.82,2.93-19.08,3.37-23.55,2.27
	c-4.68-1.14-13.73-8.19-16.74-12.12C5.99,49.99,0.9,38.76,1.56,32.05c0.8-8.12,7.81-21.06,15.08-25.97
	c6.38-4.3,14.98-5.68,18.74-5.86C40.24-0.01,49.22,1.6,52.41,2.73z"/>
<text transform="matrix(1 0 0 1 22.8203 35.8975)" class="st1 st2 st3">登陆</text>
</svg>
