<?xml version="1.0" encoding="utf-8"?>
<!-- Generator: Adobe Illustrator 23.0.0, SVG Export Plug-In . SVG Version: 6.00 Build 0)  -->
<svg version="1.1" id="图层_1" xmlns="http://www.w3.org/2000/svg" xmlns:xlink="http://www.w3.org/1999/xlink" x="0px" y="0px"
	 viewBox="0 0 143 21" style="enable-background:new 0 0 143 21;" xml:space="preserve">
<style type="text/css">
	.st0{fill:#FFFFFF;}
	.st1{fill:#B4D3E0;}
</style>
<g>
	<path class="st0" d="M82.72,20.15V0.85h12.11v3.77h-7.37v4.38h7.03v3.77h-7.03v7.39H82.72z"/>
	<path class="st0" d="M112.09,6.96c0,1.29-0.36,2.42-1.08,3.39c-0.72,0.97-1.73,1.7-3.02,2.2l6.33,7.59h-5.84l-5.29-6.7h-0.87v6.7
		h-4.74V0.85h6.13c1.19,0,2.3,0.13,3.32,0.38c1.02,0.25,1.91,0.63,2.66,1.13c0.75,0.5,1.34,1.14,1.76,1.9
		C111.87,5.02,112.09,5.92,112.09,6.96z M107.52,7.05c0-0.87-0.34-1.51-1.01-1.93c-0.67-0.41-1.62-0.62-2.83-0.62h-1.36v5.42h1.16
		c1.27,0,2.26-0.25,2.98-0.75C107.16,8.66,107.52,7.96,107.52,7.05z"/>
	<path class="st0" d="M116.05,0.85h12v3.77h-7.26V8.5h6.91v3.77h-6.91v4.12h7.34v3.77h-12.08V0.85z"/>
	<path class="st0" d="M131.4,0.85h12v3.77h-7.26V8.5h6.91v3.77h-6.91v4.12h7.34v3.77H131.4V0.85z"/>
	<path class="st1" d="M9.73,7.17c0-0.66-0.18-1.19-0.52-1.61L8.68,9.27C8.7,9.25,8.73,9.24,8.75,9.22C9.4,8.72,9.73,8.04,9.73,7.17z
		"/>
	<polygon class="st1" points="38.82,6.72 38.6,7.47 39.24,7.31 	"/>
	<polygon class="st1" points="5.1,4.5 5.73,4.5 0.36,3.59 0.36,8.53 5.1,6.62 	"/>
	<path class="st1" d="M8.42,4.95L8.39,4.95C8.4,4.95,8.41,4.96,8.42,4.97L8.42,4.95z"/>
	<path class="st1" d="M5.1,13.63H5.6c0.55,0,1.08-0.03,1.6-0.09l0.54-3.82C7.22,9.88,6.61,9.98,5.89,9.98H5.1V7.55L0.36,9.46v7.42
		l4.74-1.17V13.63z"/>
	<polygon class="st1" points="0.36,20.15 5.1,20.15 5.1,16.3 0.36,17.47 	"/>
	<path class="st1" d="M8.96,1.17c-0.94-0.2-1.95-0.32-3.05-0.32H0.36v1.87L8.54,4.1L8.96,1.17z"/>
	<path class="st1" d="M13.97,5.02c-0.08-0.24-0.18-0.47-0.29-0.69c-0.41-0.79-0.99-1.44-1.74-1.96c-0.61-0.42-0.99-0.66-1.8-0.91
		L9.73,4.33L13.97,5.02z"/>
	<path class="st1" d="M9.73,7.17c0,0.87-0.33,1.56-0.98,2.06C8.73,9.24,8.7,9.25,8.68,9.27l-0.59,4.14
		c0.32-0.06,0.64-0.13,0.95-0.21c1.06-0.29,1.98-0.71,2.76-1.26c0.78-0.55,1.39-1.23,1.83-2.04c0.44-0.81,0.67-1.73,0.67-2.75
		c0-0.43-0.04-0.82-0.11-1.2L9.27,5.1L9.21,5.56C9.55,5.97,9.73,6.51,9.73,7.17z"/>
	<polygon class="st1" points="16.52,6.7 16.52,13.49 21.26,12.32 21.26,7.5 	"/>
	<polygon class="st1" points="28.35,20.15 28.35,16.38 24.48,16.38 23.07,20.15 	"/>
	<polygon class="st1" points="16.52,20.15 22.36,20.15 23.78,16.38 21.26,16.38 21.26,12.63 16.52,13.8 	"/>
	<polygon class="st1" points="21.26,0.85 16.52,0.85 16.52,5.45 21.26,6.25 	"/>
	<polygon class="st1" points="42.43,10.25 49.24,20.06 45.7,10.81 	"/>
	<polygon class="st1" points="39.5,4.5 40.27,7.06 44.06,6.12 42.1,0.85 36.9,0.85 36.5,1.92 39.14,5.68 	"/>
	<polygon class="st1" points="38.6,7.47 38.82,6.72 36.14,2.9 34.09,8.43 34.46,8.49 	"/>
	<polygon class="st1" points="37.02,12.64 37.84,9.94 34.49,9.37 33.66,9.58 30.91,16.97 38.41,12.64 	"/>
	<polygon class="st1" points="35.44,8.77 38.1,9.11 38.41,8.07 	"/>
	<polygon class="st1" points="41.32,10.53 41.96,12.64 40.14,12.64 30.44,18.24 29.73,20.15 34.62,20.15 35.8,16.41 43.17,16.41 
		44.39,20.15 48.25,20.15 41.52,10.56 	"/>
	<polygon class="st1" points="45.65,10.39 44.17,6.37 40.47,7.28 42.02,9.77 	"/>
	<path class="st1" d="M60.86,0.86c-1-0.24-2.05-0.36-3.15-0.36c-2.16,0-3.85,0.49-5.07,1.48c-0.78,0.63-1.31,1.44-1.59,2.43
		l11.76-2.9C62.24,1.25,61.59,1.04,60.86,0.86z"/>
	<path class="st1" d="M59.39,14.82c0,0.67-0.49,1.4-1.01,1.7l2.99,2.87c0.19-0.13,0.62-0.52,0.79-0.67c0.64-0.55,1.12-1.2,1.46-1.94
		c0.34-0.74,0.51-1.54,0.51-2.39c0-0.83-0.15-1.56-0.45-2.17c-0.1-0.21-0.2-0.32-0.33-0.51l-3.96,2.95
		C59.41,14.73,59.39,14.73,59.39,14.82z"/>
	<path class="st1" d="M51.59,15.51l-0.95,3.62c0.23,0.11,0.48,0.2,0.72,0.3l3.78-2.81c-0.44-0.06-0.86-0.14-1.26-0.26
		C53.02,16.13,52.26,15.84,51.59,15.51z"/>
	<path class="st1" d="M50.81,6.27c0,1.43,0.43,2.6,1.3,3.52c0.87,0.92,2.24,1.74,4.13,2.45c1.2,0.45,2.02,0.87,2.47,1.26
		c0.1,0.09,0.18,0.18,0.26,0.27l3.82-2.84c-0.11-0.12-0.21-0.26-0.34-0.37c-0.52-0.48-1.14-0.91-1.85-1.28
		c-0.71-0.37-1.47-0.72-2.28-1.04c-0.56-0.23-1.02-0.43-1.39-0.61c-0.37-0.17-0.65-0.35-0.85-0.52c-0.2-0.17-0.34-0.36-0.42-0.55
		c-0.08-0.19-0.12-0.42-0.12-0.7c0-0.58,0.22-0.99,0.65-1.23c0.43-0.24,1.01-0.36,1.72-0.36c0.85,0,1.67,0.1,2.47,0.3
		c0.8,0.2,1.54,0.47,2.21,0.8l0.7-3.09L50.87,5.34C50.83,5.64,50.81,5.94,50.81,6.27z"/>
	<path class="st1" d="M56.62,16.73c-0.06,0-0.49-0.11-0.54-0.11l-4.14,3.08c0.41,0.13,1.21,0.36,1.65,0.45
		c1.06,0.23,2.12,0.35,3.18,0.35c1.16,0,2.19-0.16,3.09-0.48c0.35-0.12,0.49-0.27,0.8-0.42l-3.11-2.98
		C57.21,16.7,57.02,16.73,56.62,16.73z"/>
	<polygon class="st1" points="75.53,0.85 65.35,0.85 65.35,4.62 70.52,4.62 70.52,5.18 75.57,1.43 	"/>
	<polygon class="st1" points="70.52,20.15 75.26,20.15 75.26,19.67 70.52,15.12 	"/>
	<polygon class="st1" points="76.35,4.62 80.43,4.62 80.43,0.85 77.8,0.85 76.15,1.84 	"/>
	<polygon class="st1" points="75.26,4.62 75.8,4.62 75.64,2.45 70.52,6.26 70.52,14.46 75.26,19 	"/>
	<path class="st1" d="M44.37,6.94"/>
	<path class="st1" d="M50.87,5.34"/>
	<polygon class="st1" points="76.4,0.85 76.39,0.81 76.35,0.85 	"/>
	<path class="st1" d="M9.21,5.56L9.27,5.1L8.42,4.95l0,0.01C8.74,5.12,9.01,5.32,9.21,5.56z"/>
</g>
</svg>
