<?xml version="1.0" encoding="utf-8"?>
<!-- Generator: Adobe Illustrator 23.0.0, SVG Export Plug-In . SVG Version: 6.00 Build 0)  -->
<svg version="1.1" id="图层_1" xmlns="http://www.w3.org/2000/svg" xmlns:xlink="http://www.w3.org/1999/xlink" x="0px" y="0px"
	 viewBox="0 0 31 21" style="enable-background:new 0 0 31 21;" xml:space="preserve">
<style type="text/css">
	.st0{fill:#FFFFFF;}
</style>
<g>
	<path class="st0" d="M28.5,4.79l-26,0c-1.1,0-2-0.9-2-2v0c0-1.1,0.9-2,2-2l26,0c1.1,0,2,0.9,2,2v0C30.5,3.89,29.6,4.79,28.5,4.79z"
		/>
	<path class="st0" d="M28.5,12.79h-26c-1.1,0-2-0.9-2-2v0c0-1.1,0.9-2,2-2h26c1.1,0,2,0.9,2,2v0C30.5,11.89,29.6,12.79,28.5,12.79z"
		/>
	<path class="st0" d="M28.5,20.79h-26c-1.1,0-2-0.9-2-2v0c0-1.1,0.9-2,2-2h26c1.1,0,2,0.9,2,2v0C30.5,19.89,29.6,20.79,28.5,20.79z"
		/>
</g>
</svg>
