<?xml version="1.0" encoding="utf-8"?>
<!-- Generator: Adobe Illustrator 23.0.0, SVG Export Plug-In . SVG Version: 6.00 Build 0)  -->
<svg version="1.1" id="图层_1" xmlns="http://www.w3.org/2000/svg" xmlns:xlink="http://www.w3.org/1999/xlink" x="0px" y="0px"
	 viewBox="0 0 1366 453" style="enable-background:new 0 0 1366 453;" xml:space="preserve">
<style type="text/css">
	.st0{fill:#6F8DA9;}
	.st1{clip-path:url(#SVGID_1_);}
	.st2{fill:#FFFFFF;}
	.st3{fill:#E1EAEA;}
	.st4{fill:#D2D8D8;}
	.st5{opacity:5.000000e-02;}
	.st6{fill:#5A809A;}
	.st7{fill:#ADD4E2;}
	.st8{fill:#ABD35F;}
	.st9{fill:none;stroke:#1D1D1B;stroke-width:0.636;stroke-linecap:round;stroke-linejoin:round;}
	.st10{fill:#FFC1AB;}
	.st11{fill:#898989;}
	.st12{fill:none;}
	.st13{clip-path:url(#SVGID_2_);}
	.st14{fill:#5A809A;stroke:#5A809A;stroke-width:7.0051;stroke-miterlimit:10;}
</style>
<g>
	<rect y="1" class="st0" width="1366" height="452"/>
	<g>
		<defs>
			<rect id="SVGID_5_" x="175.8" width="1015" height="453"/>
		</defs>
		<clipPath id="SVGID_1_">
			<use xlink:href="#SVGID_5_"  style="overflow:visible;"/>
		</clipPath>
		<g class="st1">
			<rect x="175.9" y="-201.6" class="st2" width="1015.4" height="1016.9"/>
			<path class="st2" d="M1131.8-7.3l-5.1-10.8l-17.5-14.3l-29.2-13.8c-1.9-7.9-4.5-16.4-8-25.6c-6-15.6-12.7-25.4-21.2-35l68.9-97.2
				h-28.3l-55.5,79.2c-14.3-20.1-37-24.5-43.4-25c-10.2-0.8-78.9,0.8-85.9,65.7c-2.3,21.8-1.1,40.7,1.9,60
				c8.9,57.2,23.5,71.2,23.5,71.2l-78.7,284.7l-54,99.8l-20.3,24.2l-175,233.9l36.4-10.2l62.4-85.2l125.7-166.5l13.3-19.1l27.9-50.4
				l60.3-210.8l55.9-48.9c0,0,10.4,12.7,36.2,3.8c29.1-10,51.2-43.5,53.3-58.3l0,0l68.6-36.4l47,71.2V1.6L1131.8-7.3z M1082.6,12.1
				c1.3-9,2.2-19.3,1.5-31.4l16.6,7.8l5.4,9.5L1082.6,12.1z"/>
			<polygon class="st3" points="222.9,813.3 311.1,696 419.1,812.9 			"/>
			<polygon class="st3" points="175.3,600.6 229.2,650.2 269.9,666.1 290.8,680.7 195,812.9 175.3,812.9 			"/>
			<path class="st3" d="M175.3,255.5"/>
			<path class="st4" d="M241.3,118.9c0,0-7.6,115.3-8.5,137.7c-0.8,22.5-2.5,111-2.5,111l235.8,7.6l-16.5-253.4l-75.8,16.1
				L241.3,118.9z"/>
			<polygon class="st3" points="175.3,255.5 208.3,257.4 207,365.5 175.3,365.5 			"/>
			<polygon class="st3" points="175.3,386.5 193,387.7 175.3,412.5 			"/>
			<g>
				<g class="st5">
					<path d="M1121.8,5.7L1116.3-6l-31.7-20c0,0,3.7,17,2.9,25.7c-0.6,6.3-4.9,27.8-4.9,27.8L1121.8,5.7z"/>
				</g>
				<g>
					<path class="st6" d="M1118,1.9l-5.6-11.8l-31.7-20c0,0,3.7,17,2.9,25.7c-0.6,6.3-4.9,27.8-4.9,27.8L1118,1.9z"/>
				</g>
			</g>
			<g>
				<g class="st5">
					<polygon points="949.3,66.8 972.4,93.2 930.9,128.6 					"/>
				</g>
				<g>
					<polygon class="st6" points="945.5,62.9 968.5,89.4 927.1,124.8 					"/>
				</g>
			</g>
			<polygon class="st3" points="656.6,75 752.4,50.9 765.1,373.7 662.3,371.8 			"/>
			<polygon class="st3" points="1131.5,513.6 1155.6,617.8 1191.2,610.8 1191.2,497 			"/>
			<g>
				<polygon class="st3" points="175.3,85.2 220.3,92.2 261.6,-204 175.3,-204 				"/>
				<polygon class="st4" points="186.4,-60.4 236.2,-55.9 243.8,-128 195,-131.9 				"/>
				<polygon class="st4" points="195.7,-135.4 243.8,-131.4 249.2,-170.9 200.3,-176.4 				"/>
				<polygon class="st4" points="200.8,-180 249.2,-174.8 253.4,-204 203.5,-204 				"/>
				<polygon class="st4" points="201.9,-204 196.4,-160.3 175.3,-162.8 175.3,-204 				"/>
				<polygon class="st4" points="175.3,-160.9 195.4,-157.6 183.2,-53.8 175.3,-55 				"/>
				<polygon class="st4" points="175.3,-53.2 182.7,-51.9 179.9,-31 175.3,-31.4 				"/>
			</g>
			<g>
				<path class="st3" d="M243.2,95.4l118.7,15.9l34.9-264.4c0,0-40.6-25.4-67.9-50.8h-44.4L243.2,95.4z"/>
				<polygon class="st4" points="305.1,-174.1 345.4,-170.6 346.7,-186.5 330.8,-200.5 307.3,-201.8 				"/>
				<polygon class="st4" points="304.8,-170.9 345,-167.3 342.3,-132 301.2,-135.6 				"/>
				<path class="st4" d="M361.1-163.7l18.2,1.7c0,0,8.3,7,13.1,9.5l-9.7,80.3L352-75.6L361.1-163.7z"/>
				<polygon class="st4" points="299.7,-112.3 342.3,-106.8 337.8,-66.7 295.3,-71.4 				"/>
				<polygon class="st4" points="294.9,-68.4 336.8,-63.5 332.3,-19.7 289.6,-25.2 				"/>
				<polygon class="st4" points="346.5,-53.8 379.5,-49.6 369.1,28.2 335.5,23.1 				"/>
				<polygon class="st4" points="280.5,-9.1 272.2,61 312.8,66.5 321.1,-3.2 				"/>
			</g>
			<g>
				<polygon class="st3" points="175.3,233.3 208.3,233.9 218.4,115.7 175.3,108.7 				"/>
				<polygon class="st4" points="175.3,116.3 210.8,118.5 208.5,167.2 175.3,165.9 				"/>
				<polygon class="st4" points="175.3,168.9 207.2,169.9 204.7,215.5 175.3,213.6 				"/>
			</g>
			<g>
				<path class="st3" d="M548.6-106.8l78.7-97.2H369.6c0,0,40.6,33.1,54.6,40S548.6-106.8,548.6-106.8z"/>
				<path class="st4" d="M553.1-119c0-0.8,68.4-85,68.4-85H551l-49.7,66.1L553.1-119z"/>
				<polygon class="st4" points="482,-145.5 522.4,-204 385.4,-204 410,-185.8 				"/>
			</g>
			<g>
				<path class="st3" d="M574-99.8c0,0,83.8,28,94.6,38.8l113-143H652.8L574-99.8z"/>
				<polygon class="st4" points="591.2,-102.7 586.1,-109.1 657.2,-204 704.8,-204 625,-96.4 				"/>
				<polygon class="st4" points="628.2,-95.7 708,-204 744,-204 763.2,-188.7 682.6,-84.7 669.9,-78.4 				"/>
			</g>
			<g>
				<path class="st3" d="M963.9-204l13.4,54.9c0,0,38.6-4,58.9,24.6l55.2-79.4H963.9z"/>
				<polygon class="st4" points="1053.2,-153.8 1087.5,-204 1028.2,-204 1012.4,-182 				"/>
			</g>
			<g>
				<path class="st3" d="M1050.9-106.8l69.2-97.2h70.6v113.8l-81.4,57.8l-29.8-14C1079.4-46.4,1073.1-83.9,1050.9-106.8z"/>
				<polygon class="st4" points="1074.4,-133.5 1095.3,-164.4 1126.9,-140.4 1104,-111 				"/>
				<polygon class="st4" points="1106.7,-109.3 1128.6,-138.5 1141.5,-127.3 1150.8,-134.1 1177.9,-90.9 1123.7,-52.1 1098.9,-64.6 
					1099.6,-89.6 1113.9,-101 				"/>
				<polygon class="st4" points="1153.3,-135.6 1180,-92.3 1191.2,-99.8 1191.2,-137.9 1179.8,-157.2 				"/>
			</g>
			<g>
				<polygon class="st3" points="1127.1,-17.8 1191.2,-67.3 1191.2,1.3 1131.5,-7 				"/>
				<polygon class="st4" points="1157.1,-36.8 1191.2,-64.8 1191.2,-10.8 1173.8,-11.4 				"/>
			</g>
			<g>
				<path class="st3" d="M1043.3,90.3c0,0,27.9-23.9,32.3-46.2l21-12.3l47.6-24.2l47,71.2v120.8l-122.5,31.8L1043.3,90.3z"/>
				<path class="st4" d="M1050.1,98.4l9.9,24.5l53.3-26.1l13.3,34.7l-57.6,20.1l7.4,60.6l46.1-3l-7-46.8l41.3-3.4l9.3,34.7l25-1.9
					V83.6l-48.1-72l-46.5,23.6c0,0-4.4,14.7-10,23.8C1075.3,77.1,1050.1,98.4,1050.1,98.4z"/>
			</g>
			<g>
				<polygon class="st3" points="473.1,120.1 631.8,82.6 639.4,371.8 488.9,375.7 				"/>
				<polygon class="st4" points="498,131.4 512,114.4 538,110 542.7,145.6 542.9,156 499.9,157.2 				"/>
				<polygon class="st4" points="540.8,109.6 546.5,154.9 573.4,155.3 573.4,145.1 576.6,144.3 569.2,105.1 				"/>
				<polygon class="st4" points="571.3,104.9 578.7,143.5 610.2,142.6 601.5,100 				"/>
				<polygon class="st4" points="604.5,99.4 613.4,141.8 632,141.8 631,92.6 				"/>
				<polygon class="st4" points="598.1,145.1 642.8,143.9 644.3,212.3 597.3,213.8 				"/>
				<path class="st4" d="M562.6,158.5l1.3,35.8l-62.4,1.7c0,0-0.6-36.4,0-36.4S562.6,158.5,562.6,158.5z"/>
				<polygon class="st4" points="605.6,216.1 643.9,214.8 644.9,282.9 607,282 				"/>
				<polygon class="st4" points="607.9,284.8 644.7,285.2 645.1,308.3 592.9,309.1 592.9,301.1 607.9,300.7 				"/>
				<polygon class="st4" points="607.5,325 607.5,310.4 633.9,310.2 634.6,321.8 645.3,321.8 645.8,332.9 593.3,333.7 593.1,325.7 
									"/>
				<polygon class="st4" points="608.1,345.8 607.9,335 635.4,335 636,344.5 645.8,344.1 646.6,356.2 593.5,357.6 593.5,346.4 				
					"/>
				<polygon class="st4" points="567.5,310.2 569.4,357 591.8,357.2 591,310.4 				"/>
				<polygon class="st4" points="567.5,337.9 567.5,358.1 512,358.5 512,339.4 				"/>
				<polygon class="st4" points="566.6,335.2 566,306.4 510.7,307.6 511.6,337.3 				"/>
				<polygon class="st4" points="510.9,304.9 565.3,304 564.9,284.1 510.5,285.2 				"/>
				<polygon class="st4" points="510.1,282.9 565.1,281.8 564.1,257.6 509.7,258.9 				"/>
				<polygon class="st4" points="509.5,255.3 564.5,254.9 563.6,230.5 508.4,231.2 				"/>
				<polygon class="st4" points="508.6,228.8 552,228.2 551,197.1 507.8,197.7 				"/>
			</g>
			<g>
				<path class="st3" d="M913.3,0.1c0,0,7,32.8,18.8,47l-36.8,136.7l-41.9,148.1L829.9,382l-30.5,49.6l-10.2-43.9L776.6,43.9
					L913.3,0.1z"/>
				<polygon class="st4" points="814.5,38.6 823.6,68 788.2,68.7 787.6,45.1 				"/>
				<polygon class="st4" points="788,71.6 823.6,70.8 826.7,79 815.9,85 815.3,105.5 824.6,105.5 825.3,118.5 813.8,118.5 
					813.6,121 789.1,120.4 				"/>
				<path class="st4" d="M817.4,37.9l11.4,39.2l38.1-6.8l-4.4,12.3l56.5,2.8l9.3-35.2c0,0-6.8-4.2-17.6-36.7L817.4,37.9z"/>
				<polygon class="st4" points="861.4,84.8 918.8,88.4 913.5,108.5 853.8,104 				"/>
				<polygon class="st4" points="853,106.2 912.5,110.4 907.8,127.1 845.1,124.4 				"/>
				<polygon class="st4" points="844.3,126.5 906.7,129.3 901.9,144.3 838.4,140.1 				"/>
				<polygon class="st4" points="837.7,142.6 900.6,146.4 896.2,161.9 836,158.1 				"/>
				<polygon class="st4" points="835.4,161 895.1,164.2 893,182.2 835.2,178 				"/>
				<polygon class="st4" points="834.8,180.3 891.9,184.1 886.2,203.4 833.1,202.6 				"/>
				<polygon class="st4" points="821.4,205.7 886,205.7 875.8,242.4 823.3,236.9 				"/>
				<polygon class="st4" points="823.8,239.2 874.6,244.1 863.1,284.3 826.9,283.1 				"/>
				<polygon class="st4" points="827.2,285.4 862.3,286.7 848.7,331.4 830.3,328.8 				"/>
				<polygon class="st4" points="791,323.3 849.2,333.9 845.6,342.4 837.1,360 791.4,352.1 				"/>
				<polygon class="st4" points="791,320.1 824.6,326.5 819.7,269.5 789.3,271.2 				"/>
				<polygon class="st4" points="789.3,268.9 819.1,267.4 817,233.3 787.6,234.8 				"/>
				<polygon class="st4" points="790.5,201.9 817.8,200.2 815.5,160.4 789.5,161 				"/>
				<polygon class="st4" points="790.1,158.3 815.3,157.9 813.4,123.3 789.3,122.5 				"/>
			</g>
			<g>
				<path class="st3" d="M1022.3,102.4l35.6,216.1l21,69.3l-198.7,46.4L842,408.7l28.6-53.4l59.7-207.8l55.9-48.9
					C986.1,98.5,1005.2,107.4,1022.3,102.4z"/>
				<path class="st4" d="M931.3,213.8c0,0,78.9-16.9,78.7-17.6c-0.2-0.6-6.6-42.2-6.6-42.2l18-3.2l-5.9-36.9c0,0-16.3,2.1-26.5-2.5
					l-44.9,34.1l-21.6,63.3L931.3,213.8z"/>
				<polygon class="st4" points="980,205.1 1026.1,195.1 1035.8,234.8 988,245.8 				"/>
				<polygon class="st4" points="978.7,250.2 1041.6,236.7 1048.1,285 990.1,298.5 				"/>
				<polygon class="st4" points="990.6,301.5 1049.6,288.4 1052.4,304 993.1,316.8 				"/>
				<polygon class="st4" points="990.8,319.9 1052.4,306.8 1053.8,318 1062.9,349.8 1000.9,364.4 				"/>
				<path class="st4" d="M1001.1,367.6l61.4-14.4c0,0,8.7,34.3,8.7,33.7s-61.4,14.2-61.4,14.2L1001.1,367.6z"/>
				<polygon class="st4" points="947,365.5 946.5,349.8 968.3,346 964.5,324.4 988.6,318 970.4,235.2 919.2,238.8 872.9,367.8 
					885.4,427.6 1006.6,401.9 996.1,355.3 				"/>
			</g>
			<polygon class="st4" points="717.8,291.1 765.1,289.2 765.8,294 718.5,327 			"/>
			<polygon class="st4" points="721.2,286.8 768,286.4 766.1,234.2 718.5,236 			"/>
			<polygon class="st4" points="718.5,233.9 766.3,232.6 765.3,194.5 717.2,196.7 			"/>
			<polygon class="st4" points="730.9,194 765,192.6 762.6,122.8 728.2,122.8 			"/>
			<polygon class="st4" points="665.9,121.9 762,121.4 760.2,93.3 714.2,95.2 713.7,73.9 664.8,75.3 			"/>
			<polygon class="st4" points="710.5,54.5 714.3,67.1 736.7,61 733.1,48.6 			"/>
			<polygon class="st4" points="666.4,124 717.7,123.6 718.8,161.1 666.2,162.7 			"/>
			<polygon class="st4" points="707.7,217.1 707.8,197.2 715.6,197.2 716.4,234.2 668.9,234.9 668.8,219 			"/>
			<polygon class="st4" points="668.8,236.8 715.8,236 717.7,287.8 670.9,289.2 			"/>
			<g>
				<polygon class="st4" points="1071.8,252.8 1081.6,316.3 1100.2,381.6 1191.2,361.2 1191.2,223.5 				"/>
				<polygon class="st4" points="1161.1,236 1174.5,287.1 1191.2,282.6 1191.2,226.9 				"/>
				<polygon class="st4" points="1180.4,312.3 1191.2,309.6 1191.2,361.2 				"/>
				<polygon class="st4" points="1182.7,332.4 1189.1,361 1155.6,369.1 1153.5,357.9 1171.9,353.2 1169,335.8 				"/>
				<polygon class="st4" points="1149.9,350.7 1153.9,369.3 1113.5,378.6 1111.2,367.8 1124.1,364.6 1118,337.1 1139.1,332.2 
					1143.8,351.9 				"/>
			</g>
			<g>
				<polygon class="st3" points="1084.5,411.2 1102.3,494.5 916.3,544.1 893.4,453.8 				"/>
				<polygon class="st4" points="993.5,428 1073.9,411.2 1091.9,494.3 1013.8,515.3 				"/>
				<polygon class="st4" points="895.1,447.7 908.9,498.7 948.2,488.8 936.8,438.4 				"/>
				<polygon class="st4" points="910.1,502.1 967.3,487.7 976.8,524 918.4,539.6 				"/>
			</g>
			<g>
				<polygon class="st3" points="702.9,594.3 828.6,427.8 875,455.7 893.4,546 				"/>
				<polygon class="st4" points="824.6,464.8 871.6,456.4 881.6,505.3 839,516.8 				"/>
				<polygon class="st4" points="822.3,465.1 819.5,465.3 799.2,502.8 807.1,534.1 839.2,526.7 				"/>
				<polygon class="st4" points="840.1,519.3 842.8,528.8 861.4,525.2 863.6,535.4 855.9,537.7 859.5,550.6 890.2,543.9 
					881.3,507.9 				"/>
				<polygon class="st4" points="809.6,543.7 833.1,537.9 838,556.2 814.7,563.1 				"/>
				<polygon class="st4" points="812.6,563.4 797.3,504.5 759.6,568.2 761.5,577.1 				"/>
			</g>
			<g>
				<polygon class="st3" points="324.5,678.2 454,812.9 514.3,812.9 552.5,757.6 391.2,588.6 				"/>
				<polygon class="st4" points="376.2,632.7 400.7,602.9 433.1,637.5 403.5,663.6 				"/>
				<polygon class="st4" points="374,634.3 408.3,673.7 374,705.5 343.2,672.2 				"/>
				<polygon class="st4" points="421.3,683.9 436.6,671.5 447.7,683.9 463.9,669.6 434.3,640.1 406.4,665.2 				"/>
				<polygon class="st4" points="443.2,692.2 465.1,671.2 481,687.7 458.1,707.7 				"/>
				<polygon class="st4" points="459.4,710 482.6,689.6 496.2,703.9 473.4,724.9 				"/>
				<polygon class="st4" points="468.6,733.2 498.5,705.8 512.7,721.1 480.4,748.1 				"/>
				<polygon class="st4" points="482.9,750 514.3,723.3 539.4,748.7 541,760.8 498.1,810.7 466.4,810.7 449.3,791.3 488.9,757.6 
									"/>
			</g>
			<g>
				<polygon class="st3" points="1106.1,405.5 1191.2,385.2 1191.2,476.1 1125.8,490.1 				"/>
				<polygon class="st4" points="1119.2,404.3 1168.1,393.2 1173.2,415.7 1123.9,427.3 				"/>
				<polygon class="st4" points="1134.5,428.2 1176.8,418 1180.4,432.6 1191.2,430.5 1191.2,473.1 1146.5,482.6 				"/>
			</g>
			<g>
				<path class="st3" d="M900.4,563.8l24.1,112.5l-113.7,25.4c0,0-31.7,8.9-55.2,41.3s-66.7,69.9-66.7,69.9H541.6l139.7-190.7
					L900.4,563.8z"/>
				<polygon class="st4" points="898.7,566.3 909.1,618.9 876.7,626.1 866.1,575 				"/>
				<polygon class="st4" points="864.2,575.2 874.8,627.8 838.2,636 824.2,586.2 				"/>
				<polygon class="st4" points="822.5,586.9 833.5,629.7 807.3,636 796.7,593.9 				"/>
				<polygon class="st4" points="794.8,594.3 804.7,637.1 796.3,639.2 786.5,596.6 				"/>
				<polygon class="st4" points="784.6,597.3 794.4,639.2 784.4,642 774.2,599.6 				"/>
				<polygon class="st4" points="772.1,600.2 782.7,642.6 768.7,646.8 766,637.1 758.8,633.7 763.2,624.4 756.7,604 				"/>
				<polygon class="st4" points="754.1,604.9 760.1,624 756,633.3 761.3,637.3 753.3,645.6 722.6,625.6 734.9,609.5 				"/>
				<polygon class="st4" points="721.1,627.8 750.5,647 727.5,672.5 703.1,651.9 				"/>
			</g>
			<g>
				<polygon class="st3" points="920.1,561.9 948,672.5 1133.4,624.8 1108,519.9 				"/>
				<path class="st4" d="M1050.2,535.8l48.3-11.2c0,0,10.4,49.4,10.6,48.7c0.2-0.6-48.5,10.4-48.5,10.4L1050.2,535.8z"/>
				<polygon class="st4" points="1018.3,592.8 1005.2,545.4 962.8,555.3 977,604.5 				"/>
				<path class="st4" d="M960.7,554.7l7.4,27.8c0,0-37.5,11.4-37.5,10.8c0-0.6-7.4-29.4-7.4-29.4L960.7,554.7z"/>
				<polygon class="st4" points="931.7,596.2 969,585.4 981.5,631.8 944.4,643.2 				"/>
				<polygon class="st4" points="1061.7,587.9 1109.9,576.8 1119.4,623.5 1071.8,635.3 				"/>
				<polygon class="st4" points="986.1,634.3 991.5,655.3 949.6,665.5 944.8,645.8 				"/>
			</g>
			<g>
				<g>
					<g class="st5">
						<path d="M974.1-117.6c14-4.4,44.4-6.4,67.9,36.2c23.5,42.6,24.1,50.2,25.4,73.7c1.3,23.5-5.1,50.8-19,71.2
							c-14,20.3-29.2,22.2-48.9,16.5c-19.7-5.7-43.2-39.4-52.7-62.3S934.7-54.6,936-72.4C937.2-90.2,949.9-109.9,974.1-117.6z"/>
					</g>
					<g>
						<path class="st6" d="M967.7-123.9c14-4.4,44.4-6.4,67.9,36.2c23.5,42.6,24.1,50.2,25.4,73.7c1.3,23.5-5.1,50.8-19,71.2
							c-14,20.3-29.2,22.2-48.9,16.5s-43.2-39.4-52.7-62.3S928.3-61,929.6-78.8C930.9-96.6,943.6-116.3,967.7-123.9z"/>
					</g>
				</g>
				<path class="st7" d="M994.4-31.8c18.8-5,32.1,6.7,36.5,22.6s3.2,35.6-8.3,48c-11.4,12.4-26,11.4-40-3.8S964.5-23.8,994.4-31.8z"
					/>
			</g>
			<g>
				<g>
					<path class="st3" d="M687-45.1c0,0,40.6,43.9,55.9,72.5l165.7-51.5c0,0-8.9-47,3.2-79.4c12.1-32.4,43.2-40.7,43.2-40.7L941-204
						H809.6L687-45.1z"/>
					<polygon class="st4" points="783.1,-157.8 810.6,-193.6 862.7,-155.1 836.7,-120.5 					"/>
					<polygon class="st4" points="866.3,-154.6 890.7,-187.7 928.3,-161.8 902.9,-126.5 					"/>
					<polygon class="st4" points="863.3,-169.3 881.1,-192.6 863.6,-204 843.5,-204 834.1,-187.9 					"/>
					<polygon class="st4" points="761.3,-68.6 775.3,-51.9 792.7,-64.2 809.4,-43 840.7,-65.4 813.2,-100.2 783.1,-77.1 
						778.5,-82.4 					"/>
					<polygon class="st4" points="835.4,-90.2 851.1,-110.4 863.8,-100.8 872.2,-109.9 904.2,-86.4 880.1,-56.1 					"/>
				</g>
				<ellipse class="st8" cx="710.7" cy="-44.6" rx="7.5" ry="7.5"/>
				<ellipse class="st8" cx="730.4" cy="-72.9" rx="7.5" ry="7.5"/>
				<ellipse class="st8" cx="749.6" cy="-97.5" rx="7.5" ry="7.5"/>
				<ellipse class="st8" cx="770.9" cy="-124.6" rx="7.5" ry="7.5"/>
				<ellipse class="st8" cx="727.8" cy="-21.7" rx="7.5" ry="7.5"/>
				<ellipse class="st8" cx="746.7" cy="3.2" rx="7.5" ry="7.5"/>
				<ellipse class="st8" cx="781.3" cy="-6.3" rx="7.5" ry="7.5"/>
				<ellipse class="st8" cx="814.4" cy="-15.9" rx="7.5" ry="7.5"/>
				<ellipse class="st8" cx="848" cy="-26.4" rx="7.5" ry="7.5"/>
				<ellipse class="st8" cx="883.2" cy="-36.2" rx="7.5" ry="7.5"/>
			</g>
			<g>
				<g>
					<polygon class="st3" points="487.7,397.9 458.5,488.1 405.8,567 480.7,645.8 673.7,395.4 					"/>
					<polygon class="st4" points="422.1,561.5 486.6,628.2 555.4,535 518.6,508.3 509.3,521.4 476.7,497.5 					"/>
					<polygon class="st4" points="520.3,506.4 533.4,490.1 568.5,516.3 556.2,533.3 					"/>
					<polygon class="st4" points="534.9,487.9 546.5,473.1 581.4,499 568.9,514.8 					"/>
					<polygon class="st4" points="547.7,472 559.9,456.7 593.7,481.9 582.4,497.5 					"/>
					<polygon class="st4" points="560.8,455.2 573.8,437.8 607.9,463 594.3,480.9 					"/>
					<path class="st4" d="M574.9,436.3c0.3-0.3,13.3-16.3,13.3-16.3l32.9,24.2l-12.5,17.6L574.9,436.3z"/>
					<polygon class="st4" points="589.6,419 600.4,405.9 632.1,429.5 622,443 					"/>
					<polygon class="st4" points="601.6,404.4 608,396.9 635.2,397 640,418.9 633.2,427.5 					"/>
					<polygon class="st4" points="506.9,404 503.5,438.4 523.4,440.5 529.6,403.8 					"/>
				</g>
				<ellipse class="st8" cx="491.9" cy="452.8" rx="7.5" ry="7.5"/>
				<ellipse class="st8" cx="522.4" cy="458.7" rx="7.5" ry="7.5"/>
				<ellipse class="st8" cx="504.6" cy="493.9" rx="7.5" ry="7.5"/>
			</g>
			<g>
				<polygon class="st3" points="243.8,391.5 464.2,397.9 438.5,476.7 388.6,551.1 				"/>
				<polygon class="st4" points="403.4,397.9 442.8,399.4 452.3,408.9 442.8,449.2 391.2,436.9 				"/>
				<ellipse class="st8" cx="424.5" cy="466.5" rx="7.5" ry="7.5"/>
				<ellipse class="st8" cx="407.3" cy="494.8" rx="7.5" ry="7.5"/>
				<ellipse class="st8" cx="390.8" cy="519.9" rx="7.5" ry="7.5"/>
				<ellipse class="st8" cx="365.1" cy="497.7" rx="7.5" ry="7.5"/>
				<ellipse class="st8" cx="342.6" cy="476.1" rx="7.5" ry="7.5"/>
				<ellipse class="st8" cx="320.4" cy="453.2" rx="7.5" ry="7.5"/>
				<ellipse class="st8" cx="298.4" cy="430.6" rx="7.5" ry="7.5"/>
				<ellipse class="st8" cx="277.5" cy="408.4" rx="7.5" ry="7.5"/>
			</g>
			<g>
				<g>
					<path class="st3" d="M419.1-139.2c0,0,69.2,37.5,118.7,54s113.7,34.3,130.2,54c16.5,19.7,48.9,64.2,48.9,64.2
						S475,105.5,387.3,111.9L419.1-139.2z"/>
					<polygon class="st4" points="430.1,-30.7 423.5,36.5 452.7,70.1 528.5,54 514.1,3.6 492.3,9.6 499.1,35.6 489.4,38.6 
						451.5,3.6 455.5,-5.5 481.1,-4.6 481.7,-24.3 					"/>
					<polygon class="st4" points="429.7,-54.8 462.3,-51.7 468.6,-111.6 435.6,-115 					"/>
					<polygon class="st4" points="483.6,-94.3 477.7,-49.8 517.7,-43 526.2,-85.8 					"/>
				</g>
				<ellipse class="st8" cx="549.3" cy="-64.8" rx="7.2" ry="7.2"/>
				<ellipse class="st8" cx="578.1" cy="-54.3" rx="7.2" ry="7.2"/>
				<ellipse class="st8" cx="609.9" cy="-44.8" rx="7.2" ry="7.2"/>
				<ellipse class="st8" cx="644.2" cy="-27.3" rx="7.2" ry="7.2"/>
				<ellipse class="st8" cx="670.2" cy="-2.5" rx="7.2" ry="7.2"/>
				<ellipse class="st8" cx="690.2" cy="22.9" rx="7.2" ry="7.2"/>
				<ellipse class="st8" cx="657.2" cy="33.7" rx="7.2" ry="7.2"/>
				<ellipse class="st8" cx="628" cy="42.3" rx="7.2" ry="7.2"/>
				<ellipse class="st8" cx="593.4" cy="50.6" rx="7.2" ry="7.2"/>
				<ellipse class="st8" cx="559.1" cy="60.1" rx="7.2" ry="7.2"/>
			</g>
			<g>
				<polygon class="st3" points="307.3,659.8 374,569.5 216.5,397.9 175.3,450 175.3,568.9 250.2,635 283.8,643.2 				"/>
				<path class="st4" d="M231.8,403.2l-35.6,26.3l-21,28.2v30.3l8.9-12.9l16.3,9.7l-0.4,12.7l10.8,4l-1.3,9.3l11.9,3l-5.3,27.1
					l23.1,3.4l10.4-61.7l0.4-14.8l-7.2-6.4l5.7-5.1l3.8,4l37,41.9l18.4-13.1L231.8,403.2z M232.6,464.2l-33.4-6.1l21.2-29.7l16.1,14
					L232.6,464.2z"/>
				<ellipse class="st8" cx="195" cy="561.2" rx="7.5" ry="7.5"/>
				<ellipse class="st8" cx="219.7" cy="582.2" rx="7.5" ry="7.5"/>
				<ellipse class="st8" cx="248.3" cy="608.3" rx="7.5" ry="7.5"/>
				<ellipse class="st8" cx="280.7" cy="623.5" rx="7.5" ry="7.5"/>
				<ellipse class="st8" cx="255.3" cy="561.9" rx="7.5" ry="7.5"/>
				<ellipse class="st8" cx="278.1" cy="581.6" rx="7.5" ry="7.5"/>
				<ellipse class="st8" cx="299.7" cy="602.6" rx="7.5" ry="7.5"/>
				<ellipse class="st8" cx="309.2" cy="512.9" rx="7.5" ry="7.5"/>
				<ellipse class="st8" cx="332.1" cy="532" rx="7.5" ry="7.5"/>
				<ellipse class="st8" cx="350.5" cy="550.4" rx="7.5" ry="7.5"/>
				<g>
					<g>
						<path class="st9" d="M312.7,540.5"/>
					</g>
					<g>
						<polygon class="st10" points="312.7,540.5 286.2,516.5 259.6,545.9 286.2,570 313.2,593.6 339.4,563.7 						"/>
					</g>
					<g>
						<path class="st9" d="M286.2,570"/>
					</g>
					<g>
						<path class="st11" d="M286.3,570.3c-0.1,0-0.2,0-0.2,0c-0.1-0.1-0.1-0.2,0-0.3l26.5-29.5c0.1-0.1,0.2-0.1,0.3,0
							c0.1,0.1,0.1,0.2,0,0.3L286.3,570.3C286.3,570.2,286.3,570.2,286.3,570.3z"/>
					</g>
					<g>
						<path class="st11" d="M301.4,559.9c-2.6,1-5.5-0.2-6.6-2.7c-1.2-2.6-0.1-5.7,2.5-7c2.6-1.2,5.7-0.1,7,2.5
							c0.6,1.3,0.7,2.7,0.2,4c-0.5,1.3-1.4,2.4-2.7,3C301.6,559.8,301.5,559.9,301.4,559.9z M297.8,550.6c-0.1,0-0.2,0.1-0.3,0.1
							c-2.4,1.1-3.4,4-2.3,6.3c1.1,2.4,3.9,3.4,6.3,2.3c1.2-0.5,2-1.5,2.5-2.7c0.4-1.2,0.4-2.5-0.2-3.6
							C302.7,550.7,300.1,549.7,297.8,550.6z"/>
					</g>
					<g>
						<path class="st11" d="M276,543.7c-1.2,0.5-2.4,0.7-3.7,0.8c-3.2,0.2-6.3-0.9-8.7-3.1c-0.1-0.1-0.1-0.2,0-0.3
							c0.1-0.1,0.2-0.1,0.3,0c2.3,2.1,5.3,3.1,8.3,2.9c3.1-0.2,5.9-1.5,8-3.8l2.6-2.9c4.2-4.7,3.9-12-0.8-16.2
							c-0.1-0.1-0.1-0.2,0-0.3c0.1-0.1,0.2-0.1,0.3,0c4.9,4.4,5.2,11.9,0.8,16.9l-2.6,2.9C279.3,542,277.7,543.1,276,543.7z"/>
					</g>
					<g>
						<path class="st11" d="M317.3,589.2c-0.1,0-0.2,0-0.2,0c-5-4.3-5.5-11.8-1.1-16.9l2.5-2.9c2.1-2.4,5-3.9,8.2-4.1
							c3.2-0.2,6.3,0.8,8.8,2.9c0.1,0.1,0.1,0.2,0,0.3c-0.1,0.1-0.2,0.1-0.3,0c-2.3-2-5.3-3-8.4-2.8c-3.1,0.2-5.9,1.6-7.9,4
							l-2.5,2.9c-4.1,4.8-3.7,12.1,1.1,16.2C317.5,588.9,317.5,589,317.3,589.2C317.4,589.2,317.3,589.2,317.3,589.2z"/>
					</g>
				</g>
			</g>
			<g>
				<g>
					<polygon class="st3" points="701.6,396 767.7,396 779.1,455.7 567.7,739.2 495.9,663.6 					"/>
					<polygon class="st4" points="558.5,586.7 585.8,554.9 625.5,569.8 611.8,588.9 605.5,585.7 588.9,608.9 					"/>
					<polygon class="st4" points="532.7,619.7 557.2,589.2 586.4,612.1 563.9,646.1 					"/>
					<polygon class="st4" points="562.6,657.9 592.4,615.3 629.3,643.5 598.1,684.2 					"/>
					<polygon class="st4" points="540.4,686.1 564.8,649.6 530.8,622.3 512.4,646.7 512.1,663.9 					"/>
					<polygon class="st4" points="597.2,613.4 635.3,566 669.6,593 630.5,638.1 					"/>
				</g>
				<ellipse class="st8" cx="709.5" cy="412.9" rx="7.5" ry="7.5"/>
				<ellipse class="st8" cx="747.2" cy="410.4" rx="7.5" ry="7.5"/>
				<ellipse class="st8" cx="687.9" cy="437.9" rx="7.5" ry="7.5"/>
				<ellipse class="st8" cx="668" cy="463.8" rx="7.5" ry="7.5"/>
				<ellipse class="st8" cx="648.9" cy="488.4" rx="7.5" ry="7.5"/>
				<ellipse class="st8" cx="626.9" cy="516.3" rx="7.5" ry="7.5"/>
				<ellipse class="st8" cx="607.5" cy="543" rx="7.5" ry="7.5"/>
				<polygon class="st8" points="637.1,547.3 723.4,435.4 755.2,433.7 760.3,453.6 673.5,571.4 				"/>
			</g>
			<polygon class="st8" points="1191.2,46.4 1173,18 1191.2,21.4 			"/>
			<rect x="175.3" y="-204" class="st12" width="1015.9" height="1016.9"/>
			<g>
				<defs>
					<path id="SVGID_7_" d="M241.3,118.9c0,0-7.6,115.3-8.5,137.7c-0.8,22.5-2.5,111-2.5,111l235.8,7.6l-16.5-253.4l-75.8,16.1
						L241.3,118.9z"/>
				</defs>
				<clipPath id="SVGID_2_">
					<use xlink:href="#SVGID_7_"  style="overflow:visible;"/>
				</clipPath>
				<g class="st13">
					<g>
						<path class="st6" d="M341.4,287.5c-22.4,0-40.5-18.4-40.5-41c0-22.6,18.2-41,40.5-41c22.4,0,40.5,18.4,40.5,41
							C382,269.1,363.8,287.5,341.4,287.5z M341.4,211.9c-18.9,0-34.2,15.5-34.2,34.6c0,19.1,15.3,34.6,34.2,34.6
							c18.9,0,34.2-15.5,34.2-34.6C375.6,227.4,360.3,211.9,341.4,211.9z"/>
					</g>
					<line class="st14" x1="341.1" y1="208.8" x2="341.1" y2="131.9"/>
					<g>
						<polygon class="st6" points="370.8,221.2 366.4,216.7 431.9,151.7 451.2,137.3 455,142.4 436.1,156.6 						"/>
					</g>
					<g>
						
							<rect x="416.6" y="206.1" transform="matrix(1.293529e-02 -0.9999 0.9999 1.293529e-02 167.2696 663.5508)" class="st6" width="6.4" height="81.9"/>
					</g>
					<g>
						
							<rect x="272.9" y="112.8" transform="matrix(0.7438 -0.6685 0.6685 0.7438 -44.5162 228.721)" class="st6" width="6.4" height="119.2"/>
					</g>
					<g>
						
							<rect x="229.9" y="243.7" transform="matrix(1 -9.949705e-03 9.949705e-03 1 -2.4433 2.6684)" class="st6" width="74.2" height="6.4"/>
					</g>
					<g>
						<polygon class="st6" points="231.4,370 226.5,366 254,332.7 314.6,273 319.1,277.5 258.6,337.1 						"/>
					</g>
					<g>
						
							<rect x="298.1" y="325.8" transform="matrix(1.409529e-02 -0.9999 0.9999 1.409529e-02 9.1599 667.162)" class="st6" width="89.6" height="6.3"/>
					</g>
					<g>
						<path class="st6" d="M457.6,362.3c-4.6,0-9.6-0.5-13-2.2c-10.3-5.2-72.6-75.7-79.7-83.7l4.8-4.2
							c27.4,31.1,70.8,78.7,77.8,82.2c4.4,2.2,15.4,1.6,21.3,0.7l1,6.3C468.8,361.5,463.5,362.3,457.6,362.3z"/>
					</g>
				</g>
			</g>
		</g>
	</g>
</g>
<g>
	<path class="st6" d="M858,133.7c0-9.7-7.8-17.5-17.5-17.5s-17.5,7.8-17.5,17.5c0,2.6,0.6,5.1,1.6,7.3h0l16,29.8l15.9-29.8h0
		C857.4,138.8,858,136.3,858,133.7L858,133.7z M840.5,142.8c-5.6,0-10.2-4.6-10.2-10.2c0-5.6,4.6-10.2,10.2-10.2s10.2,4.6,10.2,10.2
		C850.7,138.2,846.1,142.8,840.5,142.8L840.5,142.8z M840.5,142.8"/>
</g>
</svg>
