<?xml version="1.0" encoding="utf-8"?>
<!-- Generator: Adobe Illustrator 23.0.0, SVG Export Plug-In . SVG Version: 6.00 Build 0)  -->
<svg version="1.1" id="图层_1" xmlns="http://www.w3.org/2000/svg" xmlns:xlink="http://www.w3.org/1999/xlink" x="0px" y="0px"
	 viewBox="0 0 1366 768" style="enable-background:new 0 0 1366 768;" xml:space="preserve">
<style type="text/css">
	.st0{fill:#EFEFF2;}
	.st1{fill:#6F8DA9;}
	.st2{fill:#F2F2F2;}
	.st3{fill:#F7F2F2;}
</style>
<rect y="-1" class="st0" width="1364" height="770"/>
<g>
	<rect y="0" class="st1" width="1366" height="769"/>
</g>
<g>
	<g>
		<path class="st2" d="M594.6,98.1h12.4c1.5-2.4,2.8-4.6,3.8-6.6l2.9,1.3c-1.1,1.8-2.3,3.5-3.6,5.3h6.7v2.4h-22.2V98.1z M595.4,88.8
			h9.7c-0.5-1.1-1.3-2.3-2.3-3.9l2.7-1.1c1.2,1.8,2,3.2,2.5,4.2l-1.9,0.8h10v2.4h-20.6V88.8z M597.4,104.1h16.7v14.3h-2.9v-2.6h-11
			v2.6h-2.9V104.1z M598,93l2.4-1.3c1.3,1.7,2.5,3.3,3.5,5l-2.6,1.4C600.5,96.6,599.4,94.9,598,93z M611.2,106.5h-11v6.9h11V106.5z
			 M632.7,107c0,4-1.7,6.2-5.2,6.5c-1.3,0.1-3.1,0.1-5.3-0.1c-0.1-0.8-0.3-1.9-0.5-3.1c1.9,0.3,3.5,0.4,4.8,0.4
			c2.3,0,3.3-1.4,3.1-4.3c-0.1-2.5-2.1-5.1-5.9-7.7c1.7-3,3.4-6.4,5.1-10.1h-7.9v30H618V86.1h13.9V89c-1,2.4-2.6,5.4-4.7,9.2
			C630.9,100.7,632.7,103.7,632.7,107z"/>
		<path class="st2" d="M641.6,98.4c5.3-3.4,9.8-8.1,13.6-14l2.7,1.4c-3.9,6.2-8.6,11.2-14.1,15C643.3,100.1,642.6,99.3,641.6,98.4z
			 M646.9,99.6h25.7c-0.1,4-0.3,7.9-0.6,11.7c-0.3,4.4-2.6,6.6-6.8,6.5c-2.1,0-4.3,0-6.6-0.2c-0.2-1-0.3-2-0.5-3
			c2,0.3,4.2,0.4,6.7,0.4c2.6,0,4-1.3,4.3-4.1c0.2-2.5,0.4-5.4,0.5-8.8h-11.9c-0.3,3.9-1.2,7.1-2.7,9.5c-2,3.1-5.2,5.6-9.9,7.3
			c-0.7-0.8-1.4-1.6-2.2-2.4c4.3-1.5,7.4-3.6,9.2-6.3c1.4-2.1,2.1-4.8,2.3-8.1h-7.4V99.6z M662.9,85l2.8-1.1
			c2.8,6.3,7.8,11,14.9,14.1c-1.2,1.1-2,2-2.5,2.7C671,96.9,665.9,91.7,662.9,85z"/>
		<path class="st2" d="M693.4,98.2h18.3c1.7-2.3,3.3-4.7,4.7-7l3,1.7c-1.4,1.7-2.8,3.5-4.3,5.2h11.4v2.5h-30v2.5
			c0,4.1-0.3,7.2-1,9.3c-0.7,2.3-2.1,4.4-4.1,6.4c-0.7-0.8-1.4-1.5-2.1-2.4c1.5-1.5,2.6-3.2,3.2-5.2c0.6-1.9,0.9-4.6,0.9-8.1V98.2z
			 M690.3,88.1h17.7c-0.6-1-1.2-1.9-1.9-3l2.9-1.3c0.8,1.2,1.7,2.7,2.6,4.3h16.1v2.5h-37.3V88.1z M698.4,92.6l2.6-1.5
			c1.6,1.8,3,3.6,4.3,5.2l-2.7,1.7C701.4,96.5,700.1,94.7,698.4,92.6z"/>
		<path class="st2" d="M739,102.4h14.7v16.2h-2.9v-2.4H742v2.4H739V102.4z M750.8,104.9H742v9h8.9V104.9z M742.8,85.6h26.7v13.9
			h-3.1v-1.1h-20.5v1.1h-3.1V85.6z M766.4,88.1h-20.5v7.9h20.5V88.1z M758.6,102.4h14.8v16.2h-2.9v-2.4h-8.9v2.4h-2.9V102.4z
			 M770.4,104.9h-8.9v9.1h8.9V104.9z"/>
	</g>
</g>
<g>
	<g>
		<path class="st3" d="M325,571.9h-0.9l1.2-3.3h0.6L325,571.9z M327,571.9h-0.8l1.3-3.3h0.6L327,571.9z"/>
		<path class="st3" d="M333.4,570.5h0.8v10.4h-0.8V570.5z M334.1,568.1l0.7-0.4c0.8,0.7,1.5,1.3,2.1,1.8l-0.7,0.5
			C335.8,569.7,335.1,569,334.1,568.1z M338,569.4v-0.7h7.8v10.1c0.1,1.3-0.6,1.9-2.1,1.8c-0.5,0-1.1,0-2,0c0,0,0-0.1,0-0.2
			c-0.1-0.3-0.1-0.5-0.1-0.6c0.3,0,0.6,0,0.9,0c0.1,0,0.3,0,0.5,0c0.1,0,0.4,0,0.7,0c0.5,0,0.9-0.1,1.1-0.3c0.2-0.2,0.3-0.5,0.3-1
			v-9.2H338z"/>
		<path class="st3" d="M358.1,567.7l0.9-0.2c0.2,0.6,0.3,1.2,0.5,1.7h5.9v0.7h-12.2v3.6c0,0.2,0,0.4,0,0.6c0,2.9-0.6,5.1-1.7,6.6
			c-0.2-0.2-0.4-0.4-0.7-0.5c0.7-0.9,1.1-1.8,1.3-2.7c0.2-0.9,0.3-2.3,0.3-4.1v-4.2h6.3C358.4,568.8,358.3,568.3,358.1,567.7z
			 M358.2,570.8h0.8v1.6h5.9v0.7h-5.9v2.2h4.7v5.6h-0.8v-0.9h-7.1v0.9h-0.8v-5.6h3.3V570.8z M355.8,575.9v3.3h7.1v-3.3H355.8z"/>
		<path class="st3" d="M369.8,572.5c-0.2-0.2-0.3-0.4-0.6-0.6c0.9-1.2,1.6-2.6,2.2-4.3l0.8,0.2c-0.3,0.7-0.5,1.4-0.8,1.9h2.9v0.7
			h-3.2C370.7,571.1,370.3,571.8,369.8,572.5z M369.3,574.9h2.1v-2.2h-1v-0.6h3.5v0.6h-1.7v2.2h2v0.7h-2v3.5c0.8-0.5,1.4-1,1.9-1.4
			c0.1,0.3,0.1,0.5,0.2,0.8c-0.7,0.5-1.4,0.9-2,1.4c-0.2,0.2-0.4,0.3-0.7,0.5l-0.6-0.6c0.3-0.3,0.4-0.6,0.4-1v-3.2h-2.1V574.9z
			 M374.8,568.7l0.6-0.4c0.6,0.6,1.3,1.3,1.9,2l-0.7,0.4C376.1,570,375.4,569.3,374.8,568.7z M376,580.8h-0.8v-9.3h3.5v-3.9h0.8v3.9
			h3.5v7.4c0.1,1.1-0.5,1.7-1.8,1.7c-0.3,0-0.6,0-0.9,0c-0.1,0-0.3,0-0.4,0c-0.1,0-0.3,0-0.5,0c-0.1-0.3-0.1-0.5-0.2-0.8
			c0.5,0,1.1,0,1.7,0c0.8,0,1.2-0.3,1.2-1v-1.3H376V580.8z M376,572.2v2h6.2v-2H376z M376,574.9v2h6.2v-2H376z M381.4,570.8
			l-0.6-0.4c0.6-0.6,1.2-1.3,1.9-2.1l0.7,0.4C382.6,569.4,382,570.1,381.4,570.8z"/>
		<path class="st3" d="M394.9,567.9l0.7-0.3c0.3,0.5,0.7,1,1,1.5l-0.6,0.3h5.7v0.6h-5.3v1.2h4.9v0.6h-4.9v1.2h4.9v0.6h-4.9v1.2h5.6
			v0.6h-11.5v0.6h-0.8v-5.1c-0.6,0.6-1.1,1.1-1.4,1.5c-0.2-0.2-0.3-0.4-0.5-0.6c1.5-1.3,2.6-2.7,3.3-4.2l0.8,0.2
			c-0.3,0.5-0.6,1-0.9,1.4h4.9c-0.1-0.2-0.4-0.6-0.8-1.3C395,567.9,394.9,567.9,394.9,567.9z M389.6,576.7h11v4.1h-0.8v-0.7h-9.4
			v0.7h-0.8V576.7z M390.4,577.3v2.2h9.4v-2.2H390.4z M390.5,569.9C390.5,569.9,390.5,569.9,390.5,569.9l0,1.2h5.1v-1.2H390.5z
			 M390.5,571.7v1.2h5.1v-1.2H390.5z M390.5,573.6v1.2h5.1v-1.2H390.5z"/>
		<path class="st3" d="M406.3,568.8h14.5v0.7h-2.5v9.4c0,1.1-0.6,1.7-2,1.7c-0.3,0-0.6,0-0.9,0c-0.2,0-0.4,0-0.6,0
			c-0.2,0-0.5,0-0.8,0c0-0.3-0.1-0.5-0.1-0.8c0.3,0,0.6,0,1,0c0.2,0,0.4,0,0.5,0c0.2,0,0.4,0,0.7,0c0.5,0,0.9-0.1,1.1-0.3
			c0.2-0.2,0.3-0.5,0.3-1v-9.1h-11.1V568.8z M407.9,571.8h6.2v5.4h-5.4v1.1h-0.8V571.8z M408.7,572.5v4h4.6v-4H408.7z"/>
		<path class="st3" d="M424.7,576.3h1.9v-5.4h4.9v-1.8h-6.3v-0.7h13.5v0.7h-6.3v1.8h4.9v5.4h2v0.7h-2v2.3c0.1,0.9-0.5,1.4-1.7,1.4
			c-0.6,0-1.2,0-2,0c0-0.3-0.1-0.6-0.1-0.8c0.4,0,1,0,2,0c0.4,0,0.7-0.1,0.8-0.2c0.1-0.1,0.2-0.3,0.2-0.6V577h-9v3.8h-0.8V577h-1.9
			V576.3z M427.5,571.6v2h4.1v-2H427.5z M427.5,574.2v2.1h4.1v-2.1H427.5z M436.5,571.6h-4.1v2h4.1V571.6z M432.4,574.2v2.1h4.1
			v-2.1H432.4z"/>
		<path class="st3" d="M446.5,568.4l0.8,0.2c-0.3,0.7-0.7,1.4-1,2h4v-3h0.9v3h5.8v0.7h-5.8v3.5h5.4v0.7h-5.4v3.8h6.6v0.7h-14.5v-0.7
			h7.1v-3.8h-5.4v-0.7h5.4v-3.5h-4.4c-0.6,1-1.3,1.9-2.1,2.7c-0.2-0.2-0.4-0.4-0.7-0.6C444.6,572.1,445.7,570.3,446.5,568.4z"/>
		<path class="st3" d="M466.4,577c-0.6,0.5-1.2,1.2-2.1,2c-0.2,0.2-0.4,0.5-0.6,0.7l-0.6-0.5c0.2-0.3,0.3-0.5,0.3-0.9v-5.4h-1.8
			v-0.7h2.6v5.9c0.6-0.6,1.2-1.2,1.8-1.8C466.2,576.7,466.3,576.9,466.4,577z M465,570.7c-0.8-0.8-1.6-1.6-2.2-2.2l0.6-0.5
			c0.6,0.5,1.3,1.2,2.3,2.1L465,570.7z M466.5,574.5v-0.7h8.2v0.8c-1,1.6-2,2.8-3.2,3.7c1.1,0.7,2.7,1.2,4.6,1.7
			c-0.3,0.4-0.4,0.6-0.5,0.7c-2.1-0.6-3.7-1.2-4.9-2c-1.3,0.8-3.1,1.5-5.3,2.1c-0.2-0.3-0.3-0.5-0.5-0.7c2.3-0.6,4-1.2,5.1-1.9
			c-1.1-0.9-2.1-2.1-2.8-3.8H466.5z M473.1,569.1h-4.3v0.5c0,0.1,0,0.2,0,0.4c0,1.4-0.8,2.5-2.4,3.1c-0.2-0.2-0.4-0.4-0.6-0.6
			c0.9-0.4,1.4-0.7,1.7-1.1c0.3-0.4,0.4-1,0.4-1.8v-1.3h5.9v2.6c0,0.5,0.3,0.8,0.9,0.8h1.4l-0.1,0.7h-1.5c-1,0-1.5-0.4-1.5-1.2
			V569.1z M468.2,574.5c0.7,1.4,1.5,2.5,2.6,3.3c1.2-0.8,2.2-1.9,3-3.3H468.2z"/>
		<path class="st3" d="M483.1,579.1c1.1-0.6,2-1.2,2.8-1.8c0.1,0.3,0.2,0.5,0.3,0.8c-0.9,0.5-2,1.1-3.1,1.8
			c-0.3,0.2-0.5,0.4-0.7,0.6l-0.6-0.6c0.2-0.2,0.3-0.3,0.4-0.5c0.1-0.2,0.1-0.4,0.1-0.6V573h-2.1v-0.7h3V579.1z M483.8,570.6
			c-0.9-0.9-1.7-1.6-2.4-2.2l0.6-0.5c0.9,0.7,1.7,1.4,2.5,2.2L483.8,570.6z M489.4,567.7h0.9v4.7h4.4v0.7h-4.4v7.7h-0.9v-7.7h-4.4
			v-0.7h4.4V567.7z"/>
		<path class="st3" d="M500.1,573.2h7.3c0.6-0.8,1.2-1.7,1.8-2.6l0.8,0.4c-0.5,0.7-1.1,1.5-1.7,2.2h4.4v0.7H501v1.1
			c0.1,2.4-0.5,4.4-1.8,5.9c-0.2-0.2-0.5-0.4-0.7-0.5c0.6-0.7,1-1.4,1.3-2.2c0.2-0.8,0.4-1.8,0.4-3.1V573.2z M505.5,567.9l0.8-0.2
			c0.3,0.6,0.5,1.1,0.6,1.6h6.2v0.7h-14.2v-0.7h7.1c-0.1-0.3-0.3-0.7-0.5-1.3C505.5,567.9,505.5,567.9,505.5,567.9z M502.3,570.9
			l0.7-0.4c0.4,0.5,1,1.2,1.7,2L504,573C503.4,572.2,502.8,571.5,502.3,570.9z"/>
		<path class="st3" d="M517.9,574.8h5.4v6h-0.8v-0.9h-3.8v0.9h-0.8V574.8z M518.7,575.5v3.8h3.8v-3.8H518.7z M519.4,568.3h10v4.7
			h-10V568.3z M520.2,569v3.3h8.4V569H520.2z M525.5,574.8h5.4v6h-0.8v-0.9h-3.8v0.9h-0.8V574.8z M526.3,575.5v3.8h3.8v-3.8H526.3z"
			/>
		<path class="st3" d="M538.2,581h-0.6l1.2-3.5h0.8L538.2,581z"/>
		<path class="st3" d="M555.6,573.2h7.3c0.6-0.8,1.2-1.7,1.8-2.6l0.8,0.4c-0.5,0.7-1.1,1.5-1.7,2.2h4.4v0.7h-11.7v1.1
			c0.1,2.4-0.5,4.4-1.8,5.9c-0.2-0.2-0.5-0.4-0.7-0.5c0.6-0.7,1-1.4,1.3-2.2c0.2-0.8,0.4-1.8,0.4-3.1V573.2z M560.9,567.9l0.8-0.2
			c0.3,0.6,0.5,1.1,0.6,1.6h6.2v0.7h-14.2v-0.7h7.1c-0.1-0.3-0.3-0.7-0.5-1.3C560.9,567.9,560.9,567.9,560.9,567.9z M557.7,570.9
			l0.7-0.4c0.4,0.5,1,1.2,1.7,2l-0.7,0.5C558.8,572.2,558.3,571.5,557.7,570.9z"/>
		<path class="st3" d="M573.3,574.8h5.4v6h-0.8v-0.9h-3.8v0.9h-0.8V574.8z M574.1,575.5v3.8h3.8v-3.8H574.1z M574.8,568.3h10v4.7
			h-10V568.3z M575.6,569v3.3h8.4V569H575.6z M580.9,574.8h5.4v6h-0.8v-0.9h-3.8v0.9h-0.8V574.8z M581.7,575.5v3.8h3.8v-3.8H581.7z"
			/>
		<path class="st3" d="M598.1,579.6c0.5,0,1.2,0,1.9,0c0.7,0,1.4,0,2.1,0c1.4,0,2.5,0,3.5,0c-0.2,0.2-0.3,0.5-0.3,0.8
			c-2.7,0-5.1,0-7.2-0.1c-1.9,0-3.4-0.6-4.5-1.8c-0.7,0.7-1.3,1.5-1.9,2.2l-0.7-0.5c0.7-0.8,1.4-1.5,2.2-2.3v-4.7h-2v-0.7h2.8v5.4
			C594.9,579,596.3,579.6,598.1,579.6z M594,570.7c-0.7-0.9-1.3-1.7-1.9-2.4l0.7-0.4c0.7,0.8,1.4,1.6,2,2.4L594,570.7z M601.1,574.3
			l0.7-0.4c1,1.3,2.1,2.6,3.1,3.9l-0.7,0.5c-0.1-0.1-0.2-0.3-0.4-0.5c-0.2-0.2-0.3-0.4-0.4-0.5c-2.3,0.1-4.4,0.1-6.3,0.2
			c-0.5,0-0.9,0.1-1.2,0.1l-0.4-0.8c0.3-0.1,0.5-0.3,0.9-0.6c0.9-0.9,1.7-2,2.6-3.4h-3.6v-0.7h9.9v0.7H600c-1.1,1.5-2.2,2.9-3.2,4
			c1.9-0.1,3.9-0.2,6-0.2c-0.2-0.2-0.5-0.6-0.8-1C601.6,574.9,601.3,574.5,601.1,574.3z M596.4,568.6h8v0.7h-8V568.6z"/>
		<path class="st3" d="M617.5,580.7h-0.8v-4.4H612c-0.1,1.6-0.7,3.2-1.8,4.6c-0.2-0.2-0.5-0.3-0.8-0.5c0.8-1,1.3-2,1.5-2.9
			c0.2-0.9,0.4-2.3,0.4-4.2v-4.9h11.9V579c0,1.1-0.6,1.7-1.9,1.7c-0.3,0-0.6,0-0.8,0c-0.1,0-0.3,0-0.4,0c-0.1,0-0.3,0-0.5,0
			c0-0.3-0.1-0.5-0.2-0.8c0.6,0,1.1,0,1.8,0c0.8,0,1.2-0.3,1.2-1v-2.7h-4.8V580.7z M612.1,573.4c0,0.7,0,1.4-0.1,2.3h4.7v-2.9h-4.6
			V573.4z M612.1,569.2v2.9h4.6v-2.9H612.1z M622.3,569.2h-4.8v2.9h4.8V569.2z M617.5,572.7v2.9h4.8v-2.9H617.5z"/>
		<path class="st3" d="M628,568.8h14.5v0.7H640v9.4c0,1.1-0.6,1.7-2,1.7c-0.3,0-0.6,0-0.9,0c-0.2,0-0.4,0-0.6,0c-0.2,0-0.5,0-0.8,0
			c0-0.3-0.1-0.5-0.1-0.8c0.3,0,0.6,0,1,0c0.2,0,0.4,0,0.5,0c0.2,0,0.4,0,0.7,0c0.5,0,0.9-0.1,1.1-0.3c0.2-0.2,0.3-0.5,0.3-1v-9.1
			H628V568.8z M629.7,571.8h6.2v5.4h-5.4v1.1h-0.8V571.8z M630.5,572.5v4h4.6v-4H630.5z"/>
		<path class="st3" d="M646.5,576.3h1.9v-5.4h4.9v-1.8H647v-0.7h13.5v0.7h-6.3v1.8h4.9v5.4h2v0.7h-2v2.3c0.1,0.9-0.5,1.4-1.7,1.4
			c-0.6,0-1.2,0-2,0c0-0.3-0.1-0.6-0.1-0.8c0.4,0,1,0,2,0c0.4,0,0.7-0.1,0.8-0.2c0.1-0.1,0.2-0.3,0.2-0.6V577h-9v3.8h-0.8V577h-1.9
			V576.3z M649.2,571.6v2h4.1v-2H649.2z M649.2,574.2v2.1h4.1v-2.1H649.2z M658.2,571.6h-4.1v2h4.1V571.6z M654.1,574.2v2.1h4.1
			v-2.1H654.1z"/>
		<path class="st3" d="M668.2,568.4l0.8,0.2c-0.3,0.7-0.7,1.4-1,2h4v-3h0.9v3h5.8v0.7h-5.8v3.5h5.4v0.7h-5.4v3.8h6.6v0.7H665v-0.7
			h7.1v-3.8h-5.4v-0.7h5.4v-3.5h-4.4c-0.6,1-1.3,1.9-2.1,2.7c-0.2-0.2-0.4-0.4-0.7-0.6C666.3,572.1,667.4,570.3,668.2,568.4z"/>
		<path class="st3" d="M683.8,577.2c-0.1-0.3-0.3-0.6-0.4-0.9c1.1-1.4,2-3.1,2.7-5.1h-2.4v-0.7h2.5v-2.8h0.8v2.8h2.3v0.7h-2.3v2.1
			l0.5-0.4c0.7,0.5,1.5,1.1,2.4,1.8l-0.7,0.5c-0.5-0.5-1.2-1.1-2.2-1.9v7.4h-0.8v-8.1C685.5,574.5,684.8,575.9,683.8,577.2z
			 M690.1,570.5h4.9v-2.8h0.8v2.8h2.1v0.7h-2.1v7.5c0.1,1.2-0.6,1.8-2,1.8c-0.2,0-0.5,0-0.8,0c-0.3,0-0.7,0-1.2,0
			c0-0.3-0.1-0.6-0.2-0.8c0.4,0,1.1,0,2,0c1,0,1.4-0.4,1.4-1.2v-7.3h-0.1c-1.3,3.1-3.3,5.6-6,7.5c-0.2-0.2-0.4-0.4-0.7-0.6
			c2.7-1.8,4.7-4.1,5.9-6.9h-4V570.5z"/>
		<path class="st3" d="M702.3,578.8c-0.1-0.3-0.3-0.5-0.4-0.8c1.1-1.2,1.9-2.7,2.6-4.4H702v-0.7h2.5v-5.3h0.8v5.3h2.4v0.7h-2.4v1.5
			l0.4-0.3c0.7,0.6,1.4,1.3,2.1,2.1l-0.6,0.5c-0.7-0.8-1.3-1.5-1.9-2v5.6h-0.8v-6.1C704,576.2,703.2,577.6,702.3,578.8z M702,569.3
			l0.7-0.2c0.4,0.9,0.8,1.7,1.1,2.5l-0.7,0.2C702.8,571,702.4,570.1,702,569.3z M706.6,571.9l-0.7-0.2c0.5-0.9,0.8-1.8,1.2-2.6
			l0.7,0.2C707.5,570.2,707.1,571,706.6,571.9z M713.3,567.7h0.8v8l2.3-0.2l0.1,0.7l-2.3,0.3v4.5h-0.8v-4.4l-4.7,0.5l-0.1-0.7
			l4.9-0.5V567.7z M708.9,573l0.5-0.5c0.9,0.5,1.7,1.1,2.4,1.6l-0.5,0.6C710.4,574,709.7,573.5,708.9,573z M709.3,569.6l0.5-0.5
			c0.8,0.6,1.6,1.1,2.4,1.7l-0.5,0.6C710.8,570.6,710,570.1,709.3,569.6z"/>
		<path class="st3" d="M720.4,572.7h4.4v-2.1h-2.5c-0.2,0.5-0.5,1-0.8,1.5c-0.2-0.1-0.4-0.2-0.7-0.4c0.8-1.1,1.3-2.2,1.6-3.4
			l0.8,0.2c0,0,0,0.1,0,0.1c-0.2,0.6-0.3,1-0.5,1.3h2.2v-2.1h0.8v2.1h3.3v0.7h-3.3v2.1h3.9v0.7h-3.9v1.8h3.3v3.2
			c0,0.9-0.4,1.3-1.4,1.3c-0.1,0-0.3,0-0.4,0c-0.1,0-0.2,0-0.3,0c-0.1,0-0.2,0-0.4,0c0-0.2-0.1-0.5-0.2-0.7c0.4,0,0.7,0,1.1,0
			c0.3,0,0.5,0,0.6-0.1c0.1-0.1,0.2-0.3,0.2-0.6v-2.5h-2.5v5.1h-0.8v-5.1h-2.5v4.1h-0.8v-4.7h3.2v-1.8h-4.4V572.7z M733.3,567.8h0.8
			v11.2c0,1.1-0.5,1.7-1.7,1.7c-0.3,0-0.5,0-0.8,0c-0.1,0-0.3,0-0.4,0c-0.1,0-0.3,0-0.6,0c0-0.2-0.1-0.5-0.2-0.8
			c0.6,0,1.2,0.1,1.8,0.1c0.4,0,0.7-0.1,0.9-0.2c0.2-0.1,0.2-0.4,0.2-0.8V567.8z M731.2,577.2h-0.8v-8.1h0.8V577.2z"/>
		<path class="st3" d="M739.3,575.1c-0.2-0.3-0.4-0.5-0.5-0.7c1.4-1.9,2.6-4.1,3.5-6.7l0.8,0.2c-0.4,1.1-0.9,2.2-1.4,3.1v9.8h-0.8
			v-8.3C740.4,573.5,739.9,574.3,739.3,575.1z M743.6,573.6c-0.2-0.2-0.4-0.3-0.7-0.5c1.4-1.6,2.5-3.4,3.3-5.5l0.8,0.2
			c-0.3,0.7-0.6,1.3-0.9,2h7.3v0.7h-5.5v2.6h4.7v0.7h-4.7v2.7h5.1v0.7h-5.1v3.5h-0.8v-10.3h-1.4
			C745.1,571.6,744.4,572.7,743.6,573.6z"/>
		<path class="st3" d="M759.9,581h-0.6l1.2-3.5h0.8L759.9,581z"/>
		<path class="st3" d="M776.5,577.2c-0.1-0.2-0.3-0.4-0.5-0.6c1.6-0.9,2.9-2,3.8-3.2l0.8,0.3c-0.3,0.4-0.6,0.7-0.9,1h9.6
			c0,1-0.1,2-0.2,3.2c-0.1,1.9-1,2.8-3,2.7c-0.5,0-1.1,0-1.8,0c0-0.2-0.1-0.5-0.2-0.8c0.7,0,1.3,0.1,1.9,0.1c0.1,0,0.2,0,0.2,0
			c1.3,0,1.9-0.7,1.9-2.1c0.1-1,0.1-1.8,0.1-2.5H786c-0.5,2.4-2.3,4.2-5.3,5.5c-0.2-0.2-0.4-0.4-0.6-0.6c2.9-1.2,4.5-2.8,5-4.9h-2.6
			c-0.9,2-3,3.6-6.3,4.7c-0.1-0.2-0.3-0.4-0.5-0.6c3.1-1,5-2.4,5.9-4H779C778.3,576.1,777.4,576.7,776.5,577.2z M777.9,568.3h10.7
			v4.9h-10.7V568.3z M778.7,568.9v1.5h9.1v-1.5H778.7z M778.7,571v1.5h9.1V571H778.7z"/>
		<path class="st3" d="M795.6,568.7h12.1v0.7h-5.4v3.9h6.6v0.8h-6.6v4.6c0,1.3-0.6,1.9-2,1.9c-0.8,0-1.5,0-2.1,0
			c0-0.3-0.1-0.6-0.2-0.9c0.6,0,1.3,0,2,0c0.5,0,0.9-0.1,1.1-0.3c0.2-0.2,0.3-0.5,0.3-1v-4.5h-7v-0.8h7v-3.9h-5.8V568.7z"/>
		<path class="st3" d="M813.1,573.3h2v-3.5H813v-0.7h4.9v0.7h-2v3.5h2v0.7h-2v4.2c0.2,0,0.5-0.1,0.8-0.2c0.5-0.1,0.9-0.2,1.2-0.3
			c0,0.3,0,0.6,0,0.7c-1.7,0.3-3.3,0.7-5,1l-0.1-0.8c0,0,0.1,0,0.1,0c0.9-0.2,1.6-0.3,2.1-0.4V574h-2V573.3z M818.8,569.3v-0.7h7.9
			v0.7h-3.6c-1.2,3.5-2.8,6.2-4.8,8.3c-0.2-0.2-0.4-0.3-0.7-0.5c2-2,3.6-4.6,4.6-7.8H818.8z M821.9,572.5h0.8v8.3h-0.8V572.5z
			 M823.4,573.3l0.7-0.4c1.1,1.3,2.1,2.7,3.2,4.2l-0.7,0.5C825.4,576,824.3,574.6,823.4,573.3z"/>
		<path class="st3" d="M831.4,578.6l-0.2-0.7c0,0,0.1,0,0.2,0c0.7-0.2,1.3-0.3,1.8-0.4v-5.6h-1.7v-0.7h1.7v-3.5h0.8v3.5h1.5v0.7H834
			v5.4c0.1,0,0.3-0.1,0.5-0.1c0.5-0.1,0.9-0.2,1.2-0.3c0,0.2,0,0.3,0,0.4c0,0.1,0,0.2,0,0.3C834,577.9,832.5,578.3,831.4,578.6z
			 M836.5,573.2h8v4.4H842v1.6c0,0.3,0.1,0.5,0.2,0.6c0.1,0.1,0.4,0.2,0.8,0.2h0.9c0.6,0,1-0.2,1.1-0.7c0.1-0.3,0.1-0.6,0.2-1.1
			c0.3,0.1,0.5,0.2,0.8,0.2c-0.1,0.5-0.1,0.9-0.2,1.2c-0.1,0.7-0.7,1-1.7,1h-1.2c-1.1,0-1.6-0.4-1.6-1.3v-1.6h-1.8
			c0.1,1.7-1.4,2.8-4.5,3.3c-0.1-0.2-0.3-0.4-0.5-0.7c2.8-0.4,4.2-1.2,4.2-2.5c0-0.1,0-0.1,0-0.2h-2.1V573.2z M840,567.8l0.7-0.2
			c0.2,0.5,0.4,1,0.5,1.5h3.9v0.6h-2.4l0.7,0.3c-0.3,0.5-0.7,1-1.1,1.5h3.2v0.6H836v-0.6h2.8c-0.3-0.5-0.6-1-1-1.5l0.5-0.3h-2.1
			v-0.6h4.2c0-0.2-0.1-0.4-0.3-0.8C840.1,568.1,840.1,567.9,840,567.8z M837.3,573.8v1.3h6.4v-1.3H837.3z M837.3,575.7v1.3h6.4v-1.3
			H837.3z M839.6,571.3l-0.6,0.3h2.6c0.5-0.8,0.9-1.4,1.1-1.8h-4.2c0.1,0.2,0.4,0.6,0.7,1.1C839.4,571.1,839.5,571.2,839.6,571.3z"
			/>
		<path class="st3" d="M854.5,576.3c0,1.4-0.5,2.1-1.5,2.1c-0.2,0-0.4,0-0.6,0c-0.2,0-0.4,0-0.6,0c0-0.3-0.1-0.6-0.2-0.8
			c0.1,0,0.3,0,0.5,0s0.4,0,0.5,0c0.7,0,1-0.4,1-1.4c0-1.1-0.5-2.2-1.5-3.3l1.4-3.8h-2.5v11.6h-0.8v-12.3h4.1v0.8l-1.4,3.7
			C854.1,574,854.6,575.1,854.5,576.3z M863.9,573.9c-1.8-0.4-3.3-0.8-4.3-1.3c-1.1,0.6-2.7,1.1-4.7,1.5c-0.1-0.2-0.3-0.4-0.4-0.7
			c1.8-0.4,3.3-0.8,4.3-1.3c-0.7-0.4-1.3-1-1.8-1.8c-0.4,0.5-0.9,0.9-1.5,1.4c-0.2-0.2-0.4-0.4-0.6-0.5c1.3-1,2.3-2.2,3.2-3.5
			l0.8,0.3c-0.2,0.4-0.5,0.7-0.8,1h4.9v0.7c-0.7,1-1.6,1.8-2.7,2.4c1,0.4,2.3,0.8,3.9,1C864.1,573.5,864,573.7,863.9,573.9z
			 M855.3,574.9h4.1v-1.3h0.8v1.3h3.6v0.6h-3.6v2.2h3.7v0.6h-3.7v2.4h-0.8v-2.4h-4.2l0.7-2.4h0.8l-0.5,1.8h3.2v-2.2h-4.1V574.9z
			 M862.2,569.7h-4.6c0,0,0,0,0,0.1c0,0-0.1,0.1-0.1,0.1c0.5,0.8,1.2,1.5,2.1,1.9C860.6,571.3,861.4,570.6,862.2,569.7z"/>
		<path class="st3" d="M868.7,571.9c-0.2-0.2-0.4-0.4-0.6-0.5c1.3-1.1,2.3-2.4,3-3.7l0.8,0.3c-0.3,0.4-0.5,0.9-0.8,1.2h3v0.7
			l-1.3,1.5h1.9v7.9c0,0.9-0.5,1.3-1.5,1.3c-0.4,0-0.7,0-1.1,0c0-0.2-0.1-0.5-0.1-0.7c0.1,0,0.2,0,0.4,0c0.1,0,0.2,0,0.3,0
			c0.1,0,0.2,0,0.4,0c0.4,0,0.6-0.1,0.7-0.2c0.1-0.1,0.2-0.3,0.2-0.7V577h-1.7v2.1h-0.7V577H870c0,1.5-0.4,2.7-1.2,3.8
			c-0.2-0.2-0.4-0.3-0.7-0.4c0.5-0.6,0.8-1.2,0.9-1.8c0.2-0.6,0.2-1.4,0.2-2.5v-4.6C869.1,571.6,868.9,571.7,868.7,571.9z
			 M870.7,569.8c-0.4,0.6-0.9,1.1-1.4,1.6h2.6l1.3-1.6H870.7z M870,572v1.9h1.6V572H870z M870,576.1v0.3h1.6v-1.9H870V576.1z
			 M874,572h-1.7v1.9h1.7V572z M872.4,574.5v1.9h1.7v-1.9H872.4z M875.1,572.5c1-0.4,1.6-0.9,1.9-1.3c0.3-0.4,0.5-1,0.5-1.9h-1.8
			v-0.7h6.2c0,0.7-0.1,1.4-0.1,2.3c-0.1,1-0.7,1.5-1.8,1.5c-0.3,0-0.8,0-1.4,0c0-0.3-0.1-0.5-0.1-0.7c0.2,0,0.4,0,0.6,0
			c0.1,0,0.2,0,0.3,0c0.1,0,0.3,0,0.5,0c0.7,0,1.1-0.3,1.1-0.9c0.1-0.6,0.1-1.1,0.1-1.6h-2.8c0,0.1,0,0.2,0,0.3
			c0,1.6-0.9,2.7-2.7,3.4C875.5,572.8,875.3,572.6,875.1,572.5z M878.9,573h0.8v1.6h2.7v0.7h-2.7v2.1h3v0.7h-3v2.9h-0.8V578h-3.7
			v-0.7h3.7v-2.1h-2.2c-0.2,0.5-0.5,1-0.7,1.4c-0.3-0.2-0.5-0.3-0.7-0.3c0.6-0.9,1.1-1.9,1.5-3.1l0.8,0.2c-0.2,0.5-0.3,0.9-0.5,1.2
			h1.9V573z"/>
		<path class="st3" d="M889.3,581h-0.6l1.2-3.5h0.8L889.3,581z"/>
		<path class="st3" d="M906.1,579.3l-0.9-0.3c0.6-1.2,1.2-2.9,1.9-5.1c0.2,0.1,0.4,0.2,0.8,0.3C907.4,575.6,906.8,577.3,906.1,579.3
			z M905.5,569.1l0.7-0.3c0.7,1,1.3,1.9,1.9,2.8l-0.7,0.4C906.7,570.8,906,569.8,905.5,569.1z M915.2,567.7h0.8c0,0.8,0,1.6,0,2.3
			h3.6v0.6h-3.6c0,0.1,0,0.2,0,0.4c0,0.3,0,0.5,0,0.6c0.1,2.2,0.3,3.7,0.5,4.7c0.6-1.1,1.3-2.5,1.8-4.2l0.8,0.2
			c-0.7,2-1.5,3.7-2.3,4.9c0.1,0.4,0.3,0.8,0.4,1.2c0.3,0.8,0.7,1.2,1,1.2c0.2,0,0.4-0.2,0.5-0.6c0.1-0.6,0.2-1.3,0.2-2
			c0.3,0.1,0.5,0.2,0.7,0.2c-0.1,0.7-0.1,1.4-0.2,2c-0.1,0.8-0.5,1.2-1.2,1.2c-0.7,0-1.3-0.5-1.8-1.6c-0.1-0.3-0.2-0.5-0.3-0.8
			c-0.6,0.8-1.4,1.7-2.4,2.5c0,0-0.1,0-0.1-0.1c-0.3-0.2-0.5-0.4-0.5-0.4c1.2-1,2.1-1.9,2.8-2.9c-0.3-1.2-0.5-3-0.7-5.5
			c0-0.3,0-0.7-0.1-1.2h-5.5v2.5c0,2-0.1,3.5-0.4,4.5c-0.3,1-0.8,2-1.7,3.1c-0.2-0.1-0.4-0.3-0.6-0.5c0.8-1,1.3-1.9,1.6-2.9
			c0.3-0.9,0.4-2.3,0.4-4.1V570h6.2c0-0.3,0-0.5,0-0.9c0-0.2,0-0.4,0-0.6C915.2,568.4,915.2,568.1,915.2,567.7z M910.7,572.1h3.9
			v0.6h-3.9V572.1z M910.9,574.1h3.4v4h-3.4V574.1z M911.6,574.8v2.8h1.9v-2.8H911.6z M916.8,568.6l0.5-0.5c0.5,0.3,1,0.7,1.7,1.2
			l-0.5,0.5C918.1,569.6,917.5,569.1,916.8,568.6z"/>
		<path class="st3" d="M935.3,574.1l0.8,0.4c-2.6,3.2-6.6,5.3-11.9,6.3c-0.2-0.3-0.3-0.6-0.5-0.8C929,579.1,932.9,577.1,935.3,574.1
			z M927.3,569.7l0.8,0.3c-1,2.1-2.1,4-3.4,5.7c-0.3-0.2-0.6-0.3-0.8-0.4C925.2,573.6,926.3,571.7,927.3,569.7z M930.5,567.7h0.9
			v8.1h-0.9V567.7z M933.5,569.8l0.7-0.5c1.3,1.3,2.6,2.7,4.1,4.2l-0.7,0.6C936.2,572.7,934.8,571.2,933.5,569.8z"/>
		<path class="st3" d="M942.4,573.3h2v-3.5h-2.1v-0.7h4.9v0.7h-2v3.5h2v0.7h-2v4.2c0.2,0,0.5-0.1,0.8-0.2c0.5-0.1,0.9-0.2,1.2-0.3
			c0,0.3,0,0.6,0,0.7c-1.7,0.3-3.3,0.7-5,1l-0.1-0.8c0,0,0.1,0,0.1,0c0.9-0.2,1.6-0.3,2.1-0.4V574h-2V573.3z M948.2,569.3v-0.7h7.9
			v0.7h-3.6c-1.2,3.5-2.8,6.2-4.8,8.3c-0.2-0.2-0.4-0.3-0.7-0.5c2-2,3.6-4.6,4.6-7.8H948.2z M951.3,572.5h0.8v8.3h-0.8V572.5z
			 M952.7,573.3l0.7-0.4c1.1,1.3,2.1,2.7,3.2,4.2l-0.7,0.5C954.7,576,953.7,574.6,952.7,573.3z"/>
		<path class="st3" d="M960.8,578.6l-0.2-0.7c0,0,0.1,0,0.2,0c0.7-0.2,1.3-0.3,1.8-0.4v-5.6h-1.7v-0.7h1.7v-3.5h0.8v3.5h1.5v0.7
			h-1.5v5.4c0.1,0,0.3-0.1,0.5-0.1c0.5-0.1,0.9-0.2,1.2-0.3c0,0.2,0,0.3,0,0.4c0,0.1,0,0.2,0,0.3
			C963.3,577.9,961.9,578.3,960.8,578.6z M965.9,573.2h8v4.4h-2.5v1.6c0,0.3,0.1,0.5,0.2,0.6c0.1,0.1,0.4,0.2,0.8,0.2h0.9
			c0.6,0,1-0.2,1.1-0.7c0.1-0.3,0.1-0.6,0.2-1.1c0.3,0.1,0.5,0.2,0.8,0.2c-0.1,0.5-0.1,0.9-0.2,1.2c-0.1,0.7-0.7,1-1.7,1h-1.2
			c-1.1,0-1.6-0.4-1.6-1.3v-1.6h-1.8c0.1,1.7-1.4,2.8-4.5,3.3c-0.1-0.2-0.3-0.4-0.5-0.7c2.8-0.4,4.2-1.2,4.2-2.5c0-0.1,0-0.1,0-0.2
			h-2.1V573.2z M969.4,567.8l0.7-0.2c0.2,0.5,0.4,1,0.5,1.5h3.9v0.6h-2.4l0.7,0.3c-0.3,0.5-0.7,1-1.1,1.5h3.2v0.6h-9.7v-0.6h2.8
			c-0.3-0.5-0.6-1-1-1.5l0.5-0.3h-2.1v-0.6h4.2c0-0.2-0.1-0.4-0.3-0.8C969.5,568.1,969.4,567.9,969.4,567.8z M966.6,573.8v1.3h6.4
			v-1.3H966.6z M966.6,575.7v1.3h6.4v-1.3H966.6z M968.9,571.3l-0.6,0.3h2.6c0.5-0.8,0.9-1.4,1.1-1.8h-4.2c0.1,0.2,0.4,0.6,0.7,1.1
			C968.8,571.1,968.9,571.2,968.9,571.3z"/>
		<path class="st3" d="M981.7,573.1c0,2.1-0.1,3.6-0.4,4.5c-0.2,1-0.7,2-1.5,3.1c-0.3-0.2-0.6-0.4-0.8-0.5c0.7-1,1.2-1.9,1.5-2.8
			c0.2-0.9,0.4-2.2,0.4-4v-4.7h12.6v0.7h-11.7V573.1z M982.1,579.3h5.3v-5.1h-4.2v-0.7h4.2v-3h0.9v3h4.7v0.7h-4.7v5.1h5.3v0.7h-11.4
			V579.3z M989.9,575.9l0.6-0.4c0.6,0.6,1.3,1.2,2,2l-0.7,0.5C991.2,577.3,990.6,576.6,989.9,575.9z"/>
		<path class="st3" d="M1003.3,567.7h0.9c0,1,0,2.1-0.1,3.1h6.8c-0.1,2.6-0.2,4.8-0.3,6.6c0,2.1-1,3-3,3c-0.4,0-0.8,0-1.2,0
			c-0.4,0-0.8,0-1.3,0c0-0.3-0.1-0.6-0.2-0.8c0.1,0,0.2,0,0.3,0c1,0,1.8,0,2.3,0c0.1,0,0.1,0,0.3,0c1.3,0,1.9-0.8,1.9-2.4
			c0.1-2.1,0.2-3.9,0.2-5.6h-6c0,0,0,0.1,0,0.2c-0.1,4.1-1.9,7.1-5.6,9c-0.3-0.3-0.5-0.5-0.6-0.6c3.6-1.8,5.3-4.5,5.4-8.1
			c0,0,0-0.1,0-0.2c0-0.1,0-0.2,0-0.2h-5v-0.7h5C1003.3,569.8,1003.3,568.8,1003.3,567.7z"/>
		<path class="st3" d="M1018.5,577.2c0.3,0,0.5,0,0.7,0.1c0.2,0.1,0.4,0.2,0.6,0.4c0.2,0.2,0.3,0.3,0.4,0.6c0.1,0.2,0.2,0.5,0.2,0.7
			c0,0.2,0,0.4-0.1,0.7c-0.1,0.2-0.2,0.4-0.4,0.6s-0.4,0.3-0.6,0.4c-0.2,0.1-0.5,0.2-0.8,0.2c-0.3,0-0.5,0-0.8-0.1s-0.4-0.2-0.6-0.4
			s-0.3-0.4-0.4-0.6c-0.1-0.2-0.2-0.4-0.2-0.7c0-0.2,0-0.5,0.2-0.7c0.1-0.2,0.2-0.4,0.4-0.6c0.2-0.2,0.4-0.3,0.6-0.4
			C1018,577.3,1018.2,577.2,1018.5,577.2z M1018.5,580.1c0.1,0,0.3,0,0.4-0.1c0.1-0.1,0.3-0.1,0.4-0.2c0.1-0.1,0.2-0.2,0.3-0.3
			s0.1-0.3,0.1-0.4c0-0.2,0-0.4-0.1-0.5s-0.2-0.3-0.3-0.4s-0.3-0.2-0.4-0.2s-0.3-0.1-0.5-0.1c-0.2,0-0.3,0-0.5,0.1s-0.3,0.2-0.4,0.3
			c-0.1,0.1-0.2,0.2-0.3,0.4c-0.1,0.1-0.1,0.3-0.1,0.4c0,0.1,0,0.3,0.1,0.4c0.1,0.1,0.2,0.3,0.3,0.4c0.1,0.1,0.2,0.2,0.4,0.3
			C1018.2,580.1,1018.3,580.1,1018.5,580.1z"/>
		<path class="st3" d="M1035.6,571.9h-0.6l1-3.3h0.8L1035.6,571.9z M1037.7,571.9h-0.6l1-3.3h0.9L1037.7,571.9z"/>
	</g>
</g>
<image style="overflow:visible;" width="1000" height="1000" xlink:href="B7C8CC61.jpg"  transform="matrix(0.26 0 0 0.26 552.1971 254)">
</image>
<image style="overflow:visible;" width="750" height="750" xlink:href="B7C8CC63.jpg"  transform="matrix(0.3467 0 0 0.3467 838.2373 254)">
</image>
<g>
	<defs>
		<rect id="SVGID_3_" x="266.2" y="254" width="260" height="260"/>
	</defs>
	<clipPath id="SVGID_1_">
		<use xlink:href="#SVGID_3_"  style="overflow:visible;"/>
	</clipPath>
	<g style="clip-path:url(#SVGID_1_);">
		
			<image style="overflow:visible;" width="583" height="498" xlink:href="B7C8CC66.jpg"  transform="matrix(0.523 0 0 0.523 238.4973 254)">
		</image>
	</g>
</g>
<polygon class="st0" points="1260.3,406.2 1267.5,408.5 1285.9,383.9 1285.7,383.8 1285.9,383.8 1267,359.5 1259.9,362 
	1276.3,383.9 "/>
<polygon class="st0" points="105.7,406.2 98.5,408.5 80.1,383.9 80.3,383.8 80.1,383.8 99,359.5 106.1,362 89.7,383.9 "/>
</svg>
