<?xml version="1.0" encoding="utf-8"?>
<!-- Generator: Adobe Illustrator 22.0.0, SVG Export Plug-In . SVG Version: 6.00 Build 0)  -->
<svg version="1.1" id="图层_1" xmlns="http://www.w3.org/2000/svg" xmlns:xlink="http://www.w3.org/1999/xlink" x="0px" y="0px"
	 viewBox="0 0 99.9 104.2" style="enable-background:new 0 0 99.9 104.2;" xml:space="preserve">
<style type="text/css">
	.st0{fill:#B4D3E0;}
	.st1{fill:#A0BDCD;}
	.st2{opacity:0.6;}
	.st3{opacity:0.8;fill:#FFFFFF;enable-background:new    ;}
	.st4{fill:#FFFFFF;}
</style>
<g>
	<g>
		<path class="st0" d="M100.4,25.5C93.5,32.1,84,38.6,82.7,45c-0.7,3.6-1.5,6.7-2.2,9.5c-21.1,0-42.8-3-59.6-6.1
			c3.1-5.8,7.2-10.6,8.6-14.5c3.6-10.1,4-21.5,4.4-34C56.9,8.8,78.2,17,100.4,25.5z"/>
		<path class="st1" d="M72.7,82.5c-1.4,7.9-3.1,12.3-2.2,22.1c-2.3-0.9-5.1-1.2-6.9-2.9c-4.5-4.4-5.3-6.7-18.8-9.6
			C30.6,89,19,82.3,5.8,76.8C-0.5,74.2,1,71.6,5,67.3c6.1-6.5,10.8-7.1,14.4-15.3c0.5-1.2,1-2.3,1.6-3.4c16.7,3.1,38.5,6,59.6,6.1
			C77.3,67.2,74.4,72.9,72.7,82.5z"/>
	</g>
	<g>
		<g class="st2">
			<circle class="st3" cx="53.9" cy="57.2" r="5.9"/>
			<path class="st4" d="M57.6,54.9c-0.2,0.1-0.4,0-0.6-0.1c-1.6-1.7-3.2-1.4-3.3-1.4c-0.3,0.1-0.6-0.1-0.6-0.4
				c-0.1-0.3,0.1-0.6,0.4-0.6c0.1,0,2.2-0.4,4.3,1.7c0.2,0.2,0.2,0.6,0,0.8C57.7,54.8,57.6,54.9,57.6,54.9z"/>
		</g>
		<g>
			<circle class="st3" cx="43" cy="34.1" r="2.8"/>
			<path class="st4" d="M44.8,33c-0.1,0-0.2,0-0.3-0.1c-0.8-0.8-1.5-0.7-1.5-0.7c-0.1,0-0.3-0.1-0.3-0.2s0.1-0.3,0.2-0.3
				c0,0,1-0.2,2,0.8C45,32.7,45,32.9,44.8,33L44.8,33z"/>
		</g>
	</g>
</g>
</svg>
