<?xml version="1.0" encoding="utf-8"?>
<!-- Generator: Adobe Illustrator 22.0.0, SVG Export Plug-In . SVG Version: 6.00 Build 0)  -->
<svg version="1.1" id="图层_1" xmlns="http://www.w3.org/2000/svg" xmlns:xlink="http://www.w3.org/1999/xlink" x="0px" y="0px"
	 viewBox="0 0 94.3 147.3" style="enable-background:new 0 0 94.3 147.3;" xml:space="preserve">
<style type="text/css">
	.st0{opacity:0.49;}
	.st1{opacity:0.8;fill:#FFFFFF;}
	.st2{fill:#FFFFFF;}
</style>
<g class="st0">
	<g>
		<circle class="st1" cx="46.9" cy="84" r="20.1"/>
		<path class="st2" d="M61.4,80.8c-0.7,0-1.4-0.4-1.7-1.1c-3.2-7.3-8.6-8.2-8.8-8.2c-1-0.2-1.7-1.1-1.6-2.1c0.2-1,1.1-1.7,2.1-1.6
			c0.3,0,7.6,1.2,11.7,10.4c0.4,0.9,0,2-0.9,2.5C61.9,80.7,61.6,80.8,61.4,80.8z"/>
	</g>
	<g>
		<circle class="st1" cx="81.8" cy="52.2" r="11.8"/>
		<path class="st2" d="M90.3,50.3c-0.4,0-0.8-0.2-1-0.7c-1.9-4.3-5.1-4.8-5.2-4.8c-0.6-0.1-1-0.7-0.9-1.2c0.1-0.6,0.6-1,1.2-0.9
			c0.2,0,4.5,0.7,6.9,6.1c0.2,0.6,0,1.2-0.6,1.4C90.6,50.3,90.4,50.3,90.3,50.3z"/>
	</g>
	<g>
		<circle class="st1" cx="68.6" cy="138.4" r="8.8"/>
		<path class="st2" d="M74.9,137c-0.3,0-0.6-0.2-0.7-0.5c-1.4-3.2-3.8-3.6-3.9-3.6c-0.4-0.1-0.7-0.5-0.7-0.9
			c0.1-0.4,0.5-0.7,0.9-0.7c0.1,0,3.3,0.5,5.1,4.5c0.2,0.4,0,0.9-0.4,1.1C75.2,136.9,75.1,137,74.9,137z"/>
	</g>
	<g>
		<circle class="st1" cx="54.3" cy="7.2" r="7.1"/>
		<path class="st2" d="M59.4,6c-0.3,0-0.5-0.1-0.6-0.4c-1.1-2.6-3-2.9-3.1-2.9c-0.4-0.1-0.6-0.4-0.5-0.7c0.1-0.4,0.4-0.6,0.7-0.6
			c0.1,0,2.7,0.4,4.1,3.7c0.1,0.3,0,0.7-0.3,0.9C59.6,6,59.5,6,59.4,6z"/>
	</g>
	<g>
		<circle class="st1" cx="8.6" cy="74.2" r="8.1"/>
		<path class="st2" d="M14.5,72.9c-0.3,0-0.6-0.2-0.7-0.4c-1.3-2.9-3.5-3.3-3.6-3.3c-0.4-0.1-0.7-0.5-0.6-0.9
			c0.1-0.4,0.4-0.7,0.9-0.6c0.1,0,3.1,0.5,4.7,4.2c0.2,0.4,0,0.8-0.4,1C14.7,72.9,14.6,72.9,14.5,72.9z"/>
	</g>
</g>
</svg>
