<?xml version="1.0" encoding="utf-8"?>
<!-- Generator: Adobe Illustrator 22.0.0, SVG Export Plug-In . SVG Version: 6.00 Build 0)  -->
<svg version="1.1" id="图层_1" xmlns="http://www.w3.org/2000/svg" xmlns:xlink="http://www.w3.org/1999/xlink" x="0px" y="0px"
	 viewBox="0 0 198 234" style="enable-background:new 0 0 198 234;" xml:space="preserve">
<style type="text/css">
	.st0{fill:#29ABE2;}
</style>
<path class="st0" d="M171.6,52.7c0,16.2,15.9,27.9,9.5,44c-7.5,16.7-0.3,20.3-10.5,37.2c-3.8,10.4,9.2,31.6-3.1,57.2
	c-6.2,12.8-29.9,38.3-43.6,32.1c-58.8-26.6-54.5,1.7-72.4-8.2c-18-9.9-22.8-23.8-34-40.9C8.5,160.4,8.1,160.2,5,143.6
	c-1.4-7.4,8.9-20.5,13.8-26.6c11.4-14.2,8.8-15.7,25.1-33.2c13.3-14.2-2.8-24.4,11.5-39.6C63.2,36,67,11.1,78.1,7.9
	s21.3-2.2,24.3,8.2c2.3,8.3-37.2,45.4-16.3,55.9c12.4,6.2,22,12.1,35.4,9.9c17.1-2.8,18.3-36.3,25.9-64.8c2.5-10.8,34.2-12,38-2.5
	C189,23.6,171.6,42.4,171.6,52.7z"/>
</svg>
