<?xml version="1.0" encoding="utf-8"?>
<!-- Generator: Adobe Illustrator 23.0.0, SVG Export Plug-In . SVG Version: 6.00 Build 0)  -->
<svg version="1.1" id="图层_1" xmlns="http://www.w3.org/2000/svg" xmlns:xlink="http://www.w3.org/1999/xlink" x="0px" y="0px"
	 viewBox="0 0 198 234" style="enable-background:new 0 0 198 234;" xml:space="preserve">
<style type="text/css">
	.st0{fill:#29ABE2;}
</style>
<path class="st0" d="M181,40.06c0,17.05,20.49,48.31,17,64c-2,9-8.39,8.57-14,24c-4,11,15,27,2,54c-6.5,13.5-36.55,57.52-51,51
	c-62-28-61.09,1.46-80-9c-18.91-10.46-30.22-28.98-42-47c-9.36-14.31-9.77-14.56-13-32c-1.45-7.84,15.84-14.55,21-21
	c12-15,2.85-23.63,20-42c14-15,5-24,20-40c8.15-8.7,4.3-36.6,16-40s17.96-5.04,31,8c4,4-35,47-13,58c13.07,6.53,24.87,7.36,39,5
	c18-3,16-32,24-62c1.82-6.83,28-12,32-2C193.84,18.67,181,29.24,181,40.06z"/>
</svg>
