<?xml version="1.0" encoding="utf-8"?>
<!-- Generator: Adobe Illustrator 23.0.0, SVG Export Plug-In . SVG Version: 6.00 Build 0)  -->
<svg version="1.1" id="图层_1" xmlns="http://www.w3.org/2000/svg" xmlns:xlink="http://www.w3.org/1999/xlink" x="0px" y="0px"
	 viewBox="0 0 198 234" style="enable-background:new 0 0 198 234;" xml:space="preserve">
<style type="text/css">
	.st0{fill:#29ABE2;}
</style>
<path class="st0" d="M176.85,43.95c0,16.18,19.45,45.86,16.14,60.75c-1.9,8.54-7.96,8.14-13.29,22.78
	c-3.8,10.44,14.24,25.63,1.9,51.26c-6.17,12.81-34.7,54.6-48.41,48.41c-58.85-26.58-57.99,1.39-75.94-8.54
	C39.29,208.68,28.55,191.1,17.37,174c-8.89-13.58-9.27-13.82-12.34-30.38c-1.38-7.44,15.04-13.81,19.93-19.93
	c11.39-14.24,2.71-22.43,18.99-39.87c13.29-14.24,4.75-22.78,18.99-37.97c7.74-8.26,4.08-34.74,15.19-37.97s17.05-4.78,29.43,7.59
	c3.8,3.8-33.22,44.62-12.34,55.06c12.41,6.2,23.61,6.99,37.02,4.75c17.09-2.85,15.19-30.38,22.78-58.85
	c1.73-6.48,26.58-11.39,30.38-1.9C189.04,23.64,176.85,33.68,176.85,43.95z"/>
</svg>
