<?xml version="1.0" encoding="utf-8"?>
<!-- Generator: Adobe Illustrator 23.0.0, SVG Export Plug-In . SVG Version: 6.00 Build 0)  -->
<svg version="1.1" id="图层_1" xmlns="http://www.w3.org/2000/svg" xmlns:xlink="http://www.w3.org/1999/xlink" x="0px" y="0px"
	 viewBox="0 0 432 128" style="enable-background:new 0 0 432 128;" xml:space="preserve">
<style type="text/css">
	.st0{fill:#29ABE2;}
</style>
<path class="st0" d="M178.71,114.36c-8.22,0-9.59,8.22-21.93,8.22c-9.59,0-18.21-8.61-21.93-6.85
	c-26.04,12.34-116.51,9.59-123.36,1.37c-7.45-8.93-10.97-90.46,0-104.17c8.48-10.6,104.17-9.59,111.02-8.22
	c6.72,1.34,8.22,6.85,19.19,6.85c9.59,0,9.59-6.85,19.19-6.85s10.97,9.59,19.19,9.59c6.85,0,10.97-8.22,21.93-8.22
	c20.56,0,139.81-8.22,171.33,28.78c10.13,11.9,38.38-1.37,52.08,8.22c1.59,1.11,2.74,2.74,2.74,10.97c0,5.48,1.37,20.56-1.37,27.41
	c-1.84,4.59-6.87,6.33-13.71,6.85c-17.82,1.37-31.53-4.11-35.64,0c-38.48,38.48-136.97,31.53-178.18,31.53
	C192.42,119.85,185.57,114.36,178.71,114.36z"/>
</svg>
