<?xml version="1.0" encoding="utf-8"?>
<!-- Generator: Adobe Illustrator 23.0.0, SVG Export Plug-In . SVG Version: 6.00 Build 0)  -->
<svg version="1.1" id="图层_1" xmlns="http://www.w3.org/2000/svg" xmlns:xlink="http://www.w3.org/1999/xlink" x="0px" y="0px"
	 viewBox="0 0 91 309" style="enable-background:new 0 0 91 309;" xml:space="preserve">
<style type="text/css">
	.st0{fill:#29ABE2;}
</style>
<path class="st0" d="M84,182.26c0,6,6,7,6,16c0,7-6.28,13.29-5,16c9,19,7,85,1,90c-6.52,5.43-66,8-76,0c-7.73-6.18-7-76-6-81
	c0.98-4.9,5-6,5-14c0-7-5-7-5-14s7-8,7-14c0-5-6-8-6-16c0-15-6-102,21-125c8.68-7.39-1-28,6-38c0.81-1.16,2-2,8-2c4,0,15-1,20,1
	c3.35,1.34,4.62,5.01,5,10c1,13-3,23,0,26c28.07,28.07,23,99.93,23,130C88,172.26,84,177.26,84,182.26z"/>
</svg>
