<?xml version="1.0" encoding="utf-8"?>
<!-- Generator: Adobe Illustrator 23.0.0, SVG Export Plug-In . SVG Version: 6.00 Build 0)  -->
<svg version="1.1" id="图层_1" xmlns="http://www.w3.org/2000/svg" xmlns:xlink="http://www.w3.org/1999/xlink" x="0px" y="0px"
	 viewBox="0 0 91 242" style="enable-background:new 0 0 91 242;" xml:space="preserve">
<style type="text/css">
	.st0{fill:#29ABE2;}
</style>
<path class="st0" d="M82,155.26c-1,7-4,16-4,24c0,17.97,2,22,3,26c1.94,7.76,1.77,11.94,0,19c-1,4-3.29,7.37-6,9c-5,3-22,3-29,3
	s-22.57-1.37-27-2c-7-1-10-4-9-16c0.71-8.54,5.9-32.32,4-41c-7-32-8-37-7-61c1.22-29.25,10-52,23-74c2.74-4.64-3-17,0-29
	c0.54-2.17,3-8,11-8c4,0,13-1,17,2c1.13,0.85,4,3,4,12s-2,19-1,23c3.77,15.08,15.68,21.89,21,57C87,132.26,84.28,139.3,82,155.26z"
	/>
</svg>
