<?xml version="1.0" encoding="utf-8"?>
<!-- Generator: Adobe Illustrator 23.0.0, SVG Export Plug-In . SVG Version: 6.00 Build 0)  -->
<svg version="1.1" id="图层_1" xmlns="http://www.w3.org/2000/svg" xmlns:xlink="http://www.w3.org/1999/xlink" x="0px" y="0px"
	 viewBox="0 0 220 279" style="enable-background:new 0 0 220 279;" xml:space="preserve">
<style type="text/css">
	.st0{fill:#29ABE2;}
</style>
<path class="st0" d="M212,40.43c3,18,9,47,8,61c-1.78,24.94-23.86,162.58-25,166c-3,9-13.72,12.8-24,11c-40-7-110.98-11.6-164-58
	c-8-7-7.55-18.23-7-21c1-5,7-19,19-42c8.51-16.31,12-23,23-42c4.3-7.42,28-43,36-52c6.27-7.05,7-11,21-29c12.47-16.03,22-28,26-31
	c3.58-2.68,10-5,18,0c5.69,3.56,7,10,6,14c-4.37,17.49-25.11,44.89-14,56c6,6,23,16,37,14c9.08-1.3,7-7,11-19c7.11-21.32,7-22,12-31
	C199.18,29.91,210.68,32.54,212,40.43z"/>
</svg>
