<?xml version="1.0" encoding="utf-8"?>
<!-- Generator: Adobe Illustrator 23.0.0, SVG Export Plug-In . SVG Version: 6.00 Build 0)  -->
<svg version="1.1" id="图层_1" xmlns="http://www.w3.org/2000/svg" xmlns:xlink="http://www.w3.org/1999/xlink" x="0px" y="0px"
	 viewBox="0 0 349 214" style="enable-background:new 0 0 349 214;" xml:space="preserve">
<style type="text/css">
	.st0{fill:#005877;}
</style>
<path class="st0" d="M271,141c-19,4-55.86,21.07-69,26c-24,9-89.61,34.77-93,36c-11,4-18.92,9-25,9c-12,0-28,0.57-42,1
	c-10.63,0.33-32,1-38,0c-5.03-0.84-3.61-27.95-3-34c1-10,1-43,2-56c0.66-8.55,0-17,1-25c1.17-9.36-2-48,0-58c0.44-2.19,40-17,44-20
	c3.58-2.68,50-22,55-20c6.23,2.49,46.23,20.33,50,22c18,8,64.95,29.97,79,37c4,2,21,10,30,14c8.38,3.73,78.06,29.06,87,38
	c1,1-19,9-25,11C315.84,124.72,278.83,139.35,271,141z"/>
</svg>
