<?xml version="1.0" encoding="utf-8"?>
<!-- Generator: Adobe Illustrator 23.0.0, SVG Export Plug-In . SVG Version: 6.00 Build 0)  -->
<svg version="1.1" id="图层_1" xmlns="http://www.w3.org/2000/svg" xmlns:xlink="http://www.w3.org/1999/xlink" x="0px" y="0px"
	 viewBox="0 0 347 220" style="enable-background:new 0 0 347 220;" xml:space="preserve">
<style type="text/css">
	.st0{fill:#29ABE2;}
</style>
<path class="st0" d="M347,114.02c0,4-68,25-92,35c-16.58,6.91-71,27-89,34c-20.71,8.06-62.5,24.83-84,32c-6,2-33.95,1-51,1
	c-12,0-25.93,0.77-29,0c-4-1-2-50-2-53s1-23,1-27c0-3.16,1-23.12,1-32c0-29.06,0-15.97,0-43c0-3-2-17-0.01-18.59
	c2.59-2.08,23.73-8.8,36.01-13.41c8-3,47.94-22.23,63-26c4-1,73,34,82,37c6,2,39,18,47,22c14.01,7,37.42,17.17,52,23
	c5,2,16.31,7.7,31,14C320,102.02,347,114.02,347,114.02z"/>
</svg>
