<?xml version="1.0" encoding="utf-8"?>
<!-- Generator: Adobe Illustrator 22.0.0, SVG Export Plug-In . SVG Version: 6.00 Build 0)  -->
<svg version="1.1" id="图层_1" xmlns="http://www.w3.org/2000/svg" xmlns:xlink="http://www.w3.org/1999/xlink" x="0px" y="0px"
	 viewBox="0 0 408 225" style="enable-background:new 0 0 408 225;" xml:space="preserve">
<style type="text/css">
	.st0{fill:#29ABE2;}
</style>
<path class="st0" d="M404.9,108.1c0,21-7.4,37.6-13,34.6c-23-12-32.2-45.3-51.8-49.8c-13-3-32.4,15.2-33,26c-2,33-28.6,48.1-60,70
	c-30,21-114.6,41.1-96,15c10-14,16.7-15.1,29-24c15.8-11.5,37.8-19.4,30-37c-1-7-22.1,5.1-92,0c-41-3-49.9,42.4-85,45
	c-27,2-14.8-29.5-2-41c10.5-9.4,12.7-6.7,22-25c9.9-8.6,26-105,144-117c53-5.4,93,11,115,17c8.7,2.4,16,4,23,0
	c11.1-6.4,38.7-35.2,63-15c24,20-22.8,48-22,56C377,73,404.9,75.1,404.9,108.1z"/>
</svg>
