<?xml version="1.0" encoding="utf-8"?>
<!-- Generator: Adobe Illustrator 23.0.0, SVG Export Plug-In . SVG Version: 6.00 Build 0)  -->
<svg version="1.1" id="图层_1" xmlns="http://www.w3.org/2000/svg" xmlns:xlink="http://www.w3.org/1999/xlink" x="0px" y="0px"
	 viewBox="0 0 408 225" style="enable-background:new 0 0 408 225;" xml:space="preserve">
<style type="text/css">
	.st0{fill:#29ABE2;}
</style>
<path class="st0" d="M393,110.97c0,21-20.39,47.93-26,45c-23-12-7.41-58.48-27-63c-13-3-32.35,15.25-33,26c-2,33-26.64,60.05-58,82
	c-30,21-105.61,37.05-87,11c10-14,24-18,29-24c11.77-14.12,21.98-24.12,19-45c-1-7-22.07,5.12-92,0c-41-3-65.87,42.4-101,45
	c-27,2-16-31-2-41c10.44-7.45,23-12,38-25c9.91-8.59,26-105,144-117c52.96-5.39,93,11,115,17c8.74,2.38,16,4,23,0
	c11.12-6.35,38.71-35.24,63-15c24,20-22.8,48.04-22,56C377,72.97,393,77.91,393,110.97z"/>
</svg>
