<?xml version="1.0" encoding="utf-8"?>
<!-- Generator: Adobe Illustrator 23.0.0, SVG Export Plug-In . SVG Version: 6.00 Build 0)  -->
<svg version="1.1" id="图层_1" xmlns="http://www.w3.org/2000/svg" xmlns:xlink="http://www.w3.org/1999/xlink" x="0px" y="0px"
	 viewBox="0 0 332 347" style="enable-background:new 0 0 332 347;" xml:space="preserve">
<style type="text/css">
	.st0{fill:#29ABE2;}
</style>
<path class="st0" d="M244,240.5c-5.04,17.63-10,41-13,57c-3.31,17.66-2.77,41.94-1,49c1,4-18-5-24-11c-11.4-11.4-18.88-19.39-35-24
	c-7-2-45-10-58-16c-21.11-9.74-90.45-37.11-99-42c-7-4-16.24-9.29-14-16c5-15,50-45,53-54c2.86-8.59,22-46,37-64
	c6.92-8.31,8.74-27.12,13-47c3-14,3-73,5-73c4,0,41,14,45,16s83.41,33.16,98,39c5,2,69,26,77,30c2,1-16.85,16.38-31,27
	c-8,6-26.44,18.28-28,37C267,172.5,248,226.5,244,240.5z"/>
</svg>
