<?xml version="1.0" encoding="utf-8"?>
<!-- Generator: Adobe Illustrator 23.0.0, SVG Export Plug-In . SVG Version: 6.00 Build 0)  -->
<svg version="1.1" id="图层_1" xmlns="http://www.w3.org/2000/svg" xmlns:xlink="http://www.w3.org/1999/xlink" x="0px" y="0px"
	 viewBox="0 0 287 288" style="enable-background:new 0 0 287 288;" xml:space="preserve">
<style type="text/css">
	.st0{fill:#29ABE2;}
</style>
<path class="st0" d="M284,142.5c0,18.34-3.48,35.86-9.8,51.95c-6.58,16.72-16.23,31.89-28.27,44.81
	c-15.15,16.26-34.07,28.97-55.37,36.72c-15.15,5.51-31.5,8.52-48.55,8.52c-24.89,0-48.28-6.4-68.62-17.65
	c-20.34-11.25-37.63-27.35-50.3-46.73C13,204.72,5.85,187.26,2.38,168.5C0.82,160.07,0,151.38,0,142.5
	c0-29.06,8.73-56.08,23.71-78.58c11.25-16.9,26.03-31.26,43.28-42.01c10.88-6.78,22.75-12.13,35.34-15.79S128.23,0.5,142,0.5
	c16.61,0,32.55,2.85,47.37,8.09s28.5,12.87,40.59,22.42c12.29,9.71,22.93,21.4,31.45,34.6c8.43,13.06,14.77,27.59,18.56,43.12
	C282.6,119.56,284,130.87,284,142.5z"/>
</svg>
