<?xml version="1.0" encoding="UTF-8"?>
    <svg class="ssvg">
        <symbol id="icon-arrow" viewBox="0 0 24 24">
            <title>arrow</title>
            <polygon points="6.3,12.8 20.9,12.8 20.9,11.2 6.3,11.2 10.2,7.2 9,6 3.1,12 9,18 10.2,16.8"/>
        </symbol>
        <symbol id="icon-drop" viewBox="0 0 24 24">
            <title>drop</title>
            <path d="M 12 21 c -3.6 0 -6.6 -3 -6.6 -6.6 C 5.4 11 10.8 4 11.4 3.2 C 11.6 3.1 11.8 3 12 3 s 0.4 0.1 0.6 0.3 c 0.6 0.8 6.1 7.8 6.1 11.2 C 18.6 18.1 15.6 21 12 21 z M 12 4.8 c -1.8 2.4 -5.2 7.4 -5.2 9.6 c 0 2.9 2.3 5.2 5.2 5.2 s 5.2 -2.3 5.2 -5.2 C 17.2 12.2 13.8 7.3 12 4.8 z"/><path d="M 12 18.2 c -0.4 0 -0.7 -0.3 -0.7 -0.7 s 0.3 -0.7 0.7 -0.7 c 1.3 0 2.4 -1.1 2.4 -2.4 c 0 -0.4 0.3 -0.7 0.7 -0.7 c 0.4 0 0.7 0.3 0.7 0.7 C 15.8 16.5 14.1 18.2 12 18.2 z"/>
        </symbol>
        <symbol id="shape-demo" viewBox="0 0 200 100">
            <title>shape demo</title>
            <path d="M 6.1 74.1 C 20.4 107.4 70.1 94.3 94.2 95.7 C 121.3 97.4 130.8 101.1 154.7 99.4 C 178.6 97.7 201.9 79 199.4 46.9 C 197.1 15 174.9 4.8 161.4 1.8 C 147.9 -1.1 119.8 8.3 105.6 8.8 C 85.3 9.4 81.9 7.6 51.1 2.3 C 17.3 -3.5 -8.1 40.8 6.1 74.1 Z" />
        </symbol>
    </svg>