<?xml version="1.0" encoding="utf-8"?>
<!-- Generator: Adobe Illustrator 23.0.0, SVG Export Plug-In . SVG Version: 6.00 Build 0)  -->
<svg version="1.1" id="图层_1" xmlns="http://www.w3.org/2000/svg" xmlns:xlink="http://www.w3.org/1999/xlink" x="0px" y="0px"
	 viewBox="0 0 84 31" style="enable-background:new 0 0 84 31;" xml:space="preserve">
<style type="text/css">
	.st0{fill:#88A1B7;stroke:#B3B3B3;stroke-width:0.9317;stroke-miterlimit:10;}
	.st1{fill:#FFFFFF;}
</style>
<rect x="0.96" y="1.42" class="st0" width="82.08" height="28.07"/>
<g>
	<path class="st1" d="M41.97,13.68c-0.32,0.4-0.69,0.89-1.1,1.47c-0.28-0.22-0.56-0.45-0.82-0.69c-0.1,2.45-0.18,3.92-0.24,4.43
		c-0.06,0.51-0.25,0.9-0.57,1.18c-0.32,0.28-0.77,0.42-1.35,0.42c-0.79,0-1.53-0.01-2.23-0.03c-0.07-0.64-0.15-1.21-0.24-1.73
		c0.99,0.08,1.71,0.13,2.16,0.13c0.26,0,0.43-0.12,0.5-0.35c0.07-0.24,0.13-1.2,0.17-2.88h-2.84c-0.07,1.08-0.22,1.9-0.46,2.47
		c-0.24,0.57-0.62,1.09-1.14,1.56c-0.52,0.46-1.17,0.87-1.95,1.21c-0.47-0.64-0.87-1.12-1.19-1.46c0.68-0.27,1.24-0.57,1.68-0.9
		c0.44-0.33,0.76-0.68,0.95-1.06c0.19-0.37,0.32-0.98,0.39-1.82h-1.64v-0.91c-0.19,0.15-0.39,0.29-0.59,0.42
		c-0.35-0.5-0.7-0.93-1.05-1.3c1.73-1.22,3.04-2.66,3.92-4.34l1.54,0.67c-0.8,1.51-1.8,2.8-3.01,3.88h6.72
		c-1.17-1.13-2.15-2.4-2.91-3.79l1.42-0.73C39.06,11.19,40.36,12.58,41.97,13.68z"/>
	<path class="st1" d="M42.31,17.38h5.24v-0.15l2.3-0.62h-6.71v-1.19h9.3v1.29l-2.16,0.68h3.31v1.24h-4.48v0.55
		c0,0.52-0.14,0.9-0.43,1.15c-0.29,0.25-0.71,0.38-1.26,0.38c-0.55,0-1.21,0-1.98,0c-0.07-0.41-0.18-0.89-0.34-1.44
		c0.58,0.03,1.13,0.05,1.65,0.05c0.31,0,0.52-0.05,0.63-0.16c0.11-0.11,0.17-0.29,0.17-0.54h-5.24V17.38z M42.4,10.39h4.67
		c-0.1-0.24-0.21-0.5-0.32-0.76l1.85-0.28c0.15,0.36,0.28,0.7,0.39,1.03h4.5v1.22H42.4V10.39z M43.63,14.93V12.1h8.51v2.82H43.63z
		 M50.6,13.83v-0.62h-5.43v0.62H50.6z"/>
</g>
</svg>
