<?xml version="1.0" encoding="utf-8"?>
<!-- Generator: Adobe Illustrator 23.0.0, SVG Export Plug-In . SVG Version: 6.00 Build 0)  -->
<svg version="1.1" id="图层_1" xmlns="http://www.w3.org/2000/svg" xmlns:xlink="http://www.w3.org/1999/xlink" x="0px" y="0px"
	 viewBox="0 0 644 402" style="enable-background:new 0 0 644 402;" xml:space="preserve">
<style type="text/css">
	.st0{fill:#FFFFFF;}
	.st1{fill:#F2F2F2;stroke:#B3B3B3;stroke-width:0.9317;stroke-miterlimit:10;}
	.st2{fill:#999999;}
	.st3{fill:#88A1B7;}
	.st4{fill:#F2F2F2;}
	.st5{fill:none;stroke:#B3B3B3;stroke-width:0.9317;stroke-miterlimit:10;}
	.st6{fill:none;stroke:#B3B3B3;stroke-width:0.9317;stroke-miterlimit:10;stroke-dasharray:12.8736,5.5173;}
	.st7{fill:none;stroke:#B3B3B3;stroke-width:0.9317;stroke-miterlimit:10;stroke-dasharray:13.3274,5.7117;}
	.st8{fill:#B3B3B3;}
</style>
<rect x="-1.5" y="0.39" class="st0" width="645" height="400"/>
<circle class="st1" cx="51.59" cy="108.97" r="34.53"/>
<g>
	<path class="st2" d="M100.88,107.55h1v-1.71h1.37v1.71h0.75v1.32h-0.75v1.65c0.29-0.07,0.57-0.14,0.84-0.21
		c-0.01,0.56,0,1.03,0.01,1.43l-0.85,0.24v2.88c0,0.55-0.12,0.92-0.36,1.11c-0.24,0.19-0.84,0.28-1.79,0.26
		c-0.07-0.41-0.16-0.87-0.26-1.38h0.81c0.15,0,0.22-0.11,0.22-0.32v-2.16l-0.94,0.26l-0.12-1.57l1.06-0.22v-1.97h-1V107.55z
		 M108.41,110.67h1.32v0.51h1.29v1.07h-1.29v0.82h1.67v1.07h-2.55c0.63,0.2,1.51,0.54,2.66,1.01l-0.63,1.2
		c-1.14-0.57-2.07-0.99-2.8-1.27l0.52-0.94h-2.06l0.57,0.93c-0.94,0.49-1.89,0.92-2.85,1.28l-0.62-1.15
		c0.61-0.17,1.5-0.52,2.66-1.06h-2.56v-1.07h1.66v-0.82h-1.14v-1.07h1.14v-0.51h1.32v0.51h1.68V110.67z M107.66,108.97
		c-0.08,0.66-0.24,1.08-0.48,1.27c-0.24,0.19-0.61,0.28-1.11,0.28h-0.78c-0.73,0-1.1-0.38-1.1-1.13v-3.26h3.18v2.52h-0.56
		C107.08,108.78,107.37,108.89,107.66,108.97z M106.26,107.74v-0.68h-0.9v0.68H106.26z M105.67,109.45h0.3
		c0.18,0,0.31-0.04,0.38-0.13c0.07-0.09,0.14-0.31,0.18-0.67h-1.17v0.46C105.36,109.34,105.47,109.45,105.67,109.45z M106.73,113.08
		h1.68v-0.82h-1.68V113.08z M111.48,109c-0.11,0.65-0.27,1.06-0.49,1.25c-0.21,0.19-0.6,0.28-1.16,0.28h-0.92
		c-0.75,0-1.12-0.38-1.12-1.13v-3.26h3.27v2.52h-0.42C110.96,108.8,111.24,108.91,111.48,109z M109.95,107.74v-0.68h-0.98v0.68
		H109.95z M109.31,109.45h0.42c0.21,0,0.36-0.05,0.44-0.15c0.08-0.1,0.13-0.32,0.16-0.65h-1.36v0.46
		C108.97,109.34,109.09,109.45,109.31,109.45z"/>
	<path class="st2" d="M111.83,112.87h7.65v1.32h-7.65V112.87z M113.03,112.08l0.5-3.63h-1.34v-2.29h9.8v2.29h-1.52v-0.94h-6.77v0.53
		h1.32l-0.09,0.62h6.23v1.32h-6.4l-0.1,0.77h7.07l-0.12,3.19c-0.03,0.7-0.21,1.24-0.55,1.61c-0.34,0.37-0.77,0.57-1.3,0.59
		s-1.35,0.04-2.46,0.04c-0.09-0.4-0.2-0.89-0.35-1.48l2.07,0.04c0.34,0,0.6-0.08,0.77-0.23c0.18-0.15,0.28-0.36,0.3-0.61
		c0.02-0.25,0.04-0.86,0.07-1.82H113.03z"/>
	<path class="st2" d="M122.68,112.2c0.67-1.04,1.15-2.03,1.44-2.97h-1.33v-1.4h1.37v-1.98h1.41v1.98h1.19v1.4h-1.19v0.95
		c0.49,0.27,0.95,0.54,1.38,0.81l-0.63,1.22c-0.24-0.19-0.49-0.38-0.75-0.57v4.65h-1.41v-4.23c-0.3,0.69-0.66,1.36-1.08,2.02
		C122.95,113.41,122.82,112.78,122.68,112.2z M127.04,106.38h5.85v9.95h-1.47v-0.53h-2.9v0.53h-1.47V106.38z M131.42,107.75h-2.9
		v1.32h2.9V107.75z M128.52,111.74h2.9v-1.32h-2.9V111.74z M128.52,114.43h2.9v-1.35h-2.9V114.43z"/>
	<path class="st2" d="M140,105.79h1.6v2.74h2.56v1.41h-7.28c0.01,0.49,0,0.96-0.04,1.41h5.35v4.91h-1.6v-3.5h-3.94
		c-0.3,1.49-0.9,2.69-1.8,3.62c-0.38-0.44-0.79-0.86-1.23-1.26c1.14-1,1.71-2.7,1.71-5.1v-4.04h1.55v2.55H140V105.79z"/>
	<path class="st2" d="M145.26,107.44h3.81c-0.02-0.45-0.05-0.99-0.07-1.61h1.35c0.04,0.66,0.08,1.19,0.12,1.61h4.09v6.97
		c0,1.1-0.53,1.68-1.58,1.72c-0.52,0.02-1.12,0.03-1.79,0.02c-0.08-0.41-0.18-0.87-0.32-1.4c0.56,0.04,1.09,0.06,1.61,0.05
		c0.42,0,0.63-0.23,0.63-0.68v-1.41c-0.35,0.28-0.74,0.66-1.17,1.14c-0.82-0.73-1.47-1.64-1.96-2.73c-0.48,0.93-1.24,1.86-2.27,2.8
		c-0.32-0.39-0.64-0.73-0.97-1.01v3.33h-1.45V107.44z M149.21,108.84h-2.5v3.88c1.27-0.93,2.13-2.04,2.6-3.33
		C149.27,109.2,149.24,109.02,149.21,108.84z M153.1,112.68v-3.84h-2.46C150.96,110.34,151.78,111.62,153.1,112.68z"/>
	<path class="st2" d="M157.29,116.34v-3.25c-0.34,0.16-0.7,0.31-1.07,0.46c-0.18-0.39-0.41-0.81-0.68-1.26
		c1.9-0.57,3.5-1.49,4.78-2.77h1.38l-0.14,0.19c1.26,1.22,2.79,2.05,4.6,2.5c-0.25,0.44-0.47,0.89-0.67,1.33
		c-0.38-0.14-0.75-0.28-1.1-0.44v3.23H163v-0.56h-4.33v0.56H157.29z M159.72,105.95l1.76-0.21c0.1,0.25,0.23,0.58,0.38,0.98h3.83
		v2.34h-1.55v-1.11h-6.64v1.11h-1.55v-2.34h4.08C159.92,106.42,159.81,106.17,159.72,105.95z M159.43,108.08l0.83,0.97
		c-0.98,0.7-2.14,1.37-3.5,2.03c-0.17-0.31-0.42-0.72-0.74-1.22C157.21,109.38,158.35,108.79,159.43,108.08z M163,113.36h-4.33v1.23
		H163V113.36z M160.83,110.69c-0.5,0.52-1.11,1.01-1.85,1.47h3.63C161.92,111.73,161.33,111.23,160.83,110.69z M162.19,108.15
		c1.12,0.53,2.28,1.11,3.47,1.75l-0.76,1.21c-1-0.66-2.13-1.33-3.4-2.01L162.19,108.15z"/>
	<path class="st2" d="M166.83,114.09c0-0.27,0.1-0.49,0.3-0.66c0.2-0.17,0.44-0.26,0.73-0.26c0.28,0,0.53,0.09,0.72,0.26
		c0.2,0.17,0.29,0.39,0.29,0.65c0,0.27-0.1,0.5-0.29,0.66c-0.2,0.17-0.44,0.25-0.74,0.25c-0.28,0-0.52-0.09-0.71-0.26
		C166.93,114.57,166.83,114.35,166.83,114.09z"/>
	<path class="st2" d="M169.96,114.09c0-0.27,0.1-0.49,0.3-0.66c0.2-0.17,0.44-0.26,0.73-0.26c0.28,0,0.53,0.09,0.72,0.26
		c0.2,0.17,0.29,0.39,0.29,0.65c0,0.27-0.1,0.5-0.29,0.66c-0.2,0.17-0.44,0.25-0.74,0.25c-0.28,0-0.52-0.09-0.71-0.26
		C170.06,114.57,169.96,114.35,169.96,114.09z"/>
	<path class="st2" d="M173.08,114.09c0-0.27,0.1-0.49,0.3-0.66c0.2-0.17,0.44-0.26,0.73-0.26c0.28,0,0.52,0.09,0.72,0.26
		c0.2,0.17,0.29,0.39,0.29,0.65c0,0.27-0.1,0.5-0.29,0.66c-0.2,0.17-0.44,0.25-0.74,0.25c-0.28,0-0.52-0.09-0.71-0.26
		C173.18,114.57,173.08,114.35,173.08,114.09z"/>
	<path class="st2" d="M176.2,114.09c0-0.27,0.1-0.49,0.3-0.66c0.2-0.17,0.44-0.26,0.73-0.26c0.28,0,0.53,0.09,0.72,0.26
		c0.2,0.17,0.29,0.39,0.29,0.65c0,0.27-0.1,0.5-0.29,0.66c-0.2,0.17-0.44,0.25-0.74,0.25c-0.28,0-0.52-0.09-0.71-0.26
		C176.3,114.57,176.2,114.35,176.2,114.09z"/>
	<path class="st2" d="M179.33,114.09c0-0.27,0.1-0.49,0.3-0.66c0.2-0.17,0.44-0.26,0.73-0.26c0.28,0,0.53,0.09,0.72,0.26
		c0.2,0.17,0.29,0.39,0.29,0.65c0,0.27-0.1,0.5-0.29,0.66c-0.2,0.17-0.44,0.25-0.74,0.25c-0.28,0-0.52-0.09-0.71-0.26
		C179.43,114.57,179.33,114.35,179.33,114.09z"/>
	<path class="st2" d="M182.45,114.09c0-0.27,0.1-0.49,0.3-0.66c0.2-0.17,0.44-0.26,0.73-0.26c0.28,0,0.53,0.09,0.72,0.26
		c0.2,0.17,0.29,0.39,0.29,0.65c0,0.27-0.1,0.5-0.29,0.66c-0.2,0.17-0.44,0.25-0.74,0.25c-0.28,0-0.52-0.09-0.71-0.26
		C182.55,114.57,182.45,114.35,182.45,114.09z"/>
	<path class="st2" d="M185.58,114.09c0-0.27,0.1-0.49,0.3-0.66c0.2-0.17,0.44-0.26,0.73-0.26c0.28,0,0.53,0.09,0.72,0.26
		c0.2,0.17,0.29,0.39,0.29,0.65c0,0.27-0.1,0.5-0.29,0.66c-0.2,0.17-0.44,0.25-0.74,0.25c-0.28,0-0.52-0.09-0.71-0.26
		C185.67,114.57,185.58,114.35,185.58,114.09z"/>
</g>
<g>
	<rect x="-1.5" y="0.39" class="st3" width="645" height="46"/>
	<g>
		<path class="st4" d="M34.94,21.6c-0.41,0.5-0.88,1.11-1.41,1.84c-0.36-0.28-0.71-0.57-1.05-0.86c-0.13,3.06-0.23,4.91-0.31,5.55
			c-0.07,0.64-0.32,1.13-0.73,1.48c-0.41,0.35-0.99,0.52-1.72,0.52c-1.01,0-1.96-0.01-2.85-0.04c-0.09-0.8-0.19-1.52-0.31-2.17
			c1.27,0.11,2.19,0.16,2.76,0.16c0.34,0,0.55-0.15,0.64-0.44c0.09-0.29,0.17-1.5,0.22-3.61h-3.62c-0.08,1.35-0.28,2.38-0.59,3.1
			c-0.31,0.72-0.8,1.37-1.46,1.95c-0.66,0.58-1.5,1.08-2.5,1.51c-0.61-0.8-1.12-1.4-1.53-1.83c0.87-0.34,1.59-0.72,2.15-1.13
			c0.57-0.41,0.97-0.86,1.22-1.32c0.25-0.47,0.41-1.23,0.5-2.27h-2.09v-1.14c-0.24,0.18-0.49,0.36-0.75,0.52
			c-0.45-0.62-0.9-1.16-1.34-1.62c2.21-1.52,3.88-3.33,5-5.43l1.97,0.83c-1.02,1.89-2.31,3.51-3.85,4.86h8.58
			c-1.5-1.42-2.74-3-3.72-4.74l1.82-0.92C31.23,18.49,32.88,20.23,34.94,21.6z"/>
		<path class="st4" d="M35.38,26.25h6.69v-0.19L45,25.28h-8.57v-1.49h11.89v1.61l-2.76,0.85h4.23v1.55h-5.72v0.69
			c0,0.65-0.18,1.13-0.55,1.44c-0.37,0.32-0.9,0.48-1.61,0.48c-0.71,0-1.55,0-2.54,0c-0.09-0.52-0.23-1.12-0.44-1.8
			c0.74,0.04,1.44,0.06,2.11,0.06c0.4,0,0.67-0.07,0.81-0.2c0.14-0.13,0.22-0.36,0.22-0.68h-6.69V26.25z M35.49,17.49h5.97
			c-0.13-0.31-0.26-0.62-0.41-0.95l2.36-0.35c0.19,0.45,0.35,0.88,0.5,1.29h5.75v1.52H35.49V17.49z M37.06,23.17v-3.54h10.87v3.54
			H37.06z M45.97,21.79v-0.78h-6.94v0.78H45.97z"/>
	</g>
</g>
<g>
	<g>
		<polyline class="st5" points="624.53,340.42 624.53,346.94 618.01,346.94 		"/>
		<line class="st6" x1="612.5" y1="346.94" x2="26.75" y2="346.94"/>
		<polyline class="st5" points="23.99,346.94 17.47,346.94 17.47,340.42 		"/>
		<line class="st7" x1="17.47" y1="334.71" x2="17.47" y2="185.25"/>
		<polyline class="st5" points="17.47,182.4 17.47,175.88 23.99,175.88 		"/>
		<line class="st6" x1="29.5" y1="175.88" x2="615.25" y2="175.88"/>
		<polyline class="st5" points="618.01,175.88 624.53,175.88 624.53,182.4 		"/>
		<line class="st7" x1="624.53" y1="188.11" x2="624.53" y2="337.57"/>
	</g>
</g>
<polygon class="st8" points="342,257.04 322.96,257.04 322.96,238 319.04,238 319.04,257.04 300,257.04 300,260.96 319.04,260.96 
	319.04,280 322.96,280 322.96,260.96 342,260.96 "/>
</svg>
