<?xml version="1.0" encoding="utf-8"?>
<!-- Generator: Adobe Illustrator 22.0.0, SVG Export Plug-In . SVG Version: 6.00 Build 0)  -->
<svg version="1.1" id="图层_1" xmlns="http://www.w3.org/2000/svg" xmlns:xlink="http://www.w3.org/1999/xlink" x="0px" y="0px"
	 viewBox="0 0 227.7 196.5" style="enable-background:new 0 0 227.7 196.5;" xml:space="preserve">
<style type="text/css">
	.st0{opacity:0.8;fill:#DCDCDE;enable-background:new    ;}
</style>
<path class="st0" d="M63,11c12.5-3.6,25.2-6.3,37.7-7.8c19.2-2.3,37.9-1.7,54.7,3.2c10.8,3.1,20.7,8,29.5,15
	c6.3,5,10.2,9.7,13.6,13.7c7.1,8.5,16.6,19.9,22,37.5c2.4,7.8,7.3,27.1,1.3,50.1c-3.9,14.9-10.4,25.1-12.7,27.8
	c-6.4,7.5-20.3,19.8-26.9,24.6c-6.9,5.1-24.4,16.6-37.5,19.8c-15.2,3.7-40.6,4.3-53.3,2.7c-10.4-1.3-23-3.8-37-12.3
	c-12.6-7.7-20-16.6-24.7-22.5c-3.3-4.1-14.8-19-21.5-42.3c-2.6-9.1-9.1-32.7-2-59C9.7,48,14.9,40.8,16.8,38.3
	c5-6.7,11.2-11.7,17.8-15.7C43.7,17.1,53.7,13.7,63,11z"/>
</svg>
