<?xml version="1.0" encoding="utf-8"?>
<!-- Generator: Adobe Illustrator 22.0.0, SVG Export Plug-In . SVG Version: 6.00 Build 0)  -->
<svg version="1.1" id="图层_1" xmlns="http://www.w3.org/2000/svg" xmlns:xlink="http://www.w3.org/1999/xlink" x="0px" y="0px"
	 viewBox="0 0 158.9 143.1" style="enable-background:new 0 0 158.9 143.1;" xml:space="preserve">
<style type="text/css">
	.st0{opacity:0.8;fill:#DCDCDE;enable-background:new    ;}
</style>
<g>
	<path class="st0" d="M8.7,39c-5.1,11.7-8,28.5-3.5,43.2c4.2,13.7,11.9,27.4,21.9,38.6c6.1,6.9,16.5,10.8,24,15.3
		c9.1,5.5,18.9,8.8,29,8.9c14.5,0.2,26.9-4.9,40.9-11.5c9.8-4.6,17-12.5,19.6-16.1c2.9-4,10.4-16.4,13.8-24.2
		c5.3-12.1,2.8-28.9,3.1-40.2c0.3-9.5-1.4-18.1-5.4-24.9C144.5,15.3,127.8,7.3,108.2,4C91.8,1.3,73.3,2,56.6,6
		C46.5,8.4,37,12.1,29,17C19.9,22.6,12.6,30,8.7,39z"/>
</g>
</svg>
