<?xml version="1.0" encoding="utf-8"?>
<!-- Generator: Adobe Illustrator 22.0.0, SVG Export Plug-In . SVG Version: 6.00 Build 0)  -->
<svg version="1.1" id="图层_1" xmlns="http://www.w3.org/2000/svg" xmlns:xlink="http://www.w3.org/1999/xlink" x="0px" y="0px"
	 viewBox="0 0 227.9 200.7" style="enable-background:new 0 0 227.9 200.7;" xml:space="preserve">
<style type="text/css">
	.st0{opacity:0.8;fill:#DCDCDE;enable-background:new    ;}
</style>
<path class="st0" d="M62.6,10.2c12.8-3.7,25.8-6.5,38.5-8c19.7-2.4,38.8-1.7,55.9,3.3c11,3.2,21.2,8.2,30.2,15.3
	c6.4,5.1,10.5,9.9,13.9,14c7.2,8.7,16.9,20.3,22.5,38.3c2.5,8,7.4,27.7,1.3,51.2c-4,15.2-10.6,25.7-13,28.4
	c-6.6,7.7-20.8,20.2-27.5,25.1c-7.1,5.2-24.9,16.9-38.4,20.2c-15.6,3.8-41.5,4.4-54.5,2.7c-10.6-1.3-23.6-3.9-37.9-12.6
	c-12.9-7.8-20.5-17-25.3-23c-3.4-4.2-15.2-19.4-22-43.3c-2.7-9.3-9.3-33.5-2-60.4c3.6-13.5,8.9-20.9,10.9-23.5
	c5.1-6.8,11.4-12,18.2-16.1C42.8,16.4,53.1,13,62.6,10.2z"/>
</svg>
