<?xml version="1.0" encoding="utf-8"?>
<!-- Generator: Adobe Illustrator 22.0.0, SVG Export Plug-In . SVG Version: 6.00 Build 0)  -->
<svg version="1.1" id="图层_1" xmlns="http://www.w3.org/2000/svg" xmlns:xlink="http://www.w3.org/1999/xlink" x="0px" y="0px"
	 viewBox="0 0 27.7 113.2" style="enable-background:new 0 0 27.7 113.2;" xml:space="preserve">
<style type="text/css">
	.st0{fill:#6F8DA9;}
</style>
<path class="st0" d="M21.6,3.5c-2.3-2.6-5.1-3.6-8.6-2.9C9,1.4,6.5,4,4.7,7.3c-3.2,5.5-4.8,11.6-4.5,18c0.2,4.6,1.3,8.8,5,11.9
	c0.6,0.5,1.2,1.1,1.8,1.6c2.2,1.9,3.5,4,2.9,7.1c-0.1,0.4-0.5,6.5-0.6,7c-0.1,0.8-0.2,1.5-0.3,2.3c-1.1,6.5-2.1,13-2.8,19.6
	c-0.5,5.7-0.6,11.4-0.8,17c-0.2,6.4,0.4,12.8,1.5,19.1c0.3,1.6,1.3,2.4,3.4,2.6c2.2,0.2,3.3-0.2,3.9-1.8c0.6-1.7,1.1-3.4,1.4-5.2
	c1.8-9.8,2.6-19.8,1.6-29.8c-0.7-6.8-1.4-13.5-2.1-20.3c-0.1-1-0.4-10.1-0.3-10.5c0.2-0.7,0.2-1.4,0.4-2c0.9-2.6,3.1-3.9,5.1-5.5
	c4.2-3.2,6.4-7.6,7.1-12.8c0.3-2,0.2-4.1,0.1-6.2C27.2,13.5,25.6,8,21.6,3.5z"/>
</svg>
