<?xml version="1.0" encoding="utf-8"?>
<!-- Generator: Adobe Illustrator 22.0.0, SVG Export Plug-In . SVG Version: 6.00 Build 0)  -->
<svg version="1.1" id="图层_1" xmlns="http://www.w3.org/2000/svg" xmlns:xlink="http://www.w3.org/1999/xlink" x="0px" y="0px"
	 viewBox="0 0 73.1 92" style="enable-background:new 0 0 73.1 92;" xml:space="preserve">
<style type="text/css">
	.st0{fill:#6F8DA9;}
</style>
<g>
	<path class="st0" d="M12.9,40C7.1,49.6,5.2,52.7,1.7,61.3c-3.1,7.6,0.5,10.2,2.5,12.2c6.9,6.9,44.8,18.4,54,18.4
		c2.3,0,5.1-1,6.1-4.1c0.8-2.4,7.1-43.7,8.1-51.9c1-8.1-2.4-22.9-2.5-24.4c-0.5-4.1-2.5-5.4-4.6-1c-5.6,11.7-4.1,17.8-8.6,18.3
		c-3.1,0.3-12.1,0.4-13.2-6.6C43,19.1,48,13,49.1,5.9c1-6.6-4.6-7.1-7.6-4.6c-6.8,5.6-11.7,13.9-16.9,20.4
		C22.6,24.2,17.5,32.4,12.9,40z"/>
</g>
</svg>
