<?xml version="1.0" encoding="utf-8"?>
<!-- Generator: Adobe Illustrator 22.0.0, SVG Export Plug-In . SVG Version: 6.00 Build 0)  -->
<svg version="1.1" id="图层_1" xmlns="http://www.w3.org/2000/svg" xmlns:xlink="http://www.w3.org/1999/xlink" x="0px" y="0px"
	 viewBox="0 0 257.7 225.4" style="enable-background:new 0 0 257.7 225.4;" xml:space="preserve">
<style type="text/css">
	.st0{opacity:0.8;fill:#DCDCDE;enable-background:new    ;}
</style>
<path class="st0" d="M70.2,10.4c14.5-4.2,29.1-7.3,43.5-9c22.2-2.7,43.7-1.9,63.1,3.7c12.4,3.6,23.9,9.2,34.1,17.3
	c7.3,5.8,11.8,11.2,15.6,15.8c8.1,9.8,19.1,22.9,25.4,43.2c2.8,9,8.4,31.3,1.5,57.8c-4.5,17.2-12,28.9-14.6,32
	c-7.4,8.7-23.4,22.8-31,28.3c-8,5.8-28.1,19.1-43.3,22.8c-17.6,4.3-46.8,4.9-61.4,3.1c-12-1.5-26.6-4.4-42.7-14.2
	c-14.7-8.9-23.2-19.2-28.6-26C28,180.5,14.7,163.3,7,136.4C4,125.9-3.5,98.6,4.7,68.3C8.8,53.1,14.8,44.7,17,41.8
	c5.8-7.7,12.9-13.5,20.5-18.1C48,17.4,59.5,13.5,70.2,10.4z"/>
</svg>
