<?xml version="1.0" encoding="utf-8"?>
<!-- Generator: Adobe Illustrator 22.0.0, SVG Export Plug-In . SVG Version: 6.00 Build 0)  -->
<svg version="1.1" id="图层_1" xmlns="http://www.w3.org/2000/svg" xmlns:xlink="http://www.w3.org/1999/xlink" x="0px" y="0px"
	 viewBox="0 0 133.5 155.1" style="enable-background:new 0 0 133.5 155.1;" xml:space="preserve">
<style type="text/css">
	.st0{opacity:0.8;fill:#E1E1E2;enable-background:new    ;}
	.st1{opacity:0.8;}
	.st2{fill:#E1E1E2;}
</style>
<g>
	<g>
		<circle class="st0" cx="61.7" cy="56.8" r="18.3"/>
		<circle class="st0" cx="12.6" cy="92.4" r="11.6"/>
		<circle class="st0" cx="18.4" cy="11.5" r="11.6"/>
		<circle class="st0" cx="126.3" cy="30.8" r="7.7"/>
		<g class="st1">
			<circle class="st0" cx="67.5" cy="124.2" r="31.8"/>
			<path class="st2" d="M90.4,119c-1.1,0-2.2-0.7-2.7-1.8c-5.1-11.5-13.6-13-14-13.1c-1.6-0.3-2.7-1.8-2.5-3.4
				c0.2-1.6,1.7-2.7,3.3-2.5c0.5,0.1,12,1.9,18.5,16.5c0.7,1.5,0,3.2-1.5,3.9C91.2,118.9,90.8,119,90.4,119z"/>
		</g>
	</g>
</g>
</svg>
