<?xml version="1.0" encoding="utf-8"?>
<!-- Generator: Adobe Illustrator 22.0.0, SVG Export Plug-In . SVG Version: 6.00 Build 0)  -->
<svg version="1.1" id="图层_1" xmlns="http://www.w3.org/2000/svg" xmlns:xlink="http://www.w3.org/1999/xlink" x="0px" y="0px"
	 viewBox="0 0 119.4 118.3" style="enable-background:new 0 0 119.4 118.3;" xml:space="preserve">
<style type="text/css">
	.st0{fill:#B4D3E0;}
	.st1{opacity:0.49;}
	.st2{opacity:0.8;fill:#FFFFFF;enable-background:new    ;}
	.st3{fill:#FFFFFF;}
</style>
<path class="st0" d="M10.8,49.5C22.1,38.3,32.6,26,45.1,16.3C65.9,0.2,61.7,2.1,76.5,19.2c18.6,21.4,30.4,46.9,41.8,72.6
	c0.9,2.1,0.1,7-1.2,7.5c-2.4,1-6.6,0.9-8.6-0.6c-3.7-2.9-6.6-7-9.5-10.8c-4.5-5.8-8.9-8-14.5-1.3c-2.3,2.7-5.3,4.8-10,8.9
	c5,4.2,9.8,7.7,13.8,11.9c2,2.1,2.6,5.5,3.8,8.4c-3,0.3-6.1,1.5-8.9,0.8C56.7,110,35.6,93.8,14.7,77.4C10,73.7,5.6,69.7,0.6,65.5
	c3.6-5.8,7-11.1,10.3-16.3C11,49.2,10.8,49.5,10.8,49.5z"/>
<g class="st1">
	<g>
		<circle class="st2" cx="57" cy="64.5" r="7.3"/>
		<path class="st3" d="M62.3,63.3c-0.3,0-0.5-0.2-0.6-0.4c-1.2-2.6-3.1-3-3.2-3c-0.4-0.1-0.6-0.4-0.6-0.8c0.1-0.4,0.4-0.6,0.8-0.6
			c0.1,0,2.8,0.4,4.3,3.8c0.2,0.3,0,0.7-0.3,0.9C62.5,63.3,62.4,63.3,62.3,63.3z"/>
	</g>
	<g>
		<circle class="st2" cx="69.7" cy="52.9" r="4.3"/>
		<path class="st3" d="M72.8,52.2c-0.2,0-0.3-0.1-0.4-0.2c-0.7-1.5-1.8-1.8-1.9-1.8c-0.2,0-0.4-0.2-0.3-0.5c0-0.2,0.2-0.4,0.4-0.3
			c0.1,0,1.6,0.3,2.5,2.2c0.1,0.2,0,0.4-0.2,0.5C72.9,52.2,72.9,52.2,72.8,52.2z"/>
	</g>
	<g>
		<circle class="st2" cx="65" cy="84.2" r="3.2"/>
		<path class="st3" d="M67.2,83.7c-0.1,0-0.2-0.1-0.3-0.2c-0.5-1.2-1.4-1.3-1.4-1.3c-0.2,0-0.3-0.2-0.2-0.3c0-0.2,0.2-0.3,0.3-0.2
			c0,0,1.2,0.2,1.9,1.7c0.1,0.1,0,0.3-0.2,0.4C67.3,83.7,67.3,83.7,67.2,83.7z"/>
	</g>
	<g>
		<circle class="st2" cx="59.8" cy="36.6" r="2.6"/>
		<path class="st3" d="M61.6,36.1c-0.1,0-0.2-0.1-0.2-0.1c-0.4-0.9-1.1-1-1.1-1.1c-0.1,0-0.2-0.1-0.2-0.3c0-0.1,0.1-0.2,0.3-0.2
			c0,0,1,0.2,1.5,1.3C61.9,35.9,61.8,36.1,61.6,36.1C61.7,36.1,61.6,36.1,61.6,36.1z"/>
	</g>
	<g>
		<circle class="st2" cx="43.1" cy="60.9" r="3"/>
		<path class="st3" d="M45.3,60.4c-0.1,0-0.2-0.1-0.3-0.2c-0.5-1.1-1.3-1.2-1.3-1.2c-0.1,0-0.3-0.2-0.2-0.3c0-0.1,0.2-0.3,0.3-0.2
			c0,0,1.1,0.2,1.7,1.5C45.6,60.1,45.5,60.3,45.3,60.4C45.4,60.4,45.3,60.4,45.3,60.4z"/>
	</g>
</g>
</svg>
