<?xml version="1.0" encoding="utf-8"?>
<!-- Generator: Adobe Illustrator 22.0.0, SVG Export Plug-In . SVG Version: 6.00 Build 0)  -->
<svg version="1.1" id="图层_1" xmlns="http://www.w3.org/2000/svg" xmlns:xlink="http://www.w3.org/1999/xlink" x="0px" y="0px"
	 viewBox="0 0 168.4 185.8" style="enable-background:new 0 0 168.4 185.8;" xml:space="preserve">
<style type="text/css">
	.st0{fill:#B4D3E0;}
	.st1{fill:#A0BDCD;}
	.st2{opacity:0.88;}
	.st3{opacity:0.8;fill:#FFFFFF;enable-background:new    ;}
	.st4{fill:#FFFFFF;}
</style>
<g>
	<path class="st0" d="M6.5,67.1l-4.1-6.7l1.3-14.5c0.2-1.9,1.2-3.6,2.9-4.6l32.6-20c2-1.2,4.5-1.2,6.5,0.1l10,6.4l2-1.2l-2-10.9
		c-0.4-2.5,0.7-4.9,2.8-6.2l11.3-7c2.1-1.3,4.8-1.2,6.8,0.3l7.7,5.6c0.9,0.7,2,1.1,3.1,1.2l5,0.4c1.9,0.2,3.7,1.2,4.7,2.9l6.9,11.2
		C91.1,41.6,76.2,66.5,71.5,93.2c0,0-6.6,21.5-24.4,39.8L6.5,67.1z M14.3,51.9l27-16.6c1.3-0.8,1.6-2.4,0.9-3.7
		c-0.8-1.3-2.4-1.6-3.7-0.9l-27,16.6c-1.3,0.8-1.6,2.4-0.9,3.7C11.4,52.3,13.1,52.6,14.3,51.9z"/>
	<path class="st1" d="M86.1,185.1l79.6-48.9c2.9-1.8,3.7-5.5,2-8.3l-63.9-104C90.9,41.4,76,66.3,71.3,93c0,0-6.6,21.5-24.4,39.8
		l31,50.4C79.5,186,83.3,186.9,86.1,185.1z"/>
	<g class="st2">
		<g>
			<circle class="st3" cx="93.8" cy="100.5" r="4.9"/>
			<path class="st4" d="M91.1,103c0.1-0.1,0.1-0.3,0-0.5c-1-1.7-0.5-2.9-0.5-2.9c0.1-0.2,0-0.5-0.2-0.6s-0.5,0-0.6,0.2
				c0,0.1-0.8,1.7,0.5,3.8c0.1,0.2,0.4,0.3,0.6,0.1C91,103.1,91.1,103,91.1,103z"/>
		</g>
		<g>
			<circle class="st3" cx="82.5" cy="103.2" r="2.9"/>
			<path class="st4" d="M80.9,104.6c0.1-0.1,0.1-0.2,0-0.3c-0.6-1-0.3-1.7-0.3-1.7c0.1-0.1,0-0.3-0.1-0.4s-0.3,0-0.4,0.1
				c0,0-0.5,1,0.3,2.2C80.5,104.8,80.7,104.8,80.9,104.6C80.9,104.7,80.9,104.7,80.9,104.6z"/>
		</g>
		<g>
			<circle class="st3" cx="101.8" cy="112.5" r="2.2"/>
			<path class="st4" d="M100.7,113.6c0-0.1,0-0.1,0-0.2c-0.4-0.7-0.2-1.3-0.2-1.3c0-0.1,0-0.2-0.1-0.3c-0.1,0-0.2,0-0.3,0.1
				c0,0-0.4,0.7,0.2,1.7C100.4,113.6,100.5,113.7,100.7,113.6C100.6,113.6,100.7,113.6,100.7,113.6z"/>
		</g>
		<g>
			<circle class="st3" cx="77.1" cy="91.4" r="1.7"/>
			<path class="st4" d="M76.2,92.2c0-0.1,0-0.1,0-0.2c-0.4-0.6-0.2-1-0.2-1c0-0.1,0-0.2-0.1-0.2s-0.2,0-0.2,0.1c0,0-0.3,0.6,0.2,1.3
				C76,92.3,76.1,92.3,76.2,92.2C76.2,92.3,76.2,92.2,76.2,92.2z"/>
		</g>
		<g>
			<circle class="st3" cx="97.1" cy="91.4" r="2"/>
			<path class="st4" d="M96,92.4c0-0.1,0-0.1,0-0.2c-0.4-0.7-0.2-1.2-0.2-1.2c0-0.1,0-0.2-0.1-0.2s-0.2,0-0.2,0.1
				c0,0-0.3,0.7,0.2,1.6C95.8,92.4,95.9,92.5,96,92.4L96,92.4z"/>
		</g>
	</g>
</g>
</svg>
