<?xml version="1.0" encoding="utf-8"?>
<!-- Generator: Adobe Illustrator 22.0.0, SVG Export Plug-In . SVG Version: 6.00 Build 0)  -->
<svg version="1.1" id="图层_1" xmlns="http://www.w3.org/2000/svg" xmlns:xlink="http://www.w3.org/1999/xlink" x="0px" y="0px"
	 viewBox="0 0 198.5 189.1" style="enable-background:new 0 0 198.5 189.1;" xml:space="preserve">
<style type="text/css">
	.st0{opacity:0.8;fill:#FFFFFF;enable-background:new    ;}
	.st1{fill:#FFFFFF;}
	.st2{fill:#A0BDCD;}
	.st3{fill:#B4D3E0;}
	.st4{fill:#7EA7BD;}
</style>
<g>
	<g>
		<g>
			<circle class="st0" cx="75" cy="131.8" r="4"/>
			<path class="st1" d="M75,134.8c0-0.1,0.1-0.3,0.3-0.3c1.6-0.3,2-1.4,2-1.4c0.1-0.2,0.3-0.3,0.5-0.2s0.3,0.3,0.2,0.5
				c0,0.1-0.5,1.5-2.5,1.9c-0.2,0-0.4-0.1-0.4-0.3C75,134.9,75,134.8,75,134.8z"/>
		</g>
		<path class="st2" d="M142.4,94.8c-4.6,4.1-9.2,7.8-14.8,13.1c-0.8,0.7-1.6,1.5-2.5,2.4c-1,1-5.4,7.7-7.5,9.7
			c-3,2.9-6.7,4.3-10.1,4.2c-1.3-0.1-2.4,0.8-2.4,2.2c-0.1,6.1-0.2,6.5-3.4,10.6c-2.3,3-6.3,2-9,4c-0.9,0.6-1.3,0.6-1.6,1.3
			c-3.9,10.2-40,47.2-50.9,47.7c-0.3,0-0.5,0-0.8-0.1c-12.2-3.2-29.3-23-37-35.5c-1.2-2.1-1.6-3.9-1.3-5.6c0.4-2.6,2.4-5.1,6-8.2
			c5.4-4.9,32.4-35.5,41-36.1c1.3-0.1,2-1.7,2.9-2.6c0.6-0.5,0.8-1.2,0.9-2c0.1-2.9,1.9-5.2,4.4-7.6c2.7-2.6,5.6-4.4,8.7-4.1
			c0.7,0.1,1.5-0.1,2-0.6c0.6-0.5,1.2-1.1,1.8-1.6c1-0.9,0.7-4.5,1.7-5.5c2.8-2.9,5.5-5.6,8.1-8.3c11.4,2.6,23.3,6.6,32.4,12.7
			C111,84.8,126.3,90.7,142.4,94.8z"/>
		<path class="st3" d="M185.7,29.5c-4,4.4-11.3,8.9-12.9,13.1c-1.7,4.4-0.5,9.1-1.6,14.3c-2,8.9-9.1,17.2-15.4,24.5
			c-4.9,5.6-9.1,9.6-13.4,13.4c-16.1-4.1-31.4-10-31.4-10c-9.1-6.1-21-10.1-32.4-12.7C88,62.6,97,54.2,107.7,44.9
			c10.1-8.7,21.9-16.7,34.4-20.7c4.9-1.6,9.1,0.4,13.4-1.7c3.9-2,7.6-8.2,11.1-11.7c6.8-6.8,10.7-2.6,16.3,3.2
			C188.3,19.6,192.8,21.7,185.7,29.5z"/>
		<g>
			<circle class="st0" cx="75.2" cy="125.3" r="4.7"/>
			<path class="st1" d="M75.2,128.8c0-0.2,0.2-0.3,0.3-0.3c1.8-0.4,2.3-1.6,2.3-1.7c0.1-0.2,0.3-0.3,0.6-0.3
				c0.2,0.1,0.3,0.3,0.3,0.6c0,0.1-0.6,1.7-3,2.2c-0.2,0.1-0.5-0.1-0.5-0.3C75.2,128.9,75.2,128.8,75.2,128.8z"/>
		</g>
		<g>
			<circle class="st0" cx="100.5" cy="102.1" r="1.6"/>
			<path class="st1" d="M100.5,103.2C100.5,103.1,100.6,103.1,100.5,103.2c0.7-0.2,0.9-0.6,0.9-0.6c0-0.1,0.1-0.1,0.2-0.1
				s0.1,0.1,0.1,0.2c0,0-0.2,0.6-1,0.7C100.6,103.4,100.5,103.4,100.5,103.2C100.5,103.3,100.5,103.2,100.5,103.2z"/>
		</g>
		<g>
			<circle class="st0" cx="82.8" cy="107" r="2.6"/>
			<path class="st1" d="M82.8,108.9c0-0.1,0.1-0.2,0.2-0.2c1-0.2,1.3-0.9,1.3-0.9c0-0.1,0.2-0.2,0.3-0.1c0.1,0,0.2,0.2,0.1,0.3
				c0,0-0.4,0.9-1.7,1.2c-0.1,0-0.3-0.1-0.3-0.2C82.8,109,82.8,109,82.8,108.9z"/>
		</g>
	</g>
	<path class="st4" d="M178.1,2.2l16.5,15.7c2.4,2.3,2.5,6.2,0.2,8.6l-3.7,3.9c-2.3,2.4-6.2,2.5-8.6,0.2L166,14.9
		c-2.4-2.3-2.5-6.2-0.2-8.6l3.7-3.9C171.8,0,175.6-0.1,178.1,2.2z"/>
</g>
</svg>
