<?xml version="1.0" encoding="utf-8"?>
<!-- Generator: Adobe Illustrator 22.0.0, SVG Export Plug-In . SVG Version: 6.00 Build 0)  -->
<svg version="1.1" id="图层_1" xmlns="http://www.w3.org/2000/svg" xmlns:xlink="http://www.w3.org/1999/xlink" x="0px" y="0px"
	 viewBox="0 0 171.8 177.2" style="enable-background:new 0 0 171.8 177.2;" xml:space="preserve">
<style type="text/css">
	.st0{fill:#B4D3E0;}
	.st1{fill:#A0BDCD;}
	.st2{opacity:0.6;}
	.st3{opacity:0.8;fill:#FFFFFF;}
	.st4{fill:#FFFFFF;}
	.st5{opacity:0.49;}
	.st6{opacity:0.88;}
	.st7{fill:#7EA7BD;}
</style>
<path class="st0" d="M107.1-0.8C77.4,8.9,35.3,25,8.8,40.6C4,43.5,23.9,69.1,29,86.9c2.9,10,8.8,21.6,13.2,31.1
	c6.4,13.9,11.1,24,14.7,32.6c11.9-20.5,27.5-41.6,47.3-57.6c0,0,15.5-16.1,26.4-41.7C121.7,29.8,109.4-1.5,107.1-0.8z M87,28.2
	c1.8,4,0.1,8.8-3.9,10.6L53,52.6c-4,1.8-8.8,0.1-10.6-4c-1.8-4-0.1-8.8,4-10.6l30.1-13.8C80.4,22.4,85.2,24.1,87,28.2z"/>
<path class="st1" d="M137.3,67.2c0.2-0.1,0.4-0.2,0.6-0.3c6.3,13.8,13.2,27.3,18.8,41.4c16.8,41.6,19.8,53.4-32.9,57.8
	c-40.1-1.9-56.1,15.3-57.9,9.4c-2.4-8.3-5.1-15.7-9-24.8c11.9-20.5,27.5-41.6,47.3-57.6c0,0,15.5-16.1,26.4-41.7
	C133.3,57.9,135.6,63.6,137.3,67.2z"/>
<g>
	<g class="st2">
		<circle class="st3" cx="106.6" cy="111.7" r="7.5"/>
		<path class="st4" d="M108,106.3c-0.1,0.2-0.4,0.4-0.7,0.4c-3-0.1-4.2,1.5-4.2,1.6c-0.2,0.3-0.7,0.4-1,0.2c-0.3-0.2-0.4-0.7-0.2-1
			c0.1-0.1,1.7-2.3,5.4-2.2c0.4,0,0.7,0.3,0.7,0.7C108,106.1,108,106.2,108,106.3z"/>
	</g>
	<g>
		<circle class="st3" cx="76.3" cy="100.1" r="3.5"/>
		<path class="st4" d="M77,97.6c-0.1,0.1-0.2,0.2-0.3,0.2c-1.4-0.1-2,0.7-2,0.7c-0.1,0.1-0.3,0.2-0.5,0.1c-0.1-0.1-0.2-0.3-0.1-0.5
			c0,0,0.8-1.1,2.6-1c0.2,0,0.3,0.2,0.3,0.3C77,97.5,77,97.6,77,97.6z"/>
	</g>
</g>
</svg>
