<?xml version="1.0" encoding="utf-8"?>
<!-- Generator: Adobe Illustrator 22.0.0, SVG Export Plug-In . SVG Version: 6.00 Build 0)  -->
<svg version="1.1" id="图层_1" xmlns="http://www.w3.org/2000/svg" xmlns:xlink="http://www.w3.org/1999/xlink" x="0px" y="0px"
	 viewBox="0 0 100.9 107" style="enable-background:new 0 0 100.9 107;" xml:space="preserve">
<style type="text/css">
	.st0{fill:#B4D3E0;}
	.st1{fill:#A0BDCD;}
	.st2{opacity:0.6;}
	.st3{opacity:0.8;fill:#FFFFFF;enable-background:new    ;}
	.st4{fill:#FFFFFF;}
</style>
<g>
	<g>
		<path class="st0" d="M99.9,24.5C93,31.1,83.5,37.6,82.2,44c-0.7,3.6-1.5,6.7-2.2,9.5c-21.1,0-42.8-3-59.6-6.1
			c3.1-5.8,7.2-10.6,8.6-14.5c3.6-10.1,4-21.5,4.4-34C56.4,7.8,77.7,16,99.9,24.5z"/>
		<path class="st1" d="M72.2,81.5c-1.4,7.9-3.1,12.3-2.2,22.1c-2.3-0.9-5.1-1.2-6.9-2.9c-4.5-4.4-5.3-6.7-18.8-9.6
			c-14.2-3.1-25.8-9.8-39-15.3c-6.3-2.6-4.8-5.2-0.8-9.5c6.1-6.5,10.8-7.1,14.4-15.3c0.5-1.2,1-2.3,1.6-3.4
			c16.7,3.1,38.5,6,59.6,6.1C76.8,66.2,73.9,71.9,72.2,81.5z"/>
	</g>
	<g>
		<g class="st2">
			<circle class="st3" cx="53.4" cy="56.2" r="5.9"/>
			<path class="st4" d="M57.1,53.9c-0.2,0.1-0.4,0-0.6-0.1c-1.6-1.7-3.2-1.4-3.3-1.4c-0.3,0.1-0.6-0.1-0.6-0.4
				c-0.1-0.3,0.1-0.6,0.4-0.6c0.1,0,2.2-0.4,4.3,1.7c0.2,0.2,0.2,0.6,0,0.8C57.2,53.8,57.1,53.9,57.1,53.9z"/>
		</g>
		<g>
			<circle class="st3" cx="42.5" cy="33.1" r="2.8"/>
			<path class="st4" d="M44.3,32c-0.1,0-0.2,0-0.3-0.1c-0.8-0.8-1.5-0.7-1.5-0.7c-0.1,0-0.3-0.1-0.3-0.2s0.1-0.3,0.2-0.3
				c0,0,1-0.2,2,0.8C44.5,31.7,44.5,31.9,44.3,32L44.3,32z"/>
		</g>
	</g>
</g>
</svg>
