<?xml version="1.0" encoding="utf-8"?>
<!-- Generator: Adobe Illustrator 23.0.0, SVG Export Plug-In . SVG Version: 6.00 Build 0)  -->
<svg version="1.1" id="图层_1" xmlns="http://www.w3.org/2000/svg" xmlns:xlink="http://www.w3.org/1999/xlink" x="0px" y="0px"
	 viewBox="0 0 920 640" style="enable-background:new 0 0 920 640;" xml:space="preserve">
<style type="text/css">
	.st0{fill:#FFFFFF;}
	.st1{clip-path:url(#SVGID_1_);}
	.st2{clip-path:url(#SVGID_2_);}
	.st3{clip-path:url(#SVGID_3_);}
	.st4{opacity:0.7;fill:#FFFFFF;}
	.st5{opacity:0.7;}
</style>
<g>
	<rect x="2" y="-4.5" class="st0" width="920" height="654.5"/>
</g>
<g>
	<g id="UDsN1x_1_">
		
			<image style="overflow:visible;" width="918" height="918" id="UDsN1x" xlink:href="DFBCF106.jpg"  transform="matrix(0.2756 0 0 0.2756 612 328.5493)">
		</image>
	</g>
	<g id="ntvWir_1_">
		
			<image style="overflow:visible;" width="1080" height="1080" id="ntvWir" xlink:href="DFBCF10A.jpg"  transform="matrix(0.2343 0 0 0.2343 335 328.5493)">
		</image>
	</g>
	<g id="uooBRP_1_">
		
			<image style="overflow:visible;" width="1080" height="1080" id="uooBRP" xlink:href="DFBCF10D.jpg"  transform="matrix(0.2343 0 0 0.2343 57.7541 328.5493)">
		</image>
	</g>
</g>
<g>
	<g>
		<defs>
			<rect id="SVGID_7_" x="57.8" y="38.5" width="253" height="253"/>
		</defs>
		<clipPath id="SVGID_1_">
			<use xlink:href="#SVGID_7_"  style="overflow:visible;"/>
		</clipPath>
		<g id="tm8rDR_1_" class="st1">
			
				<image style="overflow:visible;" width="1080" height="1350" id="tm8rDR" xlink:href="DFBCF10E.jpg"  transform="matrix(0.2343 0 0 0.2343 57.7541 6.9243)">
			</image>
		</g>
	</g>
	<g>
		<defs>
			<rect id="SVGID_9_" x="335" y="38.8" width="253" height="253"/>
		</defs>
		<clipPath id="SVGID_2_">
			<use xlink:href="#SVGID_9_"  style="overflow:visible;"/>
		</clipPath>
		<g id="CeNAqd_1_" class="st2">
			
				<image style="overflow:visible;" width="1080" height="664" id="CeNAqd" xlink:href="DFBCF10C.jpg"  transform="matrix(0.381 0 0 0.381 255.747 38.8067)">
			</image>
		</g>
	</g>
	<g>
		<defs>
			<rect id="SVGID_11_" x="612" y="38.5" width="253" height="253"/>
		</defs>
		<clipPath id="SVGID_3_">
			<use xlink:href="#SVGID_11_"  style="overflow:visible;"/>
		</clipPath>
		<g id="Q7Rgn2_1_" class="st3">
			
				<image style="overflow:visible;" width="1080" height="810" id="Q7Rgn2" xlink:href="DFBCF10B.jpg"  transform="matrix(0.3123 0 0 0.3123 536.25 38.0493)">
			</image>
		</g>
	</g>
</g>
<rect x="58" y="207.8" class="st4" width="253" height="84"/>
<rect x="335" y="207.5" class="st4" width="253" height="84"/>
<rect x="612" y="207.3" class="st4" width="253" height="84"/>
<g class="st5">
	<rect x="58" y="497.5" class="st0" width="253" height="84"/>
</g>
<rect x="335" y="497.5" class="st4" width="253" height="84"/>
<rect x="612" y="497.5" class="st4" width="253" height="84"/>
<g>
	<path d="M80.7,229.1h-1.3v-4.2c0-0.8,0-1.4-0.1-1.7c0-0.3-0.2-0.6-0.3-0.9c-0.2-0.3-0.4-0.5-0.7-0.7c-0.3-0.2-0.6-0.2-1.1-0.2
		s-0.8,0.1-1.2,0.3c-0.4,0.2-0.7,0.5-1,0.8s-0.5,0.7-0.6,1.1c-0.1,0.4-0.2,1.2-0.2,2.3v3.2h-1.3v-12h1.3v4.6c0.9-1,1.9-1.5,3.1-1.5
		c0.6,0,1.2,0.2,1.7,0.5c0.5,0.3,0.9,0.8,1.2,1.3c0.3,0.6,0.4,1.4,0.4,2.6V229.1z"/>
	<path d="M91.5,229.1h-1.3v-1.3c-0.9,1-2,1.6-3.3,1.6c-1.2,0-2.3-0.5-3.2-1.4c-0.9-0.9-1.3-2-1.3-3.3c0-1.3,0.4-2.3,1.3-3.2
		c0.9-0.9,2-1.4,3.2-1.4c1.3,0,2.3,0.5,3.2,1.6v-1.3h1.3V229.1z M87.1,228.2c0.9,0,1.6-0.3,2.3-1c0.6-0.6,1-1.4,1-2.4
		s-0.3-1.8-0.9-2.4c-0.6-0.6-1.4-1-2.3-1s-1.7,0.3-2.3,1c-0.6,0.7-0.9,1.5-0.9,2.4c0,0.9,0.3,1.7,1,2.4S86.2,228.2,87.1,228.2z"/>
	<path d="M101.4,229.1h-1.3v-4.2c0-1,0-1.6-0.1-2c-0.1-0.3-0.2-0.6-0.4-0.9c-0.2-0.2-0.4-0.4-0.7-0.5c-0.3-0.1-0.6-0.2-1-0.2
		c-0.4,0-0.8,0.1-1.1,0.3c-0.4,0.2-0.7,0.5-1,0.8s-0.5,0.7-0.6,1.1c-0.1,0.4-0.2,1.2-0.2,2.3v3.2h-1.3v-8.7h1.3v1.3
		c0.9-1,1.9-1.5,3.1-1.5c0.6,0,1.2,0.2,1.7,0.5c0.5,0.3,0.9,0.8,1.2,1.3c0.3,0.6,0.4,1.4,0.4,2.6V229.1z"/>
	<path d="M111.2,229.1h-1.3v-4.2c0-1,0-1.6-0.1-2c-0.1-0.3-0.2-0.6-0.4-0.9c-0.2-0.2-0.4-0.4-0.7-0.5c-0.3-0.1-0.6-0.2-1-0.2
		c-0.4,0-0.8,0.1-1.1,0.3c-0.4,0.2-0.7,0.5-1,0.8s-0.5,0.7-0.6,1.1c-0.1,0.4-0.2,1.2-0.2,2.3v3.2h-1.3v-8.7h1.3v1.3
		c0.9-1,1.9-1.5,3.1-1.5c0.6,0,1.2,0.2,1.7,0.5c0.5,0.3,0.9,0.8,1.2,1.3c0.3,0.6,0.4,1.4,0.4,2.6V229.1z"/>
	<path d="M122,229.1h-1.3v-1.3c-0.9,1-2,1.6-3.3,1.6c-1.2,0-2.3-0.5-3.2-1.4c-0.9-0.9-1.3-2-1.3-3.3c0-1.3,0.4-2.3,1.3-3.2
		c0.9-0.9,2-1.4,3.2-1.4c1.3,0,2.3,0.5,3.2,1.6v-1.3h1.3V229.1z M117.5,228.2c0.9,0,1.6-0.3,2.3-1c0.6-0.6,1-1.4,1-2.4
		s-0.3-1.8-0.9-2.4c-0.6-0.6-1.4-1-2.3-1s-1.7,0.3-2.3,1c-0.6,0.7-0.9,1.5-0.9,2.4c0,0.9,0.3,1.7,1,2.4S116.6,228.2,117.5,228.2z"/>
	<path d="M131.9,229.1h-1.3v-4.2c0-0.8,0-1.4-0.1-1.7c0-0.3-0.2-0.6-0.3-0.9c-0.2-0.3-0.4-0.5-0.7-0.7c-0.3-0.2-0.6-0.2-1.1-0.2
		s-0.8,0.1-1.2,0.3c-0.4,0.2-0.7,0.5-1,0.8s-0.5,0.7-0.6,1.1c-0.1,0.4-0.2,1.2-0.2,2.3v3.2h-1.3v-12h1.3v4.6c0.9-1,1.9-1.5,3.1-1.5
		c0.6,0,1.2,0.2,1.7,0.5c0.5,0.3,0.9,0.8,1.2,1.3c0.3,0.6,0.4,1.4,0.4,2.6V229.1z"/>
	<path d="M135.3,221.7c0.9-1,1.9-1.6,3.2-1.6s2.3,0.5,3.2,1.4c0.9,0.9,1.3,2,1.3,3.3s-0.4,2.4-1.3,3.3c-0.9,0.9-1.9,1.4-3.2,1.4
		c-1.2,0-2.3-0.5-3.3-1.6v4.4H134v-11.8h1.3V221.7z M138.5,228.2c0.9,0,1.6-0.3,2.3-1c0.6-0.7,1-1.4,1-2.4c0-0.9-0.3-1.7-1-2.4
		c-0.6-0.7-1.4-1-2.3-1c-0.9,0-1.7,0.3-2.3,1c-0.6,0.6-0.9,1.4-0.9,2.4c0,0.9,0.3,1.7,1,2.4C136.8,227.8,137.6,228.2,138.5,228.2z"
		/>
	<path d="M153.6,229.1h-1.3v-1.3c-0.9,1-2,1.6-3.3,1.6c-1.2,0-2.3-0.5-3.2-1.4c-0.9-0.9-1.3-2-1.3-3.3c0-1.3,0.4-2.3,1.3-3.2
		c0.9-0.9,2-1.4,3.2-1.4c1.3,0,2.3,0.5,3.2,1.6v-1.3h1.3V229.1z M149.1,228.2c0.9,0,1.6-0.3,2.3-1c0.6-0.6,1-1.4,1-2.4
		s-0.3-1.8-0.9-2.4c-0.6-0.6-1.4-1-2.3-1s-1.7,0.3-2.3,1c-0.6,0.7-0.9,1.5-0.9,2.4c0,0.9,0.3,1.7,1,2.4S148.2,228.2,149.1,228.2z"/>
	<path d="M164.5,229.1h-1.3v-1.3c-0.9,1-2,1.6-3.3,1.6s-2.3-0.5-3.2-1.4c-0.9-0.9-1.3-2-1.3-3.3s0.4-2.4,1.3-3.3
		c0.9-0.9,2-1.4,3.2-1.4c1.3,0,2.3,0.5,3.2,1.6v-4.6h1.3V229.1z M160,228.2c0.8,0,1.6-0.3,2.3-0.9c0.7-0.6,1-1.4,1-2.4
		c0-1-0.3-1.8-0.9-2.4c-0.6-0.6-1.4-1-2.3-1s-1.7,0.3-2.3,1c-0.6,0.7-0.9,1.5-0.9,2.4s0.3,1.7,1,2.4S159.1,228.2,160,228.2z"/>
</g>
<g>
	<path d="M86,520.1h-1.3v-4.8c0-0.8,0-1.3-0.1-1.7s-0.3-0.6-0.6-0.9c-0.3-0.2-0.7-0.4-1.2-0.4c-0.5,0-1,0.2-1.4,0.5
		c-0.4,0.3-0.7,0.8-0.9,1.3s-0.3,1.4-0.3,2.4v3.4h-1.3v-4.5c0-0.9,0-1.5-0.1-1.9c-0.1-0.4-0.3-0.7-0.6-0.9c-0.3-0.2-0.7-0.4-1.2-0.4
		s-0.9,0.1-1.3,0.4c-0.4,0.3-0.7,0.7-0.9,1.2c-0.2,0.5-0.3,1.3-0.3,2.4v3.7h-1.3v-8.7h1.3v1.2c0.7-1,1.7-1.5,2.8-1.5
		c0.6,0,1.2,0.2,1.7,0.5c0.5,0.3,0.9,0.8,1.1,1.4c0.4-0.6,0.8-1.1,1.4-1.4c0.5-0.3,1.1-0.5,1.7-0.5c0.8,0,1.5,0.3,2.1,0.9
		c0.6,0.6,0.9,1.7,0.9,3.3V520.1z"/>
	<path d="M96.8,520.1h-1.3v-1.3c-0.9,1-2,1.6-3.3,1.6c-1.2,0-2.3-0.5-3.2-1.4c-0.9-0.9-1.3-2-1.3-3.3c0-1.3,0.4-2.3,1.3-3.2
		c0.9-0.9,2-1.4,3.2-1.4c1.3,0,2.3,0.5,3.2,1.6v-1.3h1.3V520.1z M92.3,519.2c0.9,0,1.6-0.3,2.3-1c0.6-0.6,1-1.4,1-2.4
		s-0.3-1.8-0.9-2.4c-0.6-0.6-1.4-1-2.3-1s-1.7,0.3-2.3,1c-0.6,0.7-0.9,1.5-0.9,2.4c0,0.9,0.3,1.7,1,2.4S91.4,519.2,92.3,519.2z"/>
	<path d="M102.7,511.5l-0.7,1.1c-0.2-0.1-0.4-0.1-0.5-0.1c-0.3,0-0.6,0.2-0.9,0.5s-0.5,0.8-0.6,1.3c-0.1,0.5-0.2,1.5-0.2,2.9v3h-1.3
		v-8.7h1.3v0.9c0.3-0.4,0.5-0.7,0.8-0.9c0.3-0.2,0.6-0.3,0.9-0.3C101.9,511.2,102.3,511.3,102.7,511.5z"/>
	<path d="M111.3,511.4l-5.2,11.8h-1.4l1.7-3.8l-3.5-8h1.4l2.9,6.4l2.8-6.4H111.3z"/>
</g>
<g>
	<path d="M357.7,520.1h-1.3v-4.2c0-1,0-1.6-0.1-2c-0.1-0.3-0.2-0.6-0.4-0.9c-0.2-0.2-0.4-0.4-0.7-0.5c-0.3-0.1-0.6-0.2-1-0.2
		c-0.4,0-0.8,0.1-1.1,0.3c-0.4,0.2-0.7,0.5-1,0.8c-0.3,0.3-0.5,0.7-0.6,1.1c-0.1,0.4-0.2,1.2-0.2,2.3v3.2h-1.3v-8.7h1.3v1.3
		c0.9-1,1.9-1.5,3.1-1.5c0.6,0,1.2,0.2,1.7,0.5c0.5,0.3,0.9,0.8,1.2,1.3c0.3,0.6,0.4,1.4,0.4,2.6V520.1z"/>
	<path d="M367.3,511.4l-4,9H363l-4-9h1.4l2.8,6.3l2.8-6.3H367.3z"/>
	<path d="M373.3,512.4l-0.8,0.9c-0.6-0.6-1.2-0.9-1.7-0.9c-0.3,0-0.6,0.1-0.8,0.3c-0.2,0.2-0.3,0.5-0.3,0.8c0,0.3,0.1,0.6,0.4,0.8
		c0.3,0.2,0.7,0.5,1.3,0.8c0.6,0.3,1.1,0.7,1.5,1.1c0.3,0.4,0.5,0.9,0.5,1.5c0,0.7-0.3,1.4-0.8,1.9c-0.5,0.5-1.2,0.8-1.9,0.8
		c-1.1,0-1.9-0.4-2.6-1.3l0.8-0.9c0.6,0.7,1.2,1,1.8,1c0.4,0,0.8-0.1,1-0.4c0.3-0.3,0.4-0.6,0.4-0.9s-0.1-0.7-0.4-0.9
		c-0.3-0.2-0.7-0.5-1.3-0.8c-0.6-0.3-1.1-0.7-1.4-1.1c-0.3-0.4-0.5-0.9-0.5-1.5s0.2-1.2,0.7-1.6c0.5-0.4,1.1-0.7,1.8-0.7
		S372.4,511.6,373.3,512.4z"/>
	<path d="M383.5,516h-7.6c0.1,1,0.4,1.7,1,2.3s1.3,0.9,2.1,0.9c1.4,0,2.5-0.7,3.2-2.1l1.1,0.6c-0.5,0.9-1.1,1.6-1.8,2.1
		c-0.7,0.4-1.5,0.7-2.4,0.7c-1.3,0-2.4-0.5-3.2-1.4c-0.9-0.9-1.3-2-1.3-3.3c0-1.3,0.4-2.4,1.3-3.3c0.9-0.9,1.9-1.4,3.2-1.4
		s2.3,0.4,3.2,1.3C383,513.3,383.5,514.5,383.5,516z M382,514.8c-0.2-0.7-0.5-1.3-1.1-1.7s-1.2-0.6-2-0.6c-1.5,0-2.5,0.8-3,2.4H382z
		"/>
</g>
<g>
	<path d="M628.1,512.5h-1.7v6.1c0,0.2,0,0.4,0.1,0.4c0.1,0,0.2,0.1,0.5,0.1h0.8v1.1c-0.5,0.1-0.9,0.1-1.2,0.1
		c-0.5,0-0.9-0.1-1.1-0.4c-0.2-0.3-0.4-0.6-0.4-1.2v-6.3h-1.5v-1.2h1.5v-3.3h1.3v3.3h1.7V512.5z"/>
	<path d="M633.7,511.2c1.3,0,2.3,0.5,3.2,1.4c0.9,0.9,1.3,2,1.3,3.3c0,1.3-0.4,2.4-1.3,3.3s-1.9,1.4-3.2,1.4c-1.3,0-2.4-0.5-3.2-1.4
		s-1.3-2-1.3-3.3c0-1.3,0.4-2.4,1.3-3.3C631.3,511.6,632.4,511.2,633.7,511.2z M633.7,519.1c0.9,0,1.6-0.3,2.3-1
		c0.6-0.6,0.9-1.4,0.9-2.3c0-0.9-0.3-1.7-1-2.4c-0.6-0.7-1.4-1-2.3-1s-1.6,0.3-2.2,1c-0.6,0.7-0.9,1.5-0.9,2.4s0.3,1.7,0.9,2.3
		C632,518.8,632.8,519.1,633.7,519.1z"/>
	<path d="M652.9,520.1h-1.3v-4.8c0-0.8,0-1.3-0.1-1.7c-0.1-0.4-0.3-0.6-0.6-0.9c-0.3-0.2-0.7-0.4-1.2-0.4s-1,0.2-1.4,0.5
		c-0.4,0.3-0.7,0.8-0.9,1.3c-0.2,0.5-0.3,1.4-0.3,2.4v3.4h-1.3v-4.5c0-0.9,0-1.5-0.1-1.9c-0.1-0.4-0.3-0.7-0.6-0.9
		c-0.3-0.2-0.7-0.4-1.2-0.4s-0.9,0.1-1.3,0.4c-0.4,0.3-0.7,0.7-0.9,1.2c-0.2,0.5-0.3,1.3-0.3,2.4v3.7H640v-8.7h1.3v1.2
		c0.7-1,1.7-1.5,2.8-1.5c0.6,0,1.2,0.2,1.7,0.5c0.5,0.3,0.9,0.8,1.1,1.4c0.4-0.6,0.8-1.1,1.4-1.4c0.5-0.3,1.1-0.5,1.7-0.5
		c0.8,0,1.5,0.3,2.1,0.9c0.6,0.6,0.9,1.7,0.9,3.3V520.1z"/>
</g>
<g>
	<path d="M625.3,231.1h-1.3v-12h1.3V231.1z"/>
	<path d="M627.8,219.1c0.3,0,0.5,0.1,0.7,0.3c0.2,0.2,0.3,0.4,0.3,0.7s-0.1,0.5-0.3,0.7c-0.2,0.2-0.4,0.3-0.7,0.3
		c-0.3,0-0.5-0.1-0.7-0.3s-0.3-0.4-0.3-0.7s0.1-0.5,0.3-0.7S627.5,219.1,627.8,219.1z M628.5,231.1h-1.3v-8.7h1.3V231.1z"/>
	<path d="M631.7,231.1h-1.3v-12h1.3V231.1z"/>
	<path d="M634.2,219.1c0.3,0,0.5,0.1,0.7,0.3c0.2,0.2,0.3,0.4,0.3,0.7s-0.1,0.5-0.3,0.7c-0.2,0.2-0.4,0.3-0.7,0.3s-0.5-0.1-0.7-0.3
		s-0.3-0.4-0.3-0.7s0.1-0.5,0.3-0.7S633.9,219.1,634.2,219.1z M634.9,231.1h-1.3v-8.7h1.3V231.1z"/>
</g>
<g>
	<path d="M357.5,220.3l-5.2,11.8H351l1.7-3.8l-3.5-8h1.4l2.9,6.4l2.8-6.4H357.5z"/>
	<path d="M362.8,220.1c1.3,0,2.3,0.5,3.2,1.4s1.3,2,1.3,3.3c0,1.3-0.4,2.4-1.3,3.3s-1.9,1.4-3.2,1.4s-2.4-0.5-3.2-1.4
		c-0.9-0.9-1.3-2-1.3-3.3c0-1.3,0.4-2.4,1.3-3.3C360.5,220.5,361.5,220.1,362.8,220.1z M362.8,228c0.9,0,1.6-0.3,2.3-1
		s0.9-1.4,0.9-2.3c0-0.9-0.3-1.7-1-2.4s-1.4-1-2.3-1c-0.9,0-1.6,0.3-2.2,1c-0.6,0.7-0.9,1.5-0.9,2.4s0.3,1.7,0.9,2.3
		S361.9,228,362.8,228z"/>
	<path d="M376.6,220.3l-5.2,11.8h-1.4l1.7-3.8l-3.5-8h1.4l2.9,6.4l2.8-6.4H376.6z"/>
	<path d="M381.9,220.1c1.3,0,2.3,0.5,3.2,1.4s1.3,2,1.3,3.3c0,1.3-0.4,2.4-1.3,3.3s-1.9,1.4-3.2,1.4s-2.4-0.5-3.2-1.4
		c-0.9-0.9-1.3-2-1.3-3.3c0-1.3,0.4-2.4,1.3-3.3C379.5,220.5,380.6,220.1,381.9,220.1z M381.9,228c0.9,0,1.6-0.3,2.3-1
		s0.9-1.4,0.9-2.3c0-0.9-0.3-1.7-1-2.4s-1.4-1-2.3-1c-0.9,0-1.6,0.3-2.2,1c-0.6,0.7-0.9,1.5-0.9,2.4s0.3,1.7,0.9,2.3
		S381,228,381.9,228z"/>
</g>
<g>
	<path d="M351,251.7c-0.7-0.6-1.3-1.1-2-1.7l0.5-0.5c0.7,0.5,1.4,1.1,2.1,1.6L351,251.7z M349.1,258.4c0.7-1.9,1.3-3.7,1.8-5.3
		c0.3,0.2,0.5,0.3,0.7,0.3c-0.6,1.6-1.1,3.4-1.7,5.2L349.1,258.4z M351.7,248.5c-0.8-0.7-1.4-1.3-2.1-1.8l0.5-0.5
		c0.6,0.5,1.3,1.1,2.1,1.7L351.7,248.5z M358.1,245.8l0.7,0c0,0.8,0,1.6,0,2.3l3.3,0v0.6l-3.3,0c0,0.1,0,0.2,0,0.4
		c0,0.3,0,0.5,0,0.6c0.1,2.2,0.3,3.7,0.5,4.7c0.6-1.1,1.1-2.5,1.7-4.2l0.7,0.2c-0.6,2-1.3,3.7-2.1,4.9c0.1,0.4,0.2,0.8,0.4,1.2
		c0.3,0.8,0.6,1.2,0.9,1.2c0.2,0,0.4-0.2,0.4-0.6c0.1-0.6,0.2-1.3,0.2-2c0.2,0.1,0.5,0.2,0.7,0.2c0,0.7-0.1,1.4-0.2,2
		c-0.1,0.8-0.5,1.2-1.1,1.2c-0.7,0-1.2-0.5-1.6-1.6c-0.1-0.3-0.2-0.6-0.3-0.8c-0.6,0.8-1.3,1.6-2.2,2.5c-0.2-0.2-0.3-0.3-0.5-0.5
		c1.1-1,1.9-1.9,2.5-2.9c-0.3-1.2-0.5-3-0.6-5.5c0-0.3,0-0.7-0.1-1.2l-4.7,0l0,2.5c0,2-0.1,3.5-0.4,4.5c-0.2,1-0.8,2-1.6,3.1
		c-0.1-0.1-0.3-0.3-0.6-0.5c0.7-1,1.2-1.9,1.5-2.9c0.3-0.9,0.4-2.3,0.4-4.1l0-3.2l5.4,0c0-0.3,0-0.5,0-0.9c0-0.2,0-0.4,0-0.6
		C358.1,246.5,358.1,246.2,358.1,245.8z M354.1,250.2l3.5,0v0.6l-3.5,0V250.2z M354.4,252.2l3,0l0,4l-3,0L354.4,252.2z M355.1,252.8
		l0,2.8l1.7,0l0-2.8L355.1,252.8z M359.5,246.7l0.5-0.5c0.4,0.3,0.9,0.7,1.5,1.2L361,248C360.7,247.6,360.2,247.2,359.5,246.7z"/>
	<path d="M364.8,255.1l4.4,0l0-0.8l0.7,0l0,0.8l4.8,0v0.6l-4.8,0l0,1.9l6.2,0l0,0.7l-13.1,0l0-0.7l6.2,0l0-1.9l-4.4,0V255.1z
		 M364,249.3l0.7,0l0,2l1.6,0c0.1-0.4,0.1-0.9,0.1-1.5l0-1.3l-2.9,0l0-0.6l3.7,0c0.5-0.7,0.9-1.4,1.3-2l0.7,0.3
		c-0.5,0.7-0.9,1.3-1.2,1.7l2,0l0,0.6l-2.9,0l0,1.3c0,0.6,0,1.1-0.1,1.6l1.7,0l0-2.1l0.7,0l0,2.7l-2.5,0c-0.2,1.3-1.2,2.3-3,3.2
		c-0.1-0.2-0.3-0.3-0.5-0.5c1.7-0.8,2.6-1.7,2.8-2.7l-2.1,0L364,249.3z M364.3,246.2l0.6-0.3c0.4,0.5,0.8,1,1.2,1.5l-0.6,0.4
		C365.2,247.4,364.8,246.9,364.3,246.2z M370.7,246.6l4.6,0l0,6c0,0.9-0.4,1.4-1.4,1.4c-0.3,0-0.8,0-1.4,0c0-0.2,0-0.4-0.1-0.7
		c0.3,0,0.5,0,0.6,0c0.1,0,0.2,0,0.3,0c0.1,0,0.3,0,0.5,0c0.6,0,0.8-0.3,0.8-0.9l0-0.7l-3.4,0c-0.2,0.8-0.7,1.7-1.6,2.5
		c-0.2-0.2-0.4-0.4-0.5-0.5c0.7-0.6,1.2-1.2,1.4-1.8c0.2-0.6,0.3-1.6,0.3-3L370.7,246.6z M371.4,249.4c0,0.7,0,1.3-0.1,1.7l3.3,0
		l0-1.7L371.4,249.4z M371.4,247.2l0,1.6l3.2,0l0-1.6L371.4,247.2z"/>
	<path d="M378.9,246.7l9.4,0l0,12.1l-0.8,0l0-1l-7.8,0l0,1l-0.8,0L378.9,246.7z M379.6,247.4l0,4.4l7.8,0l0-4.4L379.6,247.4z
		 M379.6,252.5l0,4.6l7.8,0l0-4.6L379.6,252.5z"/>
	<path d="M397.2,245.7l0.8,0l0,2.4l5.7,0l0,2.1l-0.8,0l0-1.5l-10.7,0l0,1.5l-0.8,0l0-2.1l5.7,0L397.2,245.7z M393.5,250l8.2,0l0,2.8
		l-3.8,0l0,1.4l5,0l0,2.2c0,0.9-0.5,1.4-1.5,1.4c-0.3,0-0.8,0-1.4,0c0-0.4-0.1-0.6-0.2-0.7c0.5,0,1,0,1.4,0c0.4,0,0.6-0.1,0.8-0.2
		c0.1-0.1,0.2-0.3,0.2-0.7l0-1.4l-4.2,0l0,4l-0.8,0l0-4l-4.2,0l0,3l-0.8,0l0-3.6l4.9,0l0-1.4l-3.7,0L393.5,250z M392.8,246.5
		l0.5-0.5c0.7,0.5,1.4,0.9,2,1.4l-0.5,0.5C394.3,247.6,393.6,247.1,392.8,246.5z M394.2,250.7l0,1.6l6.7,0l0-1.6L394.2,250.7z
		 M400.3,248l-0.5-0.6c0.9-0.6,1.6-1,2.1-1.3l0.5,0.5c-0.4,0.3-1.1,0.7-2,1.3C400.3,247.9,400.3,248,400.3,248z"/>
</g>
<g>
	<path d="M76.1,544.1h10.4v2.9h-4.8v1.6h5.5c0,0.8-0.1,1.6-0.1,2.2c-0.1,1.1-0.7,1.6-1.9,1.6c-0.3,0-0.5,0-0.8,0c-0.1,0-0.2,0-0.4,0
		c-0.1,0-0.3,0-0.5,0c0-0.3-0.1-0.5-0.2-0.8c0.5,0,1.1,0.1,1.7,0.1c0.8,0,1.2-0.3,1.2-1c0-0.4,0.1-0.9,0.1-1.4h-4.8v4.2H81v-4.2
		c-1.3,1.7-3.3,3-5.9,3.8c-0.1-0.2-0.2-0.5-0.4-0.7c2.4-0.7,4.2-1.8,5.5-3.1h-4.4l0.6-2.9H81v-1.6h-4.8V544.1z M77.4,540l0.8,0.1
		c-0.2,0.4-0.5,0.8-0.7,1.2h4v0.6H77c-0.5,0.7-1.1,1.3-1.8,1.8c-0.2-0.2-0.3-0.3-0.6-0.5C75.9,542.4,76.8,541.3,77.4,540z M77,547
		l-0.3,1.6H81V547H77z M79.6,543.3l-0.5,0.5c-0.4-0.5-0.8-0.9-1.1-1.3l0.5-0.4C78.7,542.4,79.1,542.8,79.6,543.3z M83.2,540l0.8,0.1
		c-0.2,0.4-0.4,0.9-0.6,1.2h4.5v0.6H83c-0.4,0.6-0.8,1.1-1.3,1.6c-0.2-0.2-0.4-0.3-0.6-0.4C82,542.2,82.7,541.2,83.2,540z
		 M85.8,544.7h-4v1.6h4V544.7z M85.7,543.3l-0.5,0.5c-0.5-0.5-0.9-0.9-1.3-1.3l0.5-0.4C84.8,542.4,85.3,542.8,85.7,543.3z"/>
	<path d="M88.7,545.9H102v0.8H88.7V545.9z"/>
	<path d="M102.8,551.4c1-1.6,1.9-3.4,2.8-5.3c0.3,0.2,0.5,0.3,0.7,0.5c-0.8,1.5-1.7,3.3-2.8,5.4L102.8,551.4z M105.5,544.5
		c-0.8-1.1-1.6-2.1-2.3-3l0.6-0.4c0.8,0.9,1.6,1.9,2.4,3L105.5,544.5z M110.4,545.7c0-0.3,0.1-0.8,0.1-1.4h0.8c0,0.4,0,0.9-0.1,1.4
		c0.6,3.2,2.2,5.4,4.7,6.8c-0.2,0.2-0.4,0.5-0.6,0.7c-2.5-1.6-4-3.8-4.5-6.3c-0.3,2.6-2,4.8-4.9,6.5c-0.1-0.2-0.3-0.4-0.6-0.7
		C108.5,551,110.2,548.7,110.4,545.7z M114.1,546.2c-0.3-0.1-0.5-0.2-0.7-0.2l1.2-2.6h-5.6c-0.4,0.8-0.9,1.7-1.5,2.7
		c-0.2-0.1-0.4-0.3-0.7-0.4c1.1-1.6,1.9-3.4,2.5-5.4l0.8,0.2c-0.2,0.7-0.5,1.5-0.8,2.2h6.1v0.8L114.1,546.2z"/>
	<path d="M117.2,541.3h12.6v0.7h-5c-1.8,3-4.3,5.5-7.4,7.5c-0.1-0.2-0.3-0.4-0.5-0.6c3.2-2.1,5.5-4.4,7-6.9h-6.6V541.3z
		 M122.9,544.7h0.8v8.6h-0.8V544.7z M129.4,549.2c-1.6-1.1-3.2-2.2-4.6-3.1l0.5-0.6c1.4,0.9,2.9,1.9,4.6,3L129.4,549.2z"/>
	<path d="M132.6,549.5h4.4v-0.8h0.7v0.8h4.8v0.6h-4.8v1.9h6.2v0.7h-13.1V552h6.2v-1.9h-4.4V549.5z M131.8,543.7h0.7v2h1.6
		c0.1-0.4,0.1-0.9,0.1-1.5v-1.3h-2.9v-0.6h3.7c0.5-0.7,0.9-1.4,1.3-2l0.7,0.3c-0.5,0.7-0.9,1.3-1.2,1.7h2v0.6h-2.9v1.3
		c0,0.6,0,1.1-0.1,1.6h1.7v-2.1h0.7v2.7h-2.5c-0.2,1.3-1.2,2.3-3,3.2c-0.1-0.2-0.3-0.3-0.5-0.5c1.7-0.8,2.6-1.7,2.8-2.7h-2.1V543.7z
		 M132.1,540.6l0.6-0.3c0.4,0.5,0.8,1,1.2,1.5l-0.6,0.4C133,541.8,132.6,541.3,132.1,540.6z M138.5,541h4.6v6c0,0.9-0.4,1.4-1.4,1.4
		c-0.3,0-0.8,0-1.4,0c0-0.2,0-0.4-0.1-0.7c0.3,0,0.5,0,0.6,0c0.1,0,0.2,0,0.3,0c0.1,0,0.3,0,0.5,0c0.6,0,0.8-0.3,0.8-0.9v-0.7H139
		c-0.2,0.8-0.7,1.7-1.6,2.5c-0.2-0.2-0.4-0.4-0.5-0.5c0.7-0.6,1.2-1.2,1.4-1.8c0.2-0.6,0.3-1.6,0.3-3V541z M139.2,543.8
		c0,0.7,0,1.3-0.1,1.7h3.3v-1.7H139.2z M139.2,541.6v1.6h3.2v-1.6H139.2z"/>
	<path d="M152.3,540.1h0.7c0,1,0.1,1.9,0.1,2.8h4.7v0.7h-4.7c0.1,2.3,0.4,4.2,0.8,5.6c0.8-1.1,1.6-2.4,2.3-4.1l0.7,0.3
		c-0.9,1.9-1.8,3.4-2.7,4.6c0.6,1.6,1.2,2.5,1.9,2.5c0.4,0,0.7-0.3,0.8-0.9c0.2-0.6,0.3-1.2,0.3-1.8c0.2,0.1,0.5,0.2,0.7,0.3
		c-0.1,0.8-0.2,1.4-0.4,1.8c-0.3,0.9-0.8,1.3-1.5,1.3c-1,0.1-1.8-0.8-2.4-2.5c-0.7,0.8-1.6,1.6-2.6,2.4c-0.1-0.2-0.3-0.4-0.5-0.6
		c1.1-0.8,2.1-1.7,2.9-2.6c-0.5-1.5-0.8-3.6-1-6.3h-5.5v2.3h3.9c0,1-0.1,2.3-0.2,3.7c0,1.3-0.6,2-1.8,2c-0.3,0-0.7,0-1.2,0
		c0-0.3-0.1-0.5-0.2-0.8c0.2,0,0.3,0,0.5,0c0.1,0,0.2,0,0.3,0c0.1,0,0.2,0,0.4,0c0.8,0,1.2-0.3,1.2-1.2c0.1-1.1,0.1-2.2,0.1-3.1
		h-3.2c0,1.7-0.1,3-0.3,3.9c-0.2,0.9-0.6,1.8-1.3,2.9c-0.2-0.1-0.4-0.3-0.6-0.5c0.7-1,1.1-2,1.2-2.8c0.2-0.8,0.3-2.2,0.3-4.2v-3h6.2
		C152.3,542.1,152.3,541.1,152.3,540.1z M154.2,541.1l0.4-0.5c0.7,0.4,1.4,0.9,2.1,1.4l-0.4,0.5C155.6,542,154.9,541.5,154.2,541.1z
		"/>
	<path d="M159,550.8l-0.2-0.8c0.6-0.1,1.5-0.3,2.4-0.6v-6.8h-2.3v-0.7h5.1v0.7h-2.1v6.7c0.7-0.2,1.4-0.4,2.1-0.6
		c0,0.2,0,0.5,0.1,0.8C162.9,549.8,161.2,550.2,159,550.8z M164.3,543.1h1.9c0-1,0.1-2,0.1-2.8h0.8c0,1.1,0,2-0.1,2.8h4.4
		c-0.1,3.2-0.2,5.8-0.3,7.8c0,1.5-0.7,2.2-2.2,2.2c-0.4,0-1.1,0-2,0c0-0.3-0.1-0.6-0.2-0.8c0.2,0,0.5,0,0.8,0c0.2,0,0.3,0,0.5,0
		c0.2,0,0.4,0,0.7,0c1,0.1,1.6-0.4,1.6-1.4c0.1-2.5,0.2-4.8,0.3-7.1h-3.6c0,0.2,0,0.4,0,0.8c0,0.2,0,0.4,0,0.5
		c-0.1,3.7-1.5,6.5-4.1,8.2c-0.3-0.3-0.5-0.5-0.6-0.6c2.6-1.6,3.9-4.1,4-7.7c0-0.1,0-0.2,0-0.3c0-0.2,0-0.5,0.1-1h-1.9V543.1z"/>
	<path d="M178.6,553.5H178l1.1-3.5h0.8L178.6,553.5z"/>
	<path d="M187.1,552.7c2.7-0.2,4.2-0.8,4.4-2h-2.4v-4.6h8.6v4.6h-2.5v1c0,0.5,0.3,0.8,0.9,0.8h2c0.6,0,0.9-0.2,1-0.7
		c0.1-0.3,0.1-0.7,0.2-1.2c0.2,0.1,0.4,0.2,0.7,0.2c-0.1,0.5-0.1,0.9-0.2,1.2c-0.2,0.7-0.7,1-1.5,1h-2.3c-0.9,0-1.4-0.4-1.4-1.2
		v-1.2h-2.4c-0.2,1.5-1.7,2.4-4.8,2.7C187.3,553.2,187.2,553,187.1,552.7z M188.2,540.9c0.9-0.1,1.8-0.3,2.6-0.5l0.2,0.5
		c-0.7,0.2-1.4,0.3-2.1,0.4v0.7h2.2v0.5h-2.2v0.9h2.2v0.5h-2.2v0.9h9.1v-0.9h-2.2v-0.5h2.2v-0.9h-2.1V542h2.1v-0.9h-2.2v-0.5h2.9
		v4.1h1v2h-0.7v-1.5h-11.1v1.5h-0.7v-2h1V540.9z M189.8,546.7v0.8h7.2v-0.8H189.8z M189.8,548v0.8h7.2V548H189.8z M189.8,549.3v0.8
		h7.2v-0.8H189.8z M191.8,542.8l0.3-0.4c0.2,0.1,0.5,0.3,0.9,0.5c0.1,0.1,0.2,0.1,0.3,0.2c0.4-0.2,0.7-0.5,1-0.7l0.3,0.3
		c-0.3,0.2-0.6,0.4-0.9,0.7c0.2,0.1,0.6,0.3,1,0.6c0.1,0.1,0.1,0.1,0.2,0.1l-0.3,0.4l-1.3-0.8c-0.5,0.3-1,0.6-1.7,0.9
		c-0.1-0.1-0.2-0.3-0.3-0.4c0.5-0.2,1-0.5,1.5-0.8C192.5,543.2,192.2,543,191.8,542.8z M191.6,540.8l0.3-0.4
		c0.4,0.2,0.8,0.4,1.4,0.7c0,0,0.1,0,0.1,0c0.4-0.2,0.8-0.5,1.3-0.8l0.3,0.4c0,0-0.1,0.1-0.2,0.1c-0.4,0.2-0.7,0.4-0.9,0.5
		c0.4,0.2,0.8,0.4,1.2,0.6l-0.3,0.4c0,0-0.1,0-0.2-0.1c-0.6-0.3-1-0.5-1.3-0.7c-0.5,0.3-1.1,0.5-1.6,0.7c0,0,0-0.1-0.1-0.1
		c-0.1-0.2-0.2-0.3-0.2-0.3c0.3-0.1,0.8-0.3,1.3-0.6C192.4,541.2,192,541,191.6,540.8z"/>
	<path d="M201.1,548.7c-0.1-0.3-0.2-0.5-0.3-0.7c1.3-1.2,2.4-2.7,3.4-4.4l0.7,0.4c-0.4,0.7-0.8,1.4-1.3,2.1v7.3h-0.7V547
		C202.2,547.6,201.7,548.2,201.1,548.7z M201.4,544.4c-0.1-0.2-0.2-0.4-0.4-0.6c1.2-0.9,2.3-2.1,3.2-3.6l0.7,0.4
		C203.9,541.9,202.8,543.2,201.4,544.4z M205.3,546.9h8.4v0.6H212v1.4h2v0.7h-2v2c0.1,1-0.5,1.6-1.6,1.5c-0.6,0-1.2,0-1.8,0
		c-0.1-0.3-0.1-0.5-0.2-0.8c0.7,0,1.3,0,1.8,0c0.4,0,0.7-0.1,0.8-0.2c0.2-0.1,0.2-0.3,0.2-0.6v-2h-6.6v-0.7h6.6v-1.4h-6V546.9z
		 M205.9,550.4l0.5-0.5c0.6,0.6,1.1,1.1,1.6,1.6l-0.6,0.5C207,551.4,206.5,550.9,205.9,550.4z M206.1,540.8h6.8v4.8h-6.8V540.8z
		 M206.8,541.4v1.5h5.4v-1.5H206.8z M206.8,543.5v1.5h5.4v-1.5H206.8z"/>
	<path d="M215.5,540.8h5v4.4h-4.3v8.1h-0.7V540.8z M216.2,541.4v1.3h3.6v-1.3H216.2z M216.2,544.6h3.6v-1.3h-3.6V544.6z M217,548.8
		h2.3c0-0.3,0.1-0.8,0.1-1.3V547h-1.6v-0.6h7.1v0.6h-1.6v1.8h2.4v0.6h-2.4v3h-0.7v-3H220c-0.1,1.2-0.8,2.2-2,3.1
		c-0.1-0.2-0.3-0.3-0.5-0.5c1.1-0.8,1.7-1.6,1.9-2.6H217V548.8z M220.1,547.5c0,0.6,0,1-0.1,1.3h2.6V547h-2.5V547.5z M225.3,552.4
		c0.9,0,1.3-0.3,1.2-1.1v-6.2h-4.4v-4.4h5.1v10.5c0,1.2-0.6,1.8-1.8,1.8c-0.3,0-0.6,0-0.7,0c-0.1,0-0.2,0-0.3,0c-0.1,0-0.2,0-0.4,0
		c0-0.2-0.1-0.5-0.1-0.7c0.3,0,0.5,0,0.7,0C224.7,552.4,225,552.4,225.3,552.4z M222.9,541.4v1.3h3.7v-1.3H222.9z M222.9,544.6h3.7
		v-1.3h-3.7V544.6z"/>
	<path d="M230.2,544.3l0.8,0.2c-0.4,1.8-0.9,3.6-1.4,5.4c-0.3-0.1-0.6-0.2-0.8-0.3C229.4,547.9,229.8,546.1,230.2,544.3z
		 M232.3,542.8h0.8v7.9c0,0.5,0.1,0.9,0.3,1.1c0.2,0.2,0.6,0.3,1.1,0.3h2.7c1,0,1.6-0.4,1.7-1.2c0.1-0.5,0.2-1.1,0.2-1.9
		c0.3,0.1,0.6,0.2,0.8,0.3c-0.1,0.8-0.2,1.5-0.3,2c-0.2,1.1-1,1.6-2.3,1.6h-3c-1.3,0-2-0.6-2-2V542.8z M236.6,544.3
		c-0.7-1.3-1.4-2.5-2.2-3.8l0.7-0.4c0.7,1.1,1.5,2.4,2.3,3.7L236.6,544.3z M241.2,549.1c-0.7-1.6-1.4-3.2-2.2-4.8l0.7-0.3
		c0.8,1.7,1.6,3.3,2.3,4.8L241.2,549.1z"/>
</g>
</svg>
