<?xml version="1.0" encoding="utf-8"?>
<!-- Generator: Adobe Illustrator 21.0.0, SVG Export Plug-In . SVG Version: 6.00 Build 0)  -->
<svg version="1.1" id="图层_1" xmlns="http://www.w3.org/2000/svg" xmlns:xlink="http://www.w3.org/1999/xlink" x="0px" y="0px"
	 viewBox="0 0 220 197" style="enable-background:new 0 0 220 197;" xml:space="preserve">
<style type="text/css">
	.st0{fill:#97B1C4;}
	.st1{fill:#92ADC1;}
	.st2{fill:#7EA7BD;}
</style>
<g>
	<path class="st0" d="M212.8,50.6c-25.3,17.8-68.3,21.7-68.3,21.7c-23-1-45.9,5.7-62.5,12.1c0.9-0.7,1.8-1.5,2.7-2.3
		c1.1-0.9,5.9-7.5,8.2-9.4c3.2-2.8,7.1-4,10.5-3.6c1.3,0.1,2.5-0.7,2.6-2c0.4-6.2,0.6-6.6,4.1-10.6c2.5-2.9,6.5-1.7,9.3-3.5
		c0.9-0.6,1.4-0.6,1.7-1.3c4.6-10.1,43.5-45.5,54.6-45.4c0.3,0,0.5,0.1,0.8,0.1c12.2,4,28.4,25.2,35.5,38.3
		C212.9,47,213.2,48.8,212.8,50.6z"/>
	<path class="st1" d="M212.8,50.6c-0.6,2.6-2.8,5-6.6,8c-5.8,4.6-35,34.1-43.8,34.2c-1.3,0-2.1,1.7-3.1,2.5c-0.6,0.5-0.9,1.2-1,2
		c-0.3,2.9-2.3,5.2-4.9,7.4c-2.9,2.5-6,4.1-9.1,3.7c-0.7-0.1-1.5,0-2.1,0.5s-1.3,1-1.9,1.5c-1.1,0.9-1,4.5-2,5.5
		c-13.7,12.5-25.3,22.6-40,33.7c-10.8,8.2-23.3,15.6-36.2,19c-5.1,1.3-9.3-0.9-13.7,0.9c-4.1,1.7-8.2,7.9-12,11.2
		c-7.3,6.5-11,2-16.3-4.2c-5.2-6.1-9.6-8.5-1.9-16c4.3-4.2,12-8.3,13.9-12.6c2-4.4,1-9.2,2.5-14.4c2.6-8.9,10.2-17,17.1-23.9
		C62.9,98.2,70.5,93.9,82,84.4c16.6-6.5,39.5-13.1,62.5-12.1C144.5,72.3,187.6,68.4,212.8,50.6z"/>
	<path class="st2" d="M26.2,190.7l-19.6-21c-1.3-1.4-1.2-3.6,0.2-4.8l8.1-7.5c1.4-1.3,3.6-1.2,4.8,0.2l19.6,21
		c1.3,1.4,1.2,3.6-0.2,4.8l-8.1,7.5C29.7,192.1,27.5,192.1,26.2,190.7z"/>
</g>
</svg>
