<?xml version="1.0" encoding="utf-8"?>
<!-- Generator: Adobe Illustrator 21.0.0, SVG Export Plug-In . SVG Version: 6.00 Build 0)  -->
<svg version="1.1" id="图层_1" xmlns="http://www.w3.org/2000/svg" xmlns:xlink="http://www.w3.org/1999/xlink" x="0px" y="0px"
	 viewBox="0 0 150 192" style="enable-background:new 0 0 150 192;" xml:space="preserve">
<style type="text/css">
	.st0{fill:#97B1C4;}
	.st1{fill:#92ADC1;}
</style>
<g>
	<path class="st0" d="M147,19.6L147,19.6c0-0.1,0-0.1,0-0.2C147,10.3,114.8,3,75.1,3S3.3,10.3,3.3,19.4c0,0.1,0,0.1,0,0.2l0,0
		l0.1,0.5c0,0.1,0,0.1,0,0.2l22.4,157.4c0,0,43.2,21.6,98.6,0l22.4-157.4c0-0.1,0-0.1,0-0.2L147,19.6z"/>
	<ellipse class="st1" cx="74.9" cy="17.4" rx="71.9" ry="15.3"/>
</g>
</svg>
