<?xml version="1.0" encoding="utf-8"?>
<!-- Generator: Adobe Illustrator 23.0.0, SVG Export Plug-In . SVG Version: 6.00 Build 0)  -->
<svg version="1.1" id="图层_1" xmlns="http://www.w3.org/2000/svg" xmlns:xlink="http://www.w3.org/1999/xlink" x="0px" y="0px"
	 viewBox="0 0 565 428" style="enable-background:new 0 0 565 428;" xml:space="preserve">
<style type="text/css">
	.st0{fill:#EDC6B2;}
	.st1{fill:#FFFFFF;}
</style>
<g>
	<path class="st0" d="M562.96,395.58c0,0-4.37,6.12-12.68,3.77c0.95,13.85,0.36,24.88-3.6,26.47c0,0-31.4,0-23.84-44.2
		c0,0-10.23-12.79-15.29-37.79c-0.02-0.03-0.05-0.07-0.07-0.1c1.62,13.85,3.41,49.45-11.39,82.09c0,0-29.65,15.11-21.51-40.71
		l4.65-20.93c0,0-9.3-22.1-5.81-32.56l-13.74-33.12c-2.18-1.93-4.58-3.99-7.19-6.1c-1.68,10.24-5.43,27.58-12.8,39.22l-12.79,36.63
		c0,0-3.49,24.42-16.86,24.42c0,0-19.25-18.34-7.04-45.67c0,0,2.77-21.7,8-31c0,0,4.72-30.45,8.36-45.32
		c-3.95-1.97-8.04-3.78-12.23-5.35c0,0-34.89-8.14-46.52,10.47c0,0-12.79,54.07-12.21,87.8c0.58,33.72-33.73,40.12-38.96-25.59
		c0,0-6.79-65.87-11.44-74.01c0,0-9.49-21.93-9.49-74.26c0,0,9.3-23.26-153.51-51.17v-0.22c0,0-74.17-3.14-135-13.44V0.17l135,34.9
		l28.4,6.45l183.26,62.16c0,0,5.81,3.49,26.74,25.59c0,0,61.64,62.79,90.71,84.89c0,0,16.23,23.81,32.02,47.72
		c1.48,1.27,44.74,38.82,44.74,73.17v0.01C551.61,354.93,563.61,380.67,562.96,395.58z"/>
	<path class="st1" d="M498,425c1.95-1.95,5.58-13.75,7.2-19.22c0.46-1.57-0.37-3.22-1.9-3.8l-1.3-0.49c0,0-7,18-8,24
		C494,425.5,496,427,498,425z"/>
	<path class="st1" d="M414.62,395.38c2.32-1.48,8.42-12.22,11.17-17.21c0.79-1.43,0.34-3.23-1.04-4.12l-1.16-0.76
		c0,0-10.72,16.07-12.99,21.71C410.6,395,412.23,396.9,414.62,395.38z"/>
	<path class="st1" d="M552.52,424.76c1.03-2.55-0.23-14.83-0.89-20.5c-0.19-1.62-1.6-2.82-3.23-2.75l-1.38,0.06
		c0,0,0.59,19.3,2.02,25.22C549.04,426.78,551.46,427.38,552.52,424.76z"/>
	<path class="st1" d="M565.49,393.51c0.27-2.74-4.38-14.17-6.6-19.43c-0.64-1.51-2.32-2.26-3.87-1.74l-1.31,0.45
		c0,0,5.98,18.36,9.01,23.64C562.71,396.43,565.21,396.33,565.49,393.51z"/>
	<path class="st1" d="M326.06,364c0.04,0,17.91,0,17.91,0s4.32,18.53-6.79,21c-4.7,1.04-7.6-0.92-9.82-4.8
		c-1.14-2.01-1.84-4.24-2.13-6.53C325.09,372.66,324.99,364,326.06,364z"/>
</g>
</svg>
