<?xml version="1.0" encoding="utf-8"?>
<!-- Generator: Adobe Illustrator 23.0.0, SVG Export Plug-In . SVG Version: 6.00 Build 0)  -->
<svg version="1.1" id="图层_1" xmlns="http://www.w3.org/2000/svg" xmlns:xlink="http://www.w3.org/1999/xlink" x="0px" y="0px"
	 viewBox="0 0 67 124" style="enable-background:new 0 0 67 124;" xml:space="preserve">
<style type="text/css">
	.st0{fill:#FFFFFF;}
</style>
<path class="st0" d="M13.05,123.64c-2.06,0-3.81-1.58-3.98-3.67c-0.18-2.2,1.45-4.14,3.65-4.32c19.6-1.64,27.22-16.43,27.53-17.06
	c0.99-1.97,3.38-2.78,5.36-1.8c1.97,0.98,2.79,3.36,1.82,5.34c-0.39,0.79-9.8,19.48-34.04,21.5
	C13.28,123.63,13.17,123.64,13.05,123.64z"/>
<path class="st0" d="M4,94c-1.69,0-3.26-1.08-3.8-2.77c-0.68-2.1,0.47-4.36,2.57-5.04c26.78-8.67,44.22-24.94,51.82-48.36
	c5.74-17.67,3.48-33.07,3.45-33.22c-0.33-2.18,1.16-4.22,3.34-4.56c2.18-0.34,4.22,1.15,4.56,3.33c0.11,0.69,2.57,17.16-3.64,36.59
	c-5.76,18-20.34,41.95-57.08,53.84C4.82,93.94,4.41,94,4,94z"/>
</svg>
