<?xml version="1.0" encoding="utf-8"?>
<!-- Generator: Adobe Illustrator 21.0.0, SVG Export Plug-In . SVG Version: 6.00 Build 0)  -->
<svg version="1.1" id="图层_1" xmlns="http://www.w3.org/2000/svg" xmlns:xlink="http://www.w3.org/1999/xlink" x="0px" y="0px"
	 viewBox="0 0 100 119" style="enable-background:new 0 0 100 119;" xml:space="preserve">
<style type="text/css">
	.st0{fill:#B4D3E0;}
	.st1{fill:#A0BDCD;}
</style>
<g>
	<path class="st0" d="M86.2,26.2c-0.2,0.8-0.5,2.5-1.3,7.3c-1.5,8.8-4.1,17-7.8,24.6C55.9,57.6,41,53,41,53
		c-2.8-1.3-5.7-2.5-8.6-3.6c8.3-12.3,19.1-22.3,32.7-29.7c4.8-2.6,5.5-2.4,7.5-3.5c5.9-7.6,9.3-18.9,19.1-11.5
		C101.9,12.2,94.8,14.7,86.2,26.2z"/>
	<path class="st1" d="M77,58.1C71.7,69,64,78.7,53.6,87.2c-3.9,3.2-7.1,7.7-9.5,12.2c-10.1,18.9-11.6,20-28.2,7.2
		C-1.5,93.4-0.8,93.2,14.2,78.6c3.7-3.6,7.2-8,9.2-12.7c2.6-5.9,5.6-11.4,9-16.5c2.9,1.1,5.8,2.3,8.6,3.6C41,53,55.9,57.6,77,58.1z"
		/>
</g>
</svg>
