<?xml version="1.0" encoding="utf-8"?>
<!-- Generator: Adobe Illustrator 21.0.0, SVG Export Plug-In . SVG Version: 6.00 Build 0)  -->
<svg version="1.1" id="图层_1" xmlns="http://www.w3.org/2000/svg" xmlns:xlink="http://www.w3.org/1999/xlink" x="0px" y="0px"
	 viewBox="0 0 243 264" style="enable-background:new 0 0 243 264;" xml:space="preserve">
<style type="text/css">
	.st0{fill:#97B1C4;}
	.st1{fill:#92ADC1;}
	.st2{opacity:0.6;}
	.st3{opacity:0.8;fill:#B0C2D0;enable-background:new    ;}
	.st4{fill:#B0C2D0;}
</style>
<g>
	<path class="st0" d="M241.9,122.2C219.8,87.4,185.4,38.8,156.6,10c-5.2-5.2-31.5,28.6-52.6,41.1c-11.8,7-24.7,18.4-35.5,27.1
		c-15.6,12.7-27.1,22.1-36.9,29.6c30.1,8.5,62.3,21.5,89.2,41.6c0,0,25.7,14.6,62,20.1C207.6,150.9,243.6,124.9,241.9,122.2z
		 M198.3,106c-4.5,3.7-11.2,3-14.9-1.6l-27.5-33.9c-3.7-4.5-3-11.2,1.6-14.9c4.5-3.7,11.2-3,14.9,1.6l27.5,33.9
		C203.5,95.6,202.8,102.3,198.3,106z"/>
	<path class="st1" d="M164.8,183.1c0.2,0.2,0.4,0.5,0.6,0.7c-15.6,12.6-30.7,25.9-46.8,37.7c-47.8,35.2-61.8,42.8-84.8-23.2
		c-10.8-52-38-66.8-31-71c9.8-5.8,18.4-11.7,28.8-19.7c30.1,8.5,62.3,21.5,89.2,41.6c0,0,25.7,14.6,62,20.1
		C175.3,174.9,168.9,179.8,164.8,183.1z"/>
	<g>
		<g class="st2">
			
				<ellipse transform="matrix(0.2125 -0.9772 0.9772 0.2125 -77.8563 220.3454)" class="st3" cx="97.8" cy="158.5" rx="9.9" ry="9.9"/>
			<path class="st4" d="M105.1,158.5c-0.3-0.1-0.6-0.3-0.7-0.7c-0.8-3.8-3.3-4.9-3.4-4.9c-0.5-0.2-0.7-0.7-0.5-1.2s0.7-0.7,1.2-0.5
				c0.1,0.1,3.5,1.4,4.6,6.3c0.1,0.5-0.2,1-0.7,1.1C105.4,158.5,105.2,158.5,105.1,158.5z"/>
		</g>
		<g>
			
				<ellipse transform="matrix(0.2125 -0.9772 0.9772 0.2125 -32.4062 191.6156)" class="st3" cx="102.7" cy="115.9" rx="4.6" ry="4.6"/>
			<path class="st4" d="M106.1,115.9c-0.2,0-0.3-0.2-0.3-0.3c-0.4-1.8-1.5-2.3-1.6-2.3c-0.2-0.1-0.3-0.3-0.2-0.6
				c0.1-0.2,0.3-0.3,0.6-0.3c0.1,0,1.7,0.6,2.1,2.9c0,0.2-0.1,0.5-0.3,0.5C106.2,116,106.1,116,106.1,115.9z"/>
		</g>
	</g>
</g>
</svg>
