<?xml version="1.0" encoding="utf-8"?>
<!-- Generator: Adobe Illustrator 23.0.0, SVG Export Plug-In . SVG Version: 6.00 Build 0)  -->
<svg version="1.1" id="图层_1" xmlns="http://www.w3.org/2000/svg" xmlns:xlink="http://www.w3.org/1999/xlink" x="0px" y="0px"
	 viewBox="0 0 122 114" style="enable-background:new 0 0 122 114;" xml:space="preserve">
<style type="text/css">
	.st0{fill:#80A6BD;}
	.st1{fill:#A0BDCD;}
</style>
<path class="st0" d="M107.51,38.79c-16.49,5.95-28.82,7.32-28.82,7.32c-21.58-0.28-43.23,4.2-62.87,10.56
	c-5.07-8.56-9.86-17.33-14.58-26.14c-1.08-2.01-0.67-6.87,0.68-7.68c2.25-1.36,6.67-1.73,8.68-0.34c4.28,2.96,7.57,7.34,11.33,11.08
	c6.5,6.47,8.8,5.62,18.01-4.56c5.49-6.06,0.65-8.53-3.05-11.83c-4.31-3.84-8.48-7.84-12.71-11.77C24,5,23.42,2.91,24,2
	c0.51-0.8,2-2,3.43-1.7C30,1,49.59,4.71,59.13,9.79C75.71,18.61,91.66,28.64,107.51,38.79z"/>
<path class="st1" d="M119.42,54.86c-12.86,21.52-28.49,40.75-48.6,56.08c-5.13,3.91-8.83,3.53-13.73-1
	c-16.88-15.59-29.8-33.92-41.27-53.27c19.64-6.36,41.29-10.84,62.87-10.56c0,0,12.33-1.37,28.82-7.32
	c3.41,2.17,6.81,4.36,10.21,6.54C119.65,46.56,120.73,52.68,119.42,54.86z"/>
</svg>
