<?xml version="1.0" encoding="utf-8"?>
<!-- Generator: Adobe Illustrator 23.0.0, SVG Export Plug-In . SVG Version: 6.00 Build 0)  -->
<svg version="1.1" id="图层_1" xmlns="http://www.w3.org/2000/svg" xmlns:xlink="http://www.w3.org/1999/xlink" x="0px" y="0px"
	 viewBox="0 0 214 259" style="enable-background:new 0 0 214 259;" xml:space="preserve">
<style type="text/css">
	.st0{fill:#AAC6D4;}
	.st1{fill:#A0BDCD;}
	.st2{opacity:0.88;}
	.st3{opacity:0.8;fill:#FFFFFF;}
	.st4{fill:#FFFFFF;}
</style>
<g>
	<path class="st0" d="M134.83,21.93l-4.44-9.92l-17.56-9.87c-2.32-1.3-5.11-1.42-7.53-0.34L57.07,23.42
		c-2.94,1.32-4.86,4.2-4.95,7.42l-0.45,16.45l-2.92,1.31L37.82,37.88c-2.46-2.42-6.14-3.08-9.29-1.67l-16.77,7.52
		c-3.11,1.39-5.06,4.53-4.94,7.93l0.45,13.13c0.05,1.55-0.32,3.08-1.09,4.42l-3.39,5.98c-1.32,2.32-1.45,5.13-0.36,7.56L9.85,99.3
		C39.84,98.16,79.9,100.55,114,116c0,0,29.66,9.23,64.37,3.07L134.83,21.93z M111.36,19.09L71.37,37.01
		c-1.85,0.83-4.04-0.01-4.87-1.86s0-4.04,1.86-4.87l39.98-17.93c1.85-0.83,4.05,0.01,4.88,1.86
		C114.05,16.06,113.21,18.26,111.36,19.09z"/>
	<path class="st1" d="M207.55,204.61L89.87,257.36c-4.22,1.89-9.17,0-11.07-4.22L9.85,99.3C39.84,98.16,79.9,100.55,114,116
		c0,0,29.66,9.23,64.37,3.07l33.39,74.48C213.65,197.77,211.77,202.72,207.55,204.61z"/>
	<g class="st2">
		<g>
			<circle class="st3" cx="105.04" cy="147.54" r="6.82"/>
			<path class="st4" d="M109.96,146.43c-0.24,0-0.48-0.14-0.58-0.38c-1.1-2.47-2.93-2.79-3.01-2.8c-0.34-0.06-0.58-0.38-0.53-0.72
				c0.05-0.34,0.37-0.58,0.71-0.53c0.1,0.02,2.58,0.4,3.98,3.54c0.14,0.32,0,0.7-0.32,0.84
				C110.13,146.41,110.04,146.43,109.96,146.43z"/>
		</g>
		<g>
			<circle class="st3" cx="116.9" cy="136.71" r="4"/>
			<path class="st4" d="M119.79,136.06c-0.14,0-0.28-0.08-0.34-0.22c-0.64-1.45-1.72-1.64-1.76-1.65c-0.2-0.03-0.34-0.22-0.31-0.42
				c0.03-0.2,0.22-0.34,0.42-0.31c0.06,0.01,1.52,0.24,2.34,2.08c0.08,0.19,0,0.41-0.19,0.49
				C119.89,136.05,119.84,136.06,119.79,136.06z"/>
		</g>
		<g>
			<circle class="st3" cx="112.43" cy="166.02" r="2.98"/>
			<path class="st4" d="M114.58,165.54c-0.11,0-0.21-0.06-0.25-0.16c-0.48-1.08-1.28-1.22-1.31-1.22c-0.15-0.02-0.25-0.16-0.23-0.32
				c0.02-0.15,0.16-0.25,0.31-0.23c0.05,0.01,1.13,0.18,1.74,1.55c0.06,0.14,0,0.3-0.14,0.37
				C114.66,165.53,114.62,165.54,114.58,165.54z"/>
		</g>
		<g>
			<circle class="st3" cx="107.57" cy="121.4" r="2.4"/>
			<path class="st4" d="M109.3,121.01c-0.09,0-0.17-0.05-0.2-0.13c-0.39-0.87-1.03-0.98-1.06-0.99c-0.12-0.02-0.2-0.13-0.19-0.25
				c0.02-0.12,0.13-0.21,0.25-0.19c0.04,0.01,0.91,0.14,1.4,1.25c0.05,0.11,0,0.24-0.11,0.29C109.36,121,109.33,121.01,109.3,121.01
				z"/>
		</g>
		<g>
			<circle class="st3" cx="92.03" cy="144.2" r="2.77"/>
			<path class="st4" d="M94.02,143.75c-0.1,0-0.19-0.06-0.24-0.15c-0.45-1-1.19-1.13-1.22-1.14c-0.14-0.02-0.24-0.15-0.21-0.29
				c0.02-0.14,0.15-0.24,0.29-0.22c0.04,0.01,1.05,0.16,1.61,1.44c0.06,0.13,0,0.28-0.13,0.34
				C94.09,143.74,94.05,143.75,94.02,143.75z"/>
		</g>
	</g>
</g>
</svg>
