<?xml version="1.0" encoding="utf-8"?>
<!-- Generator: Adobe Illustrator 23.0.0, SVG Export Plug-In . SVG Version: 6.00 Build 0)  -->
<svg version="1.1" id="图层_1" xmlns="http://www.w3.org/2000/svg" xmlns:xlink="http://www.w3.org/1999/xlink" x="0px" y="0px"
	 viewBox="0 0 188 301" style="enable-background:new 0 0 188 301;" xml:space="preserve">
<style type="text/css">
	.st0{fill:#92ACB7;}
	.st1{fill:#B4D3E0;}
	.st2{opacity:0.6;}
	.st3{opacity:0.8;fill:#FFFFFF;}
	.st4{fill:#FFFFFF;}
	.st5{fill:#7EA7BD;}
</style>
<g>
	<path class="st0" d="M158.3,68.02c-7.51,13.1-8.95,25.83-6.06,40.53c2,10.17,3.47,22.77-0.71,31.45
		c-24.29,50.53-50.28,100.24-75.83,150.15c-4.48,8.74-11.07,11.66-20.54,6.54c-13.15-7.11-26.6-13.67-39.92-20.46
		c-16.77-8.55-17.99-12.14-9.46-28.95c22.93-45.19,46.18-90.22,68.72-135.61c6.09-12.25,14.42-21.54,27.08-25.94
		c14.06-4.9,23.62-13.57,30.36-25.67c10.36,3.4,20.09,4.4,28.5,4.18C159.73,65.5,159.02,66.76,158.3,68.02z"/>
	<path class="st1" d="M185.77,13.59L162.65,1.81c-0.22-0.12-0.5-0.03-0.63,0.18c-2.13,3.49-4.29,6.69-6.06,10.09
		c-6.87,13.28-14.41,26.29-20.18,40.05c-1.17,2.79-2.44,5.43-3.84,7.93c10.36,3.4,20.09,4.4,28.5,4.18
		c8.9-15.93,16.68-32.6,25.54-50.01C186.1,14,186.01,13.71,185.77,13.59z"/>
	<g class="st2">
		<circle class="st3" cx="95.5" cy="179.5" r="7.5"/>
		<path class="st4" d="M100.91,178.28c-0.27,0-0.52-0.15-0.64-0.41c-1.21-2.72-3.22-3.07-3.3-3.08c-0.38-0.06-0.64-0.42-0.58-0.79
			c0.06-0.38,0.41-0.64,0.79-0.59c0.12,0.02,2.84,0.44,4.38,3.9c0.16,0.35,0,0.76-0.35,0.92C101.1,178.26,101,178.28,100.91,178.28z
			"/>
	</g>
	<g>
		<circle class="st3" cx="92.25" cy="147.25" r="3.52"/>
		<path class="st4" d="M94.78,146.68c-0.13,0-0.24-0.07-0.3-0.19c-0.57-1.27-1.51-1.44-1.55-1.44c-0.18-0.03-0.3-0.19-0.27-0.37
			c0.03-0.18,0.19-0.3,0.37-0.27c0.05,0.01,1.33,0.21,2.05,1.83c0.07,0.17,0,0.36-0.17,0.43C94.87,146.67,94.83,146.68,94.78,146.68
			z"/>
	</g>
	<path class="st5" d="M183.92,17.69L159.55,6.06c-1.02-0.49-1.45-1.71-0.97-2.73l0.44-0.93c0.49-1.02,1.71-1.45,2.73-0.97
		l24.37,11.63c1.02,0.49,1.45,1.71,0.97,2.73l-0.44,0.93C186.17,17.74,184.94,18.18,183.92,17.69z"/>
</g>
</svg>
