<?xml version="1.0" encoding="utf-8"?>
<!-- Generator: Adobe Illustrator 23.0.0, SVG Export Plug-In . SVG Version: 6.00 Build 0)  -->
<svg version="1.1" id="图层_1" xmlns="http://www.w3.org/2000/svg" xmlns:xlink="http://www.w3.org/1999/xlink" x="0px" y="0px"
	 viewBox="0 0 265 207" style="enable-background:new 0 0 265 207;" xml:space="preserve">
<style type="text/css">
	.st0{fill:#B4D3E0;}
	.st1{fill:#A0BDCD;}
	.st2{fill:#7EA7BD;}
	.st3{opacity:0.8;fill:#FFFFFF;}
	.st4{fill:#FFFFFF;}
</style>
<g>
	<g>
		<path class="st0" d="M224.36,206.99c-29.05-24.23-47.35-73.91-47.35-73.91c-6.15-27.47-21.27-52.52-34.18-70.08
			c1.11,0.81,2.3,1.62,3.53,2.46c1.44,0.99,10.69,4.61,13.71,6.67c4.31,2.94,6.96,7.15,7.61,11.23c0.25,1.63,1.6,2.72,3.22,2.4
			c7.43-1.46,8.04-1.42,13.85,1.46c4.19,2.07,4.06,7.17,7.15,9.93c0.98,0.89,1.13,1.45,2.02,1.6c13.44,2.26,67.63,37,70.97,50.15
			c0.09,0.32,0.11,0.66,0.09,1.01c-0.86,15.74-20.75,41.57-34.06,54.12C228.66,205.95,226.57,206.92,224.36,206.99z"/>
		<path class="st1" d="M224.36,206.99c-3.25,0.14-6.78-1.7-11.54-5.21c-7.32-5.42-51.4-30.63-54.35-40.93
			c-0.44-1.56-2.62-1.97-3.92-2.93c-0.78-0.57-1.74-0.73-2.69-0.59c-3.51,0.55-6.84-1.06-10.3-3.42c-3.84-2.65-6.77-5.75-7.23-9.63
			c-0.11-0.91-0.52-1.75-1.26-2.31c-0.8-0.59-1.63-1.2-2.43-1.79c-1.35-1-5.68,0.26-7.1-0.65c-19.15-12.21-34.69-22.71-52.58-36.57
			c-13.09-10.13-25.84-22.56-33.9-36.73c-3.21-5.63-1.84-11.24-5.46-15.9c-3.36-4.3-11.91-7.25-17.05-10.63
			c-9.98-6.57-5.81-12.4-0.18-20.63c5.54-8.09,6.99-14.09,18.27-7.36c6.35,3.77,13.67,11.51,19.26,12.45
			c5.78,0.96,11.23-1.7,17.89-1.58c11.36,0.24,23.29,6.72,33.71,12.65c17,9.61,24.41,17.24,39.34,27.77
			c12.9,17.56,28.02,42.61,34.18,70.08C177.01,133.08,195.31,182.76,224.36,206.99z"/>
		<path class="st2" d="M1.28,27.88L16.29,3.83c2.22-3.55,6.94-4.65,10.49-2.43l5.66,3.53c3.55,2.22,4.65,6.94,2.43,10.49
			L19.86,39.48c-2.22,3.55-6.94,4.65-10.49,2.43L3.7,38.37C0.15,36.15-0.94,31.43,1.28,27.88z"/>
	</g>
	<g>
		<circle class="st3" cx="177.25" cy="122.63" r="5.9"/>
		<path class="st4" d="M181.5,121.67c-0.21,0-0.41-0.12-0.5-0.33c-0.95-2.13-2.53-2.41-2.6-2.42c-0.3-0.05-0.5-0.33-0.46-0.62
			c0.05-0.3,0.32-0.5,0.62-0.46c0.09,0.01,2.23,0.35,3.44,3.06c0.12,0.28,0,0.6-0.28,0.72C181.65,121.65,181.58,121.67,181.5,121.67
			z"/>
	</g>
	<g>
		<circle class="st3" cx="142.56" cy="97.56" r="1.96"/>
		<path class="st4" d="M143.97,97.24c-0.07,0-0.14-0.04-0.17-0.11c-0.32-0.71-0.84-0.8-0.86-0.8c-0.1-0.02-0.17-0.11-0.15-0.21
			c0.02-0.1,0.11-0.17,0.21-0.15c0.03,0,0.74,0.12,1.14,1.02c0.04,0.09,0,0.2-0.09,0.24C144.02,97.24,144,97.24,143.97,97.24z"/>
	</g>
	<g>
		<circle class="st3" cx="153.01" cy="117.89" r="3.29"/>
		<path class="st4" d="M155.38,117.36c-0.12,0-0.23-0.07-0.28-0.18c-0.53-1.19-1.41-1.34-1.45-1.35c-0.17-0.03-0.28-0.18-0.26-0.35
			c0.03-0.17,0.18-0.28,0.34-0.26c0.05,0.01,1.24,0.19,1.92,1.71c0.07,0.15,0,0.33-0.16,0.4
			C155.46,117.35,155.42,117.36,155.38,117.36z"/>
	</g>
</g>
</svg>
