<?xml version="1.0" encoding="utf-8"?>
<!-- Generator: Adobe Illustrator 23.0.0, SVG Export Plug-In . SVG Version: 6.00 Build 0)  -->
<svg version="1.1" id="图层_1" xmlns="http://www.w3.org/2000/svg" xmlns:xlink="http://www.w3.org/1999/xlink" x="0px" y="0px"
	 viewBox="0 0 64 67" style="enable-background:new 0 0 64 67;" xml:space="preserve">
<style type="text/css">
	.st0{fill:#AAC6D4;}
</style>
<path class="st0" d="M1.5,9.43c0.01-2.52,1.11-4.49,3.35-5.82c2.59-1.53,5.26-1.24,7.87-0.36c4.48,1.5,8.28,4.08,11.3,7.78
	c2.16,2.64,3.53,5.51,3.06,9.03c-0.08,0.59-0.12,1.19-0.2,1.78c-0.29,2.09,0.01,3.95,1.86,5.31c0.22,0.16,3.48,3.38,3.74,3.61
	c0.43,0.37,0.85,0.74,1.27,1.11c3.67,3.2,7.43,6.3,10.97,9.63c3.05,2.87,5.88,5.99,8.76,9.05c3.26,3.46,6,7.31,8.48,11.35
	c0.64,1.05,0.44,1.98-0.61,3.12c-1.08,1.18-1.94,1.48-3.05,0.86c-1.15-0.64-2.26-1.38-3.29-2.19c-5.84-4.6-11.09-9.78-15.43-15.84
	c-2.93-4.08-5.83-8.18-8.76-12.27c-0.45-0.62-4.72-5.8-4.94-5.93c-0.43-0.28-0.79-0.68-1.23-0.93c-1.75-1.02-3.66-0.65-5.51-0.52
	c-3.93,0.28-7.25-1.14-10.15-3.63c-1.14-0.98-2.14-2.16-3.07-3.36C3.27,17.73,1.48,13.89,1.5,9.43z"/>
</svg>
