<?xml version="1.0" encoding="utf-8"?>
<!-- Generator: Adobe Illustrator 21.0.0, SVG Export Plug-In . SVG Version: 6.00 Build 0)  -->
<svg version="1.1" id="图层_1" xmlns="http://www.w3.org/2000/svg" xmlns:xlink="http://www.w3.org/1999/xlink" x="0px" y="0px"
	 viewBox="0 0 994 582" style="enable-background:new 0 0 994 582;" xml:space="preserve">
<style type="text/css">
	.st0{fill:#B4D3E0;}
	.st1{fill:#A0BDCD;}
	.st2{opacity:0.88;}
	.st3{opacity:0.8;fill:#FFFFFF;}
	.st4{fill:#FFFFFF;}
	.st5{fill:#7EA7BD;}
</style>
<g>
	<path class="st0" d="M196.7,550.4c-5,15.2-14.3,19.3-28.2,12.1c-0.5,1.5-1,3.1-1.6,4.5c-2.9,7.7-10.3,12.1-18.2,10.9
		c-7.9-1.2-14.1-7.6-14.3-15.6c-0.1-7.5-2.3-13.5-8.3-18.5c-6-4.9-6.4-14.5-2-21.1c4.2-6.3,12.6-9.1,19.8-6.5c1.6,0.6,3,1.4,3.3,1.6
		c4.3-4.6,7.7-9.7,12.5-13c5.6-3.8,11.8-1.3,17.6,1.9c2.2-9,6.9-14.9,16.3-15.6c10.2-0.7,17.2,7.3,18,18c0.4,4.9,2.8,10.6,6.1,14.1
		c6.6,7,8.8,15.3,4.1,22.7c-5,7.8-13.8,10-22.6,5.7C198.4,551.3,197.6,550.8,196.7,550.4z M147.6,551.8c-6.5,2.6-9.3,7.4-7.3,12.4
		c2.6,6.5,10.1,10.1,16,7.5c5.2-2.3,7.4-9.2,4.9-15.5C159.1,550.8,154,549.2,147.6,551.8z M203.4,527.5c-6.3,2.7-9.2,7.8-7.1,12.6
		c2.7,6.2,10.1,9.8,15.6,7.5c5.6-2.3,7.9-9.8,4.9-16.3C214.6,526.4,209.3,524.9,203.4,527.5z M142.8,540.7c6.1-2.7,8.4-7.3,6.2-12.4
		c-2.8-6.3-9.6-9.8-14.9-7.5c-5.6,2.5-8.4,10.9-5.6,16.8C130.8,542.3,136.5,543.5,142.8,540.7z M198.7,517.2c6-2.4,8.7-7.2,6.8-12.1
		c-2.4-6.3-9.1-10-14.6-7.9c-6.1,2.3-8.8,9.6-6.1,16.4C186.8,518.6,191.9,519.9,198.7,517.2z M168.1,551.8c2.3,6.1,9.6,9.9,15.4,7.9
		c5.8-2,8.2-9.1,5.5-16.1c-1.9-4.8-6.9-6.5-12.7-4.4C169.6,541.6,166.3,546.8,168.1,551.8z M170.2,529.1c6.4-2.6,9.2-7.5,7-12.5
		c-2.7-6.4-9.5-9.8-14.9-7.5c-5.9,2.5-8.6,10.3-5.8,16.7C158.6,530.4,163.9,531.7,170.2,529.1z M160.7,548.1c0.6-0.3,1.2-0.7,1.8-1
		c-1.3-4.9-1.9-10.1-6.2-13.4c-0.7,0.4-1.4,0.7-2.1,1.1C156.4,539.1,158.6,543.6,160.7,548.1z M189.9,537.5c1-8.2-1.4-13.4-6.8-15.9
		C185.3,526.8,187.3,531.4,189.9,537.5z"/>
	<path class="st0" d="M938,334.5c11.2,11.3,23.6,21.7,33.3,34.2c16.2,20.7,14.3,16.5-2.8,31.4c-21.3,18.7-46.8,30.7-72.4,42.2
		c-2.1,0.9-7,0.2-7.5-1.1c-1-2.4-0.9-6.6,0.6-8.6c2.8-3.8,6.9-6.6,10.7-9.6c5.7-4.5,8-8.9,1.2-14.5c-2.7-2.2-4.8-5.3-9-9.9
		c-4.2,5-7.6,9.8-11.8,13.8c-2.1,2-5.5,2.6-8.4,3.9c-0.3-3-1.5-6.1-0.9-8.9c6.5-26.5,22.6-47.7,38.9-68.6c3.7-4.7,7.7-9.1,11.9-14.1
		c5.8,3.6,11.1,6.9,16.4,10.2L938,334.5z"/>
	<path class="st0" d="M423.5,545.6c4.5-5.6,20.3-22.7,19.4-23.6c-9-9.1-22.7-21.6-33.4-28.5c-1.9-1.2-7.7,10.8-13.3,16
		c-3.1,2.9-6.3,7.2-9,10.6c-8,10.1-11.7,14.6-16.7,19.3c-1.9,1.7,7.4,4.4,14.1,19.5c11.4,18.5,15.1,15.3,27.3,1.4
		c4.1-4.7,7.8-9.7,11.7-14.6C423.7,545.8,423.6,545.7,423.5,545.6z M424,520.5l-10.6-8.5c-1.4-1.1-1.6-3.2-0.5-4.6
		c1.1-1.4,3.2-1.6,4.6-0.5l10.6,8.5c1.4,1.1,1.6,3.2,0.5,4.6C427.5,521.4,425.4,521.6,424,520.5z"/>
	<path class="st0" d="M298.2,356.1c-2.3,2.4-3,5.3-2,8.7c1.1,3.8,4,5.9,7.3,7.4c5.7,2.6,11.7,3.5,17.9,2.7c4.5-0.6,8.4-2.1,11.1-6
		c0.5-0.6,1-1.3,1.4-1.9c1.6-2.3,3.6-3.8,6.6-3.5c0.4,0,6.4-0.1,6.9-0.1c0.7,0,1.5,0,2.2,0.1c6.4,0.2,12.9,0.6,19.3,0.6
		c5.5,0,11.1-0.5,16.6-0.9c6.3-0.4,12.4-1.7,18.4-3.3c1.6-0.4,2.2-1.5,2.2-3.6c0-2.1-0.5-3.2-2.2-3.6c-1.7-0.4-3.4-0.7-5.2-0.8
		c-9.8-0.8-19.5-0.5-29.2,1.4c-6.5,1.3-13,2.7-19.5,4c-1,0.2-9.8,1.3-10.1,1.3c-0.7-0.1-1.4-0.1-2-0.2c-2.6-0.6-4.1-2.7-5.8-4.5
		c-3.6-3.8-8-5.4-13.1-5.6c-2-0.1-4,0.2-6,0.5C307.4,349.7,302.2,351.8,298.2,356.1z"/>
	<path class="st0" d="M484.4,155.2c-0.2,0-0.4,0.1-0.6,0.1c0.1,1,0,2,0.2,3c1.7,8.6,3.4,17.3,5.1,25.9c0.6,3.1,1.2,6.3,1.8,9.4
		c0.2,1.2-0.2,2.1-1.4,2.4c-1.4,0.3-1.1-1-1.3-1.7c-1-4.4-1.9-8.8-3-13.2c-1.8-7.4-3.7-14.7-5.5-22.1c-0.2-0.8-0.6-1.6-0.9-2.4
		c-0.2,0-0.3,0.1-0.5,0.1c-0.1,0.5-0.2,1.1-0.1,1.6c0.9,6.1,1.9,12.2,2.9,18.3c1.1,6.4,2.2,12.8,3.2,19.2c0,0.2,0,0.3-0.1,0.5
		c-0.5,0.8-1.8,0.9-2.3,0.1c0,0,0,0,0,0c-0.3-0.4-0.3-0.9-0.4-1.4c-0.9-4.8-1.6-9.6-2.6-14.4c-1.4-6.7-2.9-13.3-4.4-20
		c-0.2-0.8-0.6-1.6-0.9-2.4c-0.2,0-0.4,0-0.5,0.1c-0.1,0.6-0.2,1.3-0.2,1.9c1.1,8.9,2.3,17.9,3.4,26.8c0.4,3.5,0.7,7.1,1,10.6
		c0.1,1.1-0.6,1.6-1.5,1.6c-0.3,0-0.8-0.8-0.9-1.3c-0.8-4.9-1.4-9.9-2.2-14.8c-1.2-7.2-2.5-14.5-3.8-21.7c-0.1-0.7-0.5-1.3-0.7-1.9
		c-0.2,0-0.4,0.1-0.5,0.1c0,0.7-0.2,1.5-0.1,2.2c0.2,2.2,0.4,4.4,0.6,6.6c0.7,8.5,1.2,17,2,25.5c0.3,3.9,0.8,7.7,1.3,11.5
		c0.4,2.9,1.8,5.2,4.9,6.1c2.8,0.9,3.8,3.1,3.9,5.8c0.3,6.1,0.5,12.1,0.8,18.2c0.2,6.3,0.4,12.5,0.7,18.8c0.3,6.5,0.7,12.9,1.4,19.4
		c0.6,5.5,1.5,10.9,2.4,16.4c1,5.9,2.3,11.7,4.7,17.2c1,2.2,2.4,3,4.6,2.7c2.2-0.3,3.5-1.5,3.6-3.9c0.3-6.3,0.9-12.5,0.5-18.8
		c-0.4-6.9-1.4-13.8-2.6-20.6c-1.7-9.1-4-18.2-5.9-27.3c-1.1-5.5-2-11.1-2.8-16.7c-0.3-1.8-0.3-3.8,0-5.6c0.4-3,2.7-5,4.6-7.1
		c1.1-1.2,2.1-2.5,2.9-3.9c2.2-4.1,1.5-8.5,0.6-12.7c-1.4-5.8-2.8-11.6-4.4-17.3c-1.8-6.4-3.7-12.7-5.6-19
		C485.1,156.6,484.7,155.9,484.4,155.2z"/>
	<path class="st0" d="M593.8,423.2L559,436.9c-2.2,0.9-3.3,3.4-2.3,5.6l51.1,105.9l2.8,7.1c0.8,2,3,2.9,4.9,2.2l19-7.5
		c2-0.8,2.9-3,2.2-4.9l-2.8-7.1l-34.6-112.4C598.5,423.5,596,422.3,593.8,423.2z"/>
	<path class="st0" d="M522.8,317.5c11.4-11.1,21.8-23.5,34.3-33.2c20.8-16.1,16.6-14.2,31.4,2.9c18.6,21.4,30.4,46.9,41.8,72.6
		c0.9,2.1,0.1,7-1.2,7.5c-2.4,1-6.6,0.9-8.6-0.6c-3.7-2.9-6.6-7-9.5-10.8c-4.5-5.8-8.9-8-14.5-1.3c-2.3,2.7-5.3,4.8-10,8.9
		c5,4.2,9.8,7.7,13.8,11.9c2,2.1,2.6,5.5,3.8,8.4c-3,0.3-6.1,1.5-8.9,0.8c-26.5-6.6-47.6-22.8-68.5-39.2c-4.7-3.7-9.1-7.7-14.1-11.9
		c3.6-5.8,7-11.1,10.3-16.3L522.8,317.5z"/>
	<path class="st0" d="M445.5,424.4c-0.1-0.1-0.2-0.2-0.3-0.3c-0.5,0.4-1.1,0.7-1.5,1.1c-4,3.7-8,7.5-12.1,11.2
		c-1.5,1.4-2.9,2.7-4.4,4c-0.6,0.5-1.2,0.6-1.7,0c-0.6-0.6,0.2-0.9,0.5-1.2c2-2,4-3.9,6-5.9c3.3-3.4,6.6-6.8,9.9-10.2
		c0.4-0.4,0.6-0.8,1-1.3c-0.1-0.1-0.2-0.2-0.2-0.2c-0.3,0.1-0.6,0.2-0.9,0.5c-2.9,2.5-5.9,5-8.8,7.5c-3.1,2.7-6.1,5.4-9.1,8
		c-0.1,0.1-0.2,0.1-0.3,0.1c-0.6,0-1.1-0.6-0.8-1.2c0,0,0,0,0,0c0.1-0.3,0.4-0.4,0.6-0.6c2.3-2,4.6-4,6.8-6.1
		c3.1-2.9,6.1-5.9,9.2-8.9c0.4-0.4,0.7-0.8,1-1.3c-0.1-0.1-0.1-0.2-0.2-0.3c-0.3,0.2-0.7,0.3-1,0.5c-4.4,3.5-8.7,7.1-13.1,10.6
		c-1.7,1.4-3.5,2.7-5.3,4c-0.5,0.4-1,0.2-1.3-0.3c-0.1-0.2,0.2-0.7,0.4-0.9c2.4-2,4.8-4,7.1-6c3.4-3,6.8-6.1,10.3-9.1
		c0.3-0.3,0.5-0.7,0.8-1c-0.1-0.1-0.2-0.2-0.2-0.3c-0.4,0.2-0.8,0.4-1.2,0.7c-1.1,0.8-2.2,1.7-3.3,2.5c-4.3,3.1-8.6,6.3-12.9,9.4
		c-1.9,1.4-3.8,2.9-5.7,4.5c-1.4,1.2-2.2,2.7-1.6,4.6c0.5,1.8-0.4,3-1.8,4c-3.1,2.1-6.3,4.3-9.4,6.4c-3.2,2.2-6.5,4.3-9.7,6.6
		c-3.3,2.3-6.6,4.6-9.8,7.1c-2.7,2.1-5.3,4.4-7.9,6.7c-2.8,2.5-5.5,5.1-7.6,8.2c-0.8,1.2-0.8,2.3,0.1,3.3c0.9,1.1,2,1.4,3.2,0.6
		c3.4-1.9,6.9-3.7,10.1-5.9c3.5-2.5,6.9-5.3,10.1-8.2c4.3-3.9,8.3-8.1,12.5-12.1c2.6-2.4,5.2-4.7,7.9-7c0.9-0.7,1.9-1.4,3-1.9
		c1.7-0.8,3.5-0.2,5.3,0.1c1,0.2,2,0.3,3,0.2c2.9-0.2,5-2,6.9-3.9c2.6-2.6,5.2-5.3,7.8-8c2.8-3,5.5-6.1,8.2-9.2
		C445,425.3,445.2,424.8,445.5,424.4z"/>
	<path class="st0" d="M423.8,343.5c-2.5,5.1-11.7,20.9-10.8,21.5c8.5,5.5,21.1,12.7,30.5,16.1c1.7,0.6,4-9.6,7.4-14.5
		c1.9-2.8,3.6-6.6,5.1-9.7c4.4-9.1,6.4-13.2,9.5-17.7c1.1-1.7-6.4-2.1-14.2-12.6c-11.9-12.3-14.2-9.1-21.2,3.6
		c-2.4,4.3-4.3,8.8-6.5,13.2C423.7,343.4,423.8,343.5,423.8,343.5z M427.8,362.9l9.6,4.7c1.3,0.6,1.8,2.2,1.2,3.5
		c-0.6,1.3-2.2,1.8-3.5,1.2l-9.6-4.7c-1.3-0.6-1.8-2.2-1.2-3.5C425,362.8,426.5,362.2,427.8,362.9z"/>
	<path class="st0" d="M745.5,271.5l-8-21.9c-0.5-1.4-2.1-2.1-3.5-1.5l-66.9,30.3l-4.5,1.6c-1.2,0.4-1.9,1.8-1.4,3l4.4,12
		c0.4,1.2,1.8,1.9,3,1.4l4.5-1.6l70.7-19.9C745.3,274.4,746,272.9,745.5,271.5z"/>
	<path class="st0" d="M25.2,479.6c0.7,0.4,2.4,1,6.9,2.8c8.3,3.2,15.8,7.4,22.5,12.5c-4.7,20.6-12.2,34.3-12.2,34.3
		c-1.8,2.5-3.5,5.1-5.2,7.7c-10.4-10.6-18.1-23.1-22.7-37.9c-1.6-5.2-1.3-5.8-2-8c-6.2-7.3-16.7-12.9-7.5-21
		C14.6,461.4,15.6,468.9,25.2,479.6z"/>
	<g>
		<path class="st0" d="M359.3,452.5l1.9-7l-4.9-12.5c-0.7-1.6-2-2.9-3.7-3.3l-34-9.1c-2.1-0.6-4.3,0.1-5.7,1.7l-7.1,8.3l-2.1-0.5
			l-1.1-10.1c-0.3-2.3-1.9-4.2-4.1-4.8l-11.8-3.2c-2.2-0.6-4.5,0.2-5.9,2l-5.3,7c-0.6,0.8-1.5,1.5-2.4,1.8l-4.3,1.7
			c-1.7,0.6-2.9,2-3.4,3.7l-3.1,11.7c15.9,12,35.6,30,46.7,52.3c0,0,11.4,17.2,31.9,28.6L359.3,452.5z M348.4,441.2l-28.1-7.5
			c-1.3-0.3-2.1-1.7-1.7-3s1.7-2.1,3-1.7l28.1,7.5c1.3,0.3,2.1,1.7,1.7,3C351.1,440.7,349.7,441.5,348.4,441.2z"/>
		<path class="st1" d="M320.2,577.2L237.3,555c-3-0.8-4.7-3.8-3.9-6.8l29-108.3c15.9,12,35.6,30,46.7,52.3c0,0,11.4,17.2,31.9,28.6
			l-14,52.4C326.2,576.3,323.1,578,320.2,577.2z"/>
		<g class="st2">
			<g>
				
					<ellipse transform="matrix(0.6312 -0.7756 0.7756 0.6312 -284.0895 412.0625)" class="st3" cx="291.2" cy="504.8" rx="4.5" ry="4.5"/>
				<path class="st4" d="M294.3,506.2c-0.1-0.1-0.2-0.3-0.1-0.4c0.5-1.7-0.3-2.7-0.4-2.7c-0.2-0.2-0.1-0.4,0-0.6
					c0.2-0.2,0.4-0.1,0.6,0c0,0.1,1.2,1.3,0.6,3.5c-0.1,0.2-0.3,0.4-0.5,0.3C294.3,506.3,294.3,506.3,294.3,506.2z"/>
			</g>
			<g>
				
					<ellipse transform="matrix(0.6312 -0.7756 0.7756 0.6312 -279.688 420.1099)" class="st3" cx="301.9" cy="504.2" rx="2.7" ry="2.7"/>
				<path class="st4" d="M303.7,505c-0.1-0.1-0.1-0.2-0.1-0.3c0.3-1-0.2-1.6-0.2-1.6c-0.1-0.1-0.1-0.3,0-0.3c0.1-0.1,0.3-0.1,0.3,0
					c0,0,0.7,0.8,0.3,2.1C304,505,303.9,505.1,303.7,505C303.7,505.1,303.7,505,303.7,505z"/>
			</g>
			<g>
				
					<ellipse transform="matrix(0.6312 -0.7756 0.7756 0.6312 -295.3481 413.6653)" class="st3" cx="287.3" cy="517.4" rx="2" ry="2"/>
				<path class="st4" d="M288.6,518c-0.1,0-0.1-0.1-0.1-0.2c0.2-0.8-0.1-1.2-0.2-1.2c-0.1-0.1-0.1-0.2,0-0.3c0.1-0.1,0.2-0.1,0.3,0
					c0,0,0.5,0.6,0.2,1.5C288.9,518.1,288.8,518.1,288.6,518C288.7,518.1,288.6,518.1,288.6,518z"/>
			</g>
			<g>
				
					<ellipse transform="matrix(0.6312 -0.7756 0.7756 0.6312 -269.9295 417.0061)" class="st3" cx="303.5" cy="492.3" rx="1.6" ry="1.6"/>
				<path class="st4" d="M304.6,492.9c0,0-0.1-0.1,0-0.2c0.2-0.6-0.1-0.9-0.1-1c-0.1-0.1,0-0.2,0-0.2c0.1-0.1,0.2-0.1,0.2,0
					c0,0,0.4,0.5,0.2,1.2C304.8,492.9,304.7,492.9,304.6,492.9C304.6,492.9,304.6,492.9,304.6,492.9z"/>
			</g>
			<g>
				
					<ellipse transform="matrix(0.6312 -0.7756 0.7756 0.6312 -280.4772 405.294)" class="st3" cx="285.9" cy="497.6" rx="1.8" ry="1.8"/>
				<path class="st4" d="M287.2,498.2c-0.1,0-0.1-0.1-0.1-0.2c0.2-0.7-0.1-1.1-0.2-1.1c-0.1-0.1-0.1-0.2,0-0.2
					c0.1-0.1,0.2-0.1,0.2,0c0,0,0.5,0.5,0.2,1.4C287.4,498.2,287.3,498.2,287.2,498.2C287.2,498.2,287.2,498.2,287.2,498.2z"/>
			</g>
		</g>
	</g>
	<g>
		<path class="st0" d="M748,407.4l6-5.1l14.6-0.9c1.9-0.1,3.8,0.7,5,2.2l24.6,29.3c1.5,1.8,1.8,4.3,0.9,6.4l-4.9,10.9l1.5,1.8
			l10.5-3.5c2.4-0.8,5-0.1,6.6,1.8l8.6,10.2c1.6,1.9,1.9,4.5,0.7,6.7l-4.4,8.4c-0.5,1-0.8,2.1-0.7,3.2l0.3,5c0.1,1.9-0.7,3.8-2.1,5
			l-10.1,8.5c-19.2-10.2-46.1-21.3-73.2-22c0,0-22.3-3.3-42.9-18.3L748,407.4z M764.2,412.9l20.4,24.3c0.9,1.1,2.6,1.3,3.8,0.3
			c1.1-0.9,1.3-2.6,0.3-3.8l-20.4-24.3c-0.9-1.1-2.6-1.3-3.8-0.3C763.4,410.1,763.3,411.8,764.2,412.9z"/>
		<path class="st1" d="M643,503.6l60.1,71.5c2.2,2.6,6,2.9,8.5,0.7l93.5-78.6c-19.2-10.2-46.1-21.3-73.2-22c0,0-22.3-3.3-42.9-18.3
			l-45.3,38C641.2,497.2,640.8,501,643,503.6z"/>
		<g class="st2">
			<g>
				
					<ellipse transform="matrix(0.4353 -0.9003 0.9003 0.4353 -37.9612 936.8214)" class="st3" cx="727.8" cy="498.7" rx="4.9" ry="4.9"/>
				<path class="st4" d="M725,496.4c0.2,0.1,0.4,0.1,0.5-0.1c1.5-1.3,2.8-0.9,2.8-0.9c0.2,0.1,0.5-0.1,0.6-0.3
					c0.1-0.2-0.1-0.5-0.3-0.6c-0.1,0-1.8-0.6-3.7,1.1c-0.2,0.2-0.2,0.5-0.1,0.6C724.9,496.3,724.9,496.4,725,496.4z"/>
			</g>
			<g>
				
					<ellipse transform="matrix(0.4353 -0.9003 0.9003 0.4353 -30.6789 926.8322)" class="st3" cx="723.5" cy="487.9" rx="2.9" ry="2.9"/>
				<path class="st4" d="M721.8,486.5c0.1,0,0.2,0,0.3,0c0.9-0.7,1.6-0.5,1.7-0.5c0.1,0,0.3,0,0.3-0.2c0-0.1,0-0.3-0.2-0.3
					c0,0-1.1-0.3-2.2,0.6C721.7,486.2,721.6,486.4,721.8,486.5C721.8,486.5,721.8,486.5,721.8,486.5z"/>
			</g>
			<g>
				
					<ellipse transform="matrix(0.4353 -0.9003 0.9003 0.4353 -52.7288 932.7208)" class="st3" cx="717.2" cy="508.4" rx="2.2" ry="2.2"/>
				<path class="st4" d="M715.9,507.4c0.1,0,0.2,0,0.2,0c0.7-0.6,1.2-0.4,1.2-0.4c0.1,0,0.2,0,0.3-0.1c0-0.1,0-0.2-0.1-0.3
					c0,0-0.8-0.2-1.6,0.5C715.8,507.1,715.8,507.3,715.9,507.4C715.9,507.4,715.9,507.4,715.9,507.4z"/>
			</g>
			<g>
				
					<ellipse transform="matrix(0.4353 -0.9003 0.9003 0.4353 -18.1772 932.6779)" class="st3" cx="734.4" cy="480.8" rx="1.7" ry="1.7"/>
				<path class="st4" d="M733.4,480c0.1,0,0.1,0,0.2,0c0.5-0.4,1-0.3,1-0.3c0.1,0,0.2,0,0.2-0.1c0-0.1,0-0.2-0.1-0.2
					c0,0-0.6-0.2-1.3,0.4C733.3,479.8,733.3,479.9,733.4,480C733.4,480,733.4,480,733.4,480z"/>
			</g>
			<g>
				<ellipse transform="matrix(0.4353 -0.9003 0.9003 0.4353 -34.311 946.4955)" class="st3" cx="737.4" cy="500.6" rx="2" ry="2"/>
				<path class="st4" d="M736.2,499.7c0.1,0,0.1,0,0.2,0c0.6-0.5,1.1-0.4,1.2-0.4c0.1,0,0.2,0,0.2-0.1c0-0.1,0-0.2-0.1-0.2
					c0,0-0.7-0.2-1.5,0.4C736.1,499.4,736.1,499.6,736.2,499.7C736.2,499.7,736.2,499.7,736.2,499.7z"/>
			</g>
		</g>
	</g>
	<g>
		<g>
			
				<ellipse transform="matrix(0.426 -0.9047 0.9047 0.426 310.3279 1019.0439)" class="st3" cx="958.2" cy="265" rx="2.8" ry="2.8"/>
			<path class="st4" d="M960.2,265.4c-0.1,0-0.2-0.1-0.1-0.2c0-1.1-0.6-1.5-0.6-1.5c-0.1-0.1-0.1-0.2-0.1-0.4
				c0.1-0.1,0.2-0.2,0.4-0.1c0,0,0.9,0.6,0.8,2c0,0.1-0.1,0.3-0.3,0.3C960.3,265.4,960.3,265.4,960.2,265.4z"/>
		</g>
		<path class="st1" d="M991.4,297.4c0,0.2-0.1,0.4-0.2,0.5c-4.1,7.6-20.1,15.8-29.6,19c-1.6,0.4-2.9,0.4-4-0.1
			c-1.7-0.7-3-2.4-4.5-5.3c-2.4-4.4-18.4-27.3-17.5-33.1c0.1-0.9-0.8-1.6-1.3-2.4c-0.2-0.5-0.7-0.8-1.2-0.9
			c-1.9-0.6-3.2-2.1-4.3-4.1c-1.3-2.2-2-4.4-1.3-6.5c0.2-0.5,0.2-1-0.1-1.4c-0.3-0.5-0.5-1-0.8-1.5c-0.2-0.3-0.6-0.5-1.1-0.8
			c1.7-1.5,3.4-2.9,5.1-4.3c0,0,10-10.4,21.4-28.4c0.7,1,4.2,4.8,5.2,6.4c1.5,2.5,1.8,5.2,1.2,7.4c-0.3,0.9,0.2,1.7,1,1.9
			c4,1,4.3,1.2,6.6,4c1.6,2,0.3,4.5,1.2,6.6c0.3,0.7,0.2,1,0.6,1.3C974,260.1,992.8,290.1,991.4,297.4z"/>
		<path class="st0" d="M952,228.1c-11.4,17.9-21.4,28.4-21.4,28.4c-1.7,1.4-3.5,2.8-5.1,4.3c-0.9-0.4-2-0.7-2.3-1.2
			c-6.7-10.6-11.9-19.5-17.6-30.5c-4.1-8.1-7.6-17.3-8.3-26.2c-0.3-3.6,1.7-6,1-9.2c-0.7-2.9-4.2-6.4-6-9.3c-3.4-5.6,0-7.5,4.8-10.3
			c4.7-2.7,6.8-5.4,10.8,0.6c2.3,3.4,4.1,8.9,6.7,10.7c2.7,1.8,6,1.8,9.3,3.4c5.6,2.8,10,8.8,13.8,14.2c6.2,8.8,8.1,14.3,13.1,23.1
			C951.2,226.7,951.6,227.4,952,228.1C952,228.1,952,228.1,952,228.1z"/>
		<path class="st5" d="M888.5,175.3l13.1-8.5c1.9-1.2,4.5-0.7,5.8,1.3l2,3.1c1.2,1.9,0.7,4.5-1.3,5.8l-13.1,8.5
			c-1.9,1.2-4.5,0.7-5.8-1.3l-2-3.1C886,179.2,886.6,176.6,888.5,175.3z"/>
		<g>
			
				<ellipse transform="matrix(0.426 -0.9047 0.9047 0.426 308.9338 1014.4642)" class="st3" cx="953.9" cy="263.8" rx="3.2" ry="3.2"/>
			<path class="st4" d="M956.3,264.3c-0.1,0-0.2-0.2-0.2-0.3c0-1.3-0.7-1.8-0.7-1.8c-0.1-0.1-0.2-0.3-0.1-0.4
				c0.1-0.1,0.3-0.2,0.4-0.1c0,0,1,0.7,1,2.3c0,0.2-0.1,0.3-0.3,0.3C956.4,264.3,956.3,264.3,956.3,264.3z"/>
		</g>
		<g>
			
				<ellipse transform="matrix(0.426 -0.9047 0.9047 0.426 321.0419 992.3196)" class="st3" cx="942.5" cy="243.2" rx="1.1" ry="1.1"/>
			<path class="st4" d="M943.3,243.3C943.3,243.3,943.3,243.3,943.3,243.3c0-0.5-0.3-0.7-0.3-0.7c0,0-0.1-0.1,0-0.1
				c0,0,0.1-0.1,0.1,0c0,0,0.3,0.2,0.3,0.8C943.5,243.3,943.4,243.3,943.3,243.3C943.3,243.3,943.3,243.3,943.3,243.3z"/>
		</g>
		<g>
			<ellipse transform="matrix(0.426 -0.9047 0.9047 0.426 309.9173 999.9316)" class="st3" cx="943" cy="255.7" rx="1.8" ry="1.8"/>
			<path class="st4" d="M944.3,256c-0.1,0-0.1-0.1-0.1-0.2c0-0.7-0.4-1-0.4-1c-0.1-0.1-0.1-0.2,0-0.2c0.1-0.1,0.2-0.1,0.2,0
				c0,0,0.6,0.4,0.6,1.3C944.5,256,944.4,256,944.3,256C944.3,256,944.3,256,944.3,256z"/>
		</g>
	</g>
	<g>
		<g>
			
				<ellipse transform="matrix(0.1301 -0.9915 0.9915 0.1301 298.9151 1387.9572)" class="st3" cx="940.5" cy="523.6" rx="3.1" ry="3.1"/>
			<path class="st4" d="M942.7,523.4c-0.1,0-0.2-0.1-0.2-0.2c-0.3-1.2-1.1-1.4-1.2-1.4c-0.1,0-0.2-0.2-0.2-0.4
				c0-0.2,0.2-0.2,0.3-0.2c0,0,1.1,0.3,1.6,1.8c0,0.2,0,0.3-0.2,0.4C942.8,523.4,942.8,523.4,942.7,523.4z"/>
		</g>
		<path class="st1" d="M986.3,546.6c0,0.2,0,0.4,0,0.6c-1.8,9.4-15.8,23.4-24.8,29.9c-1.5,1-2.9,1.4-4.2,1.3c-2-0.2-4-1.6-6.5-4.1
			c-4-3.9-28.6-22.5-29.5-29c-0.1-1-1.4-1.4-2.1-2.1c-0.4-0.4-1-0.6-1.6-0.6c-2.2,0.1-4-1.2-5.9-2.9c-2.1-1.9-3.6-4-3.6-6.4
			c0-0.6-0.2-1.1-0.6-1.5c-0.4-0.4-0.9-0.8-1.3-1.3c-0.3-0.3-0.8-0.4-1.4-0.4c1.3-2.1,2.6-4.2,4-6.3c0,0,7.1-14.3,13-37
			c1,0.8,6,3.6,7.6,5c2.4,2.1,3.6,4.9,3.7,7.4c0,1,0.8,1.8,1.8,1.7c4.6-0.3,5-0.2,8.2,2c2.4,1.6,1.9,4.6,3.5,6.6
			c0.5,0.6,0.6,1,1.1,1.1C955.4,513.2,985.3,538.4,986.3,546.6z"/>
		<path class="st0" d="M921.5,487c-5.9,22.7-13,37-13,37c-1.3,2.1-2.7,4.2-4,6.3c-1.1-0.1-2.3-0.1-2.8-0.5
			c-10.6-8.9-19.1-16.4-28.8-26.2c-7.1-7.2-13.8-15.7-17.5-24.8c-1.5-3.7-0.2-6.9-2-10c-1.7-2.9-6.6-5.3-9.4-7.8
			c-5.5-4.7-2.5-7.9,1.5-12.4c4-4.4,5.3-7.9,11.6-3c3.5,2.8,7.3,8,10.6,9c3.4,1,6.9-0.1,10.9,0.5c6.8,1,13.5,5.9,19.3,10.3
			c9.5,7.1,13.3,12.3,21.5,19.9C920.1,485.7,920.8,486.3,921.5,487C921.5,486.9,921.5,487,921.5,487z"/>
		<path class="st5" d="M837,452.8l11-13.3c1.6-2,4.6-2.3,6.5-0.6l3.1,2.6c2,1.6,2.3,4.6,0.6,6.5l-11,13.3c-1.6,2-4.6,2.3-6.5,0.6
			l-3.1-2.6C835.6,457.7,835.3,454.7,837,452.8z"/>
		<g>
			
				<ellipse transform="matrix(0.1301 -0.9915 0.9915 0.1301 294.4311 1383.2378)" class="st3" cx="935.5" cy="523.8" rx="3.6" ry="3.6"/>
			<path class="st4" d="M938.2,523.6c-0.1,0-0.2-0.1-0.3-0.2c-0.4-1.4-1.3-1.7-1.4-1.7c-0.2-0.1-0.3-0.2-0.2-0.4
				c0.1-0.2,0.2-0.3,0.4-0.2c0.1,0,1.3,0.4,1.8,2.1c0.1,0.2,0,0.4-0.2,0.4C938.3,523.6,938.2,523.6,938.2,523.6z"/>
		</g>
		<g>
			
				<ellipse transform="matrix(0.1301 -0.9915 0.9915 0.1301 295.6678 1348.9402)" class="st3" cx="916.6" cy="506" rx="1.2" ry="1.2"/>
			<path class="st4" d="M917.5,505.9C917.4,505.9,917.4,505.8,917.5,505.9c-0.2-0.5-0.5-0.6-0.5-0.6c-0.1,0-0.1-0.1-0.1-0.1
				c0-0.1,0.1-0.1,0.1-0.1c0,0,0.4,0.1,0.6,0.7C917.6,505.8,917.6,505.9,917.5,505.9C917.5,505.9,917.5,505.9,917.5,505.9z"/>
		</g>
		<g>
			<ellipse transform="matrix(0.1301 -0.9915 0.9915 0.1301 286.7773 1364.9695)" class="st3" cx="921.3" cy="519" rx="2" ry="2"/>
			<path class="st4" d="M922.8,518.9c-0.1,0-0.1-0.1-0.2-0.1c-0.2-0.8-0.7-0.9-0.8-0.9c-0.1,0-0.2-0.1-0.1-0.2
				c0-0.1,0.1-0.2,0.2-0.1c0,0,0.7,0.2,1,1.2C923,518.8,922.9,518.9,922.8,518.9C922.8,518.9,922.8,518.9,922.8,518.9z"/>
		</g>
	</g>
	<path class="st0" d="M885,256.8c-0.2,1.8-1.5,3.6-3.8,5.8c-3.6,3.5-21.1,25.3-26.9,26.1c-0.9,0.1-1.3,1.3-1.9,1.9
		c-0.4,0.4-0.5,0.9-0.6,1.4c0,0.8-0.2,1.5-0.5,2.1c-12.2,1.7-27.6,4.8-39.3,9.9c0,0-3.9,2.4-24.4-3.4c3.8-3.9,7.5-7,12.1-11.8
		c0.5-0.5,1.1-1.1,1.6-1.7c0.7-0.7,3.4-5.4,4.8-6.9c2-2.1,4.5-3.2,6.8-3.2c0.9,0,1.6-0.6,1.6-1.6c-0.2-4.2-0.1-4.5,2-7.4
		c1.5-2.1,4.2-1.6,6-3c0.6-0.5,0.9-0.5,1-1c2.4-7.1,25.9-33.6,33.3-34.3c0.2,0,0.4,0,0.6,0c8.5,1.8,20.8,14.8,26.5,23.1
		C884.8,254.4,885.1,255.6,885,256.8z"/>
	<g>
		
			<ellipse transform="matrix(0.1553 -0.9879 0.9879 0.1553 433.5262 1057.4396)" class="st3" cx="835.1" cy="275.2" rx="3.2" ry="3.2"/>
		<path class="st4" d="M834.9,272.8c0,0.1-0.1,0.2-0.2,0.2c-1.2,0.3-1.5,1.2-1.5,1.2c-0.1,0.2-0.2,0.2-0.4,0.2
			c-0.2-0.1-0.2-0.2-0.2-0.4c0,0,0.4-1.2,2-1.6c0.2,0,0.3,0.1,0.4,0.2C834.9,272.8,834.9,272.8,834.9,272.8z"/>
	</g>
	<g>
		
			<ellipse transform="matrix(0.1553 -0.9879 0.9879 0.1553 402.9929 1055.1725)" class="st3" cx="818.5" cy="291.9" rx="1.1" ry="1.1"/>
		<path class="st4" d="M818.4,291.2C818.4,291.2,818.4,291.2,818.4,291.2c-0.5,0.2-0.6,0.5-0.6,0.5c0,0.1-0.1,0.1-0.1,0.1
			c-0.1,0-0.1-0.1-0.1-0.1c0,0,0.1-0.4,0.7-0.5C818.4,291,818.4,291.1,818.4,291.2C818.4,291.1,818.4,291.1,818.4,291.2z"/>
	</g>
	<g>
		
			<ellipse transform="matrix(0.1553 -0.9879 0.9879 0.1553 416.9806 1063.6423)" class="st3" cx="830.4" cy="288" rx="1.8" ry="1.8"/>
		<path class="st4" d="M830.3,286.7c0,0.1-0.1,0.1-0.1,0.1c-0.7,0.2-0.9,0.7-0.9,0.7c0,0.1-0.1,0.1-0.2,0.1c-0.1,0-0.1-0.1-0.1-0.2
			c0,0,0.2-0.7,1.1-0.9C830.2,286.5,830.3,286.5,830.3,286.7C830.3,286.6,830.3,286.6,830.3,286.7z"/>
	</g>
	<path class="st1" d="M851.3,294.1c-0.5,1.1-1.3,2.1-2.3,3.2c-1.8,1.9-3.7,3.2-5.9,3.1c-0.5,0-1,0.1-1.4,0.5
		c-0.4,0.4-0.8,0.8-1.2,1.2c-0.7,0.6-0.3,3.1-1,3.8c-8.3,9.4-15.3,16.9-24.4,25.5c-6.6,6.2-14.5,12.1-22.9,15.3
		c-3.3,1.3-6.3,0-9.1,1.6c-2.6,1.5-5,5.8-7.2,8.4c-4.4,4.9-7.2,2.1-11.2-1.7c-3.9-3.7-7.1-5-2.4-10.6c2.6-3.1,7.4-6.5,8.4-9.4
		c1-3.1,0-6.2,0.7-9.9c1.1-6.1,5.7-12.1,9.8-17.2c2.3-2.9,4.4-5.2,6.4-7.3C810.4,307,828.8,297.3,851.3,294.1z"/>
	<g>
		<path class="st0" d="M718,373.8c0.3,1,0.4,2.1,0.1,3.2c-15.7,3.2-36.4-0.3-48.1-2.8l7.6-15.5c0.7-1.4,1.9-2.5,3.3-3l15.4-5.8
			l-3.2-1.6l8.8-18l23.3,11.4l-8.8,18l-3.2-1.6L718,373.8z"/>
		<path class="st1" d="M718.1,377c-0.1,0.4-0.2,0.8-0.4,1.2l-15.9,32.5c-1.5,3-5.1,4.2-8.1,2.8l-29.2-14.2c-3-1.5-4.2-5.1-2.8-8.1
			l8.3-17C681.7,376.8,702.4,380.2,718.1,377z"/>
	</g>
	<g>
		<path class="st0" d="M152.1,427.1l3.5-0.7l-4-19.6l-25.4,5.2l4,19.6l3.5-0.7l-8.6,14c-0.8,1.3-1.1,2.9-0.8,4.4l7.3,35.4
			c0.7,3.3,3.9,5.4,7.1,4.7l31.8-6.6c3.3-0.7,5.4-3.9,4.7-7.1l-7.3-35.4c-0.3-1.5-1.2-2.8-2.4-3.7L152.1,427.1z"/>
		<path class="st1" d="M167.8,439.4c0.2,0.4,0.3,0.8,0.4,1.3l7.2,36.1c0.7,3.3-1.5,6.5-4.8,7.1l-32.1,5.8c-3.3,0.6-6.5-1.6-7.2-5
			l-3.8-18.9C138.5,461,157.3,451.4,167.8,439.4z"/>
	</g>
	<g>
		<path class="st0" d="M500.9,512.6l2.8-2.3l-12.7-15.4l-20,16.5l12.7,15.4l2.8-2.3l-1,16.4c-0.1,1.5,0.4,3,1.4,4.2l23,27.9
			c2.1,2.6,5.9,2.9,8.5,0.8l25.1-20.7c2.6-2.1,2.9-5.9,0.8-8.5l-23-27.9c-1-1.2-2.4-2-3.9-2.1L500.9,512.6z"/>
		<path class="st1" d="M520.6,516.1c0.4,0.3,0.7,0.6,1,0.9l23.3,28.6c2.2,2.6,1.8,6.4-0.9,8.5l-25.7,20.2c-2.6,2.1-6.5,1.6-8.7-1
			l-12.2-14.9C504.8,548.9,516.9,531.6,520.6,516.1z"/>
	</g>
	<g>
		<path class="st0" d="M554.7,405.3c-6.9,6.6-16.4,13.1-17.7,19.5c-0.7,3.6-1.5,6.7-2.2,9.5c-21.1,0-42.8-3-59.6-6.1
			c3.1-5.8,7.2-10.6,8.6-14.5c3.6-10.1,4-21.5,4.4-34C511.1,388.5,532.5,396.8,554.7,405.3z"/>
		<path class="st1" d="M526.9,462.2c-1.4,7.9-3.1,12.3-2.2,22.1c-2.3-0.9-5.1-1.2-6.9-2.9c-4.5-4.4-5.3-6.7-18.8-9.6
			c-14.2-3.1-25.8-9.8-39-15.3c-6.3-2.6-4.8-5.2-0.8-9.5c6.1-6.5,10.8-7.1,14.4-15.3c0.5-1.2,1-2.3,1.6-3.4
			c16.7,3.1,38.5,6,59.6,6.1C531.5,446.9,528.6,452.6,526.9,462.2z"/>
	</g>
	<path class="st0" d="M685.7,169.3c-6.9,6.6-16.4,13.1-17.7,19.5c-0.7,3.6-1.5,6.7-2.2,9.5c-21.1,0-42.8-3-59.6-6.1
		c3.1-5.8,7.2-10.6,8.6-14.5c3.6-10.1,4-21.5,4.4-34C642.1,152.5,663.5,160.8,685.7,169.3z"/>
	<path class="st1" d="M657.9,226.2c-1.4,7.9-3.1,12.3-2.2,22.1c-2.3-0.9-5.1-1.2-6.9-2.9c-4.5-4.4-5.3-6.7-18.8-9.6
		c-14.2-3.1-25.8-9.8-39-15.3c-6.3-2.6-4.8-5.2-0.8-9.5c6.1-6.5,10.8-7.1,14.4-15.3c0.5-1.2,1-2.3,1.6-3.4c16.7,3.1,38.5,6,59.6,6.1
		C662.5,210.9,659.6,216.6,657.9,226.2z"/>
	<g>
		<path class="st0" d="M70.2,400.2c-6.4,3.8-14.3,6.8-18.1,8.2c-12.5,4.6-25.7,3.5-38.6,6.2c-4.2,0.9-8.3,1.8-12.5,2.8
			c-1.4-5.9,0.7-6.1,10-7.6c2.9-0.5,5.9-1.3,8.3-2.8c10.5-6.4,21.9-9.1,34.1-7.7c3.1,0.3,3.3,0.7,4.6,0.8
			C62.9,398.6,68,394.7,70.2,400.2z"/>
		<path class="st1" d="M61,409.1c-0.3,0.3-1,1-3,2.9c-8.6,8.6-19,13.5-31.6,14.5c-2.8,0.2-5.8,1.2-8.3,2.5
			c-10.8,5.4-11.8,5.4-15.3-5.8c-0.8-2.4-1.3-4.3-1.7-5.8c4.1-1,8.3-1.9,12.5-2.8c12.9-2.6,26.1-1.5,38.6-6.2
			c3.8-1.4,11.7-4.4,18.1-8.2c0.1,0.2,0.2,0.4,0.3,0.7C72.7,407.8,68.7,406.6,61,409.1z"/>
	</g>
	<g>
		<path class="st0" d="M857.8,525.9c-6.9,6.1-15.8,11.6-20.2,14.2c-14.2,8.5-30.6,10.2-45.7,16.4c-4.9,2-9.7,4.1-14.5,6.2
			c-3-6.9-0.5-7.6,10.4-11.5c3.4-1.2,6.8-3,9.5-5.4c11.4-10.2,24.6-16.1,39.7-17.3c3.8-0.3,4.2,0.1,5.7-0.1
			C848.5,525.5,853.8,519.7,857.8,525.9z"/>
		<path class="st1" d="M848.6,538.8c-0.3,0.4-1,1.5-3,4.3c-8.5,12.5-20,20.9-35.2,24.9c-3.4,0.9-6.7,2.8-9.6,5
			c-11.9,9.1-13.1,9.3-20-3.6c-1.5-2.8-2.6-5-3.4-6.7c4.8-2.2,9.7-4.2,14.5-6.2c15.1-6.2,31.5-7.9,45.7-16.4
			c4.3-2.6,13.2-8,20.2-14.2c0.2,0.2,0.3,0.5,0.5,0.8C862.6,534.5,857.4,534,848.6,538.8z"/>
	</g>
	<g>
		<g>
			<g>
				<ellipse transform="matrix(0.2012 -0.9795 0.9795 0.2012 514.085 895.4028)" class="st3" cx="806.1" cy="132.5" rx="4" ry="4"/>
				<path class="st4" d="M806.1,135.5c0-0.1,0.1-0.3,0.3-0.3c1.6-0.3,2-1.4,2-1.4c0.1-0.2,0.3-0.3,0.5-0.2c0.2,0.1,0.3,0.3,0.2,0.5
					c0,0.1-0.5,1.5-2.5,1.9c-0.2,0-0.4-0.1-0.4-0.3C806.1,135.6,806.1,135.5,806.1,135.5z"/>
			</g>
			<path class="st1" d="M873.5,95.5c-4.6,4.1-9.2,7.8-14.8,13.1c-0.8,0.7-1.6,1.5-2.5,2.4c-1,1-5.4,7.7-7.5,9.7
				c-3,2.9-6.7,4.3-10.1,4.2c-1.3-0.1-2.4,0.8-2.4,2.2c-0.1,6.1-0.2,6.5-3.4,10.6c-2.3,3-6.3,2-9,4c-0.9,0.6-1.3,0.6-1.6,1.3
				c-3.9,10.2-40,47.2-50.9,47.7c-0.3,0-0.5,0-0.8-0.1c-12.2-3.2-29.3-23-37-35.5c-1.2-2.1-1.6-3.9-1.3-5.6c0.4-2.6,2.4-5.1,6-8.2
				c5.4-4.9,32.4-35.5,41-36.1c1.3-0.1,2-1.7,2.9-2.6c0.6-0.5,0.8-1.2,0.9-2c0.1-2.9,1.9-5.2,4.4-7.6c2.7-2.6,5.6-4.4,8.7-4.1
				c0.7,0.1,1.5-0.1,2-0.6c0.6-0.5,1.2-1.1,1.8-1.6c1-0.9,0.7-4.5,1.7-5.5c2.8-2.9,5.5-5.6,8.1-8.3c11.4,2.6,23.3,6.6,32.4,12.7
				C842.1,85.5,857.4,91.4,873.5,95.5z"/>
			<path class="st0" d="M916.8,30.2c-4,4.4-11.3,8.9-12.9,13.1c-1.7,4.4-0.5,9.1-1.6,14.3c-2,8.9-9.1,17.2-15.4,24.5
				c-4.9,5.6-9.1,9.6-13.4,13.4c-16.1-4.1-31.4-10-31.4-10c-9.1-6.1-21-10.1-32.4-12.7c9.4-9.5,18.4-17.9,29.1-27.2
				c10.1-8.7,21.9-16.7,34.4-20.7c4.9-1.6,9.1,0.4,13.4-1.7c3.9-2,7.6-8.2,11.1-11.7c6.8-6.8,10.7-2.6,16.3,3.2
				C919.4,20.3,923.9,22.4,916.8,30.2z"/>
			<g>
				
					<ellipse transform="matrix(0.2012 -0.9795 0.9795 0.2012 520.6318 890.4083)" class="st3" cx="806.3" cy="126" rx="4.7" ry="4.7"/>
				<path class="st4" d="M806.3,129.5c0-0.2,0.2-0.3,0.3-0.3c1.8-0.4,2.3-1.6,2.3-1.7c0.1-0.2,0.3-0.3,0.6-0.3
					c0.2,0.1,0.3,0.3,0.3,0.6c0,0.1-0.6,1.7-3,2.2c-0.2,0.1-0.5-0.1-0.5-0.3C806.3,129.6,806.3,129.5,806.3,129.5z"/>
			</g>
			<g>
				
					<ellipse transform="matrix(0.2012 -0.9795 0.9795 0.2012 563.5934 896.6458)" class="st3" cx="831.6" cy="102.8" rx="1.6" ry="1.6"/>
				<path class="st4" d="M831.6,103.9c0-0.1,0.1-0.1,0.1-0.1c0.6-0.1,0.8-0.5,0.8-0.5c0-0.1,0.1-0.1,0.2-0.1c0.1,0,0.1,0.1,0.1,0.2
					c0,0-0.2,0.6-1,0.7C831.7,104.1,831.6,104.1,831.6,103.9C831.6,104,831.6,103.9,831.6,103.9z"/>
			</g>
			<g>
				
					<ellipse transform="matrix(0.2012 -0.9795 0.9795 0.2012 544.6498 883.2774)" class="st3" cx="813.9" cy="107.7" rx="2.6" ry="2.6"/>
				<path class="st4" d="M813.9,109.6c0-0.1,0.1-0.2,0.2-0.2c1-0.2,1.3-0.9,1.3-0.9c0-0.1,0.2-0.2,0.3-0.1c0.1,0,0.2,0.2,0.1,0.3
					c0,0-0.4,0.9-1.7,1.2c-0.1,0-0.3-0.1-0.3-0.2C813.9,109.7,813.9,109.7,813.9,109.6z"/>
			</g>
		</g>
		<path class="st5" d="M909.2,2.9l16.5,15.7c2.4,2.3,2.5,6.2,0.2,8.6l-3.7,3.9c-2.3,2.4-6.2,2.5-8.6,0.2l-16.5-15.7
			c-2.4-2.3-2.5-6.2-0.2-8.6l3.7-3.9C902.9,0.7,906.7,0.6,909.2,2.9z"/>
	</g>
	<path class="st1" d="M54.7,494.9c9.6,7.4,17.5,16.9,23.8,28.7c2.4,4.5,6.1,8.5,10.1,11.7c16.6,13.7,17.3,15.3,1.5,29.1
		c-16.5,14.4-16.5,13.7-27.8-3.9c-2.8-4.3-6.4-8.6-10.6-11.5c-5.3-3.7-10.1-7.7-14.4-12.1c1.7-2.6,3.4-5.2,5.2-7.7
		C42.5,529.2,50,515.4,54.7,494.9z"/>
</g>
</svg>
