<?xml version="1.0" encoding="utf-8"?>
<!-- Generator: Adobe Illustrator 21.0.0, SVG Export Plug-In . SVG Version: 6.00 Build 0)  -->
<svg version="1.1" id="图层_1" xmlns="http://www.w3.org/2000/svg" xmlns:xlink="http://www.w3.org/1999/xlink" x="0px" y="0px"
	 viewBox="0 0 156 333" style="enable-background:new 0 0 156 333;" xml:space="preserve">
<style type="text/css">
	.st0{fill:#97B1C4;}
</style>
<path class="st0" d="M120.5,330c2,0,4.1-0.4,6.1-1.3c7.6-3.3,11-12.2,7.6-19.7L31.5,77c-2.3-5.2-2.2-11.1,0.3-16.3
	c2.5-5.1,7.1-8.9,12.6-10.2l82-20.5c8-2,12.9-10.1,10.9-18.1c-2-8-10.1-12.9-18.1-10.9l-82,20.5C23,25,11.3,34.5,4.9,47.6
	c-6.4,13.1-6.7,28.2-0.8,41.5l102.7,232C109.2,326.7,114.7,330,120.5,330z"/>
</svg>
