<?xml version="1.0" encoding="utf-8"?>
<!-- Generator: Adobe Illustrator 22.0.0, SVG Export Plug-In . SVG Version: 6.00 Build 0)  -->
<svg version="1.1" id="圖層_1" xmlns="http://www.w3.org/2000/svg" xmlns:xlink="http://www.w3.org/1999/xlink" x="0px" y="0px"
	 viewBox="0 0 141.6 180.8" style="enable-background:new 0 0 141.6 180.8;" xml:space="preserve">
<style type="text/css">
	.st0{fill:#EDC6B2;}
</style>
<path class="st0" d="M138,24.6c0,3.6,3,22,3,36c0,7.1,0.3,7.8,0.3,8.8c0,1.2-0.2,2-0.3,2.2c-2.5,10.2-5,26-5,26
	c-2.5,16.6-8.2,17.8-12,39c-2.5,13.8-1.8,22.5-9,33c-2.5,3.7-5.2,6.3-7,8c0,0-3.4,2.2-8,3c-9.9,1.6-66.3-10.9-96-48
	c-4-5-4.8-11.9-3-18c3-10,16.9-33.8,20-41c3-7,12.4-21.9,22-35c11-15,31.2-28.6,36-35c3-4,10.1-4.2,13-2c4,3,5,8.1,4,12
	c-1,4-14,27-12,31c1.9,3.8,20.7,13.8,26,13c7-1,12.2-27.3,17-37c1-2,3-7,6-6C137.2,16,138,18.6,138,24.6z"/>
</svg>
