<?xml version="1.0" encoding="utf-8"?>
<!-- Generator: Adobe Illustrator 22.0.0, SVG Export Plug-In . SVG Version: 6.00 Build 0)  -->
<svg version="1.1" id="圖層_1" xmlns="http://www.w3.org/2000/svg" xmlns:xlink="http://www.w3.org/1999/xlink" x="0px" y="0px"
	 viewBox="0 0 135.6 156" style="enable-background:new 0 0 135.6 156;" xml:space="preserve">
<style type="text/css">
	.st0{fill:#E3847C;}
</style>
<path class="st0" d="M120.6,35c-2,3-1.9,11.1-4,18c-3,10-12.3,26.8-16,33c-6,10-22.4,24.8-31,32c-6,5-9,8-13,14c-4.5,6.7-7,13-11,18
	c-7.6,9.5-12,4-15,2c-10-6.7-23.1-17.9-27-21c-5-4-4-12-2-15c5.7-8.6,8-9,14-14c4.3-3.6,10.9-8.6,15-18c7-16,16.8-25.8,22-32
	c5-6,14.7-14.4,28-22c7-4,16.9-4.9,22-10c3-3,5-8,10-15c2.5-3.5,6-6,11-4c2.9,1.2,7,5,9,7c4,4,3,8,2,10
	C132.2,22.8,126.5,26.1,120.6,35z"/>
</svg>
