<?xml version="1.0" encoding="utf-8"?>
<!-- Generator: Adobe Illustrator 22.0.0, SVG Export Plug-In . SVG Version: 6.00 Build 0)  -->
<svg version="1.1" id="圖層_1" xmlns="http://www.w3.org/2000/svg" xmlns:xlink="http://www.w3.org/1999/xlink" x="0px" y="0px"
	 viewBox="0 0 219 375.9" style="enable-background:new 0 0 219 375.9;" xml:space="preserve">
<style type="text/css">
	.st0{fill:#E3847C;}
</style>
<path class="st0" d="M170.7,149.7c-4,5,0.5,13.7-3,20c-5,9-13,7-17,13s4.3,7.7,0,18c-12,29-38,104-72,125c-7.8,4.8-17.2,4.4-21,11
	c-12,21-17.9,39-25,39c-12,0-35-14-33-24c1.2-6.2,7.6-17.7,15-31c5-9-6.2-11.8-4-34c3.3-34.3,23-90,46-130c6.2-10.9,9-5,13-12
	c3.6-6.3-6.3-9.5,1-23c7-13,13.3-8.7,14-16c1-11,18-57,36-90c3.6-6.7,6.3-17.9,19-15c26,6,58,19,73,34c5,5,8.3,9.1,5,21
	C203.7,105.7,177.3,141.4,170.7,149.7z"/>
</svg>
