<?xml version="1.0" encoding="utf-8"?>
<!-- Generator: Adobe Illustrator 22.0.0, SVG Export Plug-In . SVG Version: 6.00 Build 0)  -->
<svg version="1.1" id="圖層_1" xmlns="http://www.w3.org/2000/svg" xmlns:xlink="http://www.w3.org/1999/xlink" x="0px" y="0px"
	 viewBox="0 0 426.3 307.6" style="enable-background:new 0 0 426.3 307.6;" xml:space="preserve">
<style type="text/css">
	.st0{fill:#A0BDCD;}
</style>
<path class="st0" d="M333.2,39.2c11-4,24-37.3,54-39c36-2,30,31,26,39c-5,10-19,25-19,32c0,9,30,17,32,59c1.1,23.3-8.5,49.4-18,49
	c-22-1-28-62.6-43-64c-22-2-29,25-34,34c-4,7.2,9.8,43.8-27,89c-44,54-100.9,71.9-109,68c-19-9,17-39,23-48c7.5-11.2,14.8-57.8,8-56
	c-19,5-44,11-66,15c-40.7,7.4-63,17-72,25c-3.1,2.7-45.4,68.9-81,61c-9-2-11-27,0-41c4.7-6,37-31,39-42
	c11.4-62.8,23.3-115.1,119-163C225.2,27.2,316.8,45.2,333.2,39.2z"/>
</svg>
