<?xml version="1.0" encoding="utf-8"?>
<!-- Generator: Adobe Illustrator 22.0.0, SVG Export Plug-In . SVG Version: 6.00 Build 0)  -->
<svg version="1.1" id="圖層_1" xmlns="http://www.w3.org/2000/svg" xmlns:xlink="http://www.w3.org/1999/xlink" x="0px" y="0px"
	 viewBox="0 0 217.7 267.2" style="enable-background:new 0 0 217.7 267.2;" xml:space="preserve">
<style type="text/css">
	.st0{opacity:0.44;fill:#B4D3E0;}
</style>
<path class="st0" d="M209.2,12.2c4,8-6.3,23.3-10,40c-2,9,9.2,32.5,13,44c2,6,8,15,4,22c-7.8,13.6-13,12.8-13,33c0,20,13,27-1,61
	c-2.8,6.7-22.3,34.5-44,48c-16,10-12,6-65,6c-37,0-71-37-75-45c-3.3-6.5-21-36-17-54c5.1-22.8,20.3-32.3,23-39c7-17,3.7-24.5,25-50
	c5-6,3-21,18-36c7-7,5-21,13-36c1.9-3.6,35-14,36,7c0.5,11-37.3,47.4-15,66c6,5,43,14,56-2c19.5-24,12.9-52.1,19-60
	C186.2,4.2,206.5,7,209.2,12.2z"/>
</svg>

