<?xml version="1.0" encoding="utf-8"?>
<!-- Generator: Adobe Illustrator 22.0.0, SVG Export Plug-In . SVG Version: 6.00 Build 0)  -->
<svg version="1.1" id="圖層_1" xmlns="http://www.w3.org/2000/svg" xmlns:xlink="http://www.w3.org/1999/xlink" x="0px" y="0px"
	 viewBox="0 0 141.6 180.8" style="enable-background:new 0 0 141.6 180.8;" xml:space="preserve">
<style type="text/css">
	.st0{fill:#EDC6B2;}
</style>
<path class="st0" d="M138,24.6c0,3.6,3,22,3,36c0,10.4,0.7,7.1,0,11c-1,6-2,17-3,26c-0.9,7.8-6.3,39-8,46c-2,8-2.4,23.1-5,29
	c-4,9-10.8,8.9-20,8c-20-2-93-27-101-37c-4-5-4.8-11.9-3-18c3-10,16.9-33.8,20-41c3-7,12.4-21.9,22-35c11-15,31.2-39.6,36-46
	c3-4,10.1-4.2,13-2c4,3,5,8.1,4,12c-1,4-14,27-12,31c1.9,3.8,20.7,13.8,26,13c7-1,12.2-27.3,17-37c1-2,3-7,6-6
	C137.2,16,138,18.6,138,24.6z"/>
</svg>
