<?xml version="1.0" encoding="utf-8"?>
<!-- Generator: Adobe Illustrator 22.0.0, SVG Export Plug-In . SVG Version: 6.00 Build 0)  -->
<svg version="1.1" id="圖層_1" xmlns="http://www.w3.org/2000/svg" xmlns:xlink="http://www.w3.org/1999/xlink" x="0px" y="0px"
	 viewBox="0 0 99.6 104.9" style="enable-background:new 0 0 99.6 104.9;" xml:space="preserve">
<style type="text/css">
	.st0{fill:#A0BDCD;}
</style>
<path class="st0" d="M80.7,18.2c2,1,19,6,19,7s-15.2,13.3-17,17c-1,2-3,11-4,15c-1.2,4.9-4,13-5,16c-1.9,5.8-3,18-4,20s1,10,0,11
	s-6-1-8-3c-1-1-3-5-9-7c-6.9-2.3-18-4-24-7c-2.8-1.4-24-10-27-12s-0.5-5.5,2-8c3-3,12.2-9.9,13-12c2-5,8-15,11-20c2.1-3.5,2-6,3-9
	c0.3-0.9,1-8,1-10c0-2.2,1-4.8,1-16c0-1,25,9,27,10C61,10.8,79.9,17.7,80.7,18.2z"/>
</svg>
