<?xml version="1.0" encoding="utf-8"?>
<!-- Generator: Adobe Illustrator 21.0.0, SVG Export Plug-In . SVG Version: 6.00 Build 0)  -->
<svg version="1.1" id="圖層_1" xmlns="http://www.w3.org/2000/svg" xmlns:xlink="http://www.w3.org/1999/xlink" x="0px" y="0px"
	 viewBox="0 0 369.8 236.4" style="enable-background:new 0 0 369.8 236.4;" xml:space="preserve">
<style type="text/css">
	.st0{fill:#A0BDCD;}
</style>
<path class="st0" d="M140,11.6c12.3,6.3,10.4,3.3,32.2,14.8c29.6,16,52.1,26.9,59.2,29.9c11.2,4.7,37.5,19.4,44.1,21.6
	c6.4,2.1,17.5,8.4,26,13.3c12.1,6.5,10.9,5.9,18.9,9.5c8.3,4.7,8.3,3.8,16.3,7.1c11.5,3.8,21.3,8.3,29.9,12.4
	c-7.8,3.3-37.2,17.1-47.9,21.9c-7,2.3-32.8,15-43.8,18c-8.7,3.5-39.6,16.6-55,22.5c-16.7,4.9-66.6,25.1-73.4,26.9
	c-18.3,7.7-38.6,16.1-59.2,23.5c-11.3,1.1-39.1,1.7-50.6-0.2C31.9,233.5,20,235,3.3,233c-1.3-12.2-2.2-72.9-2.1-87.2
	C1.7,138,1.3,52,3.3,41c31.6-13,87.6-35.2,106-44C133.6,8.7,123.7,3.6,140,11.6z"/>
</svg>
