<?xml version="1.0" encoding="utf-8"?>
<!-- Generator: Adobe Illustrator 21.0.0, SVG Export Plug-In . SVG Version: 6.00 Build 0)  -->
<svg version="1.1" id="圖層_1" xmlns="http://www.w3.org/2000/svg" xmlns:xlink="http://www.w3.org/1999/xlink" x="0px" y="0px"
	 viewBox="0 0 217.7 267.2" style="enable-background:new 0 0 217.7 267.2;" xml:space="preserve">
<style type="text/css">
	.st0{opacity:0.44;fill:#B4D3E0;enable-background:new    ;}
</style>
<path class="st0" d="M206.6,8.6c4,8-1.6,29.5-5.3,46.2c-2,9,8.1,29.9,11.9,41.4c2,6,3.7,18.4-0.3,25.4c-7.8,13.6-8.7,9.4-8.7,29.6
	c0,20,13,27-1,61c-2.8,6.7-13.9,28.3-38.1,33c-23.3,5.6-34.9,20.6-72.1,17.6c-36.9-3-74.1-25.2-78.1-33.2
	c-3.3-6.5-17.6-41.5-13.6-59.5c5.1-22.8,17.9-31.8,20.6-38.5c5-15.3-5-27.3,16.3-52.8c8-14.3,10.2-17.1,24.9-36.9
	c5.2-7,10.1-20.6,18.1-35.6c1.9-3.6,35-14,36,7c0.5,11-37.3,47.4-15,66c6,5,45.6,17.5,58.6,1.5c19.5-24,8.2-46.6,14.3-54.5
	C185,13.2,203.9,3.4,206.6,8.6z"/>
</svg>
