<?xml version="1.0" encoding="utf-8"?>
<!-- Generator: Adobe Illustrator 22.0.0, SVG Export Plug-In . SVG Version: 6.00 Build 0)  -->
<svg version="1.1" id="圖層_1" xmlns="http://www.w3.org/2000/svg" xmlns:xlink="http://www.w3.org/1999/xlink" x="0px" y="0px"
	 viewBox="0 0 426.3 307.6" style="enable-background:new 0 0 426.3 307.6;" xml:space="preserve">
<style type="text/css">
	.st0{fill:#A0BDCD;}
</style>
<path class="st0" d="M324,39c11-4,24-37.3,54-39c36-2,30,31,26,39c-5,10-19,25-19,32c0,9,39,16,41,58c1.1,23.3-8.5,49.4-18,49
	c-22-1-37-61.6-52-63c-22-2-29,25-34,34c-4,7.2-2.2,37.8-39,83c-44,54-108.9,62.9-117,59c-19-9,17-39,23-48
	c7.5-11.2,34.8-42.8,28-41c-19,5-44,11-66,15c-40.7,7.4-63,17-72,25c-3.1,2.7-34.4,60.2-70,52c-13-3-11.1-27.1,0-41
	c8-10,26-22,28-33c11.4-62.8,23.3-115.1,119-163C216,27,307.6,45,324,39z"/>
</svg>
