<?xml version="1.0" encoding="utf-8"?>
<!-- Generator: Adobe Illustrator 22.0.0, SVG Export Plug-In . SVG Version: 6.00 Build 0)  -->
<svg version="1.1" id="圖層_1" xmlns="http://www.w3.org/2000/svg" xmlns:xlink="http://www.w3.org/1999/xlink" x="0px" y="0px"
	 viewBox="0 0 217.7 267.2" style="enable-background:new 0 0 217.7 267.2;" xml:space="preserve">
<style type="text/css">
	.st0{opacity:0.44;fill:#B4D3E0;}
</style>
<path class="st0" d="M210,12c3.5,7-6.9,15.3-10,40c-1.7,13.2,1.7,10.6,2,43c0.1,9.6,3.9,15.1,3,25c-0.8,8.4-2.9,10.4-3,19
	c-0.1,10.5,2.9,11.7,3,21c0.1,11.4-4.6,13.6-6,25c-1.5,12.2,3.4,15.4,4,27c1.1,20.7-9.6,45.3-27,53c-2.4,1.1-4.3,1.4-4.7,1.5
	c-8,1.1-14.5-4.8-18.1-7.3c-4.9-3.3-10.7-4.4-36-1c-44.9,6-56,10-61,9C38.8,263.8,34.8,247.6,19,221C5.8,198.9-4,181.9,2,167
	c4.9-12.3,15.3-11.3,23-28c6.5-14,1.1-18.9,8.3-35.6C37.6,93.2,37.7,92.8,50,78c5-6,3-21,18-36c7-7,5-21,13-36c1.9-3.6,35-14,36,7
	c0.5,11-37.3,47.4-15,66c6,5,43,14,56-2c19.5-24,12.9-52.1,19-60C187,4,207.4,6.8,210,12z"/>
</svg>
