<?xml version="1.0" encoding="utf-8"?>
<!-- Generator: Adobe Illustrator 22.0.0, SVG Export Plug-In . SVG Version: 6.00 Build 0)  -->
<svg version="1.1" id="图层_1" xmlns="http://www.w3.org/2000/svg" xmlns:xlink="http://www.w3.org/1999/xlink" x="0px" y="0px"
	 viewBox="0 0 159 178" style="enable-background:new 0 0 159 178;" xml:space="preserve">
<style type="text/css">
	.st0{fill:#B4D3E0;}
	.st1{fill:#A0BDCD;}
	.st2{opacity:0.6;}
	.st3{opacity:0.8;fill:#FFFFFF;}
	.st4{fill:#FFFFFF;}
	.st5{opacity:0.49;}
	.st6{opacity:0.88;}
	.st7{fill:#7EA7BD;}
</style>
<g>
	<g>
		<path class="st0" d="M127.1,68.5c-6.9,6.6-16.4,13.1-17.7,19.5c-0.7,3.6-1.5,6.7-2.2,9.5c-21.1,0-42.8-3-59.6-6.1
			c3.1-5.8,7.2-10.6,8.6-14.5c3.6-10.1,4-21.5,4.4-34C83.6,51.8,104.9,60,127.1,68.5z"/>
		<path class="st1" d="M99.4,125.5c-1.4,7.9-3.1,12.3-2.2,22.1c-2.3-0.9-5.1-1.2-6.9-2.9c-4.5-4.4-5.3-6.7-18.8-9.6
			c-14.2-3.1-25.8-9.8-39-15.3c-6.3-2.6-4.8-5.2-0.8-9.5c6.1-6.5,10.8-7.1,14.4-15.3c0.5-1.2,1-2.3,1.6-3.4
			c16.7,3.1,38.5,6,59.6,6.1C104,110.2,101.1,115.9,99.4,125.5z"/>
	</g>
	<g>
		<g class="st2">
			<circle class="st3" cx="80.6" cy="100.2" r="5.9"/>
			<path class="st4" d="M84.3,97.9c-0.2,0.1-0.4,0-0.6-0.1c-1.6-1.7-3.2-1.4-3.3-1.4c-0.3,0.1-0.6-0.1-0.6-0.4
				c-0.1-0.3,0.1-0.6,0.4-0.6c0.1,0,2.2-0.4,4.3,1.7c0.2,0.2,0.2,0.6,0,0.8C84.4,97.8,84.3,97.9,84.3,97.9z"/>
		</g>
		<g>
			<circle class="st3" cx="69.7" cy="77.1" r="2.8"/>
			<path class="st4" d="M71.5,76c-0.1,0-0.2,0-0.3-0.1c-0.8-0.8-1.5-0.7-1.5-0.7c-0.1,0-0.3-0.1-0.3-0.2c0-0.1,0.1-0.3,0.2-0.3
				c0,0,1-0.2,2,0.8C71.7,75.7,71.7,75.9,71.5,76C71.5,76,71.5,76,71.5,76z"/>
		</g>
	</g>
</g>
</svg>
