<?xml version="1.0" encoding="utf-8"?>
<!-- Generator: Adobe Illustrator 22.0.0, SVG Export Plug-In . SVG Version: 6.00 Build 0)  -->
<svg version="1.1" id="图层_1" xmlns="http://www.w3.org/2000/svg" xmlns:xlink="http://www.w3.org/1999/xlink" x="0px" y="0px"
	 viewBox="0 0 163 178" style="enable-background:new 0 0 163 178;" xml:space="preserve">
<style type="text/css">
	.st0{fill:#B4D3E0;}
	.st1{fill:#A0BDCD;}
	.st2{opacity:0.6;}
	.st3{opacity:0.8;fill:#FFFFFF;}
	.st4{fill:#FFFFFF;}
	.st5{opacity:0.49;}
	.st6{opacity:0.88;}
	.st7{fill:#7EA7BD;}
</style>
<path class="st0" d="M37.8,84.5C49.1,73.3,59.6,61,72.1,51.3c20.8-16.1,16.6-14.2,31.4,2.9c18.6,21.4,30.4,46.9,41.8,72.6
	c0.9,2.1,0.1,7-1.2,7.5c-2.4,1-6.6,0.9-8.6-0.6c-3.7-2.9-6.6-7-9.5-10.8c-4.5-5.8-8.9-8-14.5-1.3c-2.3,2.7-5.3,4.8-10,8.9
	c5,4.2,9.8,7.7,13.8,11.9c2,2.1,2.6,5.5,3.8,8.4c-3,0.3-6.1,1.5-8.9,0.8c-26.5-6.6-47.6-22.8-68.5-39.2c-4.7-3.7-9.1-7.7-14.1-11.9
	c3.6-5.8,7-11.1,10.3-16.3C38,84.2,37.8,84.5,37.8,84.5z"/>
<g class="st5">
	<g>
		<circle class="st3" cx="84" cy="99.5" r="7.3"/>
		<path class="st4" d="M89.3,98.3c-0.3,0-0.5-0.2-0.6-0.4c-1.2-2.6-3.1-3-3.2-3c-0.4-0.1-0.6-0.4-0.6-0.8c0.1-0.4,0.4-0.6,0.8-0.6
			c0.1,0,2.8,0.4,4.3,3.8c0.2,0.3,0,0.7-0.3,0.9C89.5,98.3,89.4,98.3,89.3,98.3z"/>
	</g>
	<g>
		<circle class="st3" cx="96.7" cy="87.9" r="4.3"/>
		<path class="st4" d="M99.8,87.2c-0.2,0-0.3-0.1-0.4-0.2c-0.7-1.5-1.8-1.8-1.9-1.8c-0.2,0-0.4-0.2-0.3-0.5c0-0.2,0.2-0.4,0.4-0.3
			c0.1,0,1.6,0.3,2.5,2.2c0.1,0.2,0,0.4-0.2,0.5C99.9,87.2,99.9,87.2,99.8,87.2z"/>
	</g>
	<g>
		<circle class="st3" cx="92" cy="119.2" r="3.2"/>
		<path class="st4" d="M94.2,118.7c-0.1,0-0.2-0.1-0.3-0.2c-0.5-1.2-1.4-1.3-1.4-1.3c-0.2,0-0.3-0.2-0.2-0.3c0-0.2,0.2-0.3,0.3-0.2
			c0,0,1.2,0.2,1.9,1.7c0.1,0.1,0,0.3-0.2,0.4C94.3,118.7,94.3,118.7,94.2,118.7z"/>
	</g>
	<g>
		<circle class="st3" cx="86.8" cy="71.6" r="2.6"/>
		<path class="st4" d="M88.6,71.1c-0.1,0-0.2-0.1-0.2-0.1c-0.4-0.9-1.1-1-1.1-1.1c-0.1,0-0.2-0.1-0.2-0.3c0-0.1,0.1-0.2,0.3-0.2
			c0,0,1,0.2,1.5,1.3C88.9,70.9,88.8,71.1,88.6,71.1C88.7,71.1,88.6,71.1,88.6,71.1z"/>
	</g>
	<g>
		<circle class="st3" cx="70.1" cy="95.9" r="3"/>
		<path class="st4" d="M72.3,95.4c-0.1,0-0.2-0.1-0.3-0.2c-0.5-1.1-1.3-1.2-1.3-1.2c-0.1,0-0.3-0.2-0.2-0.3c0-0.1,0.2-0.3,0.3-0.2
			c0,0,1.1,0.2,1.7,1.5c0.1,0.1,0,0.3-0.1,0.4C72.4,95.4,72.3,95.4,72.3,95.4z"/>
	</g>
</g>
</svg>
