<?xml version="1.0" encoding="utf-8"?>
<!-- Generator: Adobe Illustrator 22.0.0, SVG Export Plug-In . SVG Version: 6.00 Build 0)  -->
<svg version="1.1" id="图层_1" xmlns="http://www.w3.org/2000/svg" xmlns:xlink="http://www.w3.org/1999/xlink" x="0px" y="0px"
	 viewBox="0 0 209.3 193.7" style="enable-background:new 0 0 209.3 193.7;" xml:space="preserve">
<style type="text/css">
	.st0{fill:#B4D3E0;}
	.st1{fill:#A0BDCD;}
	.st2{opacity:0.6;}
	.st3{opacity:0.8;fill:#FFFFFF;}
	.st4{fill:#FFFFFF;}
	.st5{opacity:0.49;}
	.st6{opacity:0.88;}
	.st7{fill:#7EA7BD;}
</style>
<g>
	<path class="st0" d="M30.5,70.6l-4.1-6.7l1.3-14.5c0.2-1.9,1.2-3.6,2.9-4.6l32.6-20c2-1.2,4.5-1.2,6.5,0.1l10,6.4l2-1.2l-2-10.9
		c-0.4-2.5,0.7-4.9,2.8-6.2l11.3-7c2.1-1.3,4.8-1.2,6.8,0.3l7.7,5.6c0.9,0.7,2,1.1,3.1,1.2l5,0.4c1.9,0.2,3.7,1.2,4.7,2.9l6.9,11.2
		c-12.9,17.5-27.8,42.4-32.5,69.1c0,0-6.6,21.5-24.4,39.8L30.5,70.6z M38.3,55.4l27-16.6c1.3-0.8,1.6-2.4,0.9-3.7
		c-0.8-1.3-2.4-1.6-3.7-0.9l-27,16.6c-1.3,0.8-1.6,2.4-0.9,3.7C35.4,55.8,37.1,56.1,38.3,55.4z"/>
	<path class="st1" d="M110.1,188.6l79.6-48.9c2.9-1.8,3.7-5.5,2-8.3l-63.9-104c-12.9,17.5-27.8,42.4-32.5,69.1
		c0,0-6.6,21.5-24.4,39.8l31,50.4C103.5,189.5,107.3,190.4,110.1,188.6z"/>
	<g class="st6">
		<g>
			<circle class="st3" cx="117.8" cy="104" r="4.9"/>
			<path class="st4" d="M115.1,106.5c0.1-0.1,0.1-0.3,0-0.5c-1-1.7-0.5-2.9-0.5-2.9c0.1-0.2,0-0.5-0.2-0.6c-0.2-0.1-0.5,0-0.6,0.2
				c0,0.1-0.8,1.7,0.5,3.8c0.1,0.2,0.4,0.3,0.6,0.1C115,106.6,115.1,106.5,115.1,106.5z"/>
		</g>
		<g>
			<circle class="st3" cx="106.5" cy="106.7" r="2.9"/>
			<path class="st4" d="M104.9,108.1c0.1-0.1,0.1-0.2,0-0.3c-0.6-1-0.3-1.7-0.3-1.7c0.1-0.1,0-0.3-0.1-0.4c-0.1-0.1-0.3,0-0.4,0.1
				c0,0-0.5,1,0.3,2.2C104.5,108.3,104.7,108.3,104.9,108.1C104.9,108.2,104.9,108.2,104.9,108.1z"/>
		</g>
		<g>
			<circle class="st3" cx="125.8" cy="116" r="2.2"/>
			<path class="st4" d="M124.7,117.1c0-0.1,0-0.1,0-0.2c-0.4-0.7-0.2-1.3-0.2-1.3c0-0.1,0-0.2-0.1-0.3c-0.1,0-0.2,0-0.3,0.1
				c0,0-0.4,0.7,0.2,1.7C124.4,117.1,124.5,117.2,124.7,117.1C124.6,117.1,124.7,117.1,124.7,117.1z"/>
		</g>
		<g>
			<circle class="st3" cx="101.1" cy="94.9" r="1.7"/>
			<path class="st4" d="M100.2,95.7c0-0.1,0-0.1,0-0.2c-0.4-0.6-0.2-1-0.2-1c0-0.1,0-0.2-0.1-0.2c-0.1,0-0.2,0-0.2,0.1
				c0,0-0.3,0.6,0.2,1.3C100,95.8,100.1,95.8,100.2,95.7C100.2,95.8,100.2,95.7,100.2,95.7z"/>
		</g>
		<g>
			<circle class="st3" cx="121.1" cy="94.9" r="2"/>
			<path class="st4" d="M120,95.9c0-0.1,0-0.1,0-0.2c-0.4-0.7-0.2-1.2-0.2-1.2c0-0.1,0-0.2-0.1-0.2c-0.1,0-0.2,0-0.2,0.1
				c0,0-0.3,0.7,0.2,1.6C119.8,95.9,119.9,96,120,95.9C120,95.9,120,95.9,120,95.9z"/>
		</g>
	</g>
</g>
</svg>
