<?xml version="1.0" encoding="utf-8"?>
<!-- Generator: Adobe Illustrator 22.0.0, SVG Export Plug-In . SVG Version: 6.00 Build 0)  -->
<svg version="1.1" id="图层_1" xmlns="http://www.w3.org/2000/svg" xmlns:xlink="http://www.w3.org/1999/xlink" x="0px" y="0px"
	 viewBox="0 0 260 223" style="enable-background:new 0 0 260 223;" xml:space="preserve">
<style type="text/css">
	.st0{fill:#B4D3E0;}
	.st1{fill:#A0BDCD;}
	.st2{opacity:0.6;}
	.st3{opacity:0.8;fill:#FFFFFF;}
	.st4{fill:#FFFFFF;}
	.st5{opacity:0.49;}
	.st6{opacity:0.88;}
	.st7{fill:#7EA7BD;}
</style>
<g>
	<g>
		<g>
			<circle class="st3" cx="98.1" cy="150.5" r="4"/>
			<path class="st4" d="M98.1,153.5c0-0.1,0.1-0.3,0.3-0.3c1.6-0.3,2-1.4,2-1.4c0.1-0.2,0.3-0.3,0.5-0.2c0.2,0.1,0.3,0.3,0.2,0.5
				c0,0.1-0.5,1.5-2.5,1.9c-0.2,0-0.4-0.1-0.4-0.3C98.1,153.6,98.1,153.5,98.1,153.5z"/>
		</g>
		<path class="st1" d="M165.5,113.5c-4.6,4.1-9.2,7.8-14.8,13.1c-0.8,0.7-1.6,1.5-2.5,2.4c-1,1-5.4,7.7-7.5,9.7
			c-3,2.9-6.7,4.3-10.1,4.2c-1.3-0.1-2.4,0.8-2.4,2.2c-0.1,6.1-0.2,6.5-3.4,10.6c-2.3,3-6.3,2-9,4c-0.9,0.6-1.3,0.6-1.6,1.3
			c-3.9,10.2-40,47.2-50.9,47.7c-0.3,0-0.5,0-0.8-0.1c-12.2-3.2-29.3-23-37-35.5c-1.2-2.1-1.6-3.9-1.3-5.6c0.4-2.6,2.4-5.1,6-8.2
			c5.4-4.9,32.4-35.5,41-36.1c1.3-0.1,2-1.7,2.9-2.6c0.6-0.5,0.8-1.2,0.9-2c0.1-2.9,1.9-5.2,4.4-7.6c2.7-2.6,5.6-4.4,8.7-4.1
			c0.7,0.1,1.5-0.1,2-0.6c0.6-0.5,1.2-1.1,1.8-1.6c1-0.9,0.7-4.5,1.7-5.5c2.8-2.9,5.5-5.6,8.1-8.3c11.4,2.6,23.3,6.6,32.4,12.7
			C134.1,103.5,149.4,109.4,165.5,113.5z"/>
		<path class="st0" d="M208.8,48.2c-4,4.4-11.3,8.9-12.9,13.1c-1.7,4.4-0.5,9.1-1.6,14.3c-2,8.9-9.1,17.2-15.4,24.5
			c-4.9,5.6-9.1,9.6-13.4,13.4c-16.1-4.1-31.4-10-31.4-10c-9.1-6.1-21-10.1-32.4-12.7c9.4-9.5,18.4-17.9,29.1-27.2
			c10.1-8.7,21.9-16.7,34.4-20.7c4.9-1.6,9.1,0.4,13.4-1.7c3.9-2,7.6-8.2,11.1-11.7c6.8-6.8,10.7-2.6,16.3,3.2
			C211.4,38.3,215.9,40.4,208.8,48.2z"/>
		<g>
			<circle class="st3" cx="98.3" cy="144" r="4.7"/>
			<path class="st4" d="M98.3,147.5c0-0.2,0.2-0.3,0.3-0.3c1.8-0.4,2.3-1.6,2.3-1.7c0.1-0.2,0.3-0.3,0.6-0.3
				c0.2,0.1,0.3,0.3,0.3,0.6c0,0.1-0.6,1.7-3,2.2c-0.2,0.1-0.5-0.1-0.5-0.3C98.3,147.6,98.3,147.5,98.3,147.5z"/>
		</g>
		<g>
			<circle class="st3" cx="123.6" cy="120.8" r="1.6"/>
			<path class="st4" d="M123.6,121.9c0-0.1,0.1-0.1,0.1-0.1c0.6-0.1,0.8-0.5,0.8-0.5c0-0.1,0.1-0.1,0.2-0.1c0.1,0,0.1,0.1,0.1,0.2
				c0,0-0.2,0.6-1,0.7C123.7,122.1,123.6,122.1,123.6,121.9C123.6,122,123.6,121.9,123.6,121.9z"/>
		</g>
		<g>
			<circle class="st3" cx="105.9" cy="125.7" r="2.6"/>
			<path class="st4" d="M105.9,127.6c0-0.1,0.1-0.2,0.2-0.2c1-0.2,1.3-0.9,1.3-0.9c0-0.1,0.2-0.2,0.3-0.1c0.1,0,0.2,0.2,0.1,0.3
				c0,0-0.4,0.9-1.7,1.2c-0.1,0-0.3-0.1-0.3-0.2C105.9,127.7,105.9,127.7,105.9,127.6z"/>
		</g>
	</g>
	<path class="st7" d="M201.2,20.9l16.5,15.7c2.4,2.3,2.5,6.2,0.2,8.6l-3.7,3.9c-2.3,2.4-6.2,2.5-8.6,0.2l-16.5-15.7
		c-2.4-2.3-2.5-6.2-0.2-8.6l3.7-3.9C194.9,18.7,198.7,18.6,201.2,20.9z"/>
</g>
</svg>
