<?xml version="1.0" encoding="utf-8"?>
<!-- Generator: Adobe Illustrator 22.0.0, SVG Export Plug-In . SVG Version: 6.00 Build 0)  -->
<svg version="1.1" id="图层_1" xmlns="http://www.w3.org/2000/svg" xmlns:xlink="http://www.w3.org/1999/xlink" x="0px" y="0px"
	 viewBox="0 0 216.6 201.6" style="enable-background:new 0 0 216.6 201.6;" xml:space="preserve">
<style type="text/css">
	.st0{opacity:0.8;fill:#DCDCDE;enable-background:new    ;}
</style>
<path class="st0" d="M8.1,51.9C0.9,68.3-3.2,91.8,3,112.3c5.9,19.2,16.5,38.3,30.4,54.1c8.5,9.7,23.1,15.2,33.5,21.6
	c12.6,7.7,26.4,12.3,40.5,12.5c20.3,0.3,37.7-6.8,57.3-15.9c13.7-6.4,23.8-17.4,27.5-22.5c4.1-5.6,14.6-22.9,19.5-33.8
	c7.5-16.9,4.1-40.4,4.6-56.3c0.4-13.2-1.9-25.3-7.5-34.8c-10.5-18-33.9-29.3-61.3-33.9c-23-3.9-48.8-3-72.1,2.5
	c-14.2,3.4-27.5,8.5-38.7,15.3C23.7,29.1,13.6,39.4,8.1,51.9z"/>
</svg>
