<?xml version="1.0" encoding="utf-8"?>
<!-- Generator: Adobe Illustrator 22.0.0, SVG Export Plug-In . SVG Version: 6.00 Build 0)  -->
<svg version="1.1" id="图层_1" xmlns="http://www.w3.org/2000/svg" xmlns:xlink="http://www.w3.org/1999/xlink" x="0px" y="0px"
	 viewBox="0 0 177.2 154.7" style="enable-background:new 0 0 177.2 154.7;" xml:space="preserve">
<style type="text/css">
	.st0{opacity:0.8;fill:#DCDCDE;enable-background:new    ;}
</style>
<path class="st0" d="M149.3,18.2c8.4,5.1,21.8,21.2,24.3,32.1c2.1,9.1,3.2,29.5,2.4,37.9c-0.9,8.8-3.9,16.4-8.5,23.6
	c-4.5,7.1-16.4,19.8-23.7,26c-6.4,5.4-25.9,12.2-40.5,15c-16.3,3.1-49.4-3.7-59.8-8.7c-10.9-5.3-28.8-26.1-33.7-36.5
	C4.1,95.5-1.3,67.8,4.6,53.3c7.2-17.5,32.9-42,54-48.6c18.6-5.8,40.8-3.8,50.2-2C120.9,5,142.1,13.8,149.3,18.2z"/>
</svg>
