<?xml version="1.0" encoding="utf-8"?>
<!-- Generator: Adobe Illustrator 22.0.0, SVG Export Plug-In . SVG Version: 6.00 Build 0)  -->
<svg version="1.1" id="图层_1" xmlns="http://www.w3.org/2000/svg" xmlns:xlink="http://www.w3.org/1999/xlink" x="0px" y="0px"
	 viewBox="0 0 107.4 75.5" style="enable-background:new 0 0 107.4 75.5;" xml:space="preserve">
<style type="text/css">
	.st0{opacity:0.6;fill:#6F8DA9;enable-background:new    ;}
</style>
<g>
	<polygon class="st0" points="60.3,33.9 67.8,42.1 69.3,33.6 	"/>
	<polygon class="st0" points="59.7,34 60.3,33.9 59.2,32.7 	"/>
	<polygon class="st0" points="37.6,37.3 53.2,28.6 52.6,28.2 31.7,28.9 	"/>
	<polygon class="st0" points="19.6,32.2 13.3,35.6 21.8,35.3 	"/>
	<polygon class="st0" points="12.2,16.2 14.4,19.3 35.3,18.6 22.9,10.3 	"/>
	<polygon class="st0" points="22.6,39.1 0.7,51 14.1,60.1 37.1,47.2 31.1,38.8 	"/>
	<polygon class="st0" points="50.4,51.7 62.8,41.1 59.7,34 46.5,34.4 	"/>
	<polygon class="st0" points="71.7,44.6 65.9,49.4 67.2,55.1 84.3,73.7 	"/>
	<polygon class="st0" points="41.5,0.2 46,20.5 59.2,20 58.6,18.7 	"/>
	<polygon class="st0" points="69.1,50 83.8,48.1 87.4,38.4 73.7,23.6 	"/>
	<polygon class="st0" points="103.6,25.5 88.1,26.1 86.6,34.5 100.3,49.4 107.7,29.6 	"/>
	<polygon class="st0" points="78.6,7.3 76.2,20.8 91.8,20.3 	"/>
	<polygon class="st0" points="53.6,73 55.1,71.9 38.8,48.8 38.7,65.3 	"/>
	<polygon class="st0" points="80.1,66.9 52.4,52 52.4,52.7 68.7,75.7 	"/>
</g>
</svg>
