<?xml version="1.0" encoding="utf-8"?>
<!-- Generator: Adobe Illustrator 22.0.0, SVG Export Plug-In . SVG Version: 6.00 Build 0)  -->
<svg version="1.1" id="图层_1" xmlns="http://www.w3.org/2000/svg" xmlns:xlink="http://www.w3.org/1999/xlink" x="0px" y="0px"
	 viewBox="0 0 33 33.9" style="enable-background:new 0 0 33 33.9;" xml:space="preserve">
<style type="text/css">
	.st0{opacity:0.6;fill:#6F8DA9;enable-background:new    ;}
</style>
<g>
	<polygon class="st0" points="20.6,17 20.9,19.7 22.4,18.3 	"/>
	<polygon class="st0" points="6.4,20.2 6.5,20.3 6.5,19.8 	"/>
	<polygon class="st0" points="11.7,19.4 16,20 15.9,19.9 11.8,16.9 	"/>
	<polygon class="st0" points="8.9,15.7 7.2,15.4 8.9,16.6 	"/>
	<polygon class="st0" points="9.9,11.5 9.9,12.4 14,15.4 12.9,12 	"/>
	<polygon class="st0" points="16.9,10.2 10.9,9.2 12.1,13 18.5,13.9 18.6,11.4 	"/>
	<polygon class="st0" points="20.9,19.8 24.9,19.6 25.4,17.7 22.8,15.8 	"/>
	<polygon class="st0" points="25.3,2.6 23.5,2.6 22.9,3.9 23.4,10.1 	"/>
	<polygon class="st0" points="18,12.8 15.8,17.4 18.4,19.3 18.5,19 	"/>
	<polygon class="st0" points="15.6,4.6 18.7,6.4 20.9,5.1 20.4,0.2 	"/>
	<polygon class="st0" points="27,11.8 24,9.6 22.4,11 22.8,15.9 27.2,13.2 	"/>
	<polygon class="st0" points="14.1,17.8 11.6,20.1 14.7,22.3 	"/>
	<polygon class="st0" points="9.7,24.2 10.1,24.2 10.4,17.3 7.9,20.5 	"/>
	<polygon class="st0" points="22.5,12 19.4,5 19.3,5.1 19,12 	"/>
	<polygon class="st0" points="9.8,25.1 10,27.9 11.6,26.4 	"/>
	<polygon class="st0" points="15.6,32.1 15.8,32.2 15.7,31.8 	"/>
	<polygon class="st0" points="10.8,29.5 15.2,30.1 15.1,29.9 11,26.9 	"/>
	<polygon class="st0" points="8.1,25.8 6.4,25.5 8.1,26.7 	"/>
	<polygon class="st0" points="16.1,24.8 16.1,25.7 20.3,28.7 19.1,25.3 	"/>
	<polygon class="st0" points="6,18.3 0,17.3 1.2,21.1 7.6,22.1 7.7,19.5 	"/>
	<polygon class="st0" points="10.1,27.9 14.1,27.7 14.5,25.9 11.9,24 	"/>
	<polygon class="st0" points="14.5,10.7 12.6,10.8 12,12.1 12.5,18.3 	"/>
	<polygon class="st0" points="7.1,20.9 5,25.5 7.6,27.4 7.7,27.1 	"/>
	<polygon class="st0" points="14.8,14.6 17.9,16.5 20.1,15.1 19.6,10.2 	"/>
	<polygon class="st0" points="32.5,20 29.4,17.7 27.8,19.2 28.3,24.1 32.7,21.4 	"/>
	<polygon class="st0" points="23.6,24.3 21.1,26.6 24.2,28.8 	"/>
	<polygon class="st0" points="8.9,34.3 9.3,34.3 9.6,27.4 7.1,30.6 	"/>
	<polygon class="st0" points="20.1,23.2 16.9,16.1 16.8,16.2 16.6,23.2 	"/>
</g>
</svg>
