<?xml version="1.0" encoding="utf-8"?>
<!-- Generator: Adobe Illustrator 22.0.0, SVG Export Plug-In . SVG Version: 6.00 Build 0)  -->
<svg version="1.1" id="圖層_1" xmlns="http://www.w3.org/2000/svg" xmlns:xlink="http://www.w3.org/1999/xlink" x="0px" y="0px"
	 viewBox="0 0 171 159" style="enable-background:new 0 0 171 159;" xml:space="preserve">
<style type="text/css">
	.st0{fill:#29CAE2;}
	.st1{opacity:0.8;fill:#DCDCDE;}
	.st2{fill:#6F8DA9;}
	.st3{opacity:0.99;fill:#404040;}
	.st4{fill:#D9E6E8;}
	.st5{fill:#F2F2F2;}
</style>
<g>
	<path class="st3" d="M23.2,24.6c-24.7,22.2-26,73.1-18.5,89.5c9.3,20.4,43.6,42,66.6,42c27.1,0,77.7-21.6,94.4-54.9
		c4.1-8.1,10.3-41-3.7-64.8c-12.4-21-35.7-36.8-69.7-35.9C67.7,1.1,41.7,8,23.2,24.6z"/>
	<g>
		<path class="st2" d="M138.1,90.8c-3.8-1.6-8.1,0.2-9.7,4c-0.1,0.2-0.1,0.4-0.2,0.6L96.9,82.5l31.4-13c0,0.1,0.1,0.2,0.1,0.3
			c1.6,3.8,5.9,5.6,9.7,4c3.8-1.6,5.6-5.9,4-9.7c-0.9-2.1-2.5-3.5-4.5-4.2c0.9-1.9,1-4.1,0.2-6.1c-1.6-3.8-5.9-5.6-9.7-4
			c-3.8,1.6-5.6,5.9-4,9.7c0.1,0.3,0.3,0.6,0.4,0.8L83.9,77.1L43.3,60.3c0.2-0.3,0.3-0.5,0.4-0.8c1.6-3.8-0.2-8.1-4-9.7
			c-3.8-1.6-8.1,0.2-9.7,4c-0.9,2.1-0.7,4.3,0.2,6.1c-1.9,0.7-3.6,2.1-4.5,4.2c-1.6,3.8,0.2,8.1,4,9.7c3.8,1.6,8.1-0.2,9.7-4
			c0-0.1,0.1-0.2,0.1-0.3l31.4,13L39.7,95.4c-0.1-0.2-0.1-0.4-0.2-0.6c-1.6-3.8-5.9-5.6-9.7-4c-3.8,1.6-5.6,5.9-4,9.7
			c0.9,2.1,2.5,3.5,4.5,4.2c-0.9,1.9-1,4.1-0.2,6.1c1.6,3.8,5.9,5.6,9.7,4c3.8-1.6,5.6-5.9,4-9.7c-0.1-0.2-0.2-0.4-0.3-0.6
			l40.5-16.7l40.5,16.7c-0.1,0.2-0.2,0.4-0.3,0.6c-1.6,3.8,0.2,8.1,4,9.7c3.8,1.6,8.1-0.2,9.7-4c0.9-2.1,0.7-4.3-0.2-6.1
			c1.9-0.7,3.6-2.1,4.5-4.2C143.7,96.8,141.9,92.4,138.1,90.8z"/>
		<g>
			<g>
				<path class="st2" d="M121,78.8c0-20.5-16.6-37.1-37.1-37.1c-20.5,0-37.1,16.6-37.1,37.1c0,8.5,2.9,16.4,7.8,22.7
					c-1,1.3-1.6,2.9-1.6,4.7c0,4.4,3.6,7.9,7.9,7.9c2,0,3.9-0.8,5.3-2.1v7.1c0,2.1,1.7,3.8,3.8,3.8h27.7c2.1,0,3.8-1.7,3.8-3.8v-7.1
					c1.4,1.3,3.3,2.1,5.3,2.1c4.4,0,7.9-3.6,7.9-7.9c0-1.8-0.6-3.4-1.6-4.7C118.1,95.2,121,87.3,121,78.8z"/>
				<g>
					<circle class="st4" cx="69.8" cy="88.5" r="10.6"/>
					<circle class="st4" cx="98" cy="88.5" r="10.6"/>
				</g>
			</g>
			<g>
				<path class="st4" d="M83.4,101.1l-1,6c0,0.2-0.2,0.3-0.4,0.3h-2.5c-0.3,0-0.5-0.3-0.4-0.5c0,0,1.4-4.2,2-6c0,0,0,0,0-0.1
					c0.1-0.1,0.2-0.2,0.3-0.2H83C83.2,100.7,83.4,100.9,83.4,101.1z"/>
				<path class="st4" d="M84.4,101.1l1,6c0,0.2,0.2,0.3,0.4,0.3h2.5c0.3,0,0.5-0.3,0.4-0.5c0,0-1.4-4.2-2-6c0,0,0,0,0-0.1
					c-0.1-0.1-0.2-0.2-0.3-0.2h-1.5C84.6,100.7,84.4,100.9,84.4,101.1z"/>
			</g>
		</g>
	</g>
</g>
</svg>
