<?xml version="1.0" encoding="utf-8"?>
<!-- Generator: Adobe Illustrator 22.0.0, SVG Export Plug-In . SVG Version: 6.00 Build 0)  -->
<svg version="1.1" id="圖層_1" xmlns="http://www.w3.org/2000/svg" xmlns:xlink="http://www.w3.org/1999/xlink" x="0px" y="0px"
	 viewBox="0 0 282 395" style="enable-background:new 0 0 282 395;" xml:space="preserve">
<style type="text/css">
	.st0{fill:#29CAE2;}
	.st1{opacity:0.8;fill:#DCDCDE;}
	.st2{fill:#6F8DA9;}
	.st3{opacity:0.99;fill:#404040;}
	.st4{fill:#D9E6E8;}
	.st5{fill:#F2F2F2;}
</style>
<path class="st1" d="M242.2,92.6c4,1.4,11.2,7.1,13.4,11.8c1.9,3.9,4.7,12.8,5.3,16.6c0.7,4,0.3,7.7-0.7,11.4
	c-1,3.6-4.3,10.5-6.5,14.1c-1.9,3.1-8.9,8.1-14.5,10.9c-6.2,3.1-20.2,3.5-24.9,2.4c-5-1.2-14.5-8.6-17.7-12.7
	c-3.7-4.8-9.1-16.6-8.4-23.6c0.8-8.5,8.3-22.1,15.9-27.3c6.7-4.5,15.9-6,19.8-6.2C229.3,89.7,238.8,91.4,242.2,92.6z"/>
<path class="st1" d="M50.5,204.3c1.5,5,1.6,10.7,0.2,16c-2.1,8-7.4,15.3-16,18.2c-8.5,2.9-17.2,0.6-23.8-4.2
	c-5.3-3.9-9.1-9.4-10.2-15.1c-0.9-4.4-0.1-8.9,1.9-13.1c2.4-5.3,6.7-10.1,11.7-13.5c6.3-4.4,13.9-6.5,20.4-4.9
	c2.7,0.7,4.9,1.9,6.9,3.4C47.8,196.1,50.4,203.9,50.5,204.3z"/>
<path class="st1" d="M253.2,370.1c1.1,3.4,1.1,7.4,0.2,11.1c-1.4,5.6-5.1,10.6-11.1,12.6c-5.9,2-11.9,0.4-16.5-2.9
	c-3.7-2.7-6.3-6.5-7.1-10.5c-0.6-3.1,0-6.2,1.3-9.1c1.7-3.7,4.6-7,8.1-9.3c4.4-3,9.6-4.5,14.2-3.4c1.8,0.5,3.4,1.3,4.7,2.4
	C251.3,364.4,253.1,369.7,253.2,370.1z"/>
<path class="st1" d="M166.5,12.8c0.9,2.8,0.9,6,0.1,9c-1.2,4.5-4.1,8.6-9,10.2c-4.8,1.6-9.7,0.3-13.3-2.4c-3-2.2-5.1-5.3-5.7-8.4
	c-0.5-2.5,0-5,1-7.3c1.4-3,3.7-5.6,6.5-7.6c3.5-2.4,7.8-3.7,11.4-2.7c1.5,0.4,2.8,1.1,3.8,1.9C165,8.2,166.4,12.5,166.5,12.8z"/>
<path class="st1" d="M134.2,216.6c-24.7,22.2-26,73.1-18.5,89.5c9.3,20.4,43.6,42,66.6,42c27.1,0,77.7-21.6,94.4-54.9
	c4.1-8.1,10.3-41-3.7-64.8c-12.4-21-35.7-36.8-69.7-35.9C178.7,193.1,152.7,200,134.2,216.6z"/>
</svg>
