<?xml version="1.0" encoding="utf-8"?>
<!-- Generator: Adobe Illustrator 22.0.0, SVG Export Plug-In . SVG Version: 6.00 Build 0)  -->
<svg version="1.1" id="圖層_1" xmlns="http://www.w3.org/2000/svg" xmlns:xlink="http://www.w3.org/1999/xlink" x="0px" y="0px"
	 viewBox="0 0 54.3 121.7" style="enable-background:new 0 0 54.3 121.7;" xml:space="preserve">
<style type="text/css">
	.st0{fill:#29CAE2;}
	.st1{opacity:0.8;fill:#DCDCDE;}
	.st2{fill:#6F8DA9;}
	.st3{opacity:0.99;fill:#404040;}
	.st4{fill:#D9E6E8;}
	.st5{fill:#F2F2F2;}
</style>
<g>
	<path class="st1" d="M51,44.9c0.3,0.9,0.3,1.9,0,2.9c-0.4,1.4-1.3,2.8-2.9,3.3c-1.5,0.5-3.1,0.1-4.3-0.8c-0.9-0.7-1.6-1.7-1.8-2.7
		c-0.2-0.8,0-1.6,0.3-2.4c0.4-1,1.2-1.8,2.1-2.4c1.1-0.8,2.5-1.2,3.7-0.9c0.5,0.1,0.9,0.3,1.2,0.6C50.5,43.5,51,44.9,51,44.9z"/>
	<path class="st1" d="M16.8,63.9c0.5,1.6,0.5,3.4,0.1,5.2c-0.7,2.6-2.4,4.9-5.2,5.9c-2.7,0.9-5.6,0.2-7.7-1.4
		c-1.7-1.3-2.9-3-3.3-4.9c-0.3-1.4,0-2.9,0.6-4.2c0.8-1.7,2.2-3.2,3.8-4.4c2-1.4,4.5-2.1,6.6-1.6c0.9,0.2,1.6,0.6,2.2,1.1
		C15.9,61.2,16.7,63.7,16.8,63.9z"/>
	<path class="st1" d="M31.1,4.6c0.2,0.6,0.2,1.4,0,2.1c-0.3,1-1,2-2.1,2.4C28,9.4,26.8,9.1,26,8.5c-0.7-0.5-1.2-1.2-1.3-2
		c-0.1-0.6,0-1.2,0.2-1.7c0.3-0.7,0.9-1.3,1.5-1.7c0.8-0.6,1.8-0.8,2.7-0.6c0.3,0.1,0.6,0.2,0.9,0.4C30.8,3.5,31.1,4.5,31.1,4.6z"/>
	<g>
		<path class="st1" d="M14.6,87.3c-6.4,5.8-6.7,18.9-4.8,23.2c2.4,5.3,11.3,10.9,17.3,10.9c7,0,20.1-5.6,24.4-14.2
			c1.1-2.1,2.7-10.6-1-16.8c-3.2-5.4-9.2-9.5-18-9.3C26.1,81.2,19.4,83,14.6,87.3z"/>
		<polygon class="st2" points="32.6,95.3 30.7,94.6 25.9,101.1 25.9,101.1 25.9,101.1 30.7,107.6 32.6,106.9 28.4,101.1 		"/>
	</g>
</g>
</svg>
