<?xml version="1.0" encoding="utf-8"?>
<!-- Generator: Adobe Illustrator 22.0.0, SVG Export Plug-In . SVG Version: 6.00 Build 0)  -->
<svg version="1.1" id="圖層_1" xmlns="http://www.w3.org/2000/svg" xmlns:xlink="http://www.w3.org/1999/xlink" x="0px" y="0px"
	 viewBox="0 0 1366 768" style="enable-background:new 0 0 1366 768;" xml:space="preserve">
<style type="text/css">
	.st0{fill:#29CAE2;}
	.st1{opacity:0.8;fill:#DCDCDE;}
	.st2{fill:#6F8DA9;}
	.st3{opacity:0.99;fill:#404040;}
	.st4{fill:#D9E6E8;}
	.st5{fill:#F2F2F2;}
</style>
<g>
	<path d="M780.5,539.3c0.5-1.3,1.9-2,3.2-1.5l0,0c9.3,3.5,9.1,3.4,6,12.7c-0.8,2.2-0.5,5.5,0.6,7.6c5.9,11.9,4.9,23-2.9,33.6
		c-8.4,11.3-12.6,24.2-15,37.9c-1,5.9-2,12-4.1,17.6c-3.6,9.7-12,10.8-19.3,3.5c-1.9-1.9-5.5-3.2-8.3-3c-10,0.6-15.4-5.7-12-15.2
		c1.5-4.2,3.2-8.7,6.1-12.1c7.1-8.3,10.4-18.3,14.1-28.2c1.5-4,2.2-8.4,2.7-12.6c1.4-13.9,7.8-23.7,21.4-28.5
		c1.8-0.6,3.6-2.5,4.5-4.3C778.7,544.6,779.6,542,780.5,539.3z"/>
	<path d="M806,698.9h-78.3v-22H791c2.2,0,4-1.8,4-4v-5.7c0-2.2-1.8-4-4-4h-63.3v-10.8c0-2.2-1.8-4-4-4h-12.6c-2.2,0-4,1.8-4,4v10.8
		h-63.3c-2.2,0-4,1.8-4,4v5.7c0,2.2,1.8,4,4,4h63.3v22H629c-2.2,0-4,1.8-4,4v5.7c0,2.2,1.8,4,4,4h82.2h12.6H806c2.2,0,4-1.8,4-4
		v-5.7C810,700.7,808.2,698.9,806,698.9z"/>
	<path d="M716.5,558.7h-15.4l3.1-2c0.8-0.5,1.3-1.2,1.6-2.1l3.5-10.6c0.8-2.6-1.1-5.2-3.8-5.2h-8.9c-2,0-3.7,1.5-3.9,3.5l0,0.2
		c-0.1,0.9-0.5,1.8-1.2,2.4c-2.2,2.1-7.3,6.8-7.2,7.2c0.1,0.2,0.1,3.4,0.1,6.5h-13.8c0-3.1,0-6.3,0.1-6.5c0.1-0.4-4.9-5.1-7.2-7.2
		c-0.7-0.6-1.1-1.5-1.2-2.4l0-0.2c-0.2-2-1.9-3.5-3.9-3.5h-8.9c-2.7,0-4.6,2.6-3.8,5.2l3.5,10.6c0.3,0.9,0.9,1.6,1.6,2.1l3.1,2
		h-20.9c-2.2,0-4,1.8-4,4v5.7c0,2.2,1.8,4,4,4h34.3l-3.5,36.9h-7.9v-19c0-2-1.6-3.6-3.6-3.6h-13.3c-2,0-3.6,1.6-3.6,3.6v22.6
		c0,1,0.4,1.9,1.1,2.5l6.5,6.5c0.7,0.7,1.6,1.1,2.5,1.1h6.9h10.2l-1,10c-0.2,1.7-1.4,3.1-3,3.5l-11.5,2.8c-1.8,0.4-3,2-3,3.9
		l0.1,8.5c0,2.2,1.8,3.9,4,3.9h26.2c2,0,3.7-1.5,3.9-3.5l3.6-29.1h18.7h12.6h0.4c2,0,3.6-1.6,3.6-3.6v-0.4c0,0,0,0,0,0v-28.3
		c0-2.2-1.8-4-4-4h-12.6c-2.2,0-4,1.8-4,4v18.6h-13l4.6-36.9h28.6c2.2,0,4-1.8,4-4v-5.7C720.5,560.5,718.7,558.7,716.5,558.7z"/>
</g>
<g>
	<path d="M574,616.3h-44.9l2.8-1.8c0.7-0.5,1.3-1.2,1.5-2l3.4-10.1c0.2-0.7,0.2-1.5,0-2.2h24.9c2.1,0,3.8-1.7,3.8-3.8v-5.4
		c0-2.1-1.7-3.8-3.8-3.8H479c-2.1,0-3.8,1.7-3.8,3.8v5.4c0,2.1,1.7,3.8,3.8,3.8h42c0,0.2-0.1,0.4-0.1,0.5l0,0.2
		c-0.1,0.9-0.5,1.7-1.2,2.3c-2.1,2-7,6.5-6.8,6.9c0.1,0.2,0.1,3.2,0.1,6.2h-31.7c-2.1,0-3.8,1.7-3.8,3.8v0v5.4v77.9v5.4v0.1
		c0,2.1,1.7,3.8,3.8,3.8h12c0.2,0,0.4,0,0.6-0.1h67.5c0.2,0,0.4,0.1,0.6,0.1h12c2.1,0,3.8-1.7,3.8-3.8v-0.1v-5.4v-77.9v-5.4v0
		C577.8,618,576.1,616.3,574,616.3z M558.2,629.3v32.4c-2.6-0.3-4.9-0.1-5.1-0.3c-1.2-0.9-15.2-8.5-21.2-11
		c-4.5-1.9-9.3-2.9-14.3-2.5c-3.7,0.3-7.1,1.3-10.4,2.9c-0.9,0.4-1.6,0.6-2.3,0c-2.2-2-4.2-2.7-7.8-3.1c0,0-0.1,0-0.1,0v-18.4H558.2
		z M558.2,664.8c-1.1-0.3-2.4-0.6-3.1-1.1c0.9,0,2,0.2,3.1,0.4V664.8z M497.1,654.9c2.2,1.3,4.7,2.3,6.6,3.1c3,1.2,2.9,4.8,0.1,6.5
		c-2.3,1.3-3.4,3.3-3,5.9c0.2,1.7,0.6,3.4,1.1,5.1c2.1,6.6,7.3,16.8,8.4,16.7c2.3-0.3-1-6.3-0.6-8c1.4-5.4-2.5-15.5-1.4-16.3
		c0.4-0.3,3.6,3.3,4.9,4.2c4.4,3.2,11.3,2.9,15.6,1.8c1.7-0.4,6.5-1.9,9.9-3c1.8,2.7,3.8,5.8,6,8.8c1,1.4,2.2,2.9,3.6,3.9
		c0.8,0.6,4,1.4,4.2-4.2c0.1-4.2,0.8-7.4-5.9-11.6c-0.4-0.3-0.5-0.4-0.9-0.7c0-0.1,2.1-0.4,3-0.5c1.6-0.2,6.9-0.3,9.7-0.5v33.6
		h-61.2V654.9z"/>
	<path d="M583.8,557.5h-0.3h-11.7h-56.3c0-0.7-0.1-1.4-0.5-2.1L509,545c-0.7-1.2-1.9-1.9-3.3-1.9h-13.9c-2.9,0-4.7,3.2-3.3,5.7
		l5.1,8.8h-54.7h-12c-2.1,0-3.8,1.7-3.8,3.8v5.4v30c0,2.1,1.7,3.8,3.8,3.8h12c2.1,0,3.8-1.7,3.8-3.8v-26.2H568v26.2
		c0,2.1,1.7,3.8,3.8,3.8h12c2.1,0,3.8-1.7,3.8-3.8v-35.5C587.6,559.2,585.9,557.5,583.8,557.5z"/>
	<path d="M468.3,587.1h-13.3c-1.5,0-2.8,0.9-3.4,2.2l-30.1,64.1c-0.6,1.3-2,2.2-3.4,2.2h-0.7c-2.1,0-3.8,1.7-3.8,3.8v5.4
		c0,2.1,1.7,3.8,3.8,3.8h16.5c1.5,0,2.8-0.9,3.4-2.2l3-6.5v48.3c0,2.1,1.7,3.8,3.8,3.8h12c2.1,0,3.8-1.7,3.8-3.8v-88.2
		c0-0.6-0.1-1.1-0.3-1.5l12.1-26C473,590,471.1,587.1,468.3,587.1z"/>
</g>
<path class="st0" d="M574.6,268.7c-1-0.5-2.1-1-3.2-1.4c-3.7-1.4-7.7-2.1-11.8-2.1c-4.3,0-8.5,0.8-12.3,2.3
	c-2.6-13.6-9.2-25.9-18.5-35.7c-1-1.1-2.1-2.1-3.1-3.1c0,0,0,0-0.1,0c-6-5.2-13.9-8.3-22.5-8.3c-1.7,0-3.4,0.1-5.1,0.4c0,0,0,0,0,0
	c-2.6,0.5-5.1,1.2-7.6,2c-0.3,0.1-0.6,0.2-0.9,0.3c5.2-6,9-13,11-20.8c0.4-1.4,0.7-2.7,0.9-4.1c0-1.3,0.2-2.6,0.5-3.8
	c0.4-1.7,1.1-3.3,2-4.8c0.7-1.1,1.4-2.1,2.3-3c2.6-3.6,4.7-7.5,6.3-11.6c0.1-0.2,0.1-0.3,0.2-0.5v0c0-0.1,0-0.3,0-0.4
	c0-1.1-0.9-2-2.1-2c-0.1,0-0.1,0-0.2,0c-0.1,0-0.2,0-0.4,0.1h0c-3,0.5-5.7,1.7-8,3.4c-0.5,0.4-1,0.8-1.5,1.2l0,0
	c0,0-0.1,0.1-0.1,0.1c0,0,0,0,0,0c-9.3,7.9-16.6,18-21.1,29.4c-3,7.7-4.7,16-4.9,24.7c-2.3,1.7-4.6,3.6-6.6,5.6
	c-1.9-1.8-4-3.5-6.1-5.1c-2.2-1.7-4.4-3.2-6.8-4.7c-1.2-0.9-2.6-1.7-4-2.3c-0.8-0.4-1.7-0.7-2.6-1c-0.4-1.4-1.7-2.4-3.2-2.4
	c-1.1,0-2.1,0.5-2.7,1.3c-0.6,0-1.2-0.1-1.8-0.1h-0.1c0,0,0,0-0.1,0c-1.9,0-3.5,1.5-3.5,3.4c0,0.2,0,0.4,0.1,0.6
	c0,0.1,0,0.2,0.1,0.2c0.4,1.7,1.2,3.4,2.2,4.8c0.1,0.1,0.2,0.3,0.3,0.5c3.4,4.4,7.3,8.4,11.5,12c3,2.1,6.2,3.9,9.5,5.6
	c-1.1,3.5-1.8,7.2-2.2,11c-6.3,1.3-12.3,3.4-17.9,6.1c-11.6,5.8-21.3,14.7-28,25.4c-0.6,1-1.3,2.1-1.8,3.2c0,0,0,0,0,0
	c-0.1,0.2-0.2,0.4-0.4,0.7c-0.2,0.4-0.3,0.9-0.3,1.3c0,2,1.7,3.6,3.8,3.6c0.3,0,0.7,0,1-0.1c0.6-0.3,1.2-0.7,1.8-1
	c3.2-1.9,6.2-4.2,8.9-6.7c0.3-0.4,0.7-0.8,1.1-1.1c0.8-0.6,1.7-1.1,2.6-1.3c0.1,0,0.2-0.1,0.3-0.1c11.7-3,21.9-9.7,29-18.7
	c1.6,12.9,7.7,24.4,16.8,33c8.8,5.3,19.3,8.4,30.5,8.4c2.8,0,5.6-0.2,8.3-0.6c2.6,4,4.4,8.5,5.3,13.3c0.1,0.2,0.1,0.5,0.1,0.7
	c0.8,3.5,4.1,6.1,8,6.1c3.1,0,5.9-1.7,7.3-4.2c0.3-0.7,0.6-1.5,0.8-2.2c0.8-2.5,1.2-5.3,1.2-8.1c0-4.4-1.1-8.5-2.9-12.2
	c1.8-1,3.5-2,5.2-3.1c0.8-0.5,1.5-1,2.2-1.6c0,0,0,0,0,0c2.7-2.2,4.7-5.2,5.7-8.6c0.3-1.7,0.5-3.4,0.7-5.2v0c0.2-2,0.3-3.9,0.3-6
	c1.2,1,2.5,1.9,3.8,2.7c0,0,0,0,0,0c0.6,0.3,1.1,0.7,1.7,1c0.8,0.3,1.6,0.5,2.5,0.5c0.1,0,0.3,0,0.4,0c0.6-0.1,1.2-0.2,1.8-0.4
	c5.3-1.1,10.2-3.1,14.7-5.8c0,0,0.1,0,0.1,0c0.2-0.1,0.4-0.2,0.6-0.4c1.7-1.2,2.8-3.1,2.8-5.2C577,271.6,576.1,269.8,574.6,268.7z"
	/>
<g>
	<path d="M829.7,207.2h-18.2h-11.7c-1.2,0-2.1,1-2.1,2.1v7.1v12.4v9.2v12.4v9.2v8.6c0,0.9-0.6,1.7-1.4,2l0,0c-0.8,0.3-1.4,1.1-1.4,2
		v5.6c0,1.2,1,2.1,2.1,2.1h0.7h11.7c1.2,0,2.1-1,2.1-2.1v-7.1v-9c0-1.2,1-2.1,2.1-2.1h14c1.2,0,2.1,1,2.1,2.1v6.5
		c0,0.9-0.6,1.7-1.4,2l0,0c-0.8,0.3-1.4,1.1-1.4,2v5.6c0,1.2,1,2.1,2.1,2.1h0.7h11.7c1.2,0,2.1-1,2.1-2.1v-7.1v-11.1v-9.2V238v-9.2
		v-12.4v-7.1c0-1.2-1-2.1-2.1-2.1H829.7z M827.6,250.4h-14c-1.2,0-2.1-1-2.1-2.1v-8.1c0-1.2,1-2.1,2.1-2.1h14c1.2,0,2.1,1,2.1,2.1
		v8.1C829.7,249.5,828.8,250.4,827.6,250.4z M827.6,228.8h-14c-1.2,0-2.1-1-2.1-2.1v-8.1c0-1.2,1-2.1,2.1-2.1h14
		c1.2,0,2.1,1,2.1,2.1v8.1C829.7,227.9,828.8,228.8,827.6,228.8z"/>
	<path d="M848.3,313.6h-50.2c-1.5,0-2.7-1.2-2.7-2.7v-8.4c0-1.5,1.2-2.7,2.7-2.7h40.1c1.5,0,2.7-1.2,2.7-2.7v-3.8
		c0-1.5-1.2-2.7-2.7-2.7h-40.1c-1.5,0-2.7-1.2-2.7-2.7v-5.7c0-1.5-1.2-2.7-2.7-2.7h-8.5c-1.5,0-2.7,1.2-2.7,2.7v5.7
		c0,1.5-1.2,2.7-2.7,2.7h-40.1c-1.5,0-2.7,1.2-2.7,2.7v3.8c0,1.5,1.2,2.7,2.7,2.7h40.1c1.5,0,2.7,1.2,2.7,2.7v8.4
		c0,1.5-1.2,2.7-2.7,2.7h-50.2c-1.5,0-2.7,1.2-2.7,2.7v3.8c0,1.5,1.2,2.7,2.7,2.7h55.6h8.5h55.6c1.5,0,2.7-1.2,2.7-2.7v-3.8
		C851,314.8,849.8,313.6,848.3,313.6z"/>
	<path d="M787.7,218.9h-10.3l2.1-1.3c0.5-0.3,0.9-0.9,1.1-1.5l2.3-7c0.6-1.8-0.8-3.7-2.7-3.7h-5.7c-1.4,0-2.6,1.1-2.8,2.5l0,0
		c-0.1,0.6-0.4,1.2-0.8,1.7c-1.5,1.4-4.9,4.6-4.8,4.9c0,0.1,0.1,2,0,3.9c0,0.3-0.2,0.5-0.5,0.5h-8.3c-0.3,0-0.5-0.2-0.5-0.5
		c0-1.9,0-3.8,0-3.9c0.1-0.2-3.3-3.4-4.8-4.8c-0.5-0.5-0.8-1.1-0.9-1.7l0,0c-0.2-1.4-1.4-2.5-2.8-2.5h-5.7c-1.9,0-3.3,1.9-2.7,3.7
		l2.3,7c0.2,0.6,0.6,1.1,1.1,1.5l2.1,1.3h-14c-1.6,0-2.8,1.3-2.8,2.8v3.6c0,1.6,1.3,2.8,2.8,2.8h22.9c0.1,0,0.1,0.1,0.1,0.1
		l-2.4,24.7c0,0.1-0.1,0.1-0.1,0.1h-4.3c-0.5,0-0.9-0.4-0.9-0.9v-11.8c0-1.4-1.1-2.6-2.6-2.6h-8.7c-1.4,0-2.6,1.1-2.6,2.6v15.1
		c0,0.7,0.3,1.3,0.7,1.8l4.3,4.3c0.5,0.5,1.1,0.7,1.8,0.7h4.6h6.8c0.1,0,0.1,0.1,0.1,0.1l-0.6,6.5c-0.1,1.2-1,2.2-2.1,2.5l-7.6,1.8
		c-1.3,0.3-2.2,1.4-2.1,2.8l0,5.5c0,1.5,1.3,2.8,2.8,2.8H759c1.4,0,2.6-1.1,2.8-2.5l2.4-19.5c0-0.1,0.1-0.1,0.1-0.1h12.5h8.5h0.1
		c1.4,0,2.6-1.1,2.6-2.6v-0.1v-4.1v-14.9c0-1.6-1.3-2.8-2.8-2.8H777c-1.6,0-2.8,1.3-2.8,2.8v11.5c0,0.5-0.4,0.9-0.9,0.9h-7.7
		c-0.1,0-0.1-0.1-0.1-0.1l3.1-24.7c0-0.1,0.1-0.1,0.1-0.1h19.1c1.6,0,2.8-1.3,2.8-2.8v-3.6C790.5,220.2,789.2,218.9,787.7,218.9z"/>
</g>
<g>
	<path d="M695.5,265.5l-4,0c-0.7,0-1.3,0.3-1.6,0.9l-0.8,1.2c-0.4,0.7-1.4,0.7-1.8,0l-0.8-1.2c-0.4-0.6-1-0.9-1.6-0.9l-4,0
		c-1.6,0-2.5,1.7-1.7,3.1l4,6.2c0.4,0.7,0.4,1.5,0,2.2l-4,6.2c-0.9,1.3,0.1,3.1,1.7,3.1h4c0.7,0,1.3-0.3,1.7-0.9l0.9-1.3
		c0.4-0.7,1.4-0.7,1.8,0l0.9,1.3c0.4,0.6,1,0.9,1.7,0.9h4c1.6,0,2.5-1.7,1.7-3.1l-4-6.2c-0.4-0.7-0.4-1.5,0-2.2l4-6.2
		C698,267.3,697.1,265.5,695.5,265.5z"/>
	<path d="M712.2,252.2h-9.5h-25c-0.9,0-1.6-0.7-1.6-1.6v-8.4c0-0.9,0.7-1.6,1.6-1.6h18.7h8.5h1c0.9,0,1.6-0.7,1.6-1.6v-24.7
		c0-0.9-0.7-1.6-1.6-1.6h-1.1h-8.4h-38c-1.4,0-2.2-1.7-1.2-2.7l1.8-2c0.9-1.1,0.2-2.7-1.2-2.7H644c-0.8,0-1.5,0.3-2,0.9
		c0,0-3.9,4.4-5.2,6c-0.3,0.4-0.8,0.6-1.2,0.6l-18.4,0h-8.3h-1.2c-0.9,0-1.6,0.7-1.6,1.6v24.7c0,0.9,0.7,1.6,1.6,1.6h1.2h8.3h20.9
		c0.9,0,1.6,0.7,1.6,1.6v13.4c0,0.9-0.7,1.6-1.6,1.6H636c-0.9,0-1.6-0.7-1.6-1.6v-1.8v-7.6c0-0.9-0.7-1.6-1.6-1.6h-12.2h-18.3
		c-0.9,0-1.6,0.7-1.6,1.6v5.9c0,0.9,0.7,1.6,1.6,1.6h16.6c0.9,0,1.6,0.7,1.6,1.6v0.1c0,0.9-0.7,1.6-1.6,1.6h-20.7
		c-0.9,0-1.6,0.7-1.6,1.6v5.9c0,0.9,0.7,1.6,1.6,1.6H619c0.8,0,1.5,0.7,1.5,1.5c0,0.8-0.7,1.5-1.5,1.5h-16.8c-0.9,0-1.6,0.7-1.6,1.6
		v5.9c0,0.9,0.7,1.6,1.6,1.6h18.3h12.2c0.9,0,1.6-0.7,1.6-1.6v-7.6V268c0-0.9,0.7-1.6,1.6-1.6h2.1c0.9,0,1.6,0.7,1.6,1.6v25.6
		c0,0.9-0.7,1.6-1.6,1.6H636c-0.9,0-1.6-0.7-1.6-1.6V292v-7.6c0-0.9-0.7-1.6-1.6-1.6h-12.2h-18.3c-0.9,0-1.6,0.7-1.6,1.6v5.9
		c0,0.9,0.7,1.6,1.6,1.6h16.6c0.9,0,1.6,0.7,1.6,1.6l0,0c0,0.9-0.7,1.6-1.6,1.6h-20.7c-0.9,0-1.6,0.7-1.6,1.6v5.9
		c0,0.9,0.7,1.6,1.6,1.6H619c0.8,0,1.5,0.7,1.5,1.5c0,0.8-0.7,1.5-1.5,1.5h-16.8c-0.9,0-1.6,0.7-1.6,1.6v5.9c0,0.9,0.7,1.6,1.6,1.6
		h18.3h12.2c0.9,0,1.6-0.7,1.6-1.6v-7.6v-1.4c0-0.9,0.7-1.6,1.6-1.6h2.1c0.9,0,1.6,0.7,1.6,1.6v9.6l0,0c0,0,0,0,0,0
		c0,0.4,0.2,0.7,0.4,1l6.1,6.1c0.3,0.3,0.7,0.5,1.2,0.5h64.8c0.9,0,1.6-0.7,1.6-1.6v-5.9c0-0.9-0.7-1.6-1.6-1.6h-34.6
		c-0.9,0-1.6-0.7-1.6-1.6v-10.1c0-0.9,0.7-1.6,1.6-1.6h25h9.5c0.9,0,1.6-0.7,1.6-1.6v-4.9v-35.4v-4.9
		C713.9,253,713.2,252.2,712.2,252.2z M660.5,314h-5.3c-0.9,0-1.6-0.7-1.6-1.6v-74.6V234v-1c0-0.9-0.7-1.6-1.6-1.6h-1h-9h-20.4
		c-0.9,0-1.6-0.7-1.6-1.6v-6.3c0-0.9,0.7-1.6,1.6-1.6h70.6c0.9,0,1.6,0.7,1.6,1.6v6.3c0,0.9-0.7,1.6-1.6,1.6h-18.7h-8.5
		c-0.9,0-1.7,0.5-2.2,1.2c-0.3,0.4-0.5,0.9-0.5,1.5v3.8v74.6C662.2,313.3,661.4,314,660.5,314z M698.4,291.5h-20.7
		c-0.9,0-1.6-0.7-1.6-1.6v-26.8c0-0.9,0.7-1.6,1.6-1.6h20.7c0.9,0,1.6,0.7,1.6,1.6v26.8C700,290.8,699.3,291.5,698.4,291.5z"/>
</g>
</svg>
