<?xml version="1.0" encoding="utf-8"?>
<!-- Generator: Adobe Illustrator 22.0.0, SVG Export Plug-In . SVG Version: 6.00 Build 0)  -->
<svg version="1.1" id="图层_1" xmlns="http://www.w3.org/2000/svg" xmlns:xlink="http://www.w3.org/1999/xlink" x="0px" y="0px"
	 viewBox="0 0 132 91" style="enable-background:new 0 0 132 91;" xml:space="preserve">
<style type="text/css">
	.st0{opacity:0.8;fill:#DCDCDE;}
	.st1{opacity:0.6;fill:#6F8DA9;}
	.st2{opacity:0.99;fill:#404040;}
	.st3{fill:#6F8DA9;}
	.st4{fill:#D9E6E8;}
	.st5{fill:#F2F2F2;}
</style>
<g>
	<path class="st3" d="M121.7,56.2c-3.8-1.6-8.1,0.2-9.7,4c-0.1,0.2-0.1,0.4-0.2,0.6L80.5,47.8l31.4-13c0,0.1,0.1,0.2,0.1,0.3
		c1.6,3.8,5.9,5.6,9.7,4c3.8-1.6,5.6-5.9,4-9.7c-0.9-2.1-2.5-3.5-4.5-4.2c0.9-1.9,1-4.1,0.2-6.1c-1.6-3.8-5.9-5.6-9.7-4
		c-3.8,1.6-5.6,5.9-4,9.7c0.1,0.3,0.3,0.6,0.4,0.8L67.5,42.5L26.9,25.7c0.2-0.3,0.3-0.5,0.4-0.8c1.6-3.8-0.2-8.1-4-9.7
		s-8.1,0.2-9.7,4c-0.9,2.1-0.7,4.3,0.2,6.1c-1.9,0.7-3.6,2.1-4.5,4.2c-1.6,3.8,0.2,8.1,4,9.7c3.8,1.6,8.1-0.2,9.7-4
		c0-0.1,0.1-0.2,0.1-0.3l31.4,13L23.3,60.8c-0.1-0.2-0.1-0.4-0.2-0.6c-1.6-3.8-5.9-5.6-9.7-4c-3.8,1.6-5.6,5.9-4,9.7
		c0.9,2.1,2.5,3.5,4.5,4.2c-0.9,1.9-1,4.1-0.2,6.1c1.6,3.8,5.9,5.6,9.7,4c3.8-1.6,5.6-5.9,4-9.7c-0.1-0.2-0.2-0.4-0.3-0.6l40.5-16.7
		L108,69.9c-0.1,0.2-0.2,0.4-0.3,0.6c-1.6,3.8,0.2,8.1,4,9.7c3.8,1.6,8.1-0.2,9.7-4c0.9-2.1,0.7-4.3-0.2-6.1
		c1.9-0.7,3.6-2.1,4.5-4.2C127.3,62.1,125.5,57.7,121.7,56.2z"/>
	<g>
		<g>
			<path class="st3" d="M104.6,44.1C104.6,23.6,88,7,67.5,7C47,7,30.4,23.6,30.4,44.1c0,8.5,2.9,16.4,7.8,22.7
				c-1,1.3-1.6,2.9-1.6,4.7c0,4.4,3.6,7.9,7.9,7.9c2,0,3.9-0.8,5.3-2.1v7.1c0,2.1,1.7,3.8,3.8,3.8h27.7c2.1,0,3.8-1.7,3.8-3.8v-7.1
				c1.4,1.3,3.3,2.1,5.3,2.1c4.4,0,7.9-3.6,7.9-7.9c0-1.8-0.6-3.4-1.6-4.7C101.7,60.5,104.6,52.7,104.6,44.1z"/>
			<g>
				<circle class="st4" cx="53.4" cy="53.9" r="10.6"/>
				<circle class="st4" cx="81.7" cy="53.9" r="10.6"/>
			</g>
		</g>
		<g>
			<path class="st4" d="M67,66.5l-1,6c0,0.2-0.2,0.3-0.4,0.3h-2.5c-0.3,0-0.5-0.3-0.4-0.5c0,0,1.4-4.2,2-6c0,0,0,0,0-0.1
				c0.1-0.1,0.2-0.2,0.3-0.2h1.5C66.9,66,67,66.2,67,66.5z"/>
			<path class="st4" d="M68.1,66.5l1,6c0,0.2,0.2,0.3,0.4,0.3h2.5c0.3,0,0.5-0.3,0.4-0.5c0,0-1.4-4.2-2-6c0,0,0,0,0-0.1
				C70.2,66.1,70.1,66,70,66h-1.5C68.2,66,68,66.2,68.1,66.5z"/>
		</g>
	</g>
</g>
</svg>
