<?xml version="1.0" encoding="utf-8"?>
<!-- Generator: Adobe Illustrator 22.0.0, SVG Export Plug-In . SVG Version: 6.00 Build 0)  -->
<svg version="1.1" id="图层_1" xmlns="http://www.w3.org/2000/svg" xmlns:xlink="http://www.w3.org/1999/xlink" x="0px" y="0px"
	 viewBox="0 0 75.6 74.4" style="enable-background:new 0 0 75.6 74.4;" xml:space="preserve">
<style type="text/css">
	.st0{opacity:0.8;fill:#DCDCDE;enable-background:new    ;}
</style>
<path class="st0" d="M54.7,4.3c4,1.4,11.2,7.1,13.4,11.8c1.9,3.9,4.7,12.8,5.3,16.6c0.7,4,0.3,7.7-0.7,11.4
	c-1,3.6-4.3,10.5-6.5,14.1c-1.9,3.1-8.9,8.1-14.5,10.9c-6.2,3.1-20.2,3.5-24.9,2.4c-5-1.2-14.5-8.6-17.7-12.7
	C5.4,54,0,42.2,0.7,35.2C1.5,26.7,9,13.1,16.6,7.9c6.7-4.5,15.9-6,19.8-6.2C41.8,1.4,51.3,3.1,54.7,4.3z"/>
</svg>
