<?xml version="1.0" encoding="utf-8"?>
<!-- Generator: Adobe Illustrator 23.0.0, SVG Export Plug-In . SVG Version: 6.00 Build 0)  -->
<svg version="1.1" id="图层_1" xmlns="http://www.w3.org/2000/svg" xmlns:xlink="http://www.w3.org/1999/xlink" x="0px" y="0px"
	 viewBox="0 0 70 68" style="enable-background:new 0 0 70 68;" xml:space="preserve">
<style type="text/css">
	.st0{fill:#FFFFFF;}
	.st1{fill:#6F8DA9;}
</style>
<path class="st0" d="M51.64,2.67c3.74,1.32,10.57,6.8,12.71,11.2c1.79,3.67,4.46,12.18,5.06,15.84c0.62,3.84,0.32,7.33-0.64,10.83
	c-0.94,3.44-4.02,10.02-6.1,13.39c-1.81,2.92-8.44,7.75-13.67,10.39c-5.82,2.93-19.08,3.37-23.55,2.27
	c-4.68-1.14-13.73-8.19-16.74-12.12C5.23,49.93,0.13,38.7,0.79,31.99c0.8-8.12,7.81-21.06,15.08-25.97
	c6.38-4.3,14.98-5.68,18.74-5.86C39.47-0.07,48.45,1.54,51.64,2.67z"/>
<g>
	<path class="st1" d="M20.32,33.5c0.52-0.2,1.05-0.42,1.58-0.65v-2.38h-1.48v-0.76h1.48v-2.07h0.93v2.07h1.57v0.76h-1.57v1.96
		c0.47-0.21,0.94-0.44,1.41-0.67c0.02,0.29,0.06,0.59,0.1,0.89c-0.5,0.23-1.01,0.46-1.51,0.69v3.89c0,0.72-0.3,1.11-0.91,1.17
		c-0.43,0.04-0.9,0.05-1.44,0.03c-0.05-0.31-0.1-0.62-0.16-0.93c0.45,0.04,0.83,0.07,1.15,0.07c0.28,0,0.42-0.14,0.42-0.41v-3.38
		c-0.49,0.23-0.98,0.46-1.46,0.7L20.32,33.5z M23.29,38.08c1.15-0.88,1.8-2.13,1.94-3.77h0.92c-0.04,0.52-0.13,1.01-0.25,1.46
		c0.52,0.72,1.2,1.21,2.03,1.46v-3.36h-3.79v-0.74h8.27v0.74h-3.56v1.25h3.08v0.71h-3.08v1.57c0.56,0.06,1.79,0.06,3.7-0.01
		c-0.02,0.04-0.11,0.31-0.28,0.83c-0.97,0.02-1.98,0.01-3.03-0.03c-1.65-0.02-2.87-0.55-3.64-1.58c-0.34,0.78-0.84,1.44-1.5,2
		C23.85,38.41,23.58,38.24,23.29,38.08z M25.2,28.08h6.12v4.4h-0.88v-0.32h-4.36v0.32H25.2V28.08z M30.44,28.8h-4.36v0.97h4.36V28.8
		z M26.09,31.45h4.36v-0.98h-4.36V31.45z"/>
	<path class="st1" d="M43.47,32.37l0.94,0.37c-0.61,1.26-1.33,2.28-2.18,3.07c1.23,0.83,2.97,1.41,5.22,1.77
		c-0.3,0.37-0.55,0.68-0.74,0.94c-2.18-0.51-3.92-1.21-5.21-2.1c-1.13,0.8-2.91,1.53-5.36,2.18c-0.18-0.26-0.38-0.55-0.61-0.86
		c2.3-0.53,4.04-1.17,5.21-1.92c-0.81-0.75-1.51-1.73-2.09-2.94l0.82-0.42c0.54,1.1,1.21,2.03,2.04,2.78
		C42.25,34.54,42.91,33.59,43.47,32.37z M35.62,29.25h5.75c-0.19-0.36-0.47-0.81-0.83-1.33l0.91-0.4c0.35,0.45,0.66,0.91,0.93,1.4
		l-0.69,0.32h5.7v0.83H35.62V29.25z M39.25,30.59l0.79,0.58c-1.15,1.09-2.33,2.07-3.57,2.93c-0.2-0.23-0.43-0.47-0.69-0.71
		C37.01,32.6,38.17,31.66,39.25,30.59z M43.65,30.54c1.5,1.07,2.67,1.97,3.51,2.69c-0.23,0.21-0.47,0.45-0.74,0.72
		c-0.92-0.86-2.07-1.81-3.45-2.83L43.65,30.54z"/>
</g>
</svg>
