<?xml version="1.0" encoding="utf-8"?>
<!-- Generator: Adobe Illustrator 23.0.0, SVG Export Plug-In . SVG Version: 6.00 Build 0)  -->
<svg version="1.1" id="图层_1" xmlns="http://www.w3.org/2000/svg" xmlns:xlink="http://www.w3.org/1999/xlink" x="0px" y="0px"
	 viewBox="0 0 527 356" style="enable-background:new 0 0 527 356;" xml:space="preserve">
<style type="text/css">
	.st0{fill:#F2F2F2;}
	.st1{fill:none;stroke:#FFFFFF;stroke-width:2;stroke-miterlimit:10;}
	.st2{fill:none;stroke:#FFFFFF;stroke-width:2.3479;stroke-miterlimit:10;}
</style>
<g>
	<g>
		<path class="st0" d="M20.64,26.35l-1.16,1.07c-0.67-0.6-1.37-1.2-2.09-1.82c-0.93,1.34-2.16,2.56-3.69,3.67
			c-0.26-0.36-0.55-0.74-0.89-1.14c1.54-1.05,2.72-2.18,3.53-3.39c-0.91-0.74-1.86-1.5-2.85-2.27c0.48-1.51,0.91-3.24,1.3-5.2h-1.93
			v-1.32h2.18c0.21-1.15,0.4-2.37,0.57-3.66l1.57,0.19c-0.23,1.27-0.44,2.42-0.64,3.46H20v1.14c-0.29,3.16-0.9,5.59-1.84,7.29
			C19.01,25.02,19.83,25.68,20.64,26.35z M18.53,17.26h-2.27c-0.46,2.21-0.86,3.83-1.21,4.83c0.68,0.47,1.34,0.95,1.99,1.43
			C17.86,21.9,18.36,19.81,18.53,17.26z M20.2,27.52h5.34v-4.48h-4.62v-1.34h4.62v-4.32h-2.71c-0.39,1.11-0.81,2.16-1.28,3.15
			c-0.62-0.21-1.12-0.37-1.51-0.47c1.11-2.33,1.89-4.55,2.34-6.66l1.53,0.28c-0.2,0.82-0.42,1.61-0.65,2.37h2.27v-3.76h1.59v3.76
			h4.49v1.34h-4.49v4.32h4.37v1.34h-4.37v4.48h4.83v1.34H20.2V27.52z"/>
		<path class="st0" d="M43.7,12.2l1.51,0.56c-0.43,0.52-0.86,1.01-1.3,1.48h9.88v1.25c-2.4,2.5-5.56,4.54-9.49,6.13h9.46v8h-1.55
			v-1.14H42.02v1.14h-1.55v-6.59c-1.01,0.34-2.05,0.67-3.13,1c-0.28-0.45-0.58-0.88-0.89-1.3c2.89-0.71,5.49-1.59,7.81-2.62
			c-0.8-0.74-1.66-1.49-2.59-2.27l1.16-0.91c1.08,0.88,2.08,1.69,2.98,2.44c2.27-1.14,4.24-2.44,5.92-3.92h-8.99
			c-1.46,1.44-3.12,2.77-4.99,3.99c-0.36-0.43-0.7-0.81-1.01-1.14C39.3,16.78,41.62,14.75,43.7,12.2z M52.21,22.88H42.02v4.36h10.19
			V22.88z"/>
	</g>
	<rect x="1" y="0.76" class="st1" width="526" height="42"/>
	<g>
		<g>
			<path class="st0" d="M12.93,85.92h8.72v-3.15h-7.37v-1.39h7.37v-3.17c-2.44,0.09-4.92,0.16-7.44,0.22
				c-0.08-0.49-0.17-0.97-0.29-1.44c6.59-0.09,11.93-0.3,16.03-0.63l0.25,1.44c-2.27,0.13-4.58,0.24-6.92,0.34v3.24h7.02v1.39h-7.02
				v3.15h8.68v1.39h-8.68v3.23c0,1.42-0.8,2.14-2.4,2.16c-0.81,0-1.94-0.01-3.38-0.02c-0.06-0.54-0.17-1.07-0.31-1.6
				c1.44,0.09,2.53,0.14,3.27,0.14c0.8,0,1.2-0.39,1.2-1.18v-2.74h-8.72V85.92z"/>
			<path class="st0" d="M36.51,86.73c1.44-1.96,2.47-4.07,3.08-6.33h-2.89v-1.2h3.02v-3.46h1.39v3.46h2.71v1.2h-2.71v2.92l0.77-0.7
				c0.99,0.82,1.77,1.49,2.34,2l-1.04,0.97c-0.79-0.8-1.48-1.46-2.07-1.99v9.28h-1.39v-9.42c-0.69,1.99-1.55,3.59-2.57,4.82
				C36.94,87.75,36.73,87.23,36.51,86.73z M46.7,78.2v5.82c0,4.2-1.15,7.24-3.46,9.12c-0.36-0.4-0.74-0.8-1.14-1.2
				c2.04-1.63,3.06-4.17,3.06-7.61v-7.47h7.19v13.22c0,0.59,0.23,0.88,0.68,0.88h0.44c0.41,0,0.68-0.33,0.79-0.98
				c0.13-0.9,0.22-1.88,0.27-2.92c0.45,0.2,0.94,0.39,1.47,0.56c-0.12,1.16-0.23,2.11-0.35,2.85c-0.21,1.24-0.86,1.86-1.97,1.86
				h-1.02c-1.24,0-1.86-0.67-1.86-2V78.2H46.7z"/>
			<path class="st0" d="M63.71,87.71v-1.28l0.84-1.81h-4.21v-1.28h19.16v1.28H66.15l-0.83,1.83h11.54c-0.15,1.36-0.3,2.47-0.44,3.34
				c-0.31,1.91-1.52,2.87-3.64,2.87c-1.48,0-3.07-0.02-4.76-0.07c-0.08-0.4-0.19-0.91-0.33-1.53c1.84,0.14,3.45,0.21,4.81,0.21
				c1.39,0,2.18-0.57,2.36-1.71c0.09-0.47,0.18-1.08,0.27-1.85H63.71z M63.35,76.53h13.13v5.8h-1.53v-0.72H64.87v0.81h-1.53V76.53z
				 M74.95,77.8H64.87v2.55h10.07V77.8z"/>
		</g>
		<rect x="1" y="64.25" class="st1" width="526" height="42"/>
	</g>
	<g>
		<path class="st0" d="M19.11,152.26c0.01,0.39,0.06,0.89,0.14,1.51c-1.8,1.03-3.09,1.84-3.85,2.43l-0.91-1.18
			c0.44-0.33,0.66-0.84,0.66-1.53v-6.96h-2.34v-1.27h3.83v8.49C17.4,153.31,18.22,152.81,19.11,152.26z M14.61,139.51
			c1.15,1.05,2.17,2.03,3.06,2.92l-1.35,1.04c-0.93-1.11-1.87-2.12-2.82-3.02L14.61,139.51z M18.19,150.32h5.99v-2.62h-4.95v-1.3
			h4.95v-2.6h-5.49v-1.3h6.97c1.1-1.27,1.94-2.4,2.52-3.38l1.55,0.86c-0.61,0.68-1.38,1.52-2.33,2.51h4.09v1.3h-5.72v2.6h5.18v1.3
			h-5.18v2.62h6.23v1.3h-6.23v4.89h-1.59v-4.89h-5.99V150.32z M20.22,139.95l1.16-0.79c0.83,0.83,1.58,1.63,2.26,2.41l-1.33,0.84
			C21.65,141.56,20.95,140.74,20.22,139.95z"/>
		<path class="st0" d="M36.51,153.93c2.2-0.38,4.41-0.79,6.61-1.25c-0.04,0.47-0.06,0.91-0.06,1.34c-1.87,0.33-3.91,0.75-6.13,1.27
			L36.51,153.93z M39.03,149.74c1.31-0.18,2.66-0.37,4.04-0.58c-0.08,0.46-0.14,0.91-0.17,1.35c-1.71,0.23-3.6,0.51-5.65,0.83
			l-0.31-1.34c0.86-0.8,1.85-2.04,2.97-3.7c-1.04,0.06-2.03,0.13-2.97,0.2l-0.37-1.2c1.19-1.44,2.42-3.52,3.69-6.24l1.47,0.53
			c-1.39,2.48-2.53,4.35-3.42,5.61c0.7-0.02,1.49-0.04,2.36-0.06c0.43-0.68,0.88-1.42,1.35-2.22l1.43,0.65
			C42.27,145.42,40.79,147.48,39.03,149.74z M43.82,140.69h11.04v15.57h-1.51v-1.46h-8.02v1.49h-1.51V140.69z M45.33,147.02h3.27
			v-5.01h-3.27V147.02z M45.33,153.49h3.27v-5.2h-3.27V153.49z M53.35,142.01h-3.29v5.01h3.29V142.01z M50.07,153.49h3.29v-5.2
			h-3.29V153.49z"/>
		<path class="st0" d="M60.16,153.31c0.92-0.27,1.85-0.54,2.78-0.83v-7.01h-2.49v-1.23h2.49v-4.9h1.43v4.9h2.24v1.23h-2.24v6.57
			c0.82-0.26,1.64-0.52,2.48-0.79c0.03,0.49,0.07,0.93,0.14,1.3c-2.11,0.69-4.21,1.39-6.28,2.11L60.16,153.31z M72.32,139.25h1.51
			v4.54l4.7-1.29c-0.08,2.31-0.15,4.2-0.23,5.66c-0.08,1.58-0.77,2.38-2.09,2.39c-0.59,0.01-1.17,0.01-1.74,0
			c-0.08-0.43-0.17-0.92-0.29-1.46c0.62,0.07,1.15,0.11,1.6,0.11c0.67,0.01,1.02-0.43,1.04-1.34c0.08-1.07,0.12-2.28,0.14-3.64
			l-3.13,0.89v7.62h-1.51v-7.2l-2.92,0.83v6.81c0,0.91,0.55,1.37,1.64,1.37h4.74c1.19,0,1.84-0.43,1.97-1.3
			c0.15-0.75,0.28-1.62,0.39-2.62c0.52,0.19,1.05,0.36,1.6,0.51c-0.18,1.13-0.35,2.04-0.52,2.74c-0.31,1.34-1.32,2-3.04,2h-5.51
			c-1.86,0-2.78-0.83-2.78-2.48v-6.61l-1.45,0.4l-0.25-1.3l1.7-0.47v-4.1h1.51v3.69l2.92-0.8V139.25z"/>
		<path class="st0" d="M84.03,152.54c0.97-0.28,1.97-0.57,3-0.88v-6.5h-2.8v-1.3h2.8v-4.61h1.47v4.61h2.67v1.3H88.5v6.05
			c0.94-0.29,1.91-0.59,2.9-0.91c0.03,0.54,0.07,1,0.14,1.37c-2.31,0.73-4.63,1.49-6.96,2.29L84.03,152.54z M89.43,154.07h2.94
			v-11.25h1.47v11.25h2.86v-14.84h1.55v5.48h4.49v1.34h-4.49v8.02h5.05v1.34H89.43V154.07z"/>
	</g>
	<rect x="1" y="127.75" class="st1" width="526" height="42"/>
	<rect x="1.17" y="192.17" class="st2" width="525.65" height="163.65"/>
	<g>
		<g>
			<path class="st0" d="M14.38,215.1c0.39,1.43,0.93,2.6,1.62,3.52c0.69-1.29,1.12-2.77,1.3-4.46h-3.87v-1.28l3.56-3.99h-3.94v-1.2
				h5.72v1.2l-3.63,4.08h3.62v1.04c-0.24,2.17-0.82,4.06-1.75,5.65c1.4,1.11,3.59,1.67,6.54,1.68c2.45,0.05,5.29,0.02,8.53-0.09
				c-0.22,0.48-0.43,0.94-0.64,1.39c-2.95-0.01-5.81-0.02-8.57-0.04c-2.88,0-5.08-0.61-6.61-1.83c-0.73,0.96-1.61,1.8-2.65,2.51
				c-0.21-0.34-0.47-0.72-0.79-1.14c0.97-0.67,1.78-1.45,2.44-2.34c-0.86-1-1.58-2.42-2.15-4.27L14.38,215.1z M18.95,218.07h4.95
				v-1.53H19.6v-1.05h4.29v-1.53h-4.02v-1.05h4.02v-1.53h-5.03v-1.09h5.03v-1.53h-4.02v-1.05h4.02v-1.72h1.43v1.72h4.49v2.58h2.03
				v1.09h-2.03v3.06h-1.39v-0.47h-3.09v1.53h4.87v1.05h-4.87v1.53h5.76v1.05h-5.76v1.81H23.9v-1.81h-4.95V218.07z M28.42,208.75
				h-3.09v1.53h3.09V208.75z M25.33,212.9h3.09v-1.53h-3.09V212.9z"/>
			<path class="st0" d="M43.04,217.47c0.04,0.5,0.11,1.01,0.21,1.53c-0.89,0.6-1.86,1.28-2.9,2.04c-0.32,0.25-0.62,0.52-0.89,0.83
				l-1.12-1.09c0.4-0.39,0.6-0.96,0.6-1.71v-5.96h-2.36v-1.3h3.83v7.54C41.29,218.73,42.17,218.1,43.04,217.47z M38.72,206.36
				c0.93,0.84,1.87,1.76,2.82,2.76l-1.3,1c-0.97-1.13-1.85-2.09-2.65-2.9L38.72,206.36z M54.27,207.29
				c-0.75,4.79-2.3,8.47-4.65,11.06c1.67,1.41,3.71,2.52,6.12,3.32c-0.48,0.52-0.89,1-1.24,1.46c-2.41-1.04-4.42-2.27-6.02-3.67
				c-1.73,1.53-3.77,2.81-6.1,3.83c-0.28-0.38-0.65-0.82-1.1-1.34c2.39-0.94,4.42-2.14,6.07-3.6c-2.46-2.68-3.96-6.36-4.51-11.06
				l1.51-0.21c0.42,4.27,1.79,7.66,4.12,10.17c2.28-2.53,3.69-5.93,4.25-10.2L54.27,207.29z M46.34,206.55l1.24-0.6
				c0.83,1.15,1.62,2.37,2.4,3.66l-1.37,0.72C47.75,208.79,47,207.53,46.34,206.55z"/>
		</g>
	</g>
</g>
</svg>
