<?xml version="1.0" encoding="utf-8"?>
<!-- Generator: Adobe Illustrator 23.0.0, SVG Export Plug-In . SVG Version: 6.00 Build 0)  -->
<svg version="1.1" id="图层_1" xmlns="http://www.w3.org/2000/svg" xmlns:xlink="http://www.w3.org/1999/xlink" x="0px" y="0px"
	 viewBox="0 0 124 146" style="enable-background:new 0 0 124 146;" xml:space="preserve">
<style type="text/css">
	.st0{opacity:0.8;fill:#FFFFFF;}
	.st1{opacity:0.8;}
	.st2{fill:#FFFFFF;}
</style>
<g>
	<circle class="st0" cx="56.11" cy="53.45" r="17.07"/>
	<circle class="st0" cx="10.28" cy="86.7" r="10.78"/>
	<circle class="st0" cx="15.67" cy="11.22" r="10.78"/>
	<circle class="st0" cx="116.31" cy="29.19" r="7.19"/>
	<g class="st1">
		<circle class="st0" cx="61.5" cy="116.35" r="29.65"/>
		<path class="st2" d="M82.88,111.52c-1.06,0-2.06-0.61-2.52-1.64C75.59,99.15,67.63,97.75,67.29,97.7
			c-1.49-0.24-2.53-1.64-2.3-3.14c0.23-1.5,1.61-2.53,3.11-2.32c0.46,0.07,11.23,1.75,17.3,15.4c0.62,1.39-0.01,3.02-1.4,3.64
			C83.63,111.44,83.25,111.52,82.88,111.52z"/>
	</g>
</g>
</svg>
