<?xml version="1.0" encoding="utf-8"?>
<!-- Generator: Adobe Illustrator 23.0.0, SVG Export Plug-In . SVG Version: 6.00 Build 0)  -->
<svg version="1.1" id="图层_1" xmlns="http://www.w3.org/2000/svg" xmlns:xlink="http://www.w3.org/1999/xlink" x="0px" y="0px"
	 viewBox="0 0 153 242" style="enable-background:new 0 0 153 242;" xml:space="preserve">
<style type="text/css">
	.st0{opacity:0.22;}
	.st1{opacity:0.8;fill:#FFFFFF;}
	.st2{fill:#FFFFFF;}
</style>
<g class="st0">
	<g>
		<circle class="st1" cx="75.78" cy="137.98" r="32.99"/>
		<path class="st2" d="M99.57,132.61c-1.18,0-2.3-0.68-2.8-1.82c-5.31-11.94-14.16-13.49-14.53-13.56
			c-1.66-0.27-2.81-1.83-2.56-3.49c0.25-1.66,1.79-2.82,3.46-2.58c0.51,0.07,12.5,1.95,19.25,17.13c0.69,1.55-0.01,3.36-1.56,4.05
			C100.4,132.53,99.98,132.61,99.57,132.61z"/>
	</g>
	<g>
		<circle class="st1" cx="133.14" cy="85.64" r="19.36"/>
		<path class="st2" d="M147.1,82.49c-0.69,0-1.35-0.4-1.65-1.07c-3.12-7.01-8.31-7.92-8.53-7.96c-0.98-0.16-1.65-1.07-1.5-2.05
			c0.15-0.98,1.05-1.65,2.03-1.51c0.3,0.04,7.34,1.14,11.3,10.06c0.4,0.91-0.01,1.97-0.91,2.38
			C147.59,82.44,147.34,82.49,147.1,82.49z"/>
	</g>
	<g>
		<circle class="st1" cx="111.55" cy="227.36" r="14.4"/>
		<path class="st2" d="M121.93,225.02c-0.51,0-1-0.3-1.22-0.8c-2.32-5.21-6.18-5.89-6.34-5.92c-0.73-0.12-1.23-0.8-1.12-1.52
			c0.11-0.73,0.78-1.23,1.51-1.13c0.22,0.03,5.45,0.85,8.4,7.48c0.3,0.68,0,1.47-0.68,1.77
			C122.29,224.98,122.11,225.02,121.93,225.02z"/>
	</g>
	<g>
		<circle class="st1" cx="88.04" cy="11.61" r="11.61"/>
		<path class="st2" d="M96.41,9.72c-0.41,0-0.81-0.24-0.99-0.64c-1.87-4.2-4.98-4.75-5.12-4.77c-0.59-0.09-0.99-0.64-0.9-1.23
			c0.09-0.59,0.63-0.99,1.22-0.91c0.18,0.03,4.4,0.69,6.77,6.03c0.24,0.55,0,1.18-0.55,1.43C96.7,9.69,96.55,9.72,96.41,9.72z"/>
	</g>
	<g>
		<circle class="st1" cx="12.87" cy="121.85" r="13.37"/>
		<path class="st2" d="M22.51,119.67c-0.48,0-0.93-0.28-1.14-0.74c-2.15-4.84-5.74-5.47-5.89-5.49c-0.67-0.11-1.14-0.74-1.04-1.42
			c0.1-0.67,0.72-1.14,1.4-1.05c0.21,0.03,5.07,0.79,7.8,6.95c0.28,0.63,0,1.36-0.63,1.64C22.85,119.64,22.68,119.67,22.51,119.67z"
			/>
	</g>
</g>
</svg>
