<?xml version="1.0" encoding="utf-8"?>
<!-- Generator: Adobe Illustrator 23.0.0, SVG Export Plug-In . SVG Version: 6.00 Build 0)  -->
<svg version="1.1" id="图层_1" xmlns="http://www.w3.org/2000/svg" xmlns:xlink="http://www.w3.org/1999/xlink" x="0px" y="0px"
	 viewBox="0 0 143.12 19.31" style="enable-background:new 0 0 143.12 19.31;" xml:space="preserve">
<style type="text/css">
	.st0{fill:#FFFFFF;}
	.st1{fill:#6A859E;}
</style>
<g>
	<path class="st0" d="M82.35,19.31V0.01h12.11v3.77h-7.37v4.38h7.03v3.77h-7.03v7.39H82.35z"/>
	<path class="st0" d="M111.72,6.13c0,1.29-0.36,2.42-1.08,3.39c-0.72,0.97-1.73,1.7-3.02,2.2l6.33,7.59h-5.84l-5.29-6.7h-0.87v6.7
		h-4.74V0.01h6.13c1.19,0,2.3,0.13,3.32,0.38c1.02,0.25,1.91,0.63,2.66,1.13c0.75,0.5,1.34,1.14,1.76,1.9
		C111.51,4.18,111.72,5.08,111.72,6.13z M107.16,6.21c0-0.87-0.34-1.51-1.01-1.93c-0.67-0.41-1.62-0.62-2.83-0.62h-1.36v5.42h1.16
		c1.27,0,2.26-0.25,2.98-0.75S107.16,7.12,107.16,6.21z"/>
	<path class="st0" d="M115.68,0.01h12v3.77h-7.26v3.88h6.91v3.77h-6.91v4.12h7.34v3.77h-12.08V0.01z"/>
	<path class="st0" d="M131.03,0.01h12v3.77h-7.26v3.88h6.91v3.77h-6.91v4.12h7.34v3.77h-12.08V0.01z"/>
	<path class="st1" d="M9.37,6.33c0-0.66-0.18-1.19-0.52-1.61L8.31,8.43C8.34,8.41,8.36,8.4,8.38,8.39C9.04,7.89,9.37,7.2,9.37,6.33z
		"/>
	<polygon class="st1" points="38.46,5.89 38.23,6.63 38.87,6.48 	"/>
	<polygon class="st1" points="4.74,3.66 5.37,3.66 0,2.75 0,7.7 4.74,5.79 	"/>
	<path class="st1" d="M8.06,4.12L8.02,4.11c0.01,0.01,0.02,0.01,0.03,0.02L8.06,4.12z"/>
	<path class="st1" d="M4.74,12.79h0.49c0.55,0,1.08-0.03,1.6-0.09l0.54-3.82C6.85,9.05,6.24,9.14,5.52,9.14H4.74V6.72L0,8.63v7.42
		l4.74-1.17V12.79z"/>
	<polygon class="st1" points="0,19.31 4.74,19.31 4.74,15.47 0,16.63 	"/>
	<path class="st1" d="M8.6,0.33c-0.94-0.2-1.95-0.32-3.05-0.32H0v1.87l8.18,1.39L8.6,0.33z"/>
	<path class="st1" d="M13.6,4.18c-0.08-0.24-0.18-0.47-0.29-0.69c-0.41-0.79-0.99-1.44-1.74-1.96c-0.61-0.42-0.99-0.66-1.8-0.91
		L9.37,3.5L13.6,4.18z"/>
	<path class="st1" d="M9.37,6.33c0,0.87-0.33,1.56-0.98,2.06C8.36,8.4,8.34,8.41,8.31,8.43l-0.59,4.14
		c0.32-0.06,0.64-0.13,0.95-0.21c1.06-0.29,1.98-0.71,2.76-1.26c0.78-0.55,1.39-1.23,1.83-2.04c0.44-0.81,0.67-1.73,0.67-2.75
		c0-0.43-0.04-0.82-0.11-1.2L8.91,4.26L8.84,4.72C9.19,5.13,9.37,5.67,9.37,6.33z"/>
	<polygon class="st1" points="16.16,5.86 16.16,12.65 20.9,11.49 20.9,6.66 	"/>
	<polygon class="st1" points="27.98,19.31 27.98,15.55 24.12,15.55 22.7,19.31 	"/>
	<polygon class="st1" points="16.16,19.31 21.99,19.31 23.41,15.55 20.9,15.55 20.9,11.79 16.16,12.96 	"/>
	<polygon class="st1" points="20.9,0.01 16.16,0.01 16.16,4.61 20.9,5.42 	"/>
	<polygon class="st1" points="42.06,9.42 48.88,19.22 45.34,9.97 	"/>
	<polygon class="st1" points="39.14,3.66 39.91,6.22 43.7,5.29 41.74,0.01 36.54,0.01 36.14,1.08 38.78,4.84 	"/>
	<polygon class="st1" points="38.23,6.63 38.46,5.89 35.78,2.06 33.72,7.59 34.09,7.65 	"/>
	<polygon class="st1" points="36.65,11.81 37.48,9.1 34.12,8.54 33.3,8.74 30.55,16.14 38.05,11.81 	"/>
	<polygon class="st1" points="35.08,7.93 37.73,8.27 38.05,7.24 	"/>
	<polygon class="st1" points="40.96,9.69 41.6,11.81 39.77,11.81 30.08,17.41 29.37,19.31 34.25,19.31 35.44,15.58 42.81,15.58 
		44.02,19.31 47.88,19.31 41.15,9.73 	"/>
	<polygon class="st1" points="45.28,9.55 43.8,5.53 40.11,6.44 41.65,8.94 	"/>
	<path class="st1" d="M60.5,0.02c-1-0.24-2.05-0.36-3.15-0.36c-2.16,0-3.85,0.49-5.07,1.48c-0.78,0.63-1.31,1.44-1.59,2.43
		l11.76-2.9C61.88,0.42,61.23,0.2,60.5,0.02z"/>
	<path class="st1" d="M59.03,13.98c0,0.67-0.49,1.4-1.01,1.7l2.99,2.87c0.19-0.13,0.62-0.52,0.79-0.67c0.64-0.55,1.12-1.2,1.46-1.94
		c0.34-0.74,0.51-1.54,0.51-2.39c0-0.83-0.15-1.56-0.45-2.17c-0.1-0.21-0.2-0.32-0.33-0.51l-3.96,2.95
		C59.04,13.89,59.03,13.89,59.03,13.98z"/>
	<path class="st1" d="M51.22,14.68l-0.95,3.62c0.23,0.11,0.48,0.2,0.72,0.3l3.78-2.81c-0.44-0.06-0.86-0.14-1.26-0.26
		C52.66,15.29,51.9,15.01,51.22,14.68z"/>
	<path class="st1" d="M50.44,5.43c0,1.43,0.43,2.6,1.3,3.52c0.87,0.92,2.24,1.74,4.13,2.45c1.2,0.45,2.02,0.87,2.47,1.26
		c0.1,0.09,0.19,0.18,0.26,0.27l3.82-2.84c-0.11-0.12-0.21-0.26-0.34-0.37c-0.52-0.48-1.14-0.91-1.85-1.28
		c-0.71-0.37-1.47-0.72-2.28-1.04c-0.56-0.23-1.02-0.43-1.39-0.61c-0.37-0.17-0.65-0.35-0.85-0.52c-0.2-0.17-0.34-0.36-0.42-0.55
		s-0.12-0.42-0.12-0.7c0-0.58,0.22-0.99,0.65-1.23c0.43-0.24,1.01-0.36,1.72-0.36c0.85,0,1.67,0.1,2.47,0.3
		c0.8,0.2,1.54,0.47,2.21,0.8l0.7-3.09L50.5,4.5C50.47,4.8,50.44,5.11,50.44,5.43z"/>
	<path class="st1" d="M56.25,15.89c-0.06,0-0.49-0.11-0.54-0.11l-4.14,3.08c0.41,0.13,1.21,0.36,1.65,0.45
		c1.06,0.23,2.12,0.35,3.18,0.35c1.16,0,2.19-0.16,3.09-0.48c0.35-0.12,0.49-0.27,0.8-0.42l-3.11-2.98
		C56.84,15.86,56.66,15.89,56.25,15.89z"/>
	<polygon class="st1" points="75.16,0.01 64.98,0.01 64.98,3.78 70.16,3.78 70.16,4.35 75.21,0.59 	"/>
	<polygon class="st1" points="70.16,19.31 74.9,19.31 74.9,18.83 70.16,14.29 	"/>
	<polygon class="st1" points="75.98,3.78 80.07,3.78 80.07,0.01 77.43,0.01 75.79,1 	"/>
	<polygon class="st1" points="74.9,3.78 75.43,3.78 75.28,1.61 70.16,5.42 70.16,13.62 74.9,18.17 	"/>
	<path class="st1" d="M44,6.1"/>
	<path class="st1" d="M50.5,4.5"/>
	<polygon class="st1" points="76.03,0.01 76.03,-0.02 75.98,0.01 	"/>
	<path class="st1" d="M8.84,4.72l0.07-0.46L8.06,4.12l0,0.01C8.37,4.29,8.64,4.48,8.84,4.72z"/>
</g>
</svg>
