<?xml version="1.0" encoding="utf-8"?>
<!-- Generator: Adobe Illustrator 23.0.0, SVG Export Plug-In . SVG Version: 6.00 Build 0)  -->
<svg version="1.1" id="图层_1" xmlns="http://www.w3.org/2000/svg" xmlns:xlink="http://www.w3.org/1999/xlink" x="0px" y="0px"
	 viewBox="0 0 375 382" style="enable-background:new 0 0 375 382;" xml:space="preserve">
<style type="text/css">
	.st0{fill:#B4D3E0;}
</style>
<path class="st0" d="M374.61,217.6c-5.55-18.8-49.06-14.21-60.99-8.89c-2.62,1.17-4.48,3.42-5.78,6.23
	c-23.86-61.28-81.12-124.4-147.25-84.06c25.13-34.57,14.39-69.96,26.82-94.01c16.37-31.67,9.81-38.71,5.51-37.16
	c-36.04,13.01-61.05,79.69-65.3,118.5c-2.89,26.37,5.85,31.46,5.85,31.46s-0.05,0.11-0.13,0.31c-6.7,5.61-12.24,11.28-16.72,17.22
	c-14.62,0.54-50-25.23-58.27-25.46c-3.31-0.09-18.5,2.79-19.45,7.96c-1.68,9.14,6.91,18.43,13.14,24.76
	c21.33,21.65,34.71,20.03,49.51,33.26c-0.65,7.24-0.62,15.07,0.03,23.69C28.23,252.02-6.67,331.03,1.71,339.85
	c7.24,7.63,11.46,2.17,34.91-23.45c8.64-9.44,34.64-4.99,68.21-58.41c0.08-0.13,0.22-0.29,0.38-0.46
	c15.49,69.89,83.31,101.41,146.59,80.23c5.04,6.84,14.7,20.75,16.54,29.14c4.93,22.51,36.52,19.3,38.26-3.45
	c1.73-22.75,1.25-26.51-6.18-37.24c-2.99-4.32-7-6.82-10.72-8.27c7.45-5.48,14.64-11.84,21.46-19.13
	c8.46-9.04,10.32-26.72,6.88-47.63c5.97,3.13,13.13,4.94,19.29,0.95C350.79,243.42,380.16,236.41,374.61,217.6z"/>
</svg>
