<?xml version="1.0" encoding="utf-8"?>
<!-- Generator: Adobe Illustrator 23.0.0, SVG Export Plug-In . SVG Version: 6.00 Build 0)  -->
<svg version="1.1" id="图层_1" xmlns="http://www.w3.org/2000/svg" xmlns:xlink="http://www.w3.org/1999/xlink" x="0px" y="0px"
	 viewBox="0 0 371 379" style="enable-background:new 0 0 371 379;" xml:space="preserve">
<style type="text/css">
	.st0{clip-path:url(#SVGID_1_);fill:#B4D3E0;}
	.st1{clip-path:url(#SVGID_1_);fill:#A0BDCD;}
	.st2{clip-path:url(#SVGID_1_);}
	.st3{fill:#B4D3E0;}
	.st4{fill:#A0BDCD;}
	.st5{opacity:0.88;}
	.st6{opacity:0.8;fill:#FFFFFF;}
	.st7{fill:#FFFFFF;}
	.st8{fill:#7EA7BD;}
</style>
<g>
	<defs>
		<path id="SVGID_3_" d="M370.55,215.82c-5.48-18.63-48.59-14.13-60.41-8.87c-2.6,1.15-4.44,3.39-5.73,6.16
			c-23.57-60.73-80.22-123.33-145.78-83.44c24.93-34.22,14.33-69.29,26.67-93.11c16.25-31.35,9.76-38.34,5.5-36.81
			c-35.72,12.85-60.56,78.88-64.83,117.32c-2.9,26.12,5.76,31.18,5.76,31.18s-0.05,0.11-0.13,0.31
			c-6.64,5.55-12.14,11.16-16.58,17.04c-14.49,0.52-49.5-25.05-57.7-25.29c-3.28-0.09-18.33,2.75-19.28,7.86
			c-1.68,9.06,6.82,18.27,12.99,24.54c21.11,21.47,34.36,19.88,49.02,33c-0.65,7.17-0.63,14.93,0,23.47
			C27.36,249.54-7.31,327.77,0.98,336.52c7.16,7.56,11.36,2.16,34.61-23.19c8.57-9.34,34.32-4.91,67.64-57.79
			c0.08-0.13,0.22-0.29,0.38-0.45c15.27,69.26,82.42,100.56,145.14,79.65c4.98,6.78,14.54,20.57,16.35,28.88
			c4.86,22.31,36.16,19.16,37.9-3.37c1.74-22.54,1.27-26.26-6.08-36.9c-2.96-4.28-6.92-6.76-10.61-8.2
			c7.39-5.42,14.52-11.72,21.28-18.93c8.39-8.94,10.26-26.46,6.87-47.18c5.91,3.11,13,4.91,19.11,0.97
			C346.92,241.37,376.02,234.45,370.55,215.82z"/>
	</defs>
	<clipPath id="SVGID_1_">
		<use xlink:href="#SVGID_3_"  style="overflow:visible;"/>
	</clipPath>
	<path class="st0" d="M19.49,328.92c1.37-3.14,6.51-12.97,5.98-13.27c-5.29-3.07-13.13-7.1-18.88-8.93
		c-1.03-0.33-2.19,5.91-4.11,8.99c-1.08,1.73-1.99,4.1-2.81,5.99c-2.44,5.63-3.54,8.16-5.28,10.95c-0.64,1.03,3.95,1.12,8.92,7.22
		c7.53,7.11,8.85,5.14,12.73-2.74c1.31-2.66,2.39-5.43,3.58-8.15C19.57,328.95,19.53,328.94,19.49,328.92z M16.56,317.31l-5.93-2.58
		c-0.79-0.35-1.16-1.28-0.81-2.07c0.35-0.79,1.28-1.16,2.07-0.81l5.93,2.58c0.79,0.35,1.16,1.28,0.81,2.07
		C18.29,317.29,17.36,317.65,16.56,317.31z"/>
	<path class="st1" d="M269.73,191.02c2.92,3.37,5.57,6.46,7.1,9.97c0.59,1.34,0.71,3.61,1.29,5.87c0.11,0.43,0.24,0.85,0.39,1.27
		c1.07,3-0.04,4.31-0.03,7.49c0,2.08,0.22,3.13,2.51,2.29c4.79-1.74,9.44-2.8,13.9-5.46c4.25-2.54,5.02-2.12,7.26-2.05
		c0.9,0.03,1.69-0.58,2.52-0.91c-2.61-2.34-3.26-3.9-4.79-6.3c-1.87-2.93-2.5-5.13-4.72-9.21c-0.49-0.9-1.06-1.9-1.73-3.01
		c-1.21-2-0.3-5.98-0.12-9.39C285.43,184.74,277.86,187.77,269.73,191.02z"/>
	<path class="st1" d="M304.2,260.76c2.41,0.59,4.6,1.14,6.43,2.25c0.7,0.42,1.48,1.41,2.47,2.25c0.19,0.16,0.38,0.31,0.58,0.45
		c1.45,1.02,1.36,1.97,2.39,3.41c0.67,0.94,1.11,1.35,1.88,0.23c1.61-2.33,3.39-4.3,4.56-6.94c1.11-2.52,1.6-2.57,2.64-3.26
		c0.42-0.28,0.58-0.8,0.85-1.22c-1.94-0.23-2.73-0.73-4.2-1.32c-1.79-0.73-2.78-1.53-5.1-2.67c-0.51-0.25-1.09-0.52-1.75-0.81
		c-1.19-0.52-2.05-2.62-3.07-4.22C309.31,252.87,306.85,256.68,304.2,260.76z"/>
	<path class="st1" d="M291.75,223.33c2.32,0.88,4.43,1.69,6.11,3c0.64,0.5,1.3,1.58,2.18,2.53c0.17,0.18,0.34,0.35,0.53,0.52
		c1.32,1.19,1.12,2.12,1.96,3.67c0.55,1.02,0.94,1.47,1.83,0.46c1.88-2.12,3.88-3.86,5.36-6.34c1.41-2.36,1.9-2.36,3.01-2.92
		c0.45-0.22,0.67-0.73,0.99-1.11c-1.89-0.46-2.62-1.05-4.01-1.82c-1.69-0.94-2.58-1.85-4.74-3.26c-0.48-0.31-1.02-0.65-1.64-1.01
		c-1.12-0.66-1.73-2.85-2.54-4.56C297.77,216.11,294.87,219.6,291.75,223.33z"/>
	<path class="st1" d="M321.35,217.64c3.2-0.5,6.11-0.94,8.86-0.53c1.05,0.15,2.49,0.96,4.1,1.46c0.3,0.1,0.61,0.18,0.93,0.25
		c2.25,0.5,2.63,1.68,4.59,2.9c1.28,0.8,2.01,1.07,2.37-0.66c0.77-3.61,1.91-6.88,1.99-10.64c0.08-3.59,0.63-3.9,1.53-5.25
		c0.36-0.54,0.29-1.26,0.41-1.9c-2.44,0.7-3.65,0.5-5.71,0.52c-2.52,0.03-4.12-0.44-7.48-0.65c-0.74-0.04-1.57-0.08-2.52-0.09
		c-1.7-0.02-3.79-2.12-5.81-3.54C323.53,205.58,322.48,211.39,321.35,217.64z"/>
	<path class="st1" d="M136.76,116.26c-1.61,3.08-3.1,5.87-5.21,7.98c-0.8,0.81-2.41,1.54-3.88,2.6c-0.28,0.2-0.55,0.41-0.81,0.64
		c-1.87,1.63-3.13,1.19-5.43,2.1c-1.51,0.59-2.2,1.05-0.95,2.47c2.62,2.97,4.71,6.04,7.9,8.52c3.04,2.36,2.96,3.03,3.55,4.68
		c0.23,0.66,0.9,1.06,1.37,1.57c0.96-2.55,1.9-3.47,3.2-5.26c1.59-2.19,3.01-3.27,5.34-6.03c0.51-0.61,1.07-1.3,1.69-2.11
		c1.11-1.45,4.25-1.91,6.77-2.75C145.77,125.85,141.43,121.23,136.76,116.26z"/>
	<path class="st1" d="M162.69,148.65c-2.86,1.29-5.47,2.45-8.14,2.78c-1.02,0.13-2.57-0.25-4.21-0.31
		c-0.31-0.01-0.62-0.01-0.93,0.01c-2.23,0.12-2.89-0.89-5.03-1.53c-1.4-0.42-2.15-0.48-2.05,1.23c0.21,3.57-0.01,6.91,0.88,10.45
		c0.85,3.37,0.42,3.8-0.08,5.3c-0.2,0.6,0.05,1.25,0.11,1.88c2.1-1.28,3.28-1.41,5.2-1.96c2.35-0.67,3.95-0.65,7.15-1.32
		c0.7-0.15,1.49-0.33,2.37-0.56c1.59-0.41,4.08,1,6.34,1.81C163.76,160.47,163.25,154.77,162.69,148.65z"/>
	<path class="st1" d="M49.66,310.75c-3.1,0.45-5.93,0.86-8.59,0.43c-1.01-0.16-2.4-0.95-3.96-1.46c-0.29-0.1-0.59-0.18-0.9-0.25
		c-2.18-0.5-2.53-1.65-4.42-2.85c-1.23-0.79-1.94-1.05-2.31,0.62c-0.78,3.49-1.91,6.64-2.03,10.29c-0.11,3.47-0.64,3.77-1.53,5.07
		c-0.36,0.52-0.3,1.22-0.41,1.83c2.37-0.66,3.54-0.45,5.54-0.45c2.44,0,3.98,0.46,7.24,0.69c0.72,0.05,1.52,0.09,2.44,0.11
		c1.64,0.04,3.65,2.08,5.6,3.48C47.44,322.42,48.51,316.79,49.66,310.75z"/>
	<path class="st1" d="M153.47,49.49c-1.93,1.55-3.7,2.96-5.68,3.74c-0.75,0.3-2.02,0.32-3.28,0.6c-0.24,0.05-0.48,0.11-0.71,0.19
		c-1.69,0.53-2.39-0.11-4.15-0.17c-1.16-0.04-1.74,0.06-1.32,1.35c0.87,2.69,1.36,5.29,2.75,7.82c1.32,2.41,1.07,2.83,0.99,4.07
		c-0.03,0.5,0.29,0.95,0.45,1.42c1.35-1.4,2.23-1.73,3.59-2.53c1.66-0.98,2.9-1.28,5.21-2.43c0.51-0.25,1.07-0.55,1.7-0.9
		c1.14-0.63,3.32-0.04,5.21,0.13C156.64,58.32,155.11,54.06,153.47,49.49z"/>
	<path class="st1" d="M230.51,319.56c-2.13,3.92-4.08,7.49-6.83,10.16c-1.05,1.02-3.13,1.93-5.04,3.28
		c-0.36,0.25-0.71,0.52-1.05,0.81c-2.43,2.06-4.04,1.48-7.02,2.6c-1.95,0.74-2.85,1.31-1.26,3.16c3.32,3.87,5.94,7.85,10,11.08
		c3.87,3.08,3.75,3.95,4.48,6.07c0.29,0.85,1.14,1.37,1.74,2.04c1.28-3.27,2.5-4.42,4.21-6.7c2.08-2.78,3.92-4.15,6.96-7.66
		c0.67-0.77,1.4-1.66,2.2-2.68c1.45-1.84,5.49-2.39,8.74-3.41C241.92,332.04,236.42,326.02,230.51,319.56z"/>
	<path class="st0" d="M373.26,215.58c-1.93,3.13-3.59,6.48-5.86,9.34c-3.77,4.76-2.93,4.1-7.21,1.08
		c-5.35-3.78-9.43-8.83-13.4-13.96c-0.32-0.42-0.41-1.56-0.16-1.75c0.49-0.37,1.44-0.57,1.97-0.34c1,0.43,1.86,1.2,2.73,1.88
		c1.32,1.04,2.43,1.3,3.32-0.52c0.36-0.73,0.92-1.36,1.75-2.55c-1.35-0.67-2.62-1.18-3.75-1.91c-0.57-0.36-0.89-1.1-1.33-1.67
		c0.65-0.24,1.29-0.68,1.94-0.68c6.31,0.01,11.93,2.47,17.52,5c1.25,0.57,2.47,1.23,3.81,1.9c-0.49,1.5-0.95,2.87-1.4,4.24
		L373.26,215.58z"/>
	<path class="st0" d="M197.07,166.37c-3.16,1-6.25,2.32-9.48,2.94c-5.37,1.04-4.41,1.09-5.56-3.49c-1.44-5.72-1.26-11.57-0.96-17.4
		c0.02-0.47,0.63-1.31,0.92-1.29c0.55,0.04,1.32,0.45,1.55,0.93c0.43,0.88,0.57,1.91,0.76,2.89c0.29,1.49,0.9,2.31,2.57,1.59
		c0.67-0.29,1.43-0.39,2.69-0.72c-0.53-1.25-1.09-2.34-1.45-3.5c-0.18-0.58,0.04-1.27,0.07-1.92c0.58,0.22,1.28,0.3,1.72,0.68
		c4.3,3.71,6.7,8.69,9.04,13.71c0.52,1.12,0.97,2.29,1.49,3.53c-1.22,0.74-2.33,1.41-3.44,2.07L197.07,166.37z"/>
	<path class="st0" d="M190.97-4.46c3.72,2.85,7.75,5.38,11.08,8.62c5.54,5.38,4.82,4.24,0.45,9.27c-5.47,6.3-12.4,10.81-19.4,15.19
		c-0.57,0.35-2.03,0.33-2.24-0.03c-0.4-0.67-0.54-1.89-0.17-2.54c0.68-1.21,1.75-2.21,2.74-3.22c1.49-1.54,1.96-2.91-0.23-4.27
		c-0.88-0.55-1.61-1.34-3.01-2.54c-1.02,1.62-1.83,3.16-2.89,4.51c-0.53,0.67-1.51,0.99-2.28,1.47c-0.22-0.85-0.69-1.73-0.61-2.55
		c0.82-7.99,4.66-14.8,8.58-21.56c0.88-1.52,1.87-2.97,2.89-4.59c1.84,0.82,3.51,1.56,5.19,2.31L190.97-4.46z"/>
	<path class="st0" d="M129.22,325.69c0.06,0.01,0.12,0.03,0.18,0.04l-0.13,0.17C129.25,325.83,129.24,325.76,129.22,325.69z"/>
	<path class="st0" d="M108.45,161.32c-2.7-2.11-10.94-9.54-11.36-9.1c-4.29,4.36-10.15,10.94-13.35,16.06
		c-0.57,0.92,5.18,3.59,7.68,6.22c1.4,1.47,3.48,2.95,5.1,4.21c4.85,3.77,7.03,5.46,9.29,7.84c0.84,0.88,2.07-3.55,9.21-6.84
		c8.76-5.52,7.18-7.29,0.52-13.01c-2.25-1.93-4.66-3.67-7-5.49C108.51,161.25,108.48,161.28,108.45,161.32z M96.48,161.26l-3.98,5.1
		c-0.53,0.68-1.52,0.8-2.21,0.27c-0.68-0.53-0.8-1.52-0.27-2.21l3.98-5.1c0.53-0.68,1.52-0.8,2.21-0.27
		C96.89,159.59,97.01,160.58,96.48,161.26z"/>
	<path class="st0" d="M82.81,282.08c0.28-1.49-0.14-2.78-1.32-3.81c-1.35-1.19-2.96-1.33-4.6-1.11c-2.81,0.38-5.35,1.46-7.55,3.3
		c-1.57,1.31-2.71,2.85-2.83,4.98c-0.02,0.36-0.07,0.71-0.09,1.07c-0.07,1.27-0.46,2.33-1.7,2.92c-0.15,0.07-2.43,1.6-2.62,1.7
		c-0.29,0.17-0.58,0.34-0.88,0.51c-2.53,1.47-5.1,2.87-7.56,4.43c-2.13,1.35-4.15,2.86-6.19,4.34c-2.31,1.67-4.37,3.63-6.29,5.73
		c-0.5,0.55-0.48,1.12,0.01,1.91c0.51,0.82,0.98,1.09,1.7,0.85c0.75-0.25,1.49-0.56,2.19-0.92c3.96-2.05,7.65-4.51,10.9-7.58
		c2.19-2.07,4.37-4.16,6.56-6.24c0.33-0.32,3.44-2.88,3.59-2.94c0.29-0.11,0.54-0.31,0.83-0.41c1.15-0.4,2.23,0.03,3.31,0.32
		c2.29,0.61,4.4,0.15,6.39-0.99c0.79-0.45,1.51-1.03,2.19-1.63C80.83,286.78,82.32,284.72,82.81,282.08z"/>
	<path class="st0" d="M170.59,49.65c-1.22-0.9-2.56-1.07-4.01-0.46c-1.66,0.7-2.48,2.1-2.99,3.67c-0.88,2.7-0.99,5.45-0.29,8.23
		c0.5,1.99,1.4,3.67,3.26,4.7c0.31,0.17,0.61,0.37,0.93,0.54c1.11,0.61,1.9,1.42,1.9,2.8c0,0.16,0.39,2.88,0.4,3.1
		c0.02,0.34,0.06,0.67,0.08,1.01c0.23,2.91,0.38,5.84,0.72,8.74c0.29,2.5,0.79,4.98,1.23,7.46c0.5,2.81,1.38,5.51,2.44,8.15
		c0.28,0.69,0.8,0.92,1.72,0.82c0.95-0.1,1.41-0.41,1.5-1.16c0.1-0.78,0.14-1.58,0.12-2.37c-0.13-4.46-0.75-8.85-2.12-13.11
		c-0.92-2.87-1.86-5.74-2.78-8.61c-0.14-0.44-1.11-4.35-1.1-4.5c0.02-0.31-0.04-0.62-0.01-0.93c0.13-1.21,1-2,1.72-2.84
		c1.54-1.8,2.04-3.91,1.87-6.19c-0.07-0.9-0.28-1.81-0.52-2.68C173.96,53.47,172.74,51.24,170.59,49.65z"/>
	<path class="st0" d="M95.38,181.4c-0.88-0.41-1.74-0.36-2.57,0.21c-0.96,0.65-1.3,1.62-1.42,2.67c-0.22,1.8,0.05,3.54,0.84,5.2
		c0.56,1.18,1.33,2.13,2.63,2.55c0.22,0.07,0.43,0.16,0.65,0.22c0.77,0.24,1.37,0.66,1.54,1.52c0.02,0.1,0.6,1.76,0.64,1.89
		c0.06,0.21,0.12,0.42,0.18,0.62c0.51,1.8,0.96,3.62,1.54,5.39c0.49,1.53,1.11,3.03,1.7,4.53c0.66,1.7,1.55,3.29,2.54,4.81
		c0.26,0.4,0.62,0.48,1.18,0.3c0.59-0.18,0.83-0.43,0.8-0.92c-0.04-0.5-0.11-1.01-0.22-1.5c-0.64-2.78-1.57-5.46-2.96-7.96
		c-0.93-1.69-1.88-3.37-2.82-5.06c-0.14-0.26-1.23-2.59-1.25-2.69c-0.03-0.2-0.1-0.38-0.12-0.58c-0.07-0.77,0.38-1.38,0.73-2
		c0.74-1.32,0.8-2.7,0.41-4.12c-0.15-0.56-0.4-1.1-0.66-1.62C97.97,183.38,96.93,182.13,95.38,181.4z"/>
	<path class="st0" d="M315.7,274.86c-0.16-1.5-0.93-2.62-2.35-3.28c-1.64-0.76-3.22-0.42-4.73,0.26c-2.59,1.17-4.7,2.93-6.28,5.32
		c-1.13,1.71-1.78,3.51-1.29,5.58c0.08,0.35,0.14,0.7,0.22,1.05c0.3,1.23,0.23,2.36-0.79,3.28c-0.12,0.11-1.87,2.23-2.02,2.38
		c-0.23,0.24-0.46,0.49-0.69,0.74c-2,2.13-4.06,4.21-5.98,6.41c-1.65,1.9-3.15,3.93-4.69,5.93c-1.74,2.26-3.15,4.73-4.39,7.29
		c-0.32,0.67-0.14,1.21,0.55,1.83c0.72,0.64,1.25,0.77,1.87,0.33c0.65-0.45,1.27-0.96,1.83-1.51c3.21-3.1,6.04-6.51,8.27-10.39
		c1.5-2.61,2.99-5.24,4.5-7.85c0.23-0.4,2.47-3.75,2.59-3.84c0.24-0.19,0.43-0.45,0.68-0.63c0.98-0.71,2.15-0.61,3.26-0.64
		c2.37-0.07,4.26-1.12,5.84-2.78c0.62-0.66,1.15-1.42,1.63-2.19C315.14,279.93,315.97,277.53,315.7,274.86z"/>
	<path class="st0" d="M246.59,329.63c-0.67,0.1-1.15,0.48-1.41,1.13c-0.3,0.75-0.12,1.45,0.22,2.11c0.58,1.13,1.42,2.04,2.52,2.69
		c0.79,0.47,1.61,0.72,2.52,0.45c0.15-0.05,0.31-0.08,0.46-0.12c0.54-0.16,1.05-0.16,1.49,0.28c0.05,0.05,1.04,0.79,1.11,0.85
		c0.11,0.1,0.23,0.19,0.35,0.29c1,0.84,1.97,1.72,3,2.53c0.89,0.69,1.83,1.32,2.76,1.96c1.05,0.73,2.18,1.3,3.36,1.79
		c0.31,0.13,0.54,0.04,0.8-0.29c0.27-0.34,0.32-0.58,0.11-0.84c-0.22-0.28-0.46-0.54-0.72-0.79c-1.46-1.36-3.05-2.55-4.83-3.46
		c-1.2-0.61-2.41-1.22-3.61-1.83c-0.18-0.09-1.73-1.02-1.78-1.07c-0.09-0.1-0.21-0.18-0.3-0.29c-0.34-0.42-0.32-0.95-0.36-1.44
		c-0.09-1.06-0.6-1.88-1.38-2.55c-0.31-0.26-0.66-0.48-1.02-0.68C248.87,329.77,247.78,329.45,246.59,329.63z"/>
	<path class="st0" d="M261.77,199.52c0.74,0.4,1.5,0.39,2.25-0.05c0.86-0.52,1.21-1.35,1.37-2.26c0.28-1.56,0.13-3.09-0.48-4.57
		c-0.43-1.06-1.06-1.92-2.17-2.35c-0.19-0.07-0.37-0.16-0.55-0.23c-0.66-0.25-1.16-0.64-1.26-1.4c-0.01-0.09-0.44-1.56-0.46-1.68
		c-0.04-0.18-0.08-0.37-0.12-0.55c-0.35-1.59-0.66-3.19-1.08-4.77c-0.36-1.36-0.82-2.69-1.26-4.02c-0.5-1.51-1.19-2.94-1.98-4.31
		c-0.21-0.36-0.51-0.45-1.02-0.32c-0.52,0.13-0.75,0.33-0.74,0.76c0.01,0.44,0.04,0.88,0.12,1.32c0.42,2.45,1.1,4.83,2.19,7.08
		c0.73,1.52,1.47,3.03,2.21,4.54c0.11,0.23,0.95,2.32,0.96,2.4c0.01,0.17,0.07,0.34,0.08,0.51c0.02,0.68-0.39,1.18-0.73,1.7
		c-0.71,1.11-0.82,2.32-0.56,3.57c0.11,0.49,0.29,0.98,0.5,1.44C259.61,197.67,260.46,198.81,261.77,199.52z"/>
	<path class="st0" d="M159.93,263.02c0.83-0.16,1.41-0.65,1.7-1.47c0.34-0.95,0.08-1.81-0.38-2.61c-0.78-1.38-1.86-2.47-3.27-3.23
		c-1.01-0.54-2.04-0.81-3.16-0.44c-0.19,0.06-0.38,0.11-0.57,0.18c-0.67,0.23-1.3,0.25-1.86-0.28c-0.07-0.06-1.33-0.93-1.42-1
		c-0.15-0.12-0.3-0.23-0.45-0.35c-1.28-1-2.54-2.05-3.86-3c-1.14-0.82-2.34-1.56-3.53-2.31c-1.34-0.85-2.78-1.51-4.27-2.07
		c-0.39-0.15-0.68-0.02-0.99,0.4c-0.32,0.43-0.37,0.73-0.09,1.06c0.28,0.34,0.6,0.66,0.93,0.94c1.88,1.63,3.92,3.03,6.18,4.08
		c1.53,0.71,3.06,1.4,4.59,2.11c0.23,0.11,2.2,1.19,2.26,1.25c0.12,0.12,0.27,0.22,0.38,0.35c0.45,0.51,0.44,1.16,0.52,1.78
		c0.16,1.31,0.83,2.31,1.84,3.11c0.4,0.31,0.85,0.57,1.3,0.8C157.08,262.96,158.46,263.3,159.93,263.02z"/>
	<path class="st0" d="M201.84,258.29c0.7,0.47,1.45,0.54,2.25,0.16c0.91-0.43,1.33-1.23,1.58-2.12c0.42-1.53,0.42-3.06-0.04-4.59
		c-0.33-1.1-0.87-2.01-1.93-2.54c-0.18-0.09-0.35-0.19-0.53-0.28c-0.63-0.31-1.09-0.75-1.12-1.51c0-0.09-0.29-1.6-0.3-1.72
		c-0.02-0.19-0.05-0.37-0.07-0.56c-0.2-1.62-0.35-3.24-0.61-4.85c-0.22-1.39-0.56-2.76-0.87-4.13c-0.35-1.55-0.9-3.04-1.56-4.48
		c-0.17-0.38-0.47-0.49-0.98-0.42c-0.53,0.08-0.78,0.26-0.81,0.68c-0.04,0.44-0.04,0.89-0.01,1.32c0.18,2.48,0.63,4.91,1.5,7.25
		c0.58,1.58,1.17,3.15,1.76,4.73c0.09,0.24,0.72,2.4,0.72,2.48c0,0.17,0.04,0.35,0.03,0.52c-0.05,0.68-0.51,1.14-0.89,1.63
		c-0.81,1.04-1.04,2.23-0.9,3.5c0.06,0.5,0.2,1,0.36,1.48C199.87,256.24,200.6,257.46,201.84,258.29z"/>
	<path class="st0" d="M134.76,284.91l-14.83,15.51c-0.95,0.99-0.88,2.57,0.15,3.48l52.19,42.83l3.18,3.05
		c0.87,0.83,2.26,0.8,3.09-0.07l8.11-8.49c0.83-0.87,0.8-2.26-0.07-3.09l-3.18-3.05l-45.16-50.18
		C137.29,283.92,135.71,283.92,134.76,284.91z"/>
	<path class="st0" d="M34.17,155.42c2.34-6.58,4.08-13.45,7.15-19.67c5.1-10.33,3.8-8.79,12.95-4.88
		c11.44,4.88,21.02,12.64,30.44,20.57c0.76,0.64,1.39,2.73,0.99,3.19c-0.77,0.88-2.44,1.63-3.53,1.41
		c-2.02-0.41-3.94-1.48-5.83-2.41c-2.86-1.41-5.03-1.45-5.95,2.29c-0.37,1.5-1.17,2.9-2.22,5.43c2.77,0.7,5.33,1.15,7.73,2.04
		c1.19,0.44,2.09,1.69,3.13,2.57c-1.11,0.7-2.13,1.78-3.33,2.03c-11.71,2.5-23.13,0.17-34.53-2.3c-2.56-0.55-5.07-1.29-7.83-2
		c0.32-2.99,0.61-5.7,0.9-8.42C34.22,155.27,34.17,155.42,34.17,155.42z"/>
	<path class="st0" d="M221.02,278.39c-3.87-1.99-7.97-3.63-11.56-6.04c-5.96-4-5.11-3.07-1.94-8.4c3.96-6.66,9.55-11.94,15.23-17.09
		c0.46-0.42,1.8-0.63,2.05-0.35c0.48,0.55,0.8,1.64,0.58,2.3c-0.42,1.22-1.24,2.31-1.97,3.4c-1.11,1.65-1.31,2.98,0.92,3.86
		c0.9,0.35,1.69,0.96,3.17,1.82c0.66-1.65,1.15-3.19,1.9-4.6c0.37-0.7,1.21-1.15,1.84-1.72c0.34,0.74,0.92,1.46,0.98,2.23
		c0.57,7.44-1.81,14.3-4.28,21.13c-0.55,1.53-1.22,3.03-1.88,4.67c-1.82-0.44-3.47-0.85-5.12-1.25
		C220.93,278.34,221.02,278.39,221.02,278.39z"/>
	<path class="st0" d="M177.62,213.43c2.39-1.88,4.63-4.01,7.21-5.58c4.28-2.62,3.44-2.35,5.91,1.21c3.08,4.46,4.81,9.55,6.43,14.66
		c0.13,0.41-0.12,1.33-0.38,1.41c-0.49,0.14-1.28,0.03-1.63-0.3c-0.65-0.62-1.11-1.46-1.59-2.24c-0.73-1.19-1.51-1.7-2.72-0.54
		c-0.49,0.47-1.1,0.8-2.08,1.48c0.86,0.9,1.69,1.66,2.37,2.55c0.34,0.44,0.38,1.11,0.55,1.67c-0.57,0-1.2,0.16-1.7-0.03
		c-4.9-1.8-8.56-5.32-12.18-8.88c-0.81-0.8-1.57-1.65-2.42-2.56c0.81-1.03,1.55-1.96,2.29-2.89
		C177.67,213.38,177.62,213.43,177.62,213.43z"/>
	<path class="st0" d="M109.16,213.84c-0.04,0.02-0.08,0.04-0.12,0.06c0.07,0.2,0.12,0.42,0.22,0.61c0.85,1.69,1.71,3.37,2.56,5.05
		c0.31,0.61,0.62,1.22,0.92,1.84c0.11,0.23,0.09,0.45-0.16,0.58c-0.26,0.13-0.29-0.14-0.36-0.27c-0.47-0.84-0.91-1.7-1.39-2.54
		c-0.8-1.42-1.62-2.83-2.43-4.24c-0.09-0.16-0.21-0.29-0.32-0.44c-0.03,0.02-0.07,0.03-0.1,0.05c0.02,0.11,0.02,0.24,0.06,0.34
		c0.55,1.21,1.1,2.41,1.66,3.61c0.59,1.26,1.2,2.51,1.77,3.78c0.01,0.03,0.01,0.07,0,0.11c-0.06,0.2-0.31,0.29-0.48,0.16
		c0,0,0,0-0.01-0.01c-0.07-0.06-0.11-0.17-0.15-0.26c-0.46-0.94-0.9-1.89-1.37-2.82c-0.67-1.3-1.37-2.58-2.06-3.87
		c-0.09-0.16-0.22-0.3-0.33-0.44c-0.04,0.01-0.07,0.03-0.11,0.04c0.02,0.13,0.02,0.27,0.08,0.39c0.75,1.78,1.51,3.56,2.26,5.34
		c0.29,0.7,0.56,1.42,0.83,2.13c0.08,0.22-0.03,0.37-0.22,0.41c-0.07,0.02-0.22-0.12-0.27-0.22c-0.44-0.97-0.85-1.96-1.31-2.92
		c-0.67-1.42-1.36-2.84-2.04-4.25c-0.06-0.13-0.17-0.24-0.26-0.35c-0.03,0.02-0.07,0.03-0.1,0.05c0.03,0.15,0.05,0.32,0.1,0.46
		c0.16,0.44,0.34,0.88,0.5,1.32c0.63,1.72,1.25,3.44,1.89,5.15c0.29,0.78,0.6,1.55,0.95,2.3c0.26,0.57,0.68,0.97,1.37,0.98
		c0.63,0.01,0.97,0.42,1.15,0.97c0.41,1.24,0.81,2.47,1.21,3.71c0.42,1.28,0.81,2.57,1.24,3.84c0.45,1.32,0.9,2.63,1.41,3.92
		c0.44,1.1,0.94,2.17,1.45,3.24c0.55,1.16,1.16,2.28,1.98,3.28c0.32,0.39,0.67,0.47,1.1,0.28c0.43-0.19,0.63-0.52,0.52-1.01
		c-0.3-1.31-0.55-2.64-0.98-3.9c-0.48-1.4-1.08-2.78-1.74-4.11c-0.88-1.79-1.89-3.51-2.81-5.29c-0.56-1.07-1.05-2.18-1.55-3.28
		c-0.16-0.36-0.27-0.76-0.33-1.16c-0.09-0.65,0.26-1.19,0.53-1.74c0.15-0.31,0.29-0.64,0.36-0.97c0.22-0.98-0.17-1.84-0.62-2.66
		c-0.62-1.12-1.26-2.23-1.92-3.33c-0.73-1.21-1.51-2.4-2.27-3.59C109.39,214.08,109.27,213.96,109.16,213.84z"/>
	<path class="st0" d="M213.08,295.19c-0.04,0.02-0.08,0.04-0.12,0.06c0.07,0.2,0.12,0.42,0.22,0.61c0.85,1.69,1.71,3.37,2.56,5.05
		c0.31,0.61,0.62,1.22,0.92,1.84c0.11,0.23,0.09,0.45-0.16,0.58c-0.26,0.13-0.29-0.14-0.36-0.27c-0.47-0.84-0.91-1.7-1.39-2.54
		c-0.8-1.42-1.62-2.83-2.43-4.24c-0.09-0.16-0.21-0.29-0.32-0.44c-0.03,0.02-0.07,0.03-0.1,0.05c0.02,0.11,0.02,0.24,0.06,0.34
		c0.55,1.21,1.1,2.41,1.66,3.61c0.59,1.26,1.2,2.51,1.77,3.78c0.01,0.03,0.01,0.07,0,0.11c-0.06,0.2-0.31,0.29-0.48,0.16
		c0,0,0,0-0.01-0.01c-0.07-0.06-0.11-0.17-0.15-0.26c-0.46-0.94-0.9-1.89-1.37-2.82c-0.67-1.3-1.37-2.58-2.06-3.87
		c-0.09-0.16-0.22-0.3-0.33-0.44c-0.04,0.01-0.07,0.03-0.11,0.04c0.02,0.13,0.02,0.27,0.08,0.39c0.75,1.78,1.51,3.56,2.26,5.34
		c0.29,0.7,0.56,1.42,0.83,2.13c0.08,0.22-0.03,0.37-0.22,0.41c-0.07,0.02-0.22-0.12-0.27-0.22c-0.44-0.97-0.85-1.96-1.31-2.92
		c-0.67-1.42-1.36-2.84-2.04-4.25c-0.06-0.13-0.17-0.24-0.26-0.35c-0.03,0.02-0.07,0.03-0.1,0.05c0.03,0.15,0.05,0.32,0.1,0.46
		c0.16,0.44,0.34,0.88,0.5,1.32c0.63,1.72,1.25,3.44,1.89,5.15c0.29,0.78,0.6,1.55,0.95,2.3c0.26,0.57,0.68,0.97,1.37,0.98
		c0.63,0.01,0.97,0.42,1.15,0.97c0.41,1.24,0.81,2.47,1.21,3.71c0.42,1.28,0.81,2.57,1.24,3.84c0.45,1.32,0.9,2.63,1.41,3.92
		c0.44,1.1,0.94,2.17,1.45,3.24c0.55,1.16,1.16,2.28,1.98,3.28c0.32,0.39,0.67,0.47,1.1,0.28c0.43-0.19,0.63-0.52,0.52-1.01
		c-0.3-1.31-0.55-2.64-0.98-3.9c-0.48-1.4-1.08-2.78-1.74-4.11c-0.88-1.79-1.89-3.51-2.81-5.29c-0.56-1.07-1.05-2.18-1.55-3.28
		c-0.16-0.36-0.27-0.76-0.33-1.16c-0.09-0.65,0.26-1.19,0.53-1.74c0.15-0.31,0.29-0.64,0.36-0.97c0.22-0.98-0.17-1.84-0.62-2.66
		c-0.62-1.12-1.26-2.23-1.92-3.33c-0.73-1.21-1.51-2.4-2.27-3.59C213.31,295.43,213.18,295.32,213.08,295.19z"/>
	<path class="st0" d="M170.01,309.53c-0.03,0.04-0.05,0.07-0.08,0.11c0.16,0.15,0.3,0.32,0.48,0.44c1.53,1.11,3.06,2.21,4.59,3.31
		c0.56,0.4,1.11,0.8,1.66,1.21c0.2,0.15,0.29,0.36,0.13,0.58c-0.17,0.24-0.32,0.01-0.45-0.08c-0.8-0.53-1.59-1.1-2.4-1.63
		c-1.36-0.89-2.73-1.77-4.11-2.66c-0.15-0.1-0.33-0.16-0.49-0.24c-0.02,0.03-0.04,0.06-0.07,0.09c0.07,0.09,0.12,0.2,0.21,0.27
		c1.04,0.82,2.08,1.64,3.13,2.45c1.1,0.85,2.22,1.68,3.31,2.55c0.03,0.02,0.04,0.06,0.05,0.1c0.04,0.21-0.14,0.4-0.35,0.36
		c0,0-0.01,0-0.01,0c-0.09-0.02-0.17-0.1-0.26-0.16c-0.84-0.62-1.66-1.27-2.51-1.87c-1.19-0.85-2.4-1.67-3.6-2.49
		c-0.15-0.1-0.33-0.16-0.49-0.25c-0.02,0.03-0.05,0.06-0.07,0.09c0.08,0.11,0.15,0.23,0.25,0.31c1.48,1.24,2.97,2.47,4.45,3.71
		c0.58,0.49,1.14,1.01,1.71,1.51c0.17,0.16,0.14,0.34,0,0.47c-0.05,0.05-0.25,0-0.34-0.07c-0.84-0.66-1.66-1.35-2.5-2
		c-1.25-0.96-2.51-1.9-3.77-2.84c-0.11-0.09-0.26-0.13-0.39-0.19c-0.02,0.03-0.05,0.06-0.07,0.09c0.1,0.12,0.19,0.26,0.3,0.36
		c0.35,0.32,0.71,0.63,1.05,0.95c1.35,1.24,2.69,2.49,4.04,3.72c0.61,0.56,1.25,1.1,1.9,1.61c0.49,0.39,1.05,0.55,1.67,0.24
		c0.57-0.28,1.05-0.07,1.47,0.34c0.93,0.91,1.85,1.83,2.78,2.74c0.96,0.95,1.9,1.91,2.87,2.84c1,0.96,2.01,1.93,3.05,2.84
		c0.89,0.78,1.83,1.5,2.78,2.22c1.02,0.78,2.08,1.5,3.26,2.01c0.47,0.2,0.81,0.11,1.11-0.25c0.3-0.37,0.33-0.75,0-1.14
		c-0.87-1.02-1.7-2.09-2.66-3.02c-1.07-1.03-2.24-1.97-3.43-2.85c-1.61-1.18-3.29-2.26-4.92-3.41c-0.99-0.7-1.94-1.45-2.88-2.21
		c-0.31-0.25-0.59-0.55-0.82-0.88c-0.38-0.54-0.32-1.17-0.33-1.79c-0.01-0.34-0.04-0.7-0.12-1.03c-0.25-0.97-0.99-1.55-1.77-2.07
		c-1.06-0.71-2.14-1.41-3.23-2.07c-1.21-0.74-2.44-1.44-3.66-2.15C170.32,309.64,170.16,309.6,170.01,309.53z"/>
	<path class="st0" d="M228.68,148.67c-0.03,0.04-0.05,0.07-0.08,0.11c0.16,0.15,0.3,0.32,0.48,0.44c1.53,1.11,3.06,2.21,4.59,3.31
		c0.56,0.4,1.11,0.8,1.66,1.21c0.2,0.15,0.29,0.36,0.13,0.58c-0.17,0.24-0.32,0.01-0.45-0.08c-0.8-0.53-1.59-1.1-2.4-1.63
		c-1.36-0.89-2.73-1.77-4.11-2.66c-0.15-0.1-0.33-0.16-0.49-0.24c-0.02,0.03-0.04,0.06-0.07,0.09c0.07,0.09,0.12,0.2,0.21,0.27
		c1.04,0.82,2.08,1.64,3.13,2.45c1.1,0.85,2.22,1.68,3.31,2.55c0.03,0.02,0.04,0.06,0.05,0.1c0.04,0.21-0.14,0.4-0.35,0.36
		c0,0-0.01,0-0.01,0c-0.09-0.02-0.17-0.1-0.26-0.16c-0.84-0.62-1.66-1.27-2.51-1.87c-1.19-0.85-2.4-1.67-3.6-2.49
		c-0.15-0.1-0.33-0.16-0.49-0.25c-0.02,0.03-0.05,0.06-0.07,0.09c0.08,0.11,0.15,0.23,0.25,0.31c1.48,1.24,2.97,2.47,4.45,3.71
		c0.58,0.49,1.14,1.01,1.71,1.51c0.17,0.16,0.14,0.34,0,0.47c-0.05,0.05-0.25,0-0.34-0.07c-0.84-0.66-1.66-1.35-2.5-2
		c-1.25-0.96-2.51-1.9-3.77-2.84c-0.11-0.09-0.26-0.13-0.39-0.19c-0.02,0.03-0.05,0.06-0.07,0.09c0.1,0.12,0.19,0.26,0.3,0.36
		c0.35,0.32,0.71,0.63,1.05,0.95c1.35,1.24,2.69,2.49,4.04,3.72c0.61,0.56,1.25,1.1,1.9,1.61c0.49,0.39,1.05,0.55,1.67,0.24
		c0.57-0.28,1.05-0.07,1.47,0.34c0.93,0.91,1.85,1.83,2.78,2.74c0.96,0.95,1.9,1.91,2.87,2.84c1,0.96,2.01,1.93,3.05,2.84
		c0.89,0.78,1.83,1.5,2.78,2.22c1.02,0.78,2.08,1.5,3.26,2.01c0.47,0.2,0.81,0.11,1.11-0.25c0.3-0.37,0.33-0.75,0-1.14
		c-0.87-1.02-1.7-2.09-2.66-3.02c-1.07-1.03-2.24-1.97-3.43-2.85c-1.61-1.18-3.29-2.26-4.92-3.41c-0.99-0.7-1.94-1.45-2.88-2.21
		c-0.31-0.25-0.59-0.55-0.82-0.88c-0.38-0.54-0.32-1.17-0.33-1.79c-0.01-0.34-0.04-0.7-0.12-1.03c-0.25-0.97-0.99-1.55-1.77-2.07
		c-1.06-0.71-2.14-1.41-3.23-2.07c-1.21-0.74-2.44-1.44-3.66-2.15C228.99,148.77,228.83,148.73,228.68,148.67z"/>
	<path class="st0" d="M56.34,286.03c0.04,0.03,0.08,0.06,0.12,0.09c0.17-0.18,0.37-0.34,0.51-0.54c1.28-1.72,2.56-3.45,3.83-5.18
		c0.46-0.63,0.93-1.25,1.4-1.87c0.18-0.23,0.42-0.32,0.67-0.14c0.27,0.2,0,0.37-0.09,0.51c-0.62,0.91-1.27,1.8-1.88,2.71
		c-1.04,1.54-2.06,3.09-3.08,4.64c-0.11,0.17-0.19,0.37-0.28,0.55c0.03,0.03,0.07,0.05,0.1,0.08c0.1-0.08,0.23-0.14,0.31-0.24
		c0.95-1.17,1.9-2.35,2.83-3.53c0.98-1.24,1.95-2.5,2.94-3.73c0.02-0.03,0.06-0.05,0.11-0.06c0.23-0.05,0.45,0.17,0.41,0.4
		c0,0,0,0.01,0,0.01c-0.02,0.1-0.11,0.2-0.18,0.29c-0.72,0.94-1.47,1.87-2.17,2.83c-0.98,1.34-1.93,2.71-2.89,4.07
		c-0.12,0.17-0.19,0.37-0.29,0.56c0.03,0.03,0.06,0.06,0.1,0.09c0.12-0.09,0.27-0.16,0.36-0.28c1.43-1.67,2.85-3.35,4.28-5.02
		c0.57-0.66,1.16-1.29,1.75-1.93c0.18-0.2,0.39-0.15,0.53,0.01c0.05,0.06-0.01,0.29-0.09,0.38c-0.76,0.95-1.55,1.87-2.31,2.82
		c-1.11,1.4-2.2,2.83-3.29,4.25c-0.1,0.13-0.15,0.29-0.23,0.44c0.03,0.03,0.07,0.05,0.1,0.08c0.14-0.11,0.3-0.21,0.42-0.34
		c0.37-0.39,0.72-0.79,1.09-1.19c1.43-1.52,2.87-3.02,4.28-4.55c0.64-0.69,1.27-1.4,1.86-2.14c0.45-0.56,0.64-1.18,0.3-1.89
		c-0.31-0.65-0.06-1.2,0.41-1.67c1.05-1.05,2.1-2.09,3.16-3.13c1.09-1.07,2.2-2.13,3.27-3.22c1.11-1.13,2.22-2.26,3.27-3.44
		c0.9-1,1.73-2.07,2.56-3.13c0.9-1.15,1.73-2.34,2.33-3.69c0.23-0.53,0.14-0.92-0.27-1.27c-0.41-0.34-0.85-0.38-1.29-0.01
		c-1.18,0.97-2.41,1.9-3.47,2.99c-1.18,1.21-2.27,2.52-3.29,3.87c-1.37,1.81-2.61,3.72-3.95,5.55c-0.81,1.11-1.68,2.18-2.55,3.25
		c-0.29,0.35-0.64,0.67-1.01,0.92c-0.61,0.42-1.34,0.34-2.04,0.35c-0.39,0-0.79,0.03-1.17,0.12c-1.11,0.27-1.78,1.11-2.38,1.99
		c-0.83,1.2-1.63,2.42-2.4,3.65c-0.86,1.36-1.67,2.76-2.5,4.14C56.46,285.67,56.41,285.85,56.34,286.03z"/>
	<path class="st0" d="M312.16,205.76c-0.04,0.03-0.08,0.06-0.12,0.09c0.11,0.21,0.21,0.44,0.34,0.64c1.22,1.71,2.44,3.41,3.66,5.11
		c0.44,0.62,0.88,1.24,1.32,1.86c0.16,0.23,0.18,0.48-0.07,0.66c-0.27,0.19-0.34-0.11-0.45-0.24c-0.66-0.85-1.29-1.72-1.95-2.56
		c-1.12-1.42-2.25-2.84-3.38-4.25c-0.13-0.16-0.29-0.29-0.43-0.43c-0.03,0.02-0.07,0.05-0.1,0.07c0.04,0.12,0.06,0.26,0.13,0.36
		c0.81,1.23,1.61,2.46,2.43,3.69c0.86,1.29,1.74,2.56,2.58,3.85c0.02,0.03,0.02,0.07,0.02,0.12c-0.03,0.23-0.29,0.37-0.5,0.26
		c0,0-0.01,0-0.01,0c-0.09-0.05-0.15-0.16-0.21-0.26c-0.66-0.95-1.3-1.92-1.98-2.86c-0.95-1.31-1.94-2.6-2.91-3.9
		c-0.12-0.16-0.29-0.29-0.43-0.43c-0.04,0.02-0.07,0.04-0.11,0.06c0.05,0.14,0.07,0.3,0.15,0.42c1.12,1.83,2.26,3.65,3.38,5.48
		c0.44,0.72,0.85,1.47,1.27,2.2c0.13,0.23,0.02,0.41-0.17,0.49c-0.07,0.03-0.26-0.09-0.33-0.19c-0.65-0.99-1.27-2-1.93-2.99
		c-0.97-1.45-1.97-2.89-2.96-4.33c-0.09-0.13-0.23-0.23-0.34-0.34c-0.04,0.02-0.07,0.05-0.11,0.07c0.06,0.16,0.11,0.34,0.19,0.49
		c0.25,0.46,0.52,0.91,0.77,1.37c0.98,1.78,1.95,3.57,2.94,5.34c0.45,0.8,0.92,1.6,1.43,2.37c0.38,0.58,0.91,0.95,1.67,0.85
		c0.7-0.09,1.13,0.3,1.43,0.88c0.66,1.29,1.31,2.58,1.96,3.87c0.67,1.33,1.32,2.68,2.01,4.01c0.71,1.37,1.43,2.74,2.21,4.07
		c0.66,1.13,1.4,2.23,2.14,3.32c0.8,1.18,1.66,2.31,2.73,3.27c0.42,0.37,0.82,0.41,1.26,0.13c0.44-0.28,0.61-0.67,0.4-1.2
		c-0.55-1.39-1.05-2.8-1.74-4.12c-0.76-1.46-1.66-2.86-2.61-4.22c-1.27-1.81-2.67-3.54-3.97-5.33c-0.79-1.09-1.52-2.21-2.25-3.34
		c-0.24-0.37-0.43-0.79-0.56-1.22c-0.21-0.7,0.08-1.35,0.29-2c0.12-0.36,0.21-0.75,0.24-1.13c0.08-1.11-0.5-1.99-1.13-2.81
		c-0.87-1.13-1.76-2.24-2.67-3.33c-1.01-1.2-2.06-2.38-3.1-3.56C312.45,205.98,312.3,205.88,312.16,205.76z"/>
	<path class="st0" d="M283.89,312.75c-0.04,0.03-0.08,0.06-0.12,0.09c0.11,0.21,0.21,0.44,0.34,0.64c1.22,1.71,2.44,3.41,3.66,5.11
		c0.44,0.62,0.88,1.24,1.32,1.86c0.16,0.23,0.18,0.48-0.07,0.66c-0.27,0.19-0.34-0.11-0.45-0.24c-0.66-0.85-1.29-1.72-1.95-2.56
		c-1.12-1.42-2.25-2.84-3.38-4.25c-0.13-0.16-0.29-0.29-0.43-0.43c-0.03,0.02-0.07,0.05-0.1,0.07c0.04,0.12,0.06,0.26,0.13,0.36
		c0.81,1.23,1.61,2.46,2.43,3.69c0.86,1.29,1.74,2.56,2.58,3.85c0.02,0.03,0.02,0.07,0.02,0.12c-0.03,0.23-0.29,0.37-0.5,0.26
		c0,0-0.01,0-0.01,0c-0.09-0.05-0.15-0.16-0.21-0.26c-0.66-0.95-1.3-1.92-1.98-2.86c-0.95-1.31-1.94-2.6-2.91-3.9
		c-0.12-0.16-0.29-0.29-0.43-0.43c-0.04,0.02-0.07,0.04-0.11,0.06c0.05,0.14,0.07,0.3,0.15,0.42c1.12,1.83,2.26,3.65,3.38,5.48
		c0.44,0.72,0.85,1.47,1.27,2.2c0.13,0.23,0.02,0.41-0.17,0.49c-0.07,0.03-0.26-0.09-0.33-0.19c-0.65-0.99-1.27-2-1.93-2.99
		c-0.97-1.45-1.97-2.89-2.96-4.33c-0.09-0.13-0.23-0.23-0.34-0.34c-0.04,0.02-0.07,0.05-0.11,0.07c0.06,0.16,0.11,0.34,0.19,0.49
		c0.25,0.46,0.52,0.91,0.77,1.37c0.98,1.78,1.95,3.57,2.94,5.34c0.45,0.8,0.92,1.6,1.43,2.37c0.38,0.58,0.91,0.95,1.67,0.85
		c0.7-0.09,1.13,0.3,1.43,0.88c0.66,1.29,1.31,2.58,1.96,3.87c0.67,1.33,1.32,2.68,2.01,4.01c0.71,1.37,1.43,2.74,2.21,4.07
		c0.66,1.13,1.4,2.23,2.14,3.32c0.8,1.18,1.66,2.31,2.73,3.27c0.42,0.37,0.82,0.41,1.26,0.13c0.44-0.28,0.61-0.67,0.4-1.2
		c-0.55-1.39-1.05-2.8-1.74-4.12c-0.76-1.46-1.66-2.86-2.61-4.22c-1.27-1.81-2.67-3.54-3.97-5.33c-0.79-1.09-1.52-2.21-2.25-3.34
		c-0.24-0.37-0.43-0.79-0.56-1.22c-0.21-0.7,0.08-1.35,0.29-2c0.12-0.36,0.21-0.75,0.24-1.13c0.08-1.11-0.5-1.99-1.13-2.81
		c-0.87-1.13-1.76-2.24-2.67-3.33c-1.01-1.2-2.06-2.38-3.1-3.56C284.18,312.97,284.02,312.87,283.89,312.75z"/>
	<path class="st0" d="M149.96,98.63c-2.54,2.62-11.34,10.52-10.93,11.02c4.13,5.04,10.46,11.99,15.52,15.96
		c0.91,0.71,4.39-5.09,7.46-7.44c1.72-1.32,3.52-3.35,5.04-4.93c4.54-4.71,6.58-6.83,9.36-8.97c1.03-0.79-3.53-2.59-6.21-10.53
		c-4.86-9.91-6.92-8.44-13.73-2.02c-2.3,2.17-4.41,4.53-6.61,6.8C149.89,98.56,149.93,98.59,149.96,98.63z M148.55,111.31l4.96,4.79
		c0.66,0.64,0.68,1.71,0.04,2.37c-0.64,0.66-1.71,0.68-2.37,0.04l-4.96-4.79c-0.66-0.64-0.68-1.71-0.04-2.37
		C146.82,110.69,147.89,110.67,148.55,111.31z"/>
	<path class="st0" d="M150.05,76.96l-12.5-4.82c-0.8-0.31-1.69,0.11-1.97,0.92l-12.14,40.35l-0.99,2.57
		c-0.27,0.7,0.08,1.49,0.78,1.76l6.84,2.64c0.7,0.27,1.49-0.08,1.76-0.78l0.99-2.57l18.07-38.07
		C151.23,78.18,150.85,77.27,150.05,76.96z"/>
	<path class="st0" d="M166.83,19.23l-7.74,3.83c-0.49,0.24-0.69,0.85-0.42,1.34l13.87,23.36l0.79,1.59c0.22,0.44,0.74,0.61,1.18,0.4
		l4.23-2.1c0.44-0.22,0.61-0.74,0.4-1.18l-0.79-1.59l-10.2-25.18C167.92,19.2,167.32,18.98,166.83,19.23z"/>
	<g class="st2">
		<path class="st3" d="M258.84,248.88l2.4-2.66l6.5-1.31c0.86-0.17,1.74,0.07,2.39,0.66l12.91,11.67c0.79,0.71,1.1,1.81,0.8,2.83
			l-1.53,5.2l0.78,0.71l4.51-2.25c1.02-0.51,2.24-0.34,3.08,0.42l4.49,4.06c0.83,0.75,1.12,1.93,0.74,2.99l-1.47,4.07
			c-0.17,0.48-0.21,1-0.11,1.49l0.45,2.22c0.18,0.86-0.07,1.75-0.65,2.4l-4,4.43c-9.28-3.4-22.06-6.72-34.31-5.34
			c0,0-10.23-0.12-20.47-5.57L258.84,248.88z M266.48,250.37l10.7,9.67c0.5,0.45,1.27,0.41,1.71-0.09c0.45-0.5,0.41-1.27-0.09-1.71
			l-10.7-9.67c-0.5-0.45-1.27-0.41-1.72,0.09S265.99,249.92,266.48,250.37z"/>
		<path class="st4" d="M217.52,298.71l31.5,28.47c1.13,1.02,2.87,0.93,3.9-0.2l37.21-41.18c-9.28-3.4-22.06-6.72-34.31-5.34
			c0,0-10.23-0.12-20.47-5.57l-18.02,19.94C216.31,295.95,216.39,297.69,217.52,298.71z"/>
		<g class="st5">
			<g>
				<circle class="st6" cx="255.42" cy="291.24" r="2.25"/>
				<path class="st7" d="M254,290.39c0.08,0.02,0.16,0,0.22-0.06c0.59-0.66,1.2-0.58,1.23-0.57c0.11,0.02,0.22-0.06,0.24-0.17
					c0.02-0.11-0.06-0.22-0.17-0.24c-0.03-0.01-0.85-0.14-1.61,0.71c-0.08,0.09-0.07,0.22,0.02,0.3
					C253.94,290.37,253.97,290.38,254,290.39z"/>
			</g>
			<g>
				<circle class="st6" cx="252.81" cy="286.65" r="1.32"/>
				<path class="st7" d="M251.97,286.15c0.04,0.01,0.1,0,0.13-0.03c0.35-0.39,0.7-0.34,0.72-0.34c0.07,0.01,0.13-0.03,0.14-0.1
					c0.01-0.07-0.03-0.13-0.1-0.14c-0.02,0-0.5-0.08-0.94,0.41c-0.05,0.05-0.04,0.13,0.01,0.17
					C251.94,286.13,251.95,286.14,251.97,286.15z"/>
			</g>
			<g>
				<circle class="st6" cx="251.23" cy="296.28" r="0.98"/>
				<path class="st7" d="M250.61,295.91c0.03,0.01,0.07,0,0.1-0.03c0.26-0.29,0.52-0.25,0.54-0.25c0.05,0.01,0.1-0.03,0.1-0.08
					c0.01-0.05-0.02-0.1-0.07-0.1c-0.01,0-0.37-0.06-0.7,0.31c-0.03,0.04-0.03,0.1,0.01,0.13
					C250.58,295.9,250.6,295.9,250.61,295.91z"/>
			</g>
			<g>
				<circle class="st6" cx="257.28" cy="282.8" r="0.79"/>
				<path class="st7" d="M256.78,282.5c0.03,0.01,0.06,0,0.08-0.02c0.21-0.23,0.42-0.2,0.43-0.2c0.04,0.01,0.08-0.02,0.08-0.06
					c0.01-0.04-0.02-0.08-0.06-0.08c-0.01,0-0.3-0.05-0.57,0.25c-0.03,0.03-0.02,0.08,0.01,0.1
					C256.76,282.49,256.77,282.5,256.78,282.5z"/>
			</g>
			<g>
				<circle class="st6" cx="259.84" cy="291.52" r="0.91"/>
				<path class="st7" d="M259.26,291.17c0.03,0.01,0.07,0,0.09-0.02c0.24-0.27,0.49-0.23,0.5-0.23c0.05,0.01,0.09-0.02,0.1-0.07
					c0.01-0.05-0.02-0.09-0.07-0.1c-0.01,0-0.34-0.06-0.65,0.29c-0.03,0.03-0.03,0.09,0.01,0.12
					C259.24,291.16,259.25,291.17,259.26,291.17z"/>
			</g>
		</g>
	</g>
	<g class="st2">
		<g>
			<circle class="st6" cx="266.4" cy="159.86" r="1.36"/>
			<path class="st7" d="M267.4,159.76c-0.05-0.01-0.09-0.04-0.11-0.09c-0.15-0.52-0.51-0.63-0.52-0.63
				c-0.07-0.02-0.11-0.09-0.09-0.16c0.02-0.07,0.09-0.11,0.16-0.09c0.02,0.01,0.5,0.15,0.7,0.8c0.02,0.07-0.02,0.14-0.09,0.16
				C267.44,159.76,267.42,159.77,267.4,159.76z"/>
		</g>
		<path class="st4" d="M286.84,170.08c0.01,0.09,0.01,0.18-0.01,0.27c-0.78,4.2-7.03,10.45-11.05,13.35
			c-0.68,0.44-1.27,0.63-1.87,0.57c-0.88-0.08-1.76-0.7-2.92-1.8c-1.78-1.72-12.74-10.03-13.17-12.9c-0.07-0.43-0.64-0.62-0.95-0.92
			c-0.19-0.18-0.44-0.26-0.7-0.26c-0.96,0.03-1.8-0.52-2.65-1.28c-0.94-0.85-1.62-1.78-1.6-2.84c0-0.25-0.08-0.49-0.26-0.67
			c-0.19-0.19-0.39-0.37-0.59-0.57c-0.12-0.12-0.36-0.16-0.63-0.19c0.57-0.94,1.16-1.87,1.76-2.79c0,0,3.14-6.4,5.76-16.51
			c0.46,0.36,2.69,1.6,3.41,2.24c1.06,0.94,1.62,2.17,1.65,3.28c0.01,0.45,0.34,0.79,0.78,0.76c2.05-0.13,2.21-0.1,3.67,0.88
			c1.05,0.7,0.84,2.07,1.57,2.92c0.23,0.27,0.25,0.43,0.49,0.5C273.05,155.19,286.4,166.42,286.84,170.08z"/>
		<path class="st3" d="M257.95,143.54c-2.62,10.12-5.76,16.51-5.76,16.51c-0.6,0.92-1.19,1.86-1.76,2.79
			c-0.47-0.05-1.03-0.05-1.25-0.23c-4.72-3.95-8.53-7.32-12.85-11.67c-3.16-3.18-6.15-6.97-7.82-11.06
			c-0.67-1.63-0.11-3.08-0.92-4.46c-0.75-1.27-2.95-2.37-4.21-3.46c-2.45-2.11-1.13-3.54,0.68-5.55c1.77-1.98,2.37-3.54,5.16-1.34
			c1.58,1.24,3.27,3.57,4.74,4.02c1.52,0.46,3.08-0.06,4.86,0.2c3.04,0.46,6.03,2.62,8.62,4.58c4.23,3.18,5.95,5.49,9.6,8.84
			c0.27,0.26,0.56,0.52,0.86,0.79C257.92,143.52,257.93,143.53,257.95,143.54z"/>
		<path class="st8" d="M220.23,128.33l4.88-5.94c0.72-0.88,2.03-1.01,2.9-0.29l1.4,1.15c0.88,0.72,1.01,2.03,0.29,2.9l-4.88,5.94
			c-0.72,0.88-2.03,1.01-2.9,0.29l-1.4-1.15C219.64,130.51,219.51,129.21,220.23,128.33z"/>
		<g>
			<circle class="st6" cx="264.2" cy="159.95" r="1.6"/>
			<path class="st7" d="M265.38,159.84c-0.06-0.01-0.11-0.05-0.12-0.11c-0.18-0.61-0.6-0.74-0.61-0.74
				c-0.08-0.02-0.12-0.11-0.1-0.18c0.02-0.08,0.1-0.12,0.18-0.1c0.02,0.01,0.59,0.17,0.82,0.94c0.02,0.08-0.02,0.16-0.1,0.18
				C265.42,159.84,265.4,159.84,265.38,159.84z"/>
		</g>
		<g>
			<circle class="st6" cx="255.76" cy="152" r="0.53"/>
			<path class="st7" d="M256.15,151.96c-0.02,0-0.04-0.02-0.04-0.03c-0.06-0.2-0.2-0.24-0.2-0.25c-0.03-0.01-0.04-0.03-0.03-0.06
				c0.01-0.03,0.03-0.04,0.06-0.03c0.01,0,0.2,0.06,0.27,0.31c0.01,0.03-0.01,0.05-0.03,0.06
				C256.16,151.96,256.16,151.96,256.15,151.96z"/>
		</g>
		<g>
			<circle class="st6" cx="257.85" cy="157.83" r="0.89"/>
			<path class="st7" d="M258.51,157.77c-0.03,0-0.06-0.03-0.07-0.06c-0.1-0.34-0.33-0.41-0.34-0.41c-0.04-0.01-0.07-0.06-0.06-0.1
				c0.01-0.04,0.06-0.07,0.1-0.06c0.01,0,0.33,0.1,0.46,0.53c0.01,0.04-0.01,0.09-0.06,0.1
				C258.53,157.77,258.52,157.77,258.51,157.77z"/>
		</g>
	</g>
	<g class="st2">
		<g>
			<circle class="st6" cx="198.93" cy="300.59" r="1.76"/>
			<path class="st7" d="M200.06,301.23c-0.05-0.04-0.07-0.11-0.05-0.17c0.22-0.66-0.08-1.04-0.09-1.05
				c-0.06-0.07-0.05-0.17,0.02-0.23c0.07-0.06,0.17-0.05,0.23,0.02c0.02,0.02,0.42,0.52,0.15,1.36c-0.03,0.09-0.12,0.13-0.21,0.1
				C200.1,301.26,200.08,301.24,200.06,301.23z"/>
		</g>
		<path class="st4" d="M213.05,326.41c-0.05,0.1-0.13,0.19-0.21,0.28c-3.91,3.87-15.11,5.89-21.49,6.01
			c-1.04-0.03-1.81-0.27-2.4-0.77c-0.87-0.73-1.36-2.03-1.77-4.05c-0.62-3.12-6.11-19.97-4.46-23.32c0.25-0.51-0.22-1.12-0.33-1.67
			c-0.06-0.33-0.27-0.6-0.56-0.79c-1.04-0.68-1.52-1.88-1.86-3.3c-0.37-1.59-0.4-3.07,0.39-4.18c0.19-0.26,0.27-0.57,0.21-0.9
			c-0.07-0.34-0.14-0.69-0.21-1.03c-0.04-0.21-0.26-0.44-0.53-0.67c1.3-0.57,2.6-1.13,3.91-1.66c0,0,8.02-4.46,18.22-13.24
			c0.22,0.72,1.67,3.67,1.96,4.87c0.43,1.77,0.12,3.48-0.66,4.69c-0.32,0.49-0.22,1.08,0.27,1.37c2.26,1.37,2.41,1.52,3.24,3.63
			c0.6,1.52-0.63,2.8-0.48,4.24c0.05,0.46-0.05,0.64,0.15,0.89C209.4,300.54,215.27,322.22,213.05,326.41z"/>
		<path class="st3" d="M201.97,277.12c-10.2,8.78-18.22,13.24-18.22,13.24c-1.31,0.54-2.62,1.09-3.91,1.66
			c-0.46-0.4-1.05-0.81-1.16-1.16c-2.09-7.64-3.65-14.01-5.03-21.78c-1.01-5.69-1.39-11.89-0.16-17.44
			c0.49-2.21,2.15-3.34,2.31-5.39c0.14-1.9-1.38-4.67-1.91-6.75c-1.04-4.04,1.4-4.57,4.79-5.37c3.33-0.8,5.11-2.01,6.45,2.37
			c0.76,2.47,0.84,6.18,2.06,7.74c1.27,1.6,3.31,2.2,5,3.78c2.88,2.72,4.45,7.2,5.76,11.17c2.14,6.47,2.27,10.18,3.67,16.4
			c0.09,0.47,0.21,0.96,0.33,1.47C201.96,277.07,201.96,277.09,201.97,277.12z"/>
		<path class="st8" d="M173.23,233.33l9.52-2.7c1.41-0.4,2.88,0.42,3.28,1.83l0.64,2.24c0.4,1.41-0.42,2.88-1.83,3.28l-9.52,2.7
			c-1.41,0.4-2.88-0.42-3.28-1.83l-0.64-2.24C171,235.21,171.82,233.73,173.23,233.33z"/>
		<g>
			<circle class="st6" cx="196.54" cy="299.07" r="2.06"/>
			<path class="st7" d="M197.86,299.82c-0.05-0.05-0.08-0.13-0.05-0.2c0.25-0.77-0.09-1.22-0.1-1.24c-0.07-0.08-0.05-0.2,0.03-0.27
				c0.08-0.07,0.2-0.06,0.27,0.03c0.02,0.02,0.5,0.61,0.17,1.6c-0.03,0.1-0.14,0.16-0.24,0.12
				C197.91,299.85,197.88,299.84,197.86,299.82z"/>
		</g>
		<g>
			<circle class="st6" cx="193.44" cy="284.46" r="0.68"/>
			<path class="st7" d="M193.88,284.71c-0.02-0.02-0.03-0.04-0.02-0.07c0.08-0.26-0.03-0.4-0.03-0.41
				c-0.02-0.03-0.02-0.07,0.01-0.09c0.03-0.02,0.07-0.02,0.09,0.01c0.01,0.01,0.16,0.2,0.06,0.53c-0.01,0.03-0.05,0.05-0.08,0.04
				C193.89,284.72,193.89,284.72,193.88,284.71z"/>
		</g>
		<g>
			<circle class="st6" cx="191.38" cy="292.17" r="1.15"/>
			<path class="st7" d="M192.12,292.58c-0.03-0.03-0.04-0.07-0.03-0.11c0.14-0.43-0.05-0.68-0.06-0.69
				c-0.04-0.05-0.03-0.11,0.02-0.15c0.05-0.04,0.11-0.03,0.15,0.01c0.01,0.01,0.28,0.34,0.1,0.89c-0.02,0.06-0.08,0.09-0.13,0.07
				C192.14,292.6,192.13,292.59,192.12,292.58z"/>
		</g>
	</g>
	<g class="st2">
		<g>
			<circle class="st6" cx="248.59" cy="239.41" r="1.02"/>
			<path class="st7" d="M248.67,240.16c0-0.04,0.03-0.07,0.07-0.08c0.39-0.12,0.46-0.39,0.47-0.4c0.01-0.05,0.07-0.08,0.12-0.07
				c0.05,0.01,0.08,0.06,0.07,0.12c0,0.02-0.1,0.38-0.59,0.53c-0.05,0.02-0.1-0.01-0.12-0.06
				C248.67,240.19,248.66,240.17,248.67,240.16z"/>
		</g>
		<path class="st4" d="M241.16,254.79c-0.07,0.01-0.13,0.01-0.2-0.01c-3.15-0.54-7.88-5.15-10.09-8.12
			c-0.34-0.5-0.48-0.94-0.44-1.39c0.05-0.66,0.5-1.32,1.32-2.2c1.26-1.34,7.37-9.62,9.51-9.97c0.32-0.05,0.45-0.48,0.68-0.72
			c0.13-0.14,0.19-0.33,0.18-0.53c-0.03-0.72,0.37-1.35,0.93-1.99c0.62-0.71,1.32-1.23,2.11-1.23c0.19,0,0.36-0.06,0.5-0.2
			c0.14-0.15,0.28-0.3,0.42-0.45c0.09-0.09,0.12-0.27,0.13-0.48c0.71,0.42,1.41,0.85,2.11,1.29c0,0,4.81,2.28,12.4,4.14
			c-0.27,0.35-1.17,2.03-1.64,2.57c-0.69,0.8-1.6,1.23-2.44,1.27c-0.34,0.01-0.58,0.26-0.56,0.59c0.12,1.53,0.1,1.65-0.62,2.75
			c-0.51,0.79-1.54,0.65-2.16,1.2c-0.2,0.18-0.32,0.19-0.37,0.37C252.14,244.34,243.88,254.42,241.16,254.79z"/>
		<path class="st3" d="M260.69,232.93c-7.59-1.86-12.4-4.14-12.4-4.14c-0.69-0.44-1.4-0.87-2.11-1.29c0.03-0.35,0.02-0.77,0.16-0.94
			c2.9-3.56,5.38-6.45,8.59-9.72c2.35-2.39,5.15-4.67,8.18-5.95c1.21-0.51,2.3-0.11,3.33-0.73c0.94-0.57,1.74-2.23,2.54-3.18
			c1.55-1.85,2.63-0.88,4.15,0.45c1.5,1.3,2.67,1.73,1.05,3.84c-0.91,1.19-2.64,2.48-2.96,3.58c-0.33,1.14,0.08,2.3-0.1,3.64
			c-0.31,2.28-1.9,4.53-3.33,6.49c-2.33,3.19-4.04,4.5-6.51,7.26c-0.19,0.2-0.38,0.42-0.58,0.65
			C260.71,232.91,260.7,232.92,260.69,232.93z"/>
		<path class="st8" d="M271.68,204.6l4.49,3.58c0.66,0.53,0.77,1.5,0.24,2.17l-0.84,1.06c-0.53,0.66-1.5,0.77-2.17,0.24l-4.49-3.58
			c-0.66-0.53-0.77-1.5-0.24-2.17l0.84-1.06C270.04,204.18,271.01,204.07,271.68,204.6z"/>
		<g>
			<circle class="st6" cx="248.5" cy="237.77" r="1.19"/>
			<path class="st7" d="M248.59,238.65c0-0.04,0.03-0.08,0.08-0.09c0.45-0.14,0.54-0.45,0.55-0.47c0.02-0.06,0.08-0.09,0.14-0.08
				c0.06,0.02,0.09,0.08,0.08,0.13c0,0.02-0.12,0.44-0.7,0.62c-0.06,0.02-0.12-0.01-0.14-0.07
				C248.59,238.68,248.59,238.66,248.59,238.65z"/>
		</g>
		<g>
			<circle class="st6" cx="254.35" cy="231.38" r="0.4"/>
			<path class="st7" d="M254.38,231.67c0-0.01,0.01-0.03,0.03-0.03c0.15-0.05,0.18-0.15,0.18-0.15c0.01-0.02,0.03-0.03,0.05-0.03
				c0.02,0.01,0.03,0.03,0.03,0.04c0,0.01-0.04,0.15-0.23,0.21c-0.02,0.01-0.04,0-0.05-0.02
				C254.38,231.68,254.38,231.68,254.38,231.67z"/>
		</g>
		<g>
			<circle class="st6" cx="250.02" cy="233.01" r="0.67"/>
			<path class="st7" d="M250.07,233.5c0-0.02,0.02-0.04,0.04-0.05c0.25-0.08,0.3-0.25,0.31-0.26c0.01-0.03,0.04-0.05,0.08-0.04
				c0.03,0.01,0.05,0.04,0.04,0.08c0,0.01-0.07,0.25-0.39,0.35c-0.03,0.01-0.07-0.01-0.08-0.04
				C250.07,233.51,250.07,233.5,250.07,233.5z"/>
		</g>
	</g>
	<g class="st2">
		<g>
			<circle class="st6" cx="300.43" cy="258.59" r="0.64"/>
			<path class="st7" d="M300.9,258.65c-0.02-0.01-0.04-0.03-0.04-0.05c-0.02-0.25-0.17-0.34-0.17-0.35
				c-0.03-0.02-0.04-0.05-0.02-0.08c0.02-0.03,0.05-0.04,0.08-0.02c0.01,0,0.22,0.12,0.24,0.44c0,0.03-0.02,0.06-0.06,0.06
				C300.91,258.65,300.91,258.65,300.9,258.65z"/>
		</g>
		<path class="st4" d="M308.75,265.47c0,0.04-0.02,0.08-0.03,0.12c-0.81,1.85-4.35,4.06-6.51,4.97c-0.36,0.13-0.65,0.15-0.92,0.06
			c-0.4-0.13-0.74-0.51-1.15-1.14c-0.63-0.98-4.8-5.98-4.69-7.34c0.02-0.21-0.23-0.35-0.34-0.52c-0.07-0.1-0.18-0.17-0.3-0.19
			c-0.45-0.09-0.77-0.43-1.08-0.87c-0.34-0.49-0.55-0.99-0.44-1.48c0.03-0.11,0.02-0.23-0.05-0.33c-0.07-0.11-0.14-0.21-0.21-0.32
			c-0.04-0.07-0.15-0.11-0.27-0.15c0.36-0.37,0.73-0.74,1.11-1.1c0,0,2.13-2.61,4.41-6.99c0.17,0.22,1.07,1.02,1.33,1.39
			c0.39,0.55,0.52,1.17,0.41,1.69c-0.04,0.21,0.07,0.4,0.28,0.43c0.96,0.16,1.03,0.19,1.6,0.8c0.41,0.44,0.17,1.04,0.41,1.51
			c0.08,0.15,0.07,0.22,0.17,0.28C303.99,257.15,308.93,263.74,308.75,265.47z"/>
		<path class="st3" d="M298.28,250.17c-2.29,4.38-4.41,6.99-4.41,6.99c-0.37,0.36-0.74,0.73-1.11,1.1
			c-0.21-0.07-0.47-0.13-0.55-0.24c-1.75-2.32-3.15-4.28-4.67-6.74c-1.12-1.8-2.09-3.87-2.42-5.92c-0.13-0.82,0.28-1.43,0.05-2.15
			c-0.21-0.67-1.1-1.4-1.57-2.04c-0.9-1.23-0.14-1.75,0.9-2.48c1.03-0.72,1.47-1.38,2.52-0.07c0.59,0.74,1.13,1.99,1.75,2.36
			c0.65,0.37,1.43,0.3,2.22,0.61c1.35,0.54,2.5,1.85,3.48,3.03c1.61,1.91,2.16,3.16,3.48,5.09c0.1,0.15,0.2,0.3,0.31,0.45
			C298.26,250.16,298.27,250.16,298.28,250.17z"/>
		<path class="st8" d="M282.53,239.15l2.88-2.21c0.43-0.33,1.04-0.25,1.37,0.18l0.52,0.68c0.33,0.43,0.25,1.04-0.18,1.37l-2.88,2.21
			c-0.43,0.33-1.04,0.25-1.37-0.18l-0.52-0.68C282.03,240.09,282.11,239.47,282.53,239.15z"/>
		<g>
			<circle class="st6" cx="299.41" cy="258.39" r="0.76"/>
			<path class="st7" d="M299.96,258.47c-0.03-0.01-0.04-0.03-0.05-0.06c-0.02-0.3-0.2-0.4-0.2-0.41c-0.03-0.02-0.05-0.06-0.03-0.1
				c0.02-0.03,0.06-0.05,0.09-0.03c0.01,0.01,0.25,0.14,0.28,0.52c0,0.04-0.03,0.07-0.07,0.07
				C299.98,258.47,299.97,258.47,299.96,258.47z"/>
		</g>
		<g>
			<circle class="st6" cx="296.37" cy="253.83" r="0.25"/>
			<path class="st7" d="M296.55,253.86c-0.01,0-0.01-0.01-0.02-0.02c-0.01-0.1-0.07-0.13-0.07-0.14c-0.01-0.01-0.02-0.02-0.01-0.03
				s0.02-0.02,0.03-0.01c0,0,0.08,0.05,0.09,0.17C296.58,253.85,296.57,253.86,296.55,253.86
				C296.56,253.86,296.55,253.86,296.55,253.86z"/>
		</g>
		<g>
			<circle class="st6" cx="296.71" cy="256.74" r="0.42"/>
			<path class="st7" d="M297.02,256.78c-0.01-0.01-0.02-0.02-0.03-0.03c-0.01-0.17-0.11-0.22-0.11-0.23
				c-0.02-0.01-0.03-0.03-0.02-0.05s0.03-0.03,0.05-0.02c0.01,0,0.14,0.08,0.15,0.29c0,0.02-0.02,0.04-0.04,0.04
				C297.03,256.78,297.02,256.78,297.02,256.78z"/>
		</g>
	</g>
	<g class="st2">
		<g>
			<circle class="st6" cx="277.55" cy="334.61" r="0.53"/>
			<path class="st7" d="M277.92,334.49c-0.02,0-0.04-0.01-0.05-0.03c-0.1-0.19-0.25-0.2-0.25-0.2c-0.03,0-0.05-0.03-0.05-0.05
				c0-0.03,0.03-0.05,0.05-0.05c0.01,0,0.2,0.01,0.33,0.25c0.01,0.02,0,0.05-0.02,0.07C277.94,334.49,277.93,334.49,277.92,334.49z"
				/>
		</g>
		<path class="st4" d="M286.21,336.84c0.01,0.03,0.02,0.07,0.02,0.11c0.05,1.67-1.83,4.57-3.13,6.02c-0.22,0.22-0.44,0.34-0.67,0.37
			c-0.34,0.04-0.73-0.12-1.27-0.45c-0.82-0.51-5.7-2.79-6.1-3.86c-0.06-0.16-0.29-0.18-0.44-0.27c-0.09-0.05-0.19-0.06-0.29-0.04
			c-0.37,0.09-0.73-0.05-1.12-0.27c-0.43-0.25-0.76-0.55-0.85-0.96c-0.02-0.1-0.07-0.18-0.15-0.23c-0.09-0.06-0.18-0.11-0.27-0.17
			c-0.06-0.03-0.15-0.03-0.26-0.02c0.14-0.41,0.29-0.81,0.44-1.21c0,0,0.68-2.7,0.85-6.79c0.21,0.1,1.16,0.39,1.49,0.58
			c0.48,0.27,0.8,0.7,0.9,1.12c0.04,0.17,0.19,0.27,0.36,0.23c0.77-0.22,0.84-0.22,1.48,0.03c0.46,0.18,0.49,0.72,0.84,0.99
			c0.11,0.08,0.13,0.14,0.23,0.15C279.71,332.28,285.74,335.48,286.21,336.84z"/>
		<path class="st3" d="M272.97,329.06c-0.17,4.09-0.85,6.79-0.85,6.79c-0.15,0.4-0.3,0.81-0.44,1.21c-0.18,0.02-0.4,0.07-0.5,0.02
			c-2.13-1.12-3.86-2.1-5.88-3.41c-1.47-0.96-2.93-2.16-3.9-3.59c-0.39-0.57-0.29-1.17-0.72-1.63c-0.39-0.43-1.32-0.66-1.89-0.98
			c-1.11-0.61-0.72-1.26-0.2-2.18c0.51-0.9,0.62-1.55,1.87-0.94c0.7,0.34,1.55,1.1,2.14,1.15c0.62,0.05,1.17-0.28,1.88-0.32
			c1.2-0.07,2.52,0.51,3.67,1.04c1.88,0.87,2.73,1.61,4.4,2.59c0.12,0.08,0.26,0.15,0.39,0.23
			C272.96,329.06,272.96,329.06,272.97,329.06z"/>
		<path class="st8" d="M257.29,326.34l1.38-2.67c0.2-0.39,0.69-0.55,1.09-0.35l0.63,0.32c0.39,0.2,0.55,0.69,0.35,1.09l-1.38,2.67
			c-0.2,0.39-0.69,0.55-1.09,0.35l-0.63-0.32C257.24,327.22,257.09,326.74,257.29,326.34z"/>
		<g>
			<circle class="st6" cx="276.71" cy="334.83" r="0.63"/>
			<path class="st7" d="M277.15,334.69c-0.02,0-0.04-0.01-0.06-0.03c-0.12-0.22-0.29-0.23-0.3-0.23c-0.03,0-0.06-0.03-0.05-0.06
				c0-0.03,0.03-0.06,0.06-0.05c0.01,0,0.24,0.02,0.39,0.29c0.02,0.03,0.01,0.06-0.02,0.08
				C277.17,334.69,277.16,334.69,277.15,334.69z"/>
		</g>
		<g>
			<circle class="st6" cx="272.83" cy="332.48" r="0.21"/>
			<path class="st7" d="M272.98,332.43c-0.01,0-0.01,0-0.02-0.01c-0.04-0.07-0.1-0.08-0.1-0.08c-0.01,0-0.02-0.01-0.02-0.02
				c0-0.01,0.01-0.02,0.02-0.02c0,0,0.08,0.01,0.13,0.1C273,332.41,272.99,332.43,272.98,332.43
				C272.98,332.43,272.98,332.43,272.98,332.43z"/>
		</g>
		<g>
			<circle class="st6" cx="274.11" cy="334.54" r="0.35"/>
			<path class="st7" d="M274.36,334.46c-0.01,0-0.02-0.01-0.03-0.02c-0.07-0.12-0.16-0.13-0.16-0.13c-0.02,0-0.03-0.02-0.03-0.03
				c0-0.02,0.02-0.03,0.03-0.03c0.01,0,0.13,0.01,0.22,0.16c0.01,0.02,0,0.04-0.01,0.04C274.36,334.46,274.36,334.46,274.36,334.46z
				"/>
		</g>
	</g>
	<g class="st2">
		<circle class="st6" cx="270.22" cy="162.58" r="0.62"/>
		<path class="st7" d="M270.13,162.14c0,0.02-0.01,0.04-0.04,0.05c-0.23,0.1-0.26,0.26-0.26,0.27c-0.01,0.03-0.04,0.05-0.07,0.05
			c-0.03-0.01-0.05-0.03-0.05-0.07c0-0.01,0.04-0.23,0.33-0.35c0.03-0.01,0.06,0,0.08,0.03
			C270.13,162.12,270.13,162.13,270.13,162.14z"/>
	</g>
	<g class="st2">
		<circle class="st6" cx="279.44" cy="173.86" r="1.04"/>
		<path class="st7" d="M279.28,173.11c0,0.04-0.02,0.07-0.06,0.09c-0.38,0.16-0.43,0.44-0.44,0.45c-0.01,0.05-0.06,0.09-0.11,0.08
			c-0.05-0.01-0.09-0.06-0.08-0.11c0-0.02,0.07-0.39,0.55-0.6c0.05-0.02,0.11,0,0.13,0.05C279.28,173.08,279.28,173.1,279.28,173.11
			z"/>
	</g>
	<g class="st2">
		<path class="st3" d="M223.02,208.73c0.54,0.32,0.98,0.78,1.27,1.32c-5.46,7.38-15.64,13.86-21.6,17.25l-2.72-9.51
			c-0.24-0.85-0.15-1.76,0.25-2.54l4.33-8.41l-1.99,0.57l-3.15-11.04l14.33-4.1l3.15,11.04l-1.99,0.57L223.02,208.73z"/>
		<path class="st4" d="M224.28,210.05c0.12,0.22,0.22,0.46,0.29,0.7l5.7,19.95c0.53,1.84-0.54,3.76-2.38,4.29l-17.93,5.13
			c-1.84,0.52-3.77-0.54-4.29-2.39l-2.98-10.43C208.65,223.91,218.82,217.43,224.28,210.05z"/>
	</g>
	<g class="st2">
		<path class="st3" d="M325.97,238.69c0.31,0.07,0.59,0.23,0.81,0.45c-1.54,4.38-5.49,9.02-7.87,11.54l-2.73-4.19
			c-0.24-0.37-0.34-0.83-0.26-1.27l0.84-4.7l-0.88,0.57l-3.16-4.86l6.31-4.11l3.16,4.86l-0.88,0.57L325.97,238.69z"/>
		<path class="st4" d="M326.78,239.14c0.09,0.09,0.17,0.19,0.25,0.3l5.72,8.79c0.53,0.81,0.3,1.9-0.51,2.42l-7.9,5.14
			c-0.81,0.53-1.9,0.3-2.43-0.51l-2.99-4.6C321.29,248.16,325.24,243.52,326.78,239.14z"/>
	</g>
	<g class="st2">
		<path class="st3" d="M145.35,268.43c0.09,0.3,0.08,0.63,0,0.93c-4.57,0.78-10.55-0.43-13.91-1.28l2.34-4.42
			c0.21-0.39,0.56-0.7,0.98-0.84l4.52-1.55l-0.92-0.49l2.72-5.13l6.65,3.53l-2.72,5.13l-0.92-0.49L145.35,268.43z"/>
		<path class="st4" d="M145.34,269.36c-0.03,0.12-0.08,0.24-0.14,0.36l-4.91,9.26c-0.45,0.86-1.51,1.18-2.37,0.73l-8.33-4.41
			c-0.86-0.46-1.18-1.52-0.73-2.37l2.57-4.84C134.79,268.93,140.77,270.13,145.34,269.36z"/>
	</g>
	<g class="st2">
		<path class="st3" d="M71.53,173.25c0.36-0.2,0.76-0.3,1.16-0.28c2.39,5.49,2.72,13.36,2.69,17.83l-6.26-1.57
			c-0.56-0.14-1.04-0.49-1.35-0.97l-3.34-5.19l-0.33,1.31l-7.27-1.83l2.37-9.44l7.27,1.83l-0.33,1.31L71.53,173.25z"/>
		<path class="st4" d="M72.69,172.96c0.17,0,0.33,0.03,0.49,0.06l13.13,3.3c1.21,0.3,1.95,1.53,1.64,2.75L85,190.88
			c-0.31,1.21-1.54,1.95-2.75,1.65l-6.87-1.72C75.42,186.32,75.08,178.46,72.69,172.96z"/>
	</g>
	<g class="st2">
		<path class="st3" d="M132.05,152.38l0.96,0.1l0.56-5.32l-6.91-0.73l-0.56,5.32l0.96,0.1l-3.33,2.88
			c-0.31,0.27-0.51,0.65-0.55,1.05l-1.01,9.61c-0.09,0.89,0.55,1.68,1.44,1.78l8.64,0.91c0.89,0.09,1.68-0.55,1.78-1.44l1.01-9.61
			c0.04-0.41-0.07-0.82-0.32-1.15L132.05,152.38z"/>
		<path class="st4" d="M135.07,156.8c0.01,0.12,0.01,0.24,0,0.36l-1.09,9.8c-0.1,0.9-0.9,1.54-1.79,1.43l-8.66-1.13
			c-0.89-0.12-1.53-0.94-1.43-1.85l0.57-5.12C125.85,159.92,131.4,159,135.07,156.8z"/>
	</g>
	<g class="st2">
		<path class="st3" d="M116.99,193.62l0.81,0.09l0.48-4.52l-5.87-0.62l-0.48,4.52l0.81,0.09l-2.83,2.45
			c-0.26,0.23-0.43,0.55-0.47,0.9l-0.86,8.17c-0.08,0.76,0.47,1.43,1.22,1.51l7.34,0.77c0.76,0.08,1.43-0.47,1.51-1.22l0.86-8.17
			c0.04-0.35-0.06-0.7-0.27-0.97L116.99,193.62z"/>
		<path class="st4" d="M119.56,197.38c0.01,0.1,0.01,0.21,0,0.31l-0.93,8.33c-0.08,0.77-0.77,1.31-1.52,1.21l-7.36-0.96
			c-0.76-0.1-1.3-0.8-1.21-1.57l0.48-4.35C111.72,200.03,116.44,199.25,119.56,197.38z"/>
	</g>
	<g class="st2">
		<path class="st3" d="M90.38,237.34l0.81,0.09l0.48-4.52l-5.87-0.62l-0.48,4.52l0.81,0.09l-2.83,2.45
			c-0.26,0.23-0.43,0.55-0.47,0.9l-0.86,8.17c-0.08,0.76,0.47,1.43,1.22,1.51l7.34,0.77c0.76,0.08,1.43-0.47,1.51-1.22l0.86-8.17
			c0.04-0.35-0.06-0.7-0.27-0.97L90.38,237.34z"/>
		<path class="st4" d="M92.95,241.09c0.01,0.1,0.01,0.21,0,0.31l-0.93,8.33c-0.08,0.77-0.77,1.31-1.52,1.21l-7.36-0.96
			c-0.76-0.1-1.3-0.8-1.21-1.57l0.48-4.35C85.12,243.75,89.83,242.97,92.95,241.09z"/>
	</g>
	<g class="st2">
		<path class="st3" d="M165.19,243.75l0.72,0.4l2.21-3.97l-5.16-2.87l-2.21,3.97l0.72,0.4l-3.57,1.14
			c-0.33,0.11-0.61,0.34-0.78,0.64l-4,7.18c-0.37,0.66-0.13,1.5,0.53,1.87l6.45,3.59c0.66,0.37,1.5,0.13,1.87-0.53l4-7.18
			c0.17-0.31,0.22-0.66,0.13-1L165.19,243.75z"/>
		<path class="st4" d="M166.09,248.21c-0.03,0.1-0.07,0.19-0.12,0.28l-4.12,7.3c-0.38,0.67-1.22,0.91-1.88,0.52l-6.39-3.77
			c-0.66-0.39-0.88-1.25-0.5-1.92l2.15-3.82C157.83,247.58,162.48,248.71,166.09,248.21z"/>
	</g>
	<g class="st2">
		<path class="st3" d="M265.24,344.42l0.71-0.4l-2.24-3.96l-5.14,2.91l2.24,3.96l0.71-0.4l-0.88,3.64c-0.08,0.34-0.03,0.7,0.14,1
			l4.05,7.15c0.37,0.66,1.21,0.89,1.87,0.52l6.42-3.64c0.66-0.37,0.89-1.21,0.52-1.87l-4.05-7.15c-0.17-0.3-0.45-0.53-0.79-0.63
			L265.24,344.42z"/>
		<path class="st4" d="M269.51,345.98c0.07,0.08,0.13,0.16,0.18,0.25l4.09,7.31c0.38,0.67,0.14,1.51-0.53,1.87l-6.54,3.5
			c-0.67,0.36-1.53,0.1-1.9-0.57l-2.14-3.82C264.68,352.7,268.06,349.32,269.51,345.98z"/>
	</g>
	<g class="st2">
		<path class="st3" d="M100.48,213.7l0.81,0.09l0.48-4.52l-5.87-0.62l-0.48,4.52l0.81,0.09l-2.83,2.45
			c-0.26,0.23-0.43,0.55-0.47,0.9l-0.86,8.17c-0.08,0.76,0.47,1.43,1.22,1.51l7.34,0.77c0.76,0.08,1.43-0.47,1.51-1.22l0.86-8.17
			c0.04-0.35-0.06-0.7-0.27-0.97L100.48,213.7z"/>
		<path class="st4" d="M103.05,217.45c0.01,0.1,0.01,0.21,0,0.31l-0.93,8.33c-0.08,0.77-0.77,1.31-1.52,1.21l-7.36-0.96
			c-0.76-0.1-1.3-0.8-1.21-1.57l0.48-4.35C95.21,220.11,99.93,219.33,103.05,217.45z"/>
	</g>
	<g class="st2">
		<path class="st3" d="M18.96,299.26l0.56-0.15l-0.83-3.12l-4.06,1.07l0.83,3.12l0.56-0.15l-1.26,2.34
			c-0.12,0.22-0.15,0.47-0.08,0.71l1.49,5.64c0.14,0.52,0.67,0.83,1.19,0.69l5.07-1.34c0.52-0.14,0.83-0.67,0.69-1.19l-1.49-5.64
			c-0.06-0.24-0.22-0.45-0.43-0.58L18.96,299.26z"/>
		<path class="st4" d="M21.62,301.11c0.03,0.06,0.06,0.13,0.08,0.2l1.49,5.76c0.14,0.53-0.18,1.06-0.7,1.19l-5.13,1.22
			c-0.53,0.13-1.07-0.2-1.2-0.74l-0.78-3.01C17.08,304.85,20.02,303.14,21.62,301.11z"/>
	</g>
	<g class="st2">
		<path class="st3" d="M348.76,233.36l-0.07,0.82l4.53,0.38l0.5-5.88l-4.53-0.38l-0.07,0.82l-2.5-2.78
			c-0.23-0.26-0.56-0.42-0.91-0.45l-8.19-0.7c-0.76-0.06-1.42,0.5-1.49,1.25l-0.63,7.36c-0.06,0.76,0.5,1.42,1.25,1.49l8.19,0.7
			c0.35,0.03,0.69-0.07,0.97-0.29L348.76,233.36z"/>
		<path class="st4" d="M345.05,236.01c-0.1,0.01-0.21,0.02-0.31,0.01l-8.34-0.76c-0.77-0.07-1.33-0.74-1.24-1.5l0.81-7.38
			c0.08-0.76,0.78-1.32,1.55-1.25l4.36,0.4C342.24,228.23,343.12,232.93,345.05,236.01z"/>
	</g>
	<g class="st2">
		<path class="st3" d="M306.18,242.45l-0.05,0.59l3.28,0.28l0.36-4.26l-3.28-0.28l-0.05,0.59l-1.81-2.01
			c-0.17-0.19-0.4-0.3-0.66-0.33l-5.92-0.5c-0.55-0.05-1.03,0.36-1.08,0.91l-0.45,5.33c-0.05,0.55,0.36,1.03,0.91,1.08l5.92,0.5
			c0.25,0.02,0.5-0.05,0.7-0.21L306.18,242.45z"/>
		<path class="st4" d="M303.5,244.37c-0.07,0.01-0.15,0.01-0.22,0.01l-6.04-0.55c-0.56-0.05-0.96-0.54-0.9-1.08l0.59-5.34
			c0.06-0.55,0.56-0.95,1.12-0.9l3.16,0.29C301.46,238.73,302.1,242.14,303.5,244.37z"/>
	</g>
	<g class="st2">
		<path class="st3" d="M214.93,151.97l-0.39,0.88l4.88,2.19l2.84-6.34l-4.88-2.19l-0.39,0.88l-1.7-4.06
			c-0.16-0.38-0.46-0.68-0.83-0.85l-8.82-3.95c-0.82-0.37-1.77,0-2.14,0.81l-3.55,7.93c-0.37,0.82,0,1.77,0.81,2.14l8.82,3.95
			c0.38,0.17,0.8,0.19,1.19,0.05L214.93,151.97z"/>
		<path class="st4" d="M209.79,153.47c-0.12-0.02-0.23-0.06-0.34-0.11l-8.97-4.08c-0.83-0.38-1.19-1.34-0.8-2.15l3.76-7.88
			c0.39-0.81,1.37-1.16,2.2-0.78l4.69,2.13C209.69,143.74,208.84,149.3,209.79,153.47z"/>
	</g>
	<g class="st2">
		<path class="st3" d="M135.33,238.74c-3.39,4.32-8.27,8.71-8.53,12.47c-0.13,2.09-0.31,3.93-0.5,5.57
			c-11.99,1.65-24.6,1.65-34.35,1.23c1.32-3.52,3.26-6.62,3.72-8.93c1.23-6.04,0.59-12.56-0.14-19.7
			C109.26,232.61,122.04,235.61,135.33,238.74z"/>
		<path class="st4" d="M124.01,273.28c-0.19,4.58-0.78,7.23,0.49,12.73c-1.4-0.33-3-0.26-4.16-1.13c-2.89-2.16-3.52-3.42-11.46-4.01
			c-8.33-0.62-15.44-3.53-23.35-5.66c-3.78-1.01-3.11-2.6-1.19-5.34c2.93-4.19,5.6-4.89,6.97-9.83c0.19-0.69,0.41-1.37,0.66-2.03
			c9.75,0.42,22.36,0.42,34.35-1.23C125.46,264.21,124.24,267.7,124.01,273.28z"/>
	</g>
	<g class="st2">
		<path class="st3" d="M158.28,204.57c0.41,2.89,0.3,6.38,1.65,7.86c0.75,0.82,1.39,1.56,1.95,2.24
			c-3.78,5.2-8.42,10.04-12.16,13.62c-0.86-1.8-1.34-3.68-2.05-4.71c-1.86-2.69-4.6-4.84-7.61-7.19
			C146.34,212.3,152.19,208.51,158.28,204.57z"/>
		<path class="st4" d="M167.35,221.61c1.68,1.76,2.48,2.96,5.06,4.49c-0.64,0.41-1.21,1.05-1.96,1.18
			c-1.89,0.32-2.61,0.09-5.75,2.92c-3.3,2.97-7.03,4.62-10.76,6.87c-1.78,1.08-2.14,0.24-2.48-1.51c-0.53-2.67,0.19-3.95-1.21-6.29
			c-0.2-0.33-0.37-0.66-0.53-1c3.75-3.58,8.39-8.42,12.16-13.62C164.41,217.72,165.3,219.47,167.35,221.61z"/>
	</g>
	<g class="st2">
		<path class="st3" d="M237.13,182.52c1.2,2.63,2.11,6.03,3.75,6.95c0.91,0.51,1.7,0.98,2.4,1.42c-1.88,6.43-4.64,12.83-6.96,17.69
			c-1.3-1.41-2.27-3.05-3.2-3.77c-2.45-1.89-5.52-2.94-8.9-4.07C228.67,194.46,232.81,188.61,237.13,182.52z"/>
		<path class="st4" d="M250.2,195.53c2.02,1.06,3.08,1.91,5.84,2.43c-0.46,0.64-0.78,1.47-1.42,1.87c-1.6,1.01-2.31,1.07-4.31,4.97
			c-2.1,4.1-4.96,7.09-7.65,10.66c-1.28,1.71-1.85,1.03-2.66-0.52c-1.25-2.37-0.98-3.87-2.9-5.6c-0.27-0.24-0.53-0.5-0.77-0.76
			c2.32-4.86,5.08-11.26,6.96-17.69C246.43,192.89,247.74,194.23,250.2,195.53z"/>
	</g>
	<g class="st2">
		<path class="st3" d="M301.47,353.19c-2.29,2.92-5.6,5.89-5.77,8.44c-0.09,1.42-0.21,2.66-0.34,3.77
			c-8.11,1.11-16.64,1.12-23.23,0.83c0.89-2.38,2.2-4.48,2.52-6.04c0.83-4.09,0.4-8.49-0.1-13.33
			C283.83,349.04,292.47,351.07,301.47,353.19z"/>
		<path class="st4" d="M293.81,376.55c-0.13,3.09-0.53,4.89,0.33,8.61c-0.95-0.23-2.03-0.18-2.81-0.76
			c-1.96-1.46-2.38-2.31-7.75-2.71c-5.63-0.42-10.44-2.39-15.8-3.83c-2.56-0.69-2.1-1.76-0.8-3.61c1.98-2.84,3.79-3.31,4.71-6.65
			c0.13-0.47,0.28-0.93,0.45-1.37c6.59,0.29,15.12,0.28,23.23-0.83C294.79,370.42,293.97,372.77,293.81,376.55z"/>
	</g>
	<path class="st1" d="M170.65,162.22c-1.91,5.32-3.66,10.16-6.55,14.05c-1.1,1.48-3.49,3.04-5.6,5.1c-0.4,0.39-0.78,0.79-1.15,1.22
		c-2.61,3.05-4.7,2.66-8.15,4.65c-2.26,1.31-3.26,2.21-0.98,4.19c4.78,4.16,8.73,8.61,14.3,11.83c5.31,3.07,5.32,4.18,6.6,6.68
		c0.51,1,1.65,1.49,2.51,2.19c0.98-4.33,2.28-6.02,3.95-9.2c2.05-3.89,4.07-5.96,7.17-10.95c0.68-1.1,1.42-2.35,2.22-3.79
		c1.44-2.59,6.31-4.07,10.12-6.01C186.93,175.51,179.08,169.1,170.65,162.22z"/>
	<g class="st2">
		<g>
			<g>
				<circle class="st6" cx="45.7" cy="277.87" r="1.62"/>
				<path class="st7" d="M45.89,279.05c0-0.06,0.04-0.11,0.1-0.13c0.6-0.22,0.71-0.65,0.71-0.67c0.02-0.08,0.1-0.13,0.18-0.11
					c0.08,0.02,0.13,0.1,0.12,0.18c-0.01,0.02-0.14,0.61-0.9,0.89c-0.08,0.03-0.17-0.01-0.19-0.09
					C45.89,279.09,45.89,279.07,45.89,279.05z"/>
			</g>
			<path class="st4" d="M70.54,259.43c-1.61,1.88-3.25,3.63-5.18,6.02c-0.28,0.34-0.57,0.7-0.87,1.08
				c-0.35,0.44-1.71,3.35-2.44,4.28c-1.04,1.32-2.45,2.09-3.78,2.21c-0.53,0.05-0.91,0.46-0.84,0.99c0.31,2.42,0.29,2.62-0.76,4.43
				c-0.76,1.3-2.4,1.16-3.35,2.09c-0.31,0.3-0.49,0.33-0.56,0.62c-1.01,4.28-13.34,20.99-17.65,21.79
				c-0.11,0.02-0.21,0.02-0.33,0.01c-5.05-0.61-12.95-7.56-16.7-12.11c-0.57-0.77-0.84-1.46-0.81-2.18
				c0.02-1.05,0.69-2.15,1.92-3.61c1.9-2.24,10.95-15.9,14.33-16.63c0.51-0.11,0.69-0.8,1.03-1.2c0.2-0.24,0.27-0.54,0.25-0.85
				c-0.11-1.14,0.49-2.18,1.32-3.25c0.94-1.18,1.99-2.06,3.26-2.12c0.3-0.01,0.57-0.13,0.77-0.36c0.21-0.24,0.42-0.5,0.63-0.74
				c0.35-0.41,0.04-1.84,0.36-2.27c0.95-1.29,1.87-2.53,2.77-3.73c4.68,0.41,9.66,1.34,13.6,3.29
				C57.5,257.17,63.9,258.69,70.54,259.43z"/>
			<path class="st3" d="M84.2,231.05c-1.35,1.97-4,4.16-4.42,5.94c-0.43,1.84,0.31,3.65,0.13,5.79c-0.32,3.65-2.66,7.36-4.79,10.59
				c-1.65,2.52-3.11,4.34-4.59,6.06c-6.64-0.74-13.04-2.26-13.04-2.26c-3.94-1.95-8.93-2.88-13.6-3.29
				c3.24-4.3,6.33-8.15,10.11-12.42c3.54-4,7.81-7.84,12.54-10.14c1.88-0.91,3.66-0.35,5.23-1.42c1.45-0.99,2.59-3.68,3.79-5.26
				c2.33-3.07,4.11-1.61,6.65,0.38C84.7,226.96,86.61,227.56,84.2,231.05z"/>
			<g>
				<circle class="st6" cx="45.43" cy="275.26" r="1.9"/>
				<path class="st7" d="M45.65,276.65c0-0.07,0.05-0.13,0.12-0.15c0.71-0.26,0.83-0.76,0.84-0.79c0.02-0.09,0.12-0.15,0.21-0.13
					c0.09,0.02,0.16,0.11,0.14,0.21c-0.01,0.03-0.16,0.71-1.06,1.04c-0.09,0.03-0.19-0.01-0.23-0.1
					C45.65,276.7,45.64,276.67,45.65,276.65z"/>
			</g>
			<g>
				<circle class="st6" cx="54.23" cy="264.62" r="0.63"/>
				<path class="st7" d="M54.3,265.09c0-0.02,0.02-0.04,0.04-0.05c0.23-0.09,0.28-0.25,0.28-0.26c0.01-0.03,0.04-0.05,0.07-0.04
					c0.03,0.01,0.05,0.04,0.04,0.07c0,0.01-0.05,0.24-0.35,0.35c-0.03,0.01-0.06,0-0.08-0.03C54.3,265.1,54.3,265.09,54.3,265.09z"
					/>
			</g>
			<g>
				<circle class="st6" cx="47.46" cy="267.56" r="1.06"/>
				<path class="st7" d="M47.59,268.33c0-0.04,0.03-0.07,0.06-0.09c0.39-0.15,0.46-0.43,0.47-0.44c0.01-0.05,0.06-0.09,0.12-0.07
					c0.05,0.01,0.09,0.06,0.08,0.12c0,0.02-0.09,0.4-0.59,0.58c-0.05,0.02-0.11-0.01-0.13-0.06
					C47.59,268.36,47.59,268.34,47.59,268.33z"/>
			</g>
		</g>
		<path class="st8" d="M79.66,220.61l7.43,5.34c1.1,0.79,1.35,2.33,0.56,3.43l-1.26,1.75c-0.79,1.1-2.33,1.35-3.43,0.56l-7.43-5.34
			c-1.1-0.79-1.35-2.33-0.56-3.43l1.26-1.75C77.02,220.07,78.56,219.82,79.66,220.61z"/>
	</g>
	<path class="st0" d="M224.91,187.12c-6.02,3.61-10.28,2.26-12.81-4.1c-0.62,0.36-1.21,0.73-1.82,1.06
		c-3.15,1.71-6.88,1.05-9.15-1.62c-2.28-2.68-2.5-6.57-0.23-9.28c2.12-2.53,3.14-5.12,2.57-8.52c-0.55-3.35,2.05-6.63,5.39-7.56
		c3.2-0.89,6.77,0.6,8.41,3.56c0.36,0.64,0.59,1.35,0.64,1.47c2.75-0.29,5.36-1,7.86-0.72c2.95,0.33,4.3,2.96,5.3,5.69
		c3.3-2.36,6.59-2.95,9.87-0.46c3.56,2.7,3.58,7.36,0.77,11.13c-1.29,1.72-2.13,4.29-2.04,6.43c0.17,4.22-1.49,7.61-5.19,8.69
		c-3.89,1.13-7.45-0.66-9.14-4.61C225.19,187.9,225.06,187.52,224.91,187.12z M208.26,173.45c-2.92-1-5.21-0.23-5.98,1.99
		c-1.01,2.91,0.47,6.25,3.12,7.07c2.36,0.74,5.09-0.92,6.08-3.7C212.33,176.45,211.12,174.43,208.26,173.45z M233.7,181.46
		c-2.86-0.92-5.26-0.07-5.95,2.12c-0.89,2.83,0.52,6.12,2.99,6.97c2.51,0.86,5.42-0.98,6.31-3.98
		C237.71,184.33,236.4,182.33,233.7,181.46z M209.84,168.41c2.78,0.86,4.88,0,5.6-2.31c0.9-2.88-0.37-6.02-2.75-6.77
		c-2.57-0.81-5.91,1.17-6.68,3.97C205.41,165.46,206.96,167.51,209.84,168.41z M235.09,176.7c2.65,0.93,4.94,0.12,5.75-2.04
		c1.04-2.78-0.15-5.92-2.58-6.81c-2.68-0.98-5.67,0.65-6.72,3.68C230.77,173.73,232.09,175.65,235.09,176.7z M215.03,179.36
		c-1.02,2.69,0.32,6.06,2.8,7.04c2.51,1,5.36-0.66,6.45-3.75c0.75-2.13-0.41-4.16-2.93-5.13
		C218.48,176.41,215.86,177.17,215.03,179.36z M222.25,172.47c2.86,0.99,5.18,0.17,5.92-2.11c0.94-2.89-0.32-5.95-2.78-6.75
		c-2.68-0.87-5.81,0.92-6.72,3.85C218.03,169.53,219.44,171.49,222.25,172.47z M213.67,176c0.29,0.06,0.58,0.12,0.87,0.18
		c0.97-1.99,2.29-3.89,1.82-6.22c-0.34-0.09-0.67-0.17-1.01-0.26C214.79,171.8,214.23,173.9,213.67,176z M226.35,180.91
		c2.7-2.45,3.39-4.84,2.33-7.21C227.93,176.01,227.24,178.14,226.35,180.91z"/>
	<path class="st0" d="M281.04,233.45c-0.85,2.57-2.43,3.25-4.78,2.03c-0.09,0.26-0.17,0.52-0.27,0.77c-0.49,1.3-1.75,2.04-3.08,1.83
		c-1.34-0.21-2.39-1.29-2.41-2.66c-0.02-1.28-0.37-2.29-1.4-3.14c-1.01-0.84-1.07-2.46-0.33-3.57c0.71-1.07,2.13-1.53,3.36-1.08
		c0.27,0.1,0.51,0.24,0.56,0.27c0.73-0.78,1.32-1.64,2.12-2.19c0.94-0.65,2-0.22,2.99,0.33c0.37-1.52,1.18-2.52,2.77-2.62
		c1.72-0.11,2.9,1.25,3.03,3.06c0.06,0.83,0.46,1.79,1.02,2.4c1.11,1.19,1.48,2.6,0.67,3.85c-0.85,1.31-2.35,1.69-3.83,0.96
		C281.31,233.61,281.18,233.53,281.04,233.45z M272.72,233.65c-1.1,0.44-1.58,1.25-1.25,2.09c0.44,1.1,1.71,1.71,2.7,1.28
		c0.87-0.38,1.25-1.55,0.85-2.62C274.67,233.5,273.8,233.22,272.72,233.65z M282.18,229.58c-1.07,0.45-1.56,1.31-1.21,2.12
		c0.45,1.05,1.7,1.66,2.63,1.28c0.95-0.38,1.34-1.65,0.84-2.75C284.07,229.41,283.19,229.15,282.18,229.58z M271.91,231.78
		c1.03-0.45,1.43-1.23,1.06-2.09c-0.46-1.07-1.62-1.67-2.51-1.28c-0.96,0.41-1.43,1.83-0.95,2.85
		C269.87,232.03,270.84,232.25,271.91,231.78z M281.38,227.84c1.01-0.4,1.47-1.21,1.17-2.04c-0.4-1.07-1.54-1.69-2.47-1.34
		c-1.03,0.39-1.49,1.62-1.04,2.77C279.37,228.06,280.25,228.29,281.38,227.84z M276.19,233.67c0.38,1.04,1.62,1.69,2.59,1.35
		c0.99-0.34,1.4-1.54,0.94-2.72c-0.32-0.81-1.17-1.11-2.15-0.76C276.45,231.94,275.88,232.82,276.19,233.67z M276.57,229.84
		c1.09-0.43,1.56-1.26,1.2-2.11c-0.46-1.08-1.59-1.66-2.51-1.27c-1,0.42-1.47,1.73-1,2.82C274.59,230.04,275.5,230.26,276.57,229.84
		z M274.95,233.04c0.1-0.06,0.2-0.11,0.3-0.17c-0.22-0.83-0.31-1.71-1.04-2.28c-0.12,0.06-0.24,0.12-0.36,0.18
		C274.21,231.52,274.58,232.28,274.95,233.04z M279.89,231.27c0.17-1.4-0.23-2.27-1.14-2.7
		C279.12,229.44,279.45,230.24,279.89,231.27z"/>
	<path class="st0" d="M164.61,77.43c-0.85,2.57-2.43,3.25-4.78,2.03c-0.09,0.26-0.17,0.52-0.27,0.77c-0.49,1.3-1.75,2.04-3.08,1.83
		c-1.34-0.21-2.39-1.29-2.41-2.66c-0.02-1.28-0.37-2.29-1.4-3.14c-1.01-0.84-1.07-2.46-0.33-3.57c0.71-1.07,2.13-1.53,3.36-1.08
		c0.27,0.1,0.51,0.24,0.56,0.27c0.73-0.78,1.32-1.64,2.12-2.19c0.94-0.65,2-0.22,2.99,0.33c0.37-1.52,1.18-2.52,2.77-2.62
		c1.72-0.11,2.9,1.25,3.03,3.06c0.06,0.83,0.46,1.79,1.02,2.4c1.11,1.19,1.48,2.6,0.67,3.85c-0.85,1.31-2.35,1.69-3.83,0.96
		C164.88,77.59,164.75,77.51,164.61,77.43z M156.29,77.63c-1.1,0.44-1.58,1.25-1.25,2.09c0.44,1.1,1.71,1.71,2.7,1.28
		c0.87-0.38,1.25-1.55,0.85-2.62C158.24,77.48,157.38,77.2,156.29,77.63z M165.75,73.56c-1.07,0.45-1.56,1.31-1.21,2.12
		c0.45,1.05,1.7,1.66,2.63,1.28c0.95-0.38,1.34-1.65,0.84-2.75C167.64,73.39,166.76,73.14,165.75,73.56z M155.48,75.76
		c1.03-0.45,1.43-1.23,1.06-2.09c-0.46-1.07-1.62-1.67-2.51-1.28c-0.96,0.41-1.43,1.83-0.95,2.85
		C153.44,76.01,154.41,76.23,155.48,75.76z M164.96,71.82c1.01-0.4,1.47-1.21,1.17-2.04c-0.4-1.07-1.54-1.69-2.47-1.34
		c-1.03,0.39-1.49,1.62-1.04,2.77C162.95,72.04,163.82,72.27,164.96,71.82z M159.76,77.65c0.38,1.04,1.62,1.69,2.59,1.35
		c0.99-0.34,1.4-1.54,0.94-2.72c-0.32-0.81-1.17-1.11-2.15-0.76C160.03,75.92,159.45,76.81,159.76,77.65z M160.14,73.82
		c1.09-0.43,1.56-1.26,1.2-2.11c-0.46-1.08-1.59-1.66-2.51-1.27c-1,0.42-1.47,1.73-1,2.82C158.16,74.02,159.07,74.24,160.14,73.82z
		 M158.52,77.02c0.1-0.06,0.2-0.11,0.3-0.17c-0.22-0.83-0.31-1.71-1.04-2.28c-0.12,0.06-0.24,0.12-0.36,0.18
		C157.78,75.5,158.15,76.26,158.52,77.02z M163.46,75.25c0.17-1.4-0.23-2.27-1.14-2.7C162.69,73.43,163.02,74.22,163.46,75.25z"/>
	<path class="st0" d="M157.51,44.35c-2.18,1.62-3.86,1.26-5.08-1.09c-0.22,0.16-0.44,0.32-0.66,0.48c-1.15,0.78-2.6,0.67-3.58-0.27
		c-0.98-0.94-1.21-2.43-0.44-3.56c0.72-1.05,1.01-2.09,0.66-3.37c-0.34-1.27,0.53-2.63,1.78-3.11c1.2-0.46,2.62-0.03,3.37,1.05
		c0.16,0.23,0.28,0.5,0.3,0.54c1.05-0.22,2.02-0.59,2.99-0.58c1.14,0.01,1.76,0.97,2.25,1.98c1.18-1.03,2.42-1.39,3.78-0.55
		c1.47,0.9,1.66,2.69,0.72,4.25c-0.43,0.71-0.65,1.73-0.54,2.55c0.23,1.61-0.28,2.98-1.66,3.54c-1.45,0.58-2.89,0.03-3.69-1.42
		C157.65,44.64,157.59,44.5,157.51,44.35z M150.6,39.73c-1.16-0.27-2.01,0.11-2.22,0.99c-0.28,1.16,0.42,2.38,1.47,2.6
		c0.93,0.19,1.92-0.55,2.2-1.65C152.28,40.73,151.73,40,150.6,39.73z M160.68,41.84c-1.13-0.25-2.02,0.17-2.21,1.04
		c-0.24,1.12,0.43,2.33,1.41,2.56c1,0.23,2.04-0.58,2.27-1.77C162.33,42.79,161.75,42.07,160.68,41.84z M151.01,37.73
		c1.1,0.23,1.87-0.19,2.06-1.1c0.24-1.14-0.37-2.3-1.31-2.49c-1.02-0.21-2.23,0.68-2.42,1.78C149.2,36.77,149.87,37.5,151.01,37.73z
		 M161.03,39.96c1.05,0.26,1.9-0.14,2.13-1c0.29-1.11-0.28-2.27-1.25-2.52c-1.07-0.28-2.15,0.47-2.44,1.67
		C159.26,38.98,159.84,39.67,161.03,39.96z M153.42,41.74c-0.29,1.07,0.35,2.31,1.34,2.6c1,0.29,2.03-0.46,2.33-1.68
		c0.21-0.85-0.31-1.58-1.32-1.86C154.64,40.48,153.66,40.87,153.42,41.74z M155.94,38.82c1.14,0.27,2-0.13,2.19-1.03
		c0.25-1.15-0.35-2.27-1.32-2.49c-1.06-0.23-2.2,0.57-2.44,1.73C154.2,37.85,154.82,38.55,155.94,38.82z M152.77,40.51
		c0.11,0.01,0.23,0.02,0.34,0.04c0.3-0.8,0.73-1.58,0.46-2.46c-0.13-0.02-0.27-0.04-0.4-0.06
		C153.04,38.85,152.91,39.68,152.77,40.51z M157.83,41.91c0.94-1.04,1.12-1.99,0.62-2.86C158.25,39.97,158.07,40.81,157.83,41.91z"
		/>
	<path class="st0" d="M159.51,297.83c-4.26,0.45-6.28-1.38-6.05-5.56c-0.44,0.04-0.86,0.09-1.28,0.12
		c-2.19,0.14-4.08-1.18-4.66-3.25c-0.58-2.07,0.3-4.29,2.26-5.2c1.83-0.86,3.05-2.03,3.61-4.06c0.55-2,2.84-3.15,4.93-2.81
		c2,0.33,3.6,2.07,3.75,4.13c0.03,0.45-0.02,0.9-0.02,0.98c1.6,0.55,3.23,0.82,4.54,1.62c1.55,0.94,1.62,2.74,1.48,4.52
		c2.44-0.46,4.41,0.05,5.59,2.28c1.28,2.41,0.1,5-2.43,6.36c-1.16,0.62-2.28,1.83-2.78,3.04c-0.99,2.38-2.78,3.84-5.11,3.48
		c-2.45-0.37-3.96-2.28-3.88-4.9C159.47,298.33,159.49,298.09,159.51,297.83z M153.8,285.98c-1.36-1.3-2.83-1.47-3.83-0.43
		c-1.3,1.35-1.35,3.58-0.09,4.72c1.12,1.01,3.06,0.79,4.32-0.49C155.28,288.69,155.13,287.26,153.8,285.98z M165.84,296.95
		c-1.35-1.25-2.9-1.39-3.85-0.35c-1.22,1.34-1.28,3.53-0.13,4.63c1.17,1.12,3.25,0.85,4.52-0.58
		C167.33,299.57,167.11,298.13,165.84,296.95z M155.96,283.59c1.32,1.19,2.71,1.25,3.7,0.16c1.24-1.36,1.34-3.43,0.21-4.46
		c-1.22-1.11-3.58-0.87-4.72,0.49C154.27,280.82,154.6,282.36,155.96,283.59z M167.83,294.67c1.23,1.19,2.71,1.33,3.71,0.35
		c1.29-1.27,1.44-3.32,0.32-4.44c-1.24-1.23-3.31-1.09-4.67,0.31C166.2,291.92,166.44,293.32,167.83,294.67z M156.03,290.99
		c-1.26,1.23-1.38,3.44-0.26,4.62c1.14,1.2,3.14,1.01,4.53-0.42c0.96-0.99,0.84-2.41-0.31-3.6
		C158.7,290.24,157.05,289.99,156.03,290.99z M161.8,289.03c1.33,1.29,2.83,1.42,3.82,0.35c1.26-1.36,1.35-3.38,0.19-4.45
		c-1.26-1.17-3.46-0.98-4.71,0.41C160.22,286.31,160.49,287.76,161.8,289.03z M156.14,288.78c0.15,0.11,0.29,0.21,0.44,0.32
		c1.05-0.85,2.27-1.57,2.61-2.98c-0.16-0.13-0.33-0.27-0.49-0.4C157.84,286.74,156.99,287.76,156.14,288.78z M161.91,294.76
		c2.12-0.66,3.12-1.81,3.14-3.4C164.04,292.45,163.11,293.45,161.91,294.76z"/>
	<g class="st2">
		<path class="st3" d="M155.16,132.63c0.38-0.29,1.13-0.95,3.22-2.82c3.82-3.4,7.91-6.15,12.31-8.22
			c9.28,7.78,14.32,15.21,14.32,15.21c0.81,1.59,1.67,3.15,2.58,4.69c-8.13,2.57-16.56,3.16-25.3,1.65
			c-3.1-0.54-3.31-0.88-4.61-1.08c-5.35,1.28-10.95,5.13-12.7-1.68C143.11,133.29,147.17,134.71,155.16,132.63z"/>
		<path class="st4" d="M170.69,121.59c6.3-2.96,13.22-4.53,20.89-4.65c2.9-0.04,5.95-0.91,8.64-2.07
			c11.33-4.87,12.35-4.82,15.26,6.85c3.03,12.18,2.7,12.01-9.27,13.2c-2.95,0.29-6.07,1-8.67,2.37c-3.27,1.73-6.58,3.12-9.96,4.19
			c-0.9-1.54-1.76-3.1-2.58-4.69C185.01,136.8,179.97,129.36,170.69,121.59z"/>
	</g>
	<g class="st2">
		<path class="st3" d="M135.65,169.38c0.54,6.13-0.08,13.02-0.4,16.37c-1.05,10.94-6.64,20.35-9.3,30.85
			c-0.86,3.39-1.67,6.8-2.42,10.23c-4.87-1.1-4.27-2.74-2.05-10.12c0.69-2.29,1.12-4.82,0.9-7.18c-0.96-10.12,1.11-19.5,6.5-28.04
			c1.35-2.15,1.67-2.19,2.22-3.1C131.77,174.18,130.73,169.06,135.65,169.38z"/>
		<path class="st4" d="M138.89,179.41c0.1,0.36,0.36,1.14,1.11,3.27c3.3,9.45,3.24,18.91-0.63,28.67c-0.86,2.17-1.16,4.71-1.12,7.07
			c0.14,9.93-0.21,10.67-9.79,9.25c-2.06-0.3-3.68-0.56-4.94-0.84c0.74-3.43,1.55-6.84,2.42-10.23c2.66-10.5,8.25-19.91,9.3-30.85
			c0.32-3.35,0.94-10.24,0.4-16.37c0.2,0.01,0.4,0.03,0.61,0.06C142.1,170.23,139.8,172.82,138.89,179.41z"/>
	</g>
</g>
</svg>
