<?xml version="1.0" encoding="utf-8"?>
<!-- Generator: Adobe Illustrator 23.0.0, SVG Export Plug-In . SVG Version: 6.00 Build 0)  -->
<svg version="1.1" id="图层_1" xmlns="http://www.w3.org/2000/svg" xmlns:xlink="http://www.w3.org/1999/xlink" x="0px" y="0px"
	 viewBox="0 0 143.27 19.68" style="enable-background:new 0 0 143.27 19.68;" xml:space="preserve">
<style type="text/css">
	.st0{fill:#6A859E;}
	.st1{fill:#9EB9C9;}
</style>
<g>
	<path class="st0" d="M82.51,19.68V0.38h12.11v3.77h-7.37v4.38h7.03v3.77h-7.03v7.39H82.51z"/>
	<path class="st0" d="M111.88,6.49c0,1.29-0.36,2.42-1.08,3.39c-0.72,0.97-1.73,1.7-3.02,2.2l6.33,7.59h-5.84l-5.29-6.7h-0.87v6.7
		h-4.74V0.38h6.13c1.19,0,2.3,0.13,3.32,0.38c1.02,0.25,1.91,0.63,2.66,1.13c0.75,0.5,1.34,1.14,1.76,1.9
		C111.66,4.55,111.88,5.45,111.88,6.49z M107.31,6.58c0-0.87-0.34-1.51-1.01-1.93c-0.67-0.41-1.62-0.62-2.83-0.62h-1.36v5.42h1.16
		c1.27,0,2.26-0.25,2.98-0.75C106.95,8.2,107.31,7.49,107.31,6.58z"/>
	<path class="st0" d="M115.84,0.38h12v3.77h-7.26v3.88h6.91v3.77h-6.91v4.12h7.34v3.77h-12.08V0.38z"/>
	<path class="st0" d="M131.19,0.38h12v3.77h-7.26v3.88h6.91v3.77h-6.91v4.12h7.34v3.77h-12.08V0.38z"/>
	<path class="st1" d="M9.52,6.7C9.52,6.04,9.34,5.5,9,5.09L8.47,8.8c0.02-0.02,0.05-0.03,0.07-0.04C9.19,8.25,9.52,7.57,9.52,6.7z"
		/>
	<polygon class="st1" points="38.61,6.25 38.39,7 39.03,6.84 	"/>
	<polygon class="st1" points="4.89,4.03 5.52,4.03 0.15,3.12 0.15,8.06 4.89,6.15 	"/>
	<path class="st1" d="M8.21,4.49L8.18,4.48C8.19,4.49,8.2,4.49,8.21,4.5L8.21,4.49z"/>
	<path class="st1" d="M4.89,13.16h0.49c0.55,0,1.08-0.03,1.6-0.09l0.54-3.82C7.01,9.41,6.4,9.51,5.67,9.51H4.89V7.08L0.15,9v7.42
		l4.74-1.17V13.16z"/>
	<polygon class="st1" points="0.15,19.68 4.89,19.68 4.89,15.83 0.15,17 	"/>
	<path class="st1" d="M8.75,0.7C7.81,0.5,6.8,0.38,5.7,0.38H0.15v1.87l8.18,1.39L8.75,0.7z"/>
	<path class="st1" d="M13.76,4.55c-0.08-0.24-0.18-0.47-0.29-0.69c-0.41-0.79-0.99-1.44-1.74-1.96c-0.61-0.42-0.99-0.66-1.8-0.91
		L9.52,3.86L13.76,4.55z"/>
	<path class="st1" d="M9.52,6.7c0,0.87-0.33,1.56-0.98,2.06C8.52,8.77,8.49,8.78,8.47,8.8l-0.59,4.14c0.32-0.06,0.64-0.13,0.95-0.21
		c1.06-0.29,1.98-0.71,2.76-1.26c0.78-0.55,1.39-1.23,1.83-2.04c0.44-0.81,0.67-1.73,0.67-2.75c0-0.43-0.04-0.82-0.11-1.2L9.06,4.63
		L9,5.09C9.34,5.5,9.52,6.04,9.52,6.7z"/>
	<polygon class="st1" points="16.31,6.23 16.31,13.02 21.05,11.85 21.05,7.03 	"/>
	<polygon class="st1" points="28.14,19.68 28.14,15.91 24.27,15.91 22.86,19.68 	"/>
	<polygon class="st1" points="16.31,19.68 22.15,19.68 23.57,15.91 21.05,15.91 21.05,12.16 16.31,13.33 	"/>
	<polygon class="st1" points="21.05,0.38 16.31,0.38 16.31,4.98 21.05,5.79 	"/>
	<polygon class="st1" points="42.21,9.78 49.03,19.59 45.49,10.34 	"/>
	<polygon class="st1" points="39.29,4.03 40.06,6.59 43.85,5.65 41.89,0.38 36.69,0.38 36.29,1.45 38.93,5.21 	"/>
	<polygon class="st1" points="38.39,7 38.61,6.25 35.93,2.43 33.88,7.96 34.25,8.02 	"/>
	<polygon class="st1" points="36.81,12.18 37.63,9.47 34.28,8.9 33.45,9.11 30.7,16.5 38.2,12.18 	"/>
	<polygon class="st1" points="35.23,8.3 37.89,8.64 38.2,7.61 	"/>
	<polygon class="st1" points="41.11,10.06 41.75,12.18 39.93,12.18 30.23,17.77 29.52,19.68 34.41,19.68 35.59,15.94 42.96,15.94 
		44.18,19.68 48.04,19.68 41.31,10.09 	"/>
	<polygon class="st1" points="45.44,9.92 43.96,5.9 40.26,6.81 41.81,9.3 	"/>
	<path class="st1" d="M60.65,0.39c-1-0.24-2.05-0.36-3.15-0.36c-2.16,0-3.85,0.49-5.07,1.48c-0.78,0.63-1.31,1.44-1.59,2.43
		l11.76-2.9C62.03,0.78,61.38,0.57,60.65,0.39z"/>
	<path class="st1" d="M59.18,14.35c0,0.67-0.49,1.4-1.01,1.7l2.99,2.87c0.19-0.13,0.62-0.52,0.79-0.67c0.64-0.55,1.12-1.2,1.46-1.94
		c0.34-0.74,0.51-1.54,0.51-2.39c0-0.83-0.15-1.56-0.45-2.17c-0.1-0.21-0.2-0.32-0.33-0.51l-3.96,2.95
		C59.2,14.26,59.18,14.26,59.18,14.35z"/>
	<path class="st1" d="M51.38,15.05l-0.95,3.62c0.23,0.11,0.48,0.2,0.72,0.3l3.78-2.81c-0.44-0.06-0.86-0.14-1.26-0.26
		C52.81,15.66,52.05,15.37,51.38,15.05z"/>
	<path class="st1" d="M50.59,5.8c0,1.43,0.43,2.6,1.3,3.52c0.87,0.92,2.24,1.74,4.13,2.45c1.2,0.45,2.02,0.87,2.47,1.26
		c0.1,0.09,0.19,0.18,0.26,0.27l3.82-2.84c-0.11-0.12-0.21-0.26-0.34-0.37c-0.52-0.48-1.14-0.91-1.85-1.28
		c-0.71-0.37-1.47-0.72-2.28-1.04c-0.56-0.23-1.02-0.43-1.39-0.61c-0.37-0.17-0.65-0.35-0.85-0.52c-0.2-0.17-0.34-0.36-0.42-0.55
		c-0.08-0.19-0.12-0.42-0.12-0.7c0-0.58,0.22-0.99,0.65-1.23c0.43-0.24,1.01-0.36,1.72-0.36c0.85,0,1.67,0.1,2.47,0.3
		c0.8,0.2,1.54,0.47,2.21,0.8l0.7-3.09L50.66,4.87C50.62,5.17,50.59,5.47,50.59,5.8z"/>
	<path class="st1" d="M56.4,16.26c-0.06,0-0.49-0.11-0.54-0.11l-4.14,3.08c0.41,0.13,1.21,0.36,1.65,0.45
		c1.06,0.23,2.12,0.35,3.18,0.35c1.16,0,2.19-0.16,3.09-0.48c0.35-0.12,0.49-0.27,0.8-0.42l-3.11-2.98
		C57,16.23,56.81,16.26,56.4,16.26z"/>
	<polygon class="st1" points="75.32,0.38 65.14,0.38 65.14,4.15 70.31,4.15 70.31,4.71 75.36,0.96 	"/>
	<polygon class="st1" points="70.31,19.68 75.05,19.68 75.05,19.2 70.31,14.65 	"/>
	<polygon class="st1" points="76.14,4.15 80.22,4.15 80.22,0.38 77.59,0.38 75.94,1.37 	"/>
	<polygon class="st1" points="75.05,4.15 75.59,4.15 75.43,1.98 70.31,5.79 70.31,13.99 75.05,18.53 	"/>
	<path class="st1" d="M44.16,6.47"/>
	<path class="st1" d="M50.66,4.87"/>
	<polygon class="st1" points="76.18,0.38 76.18,0.34 76.14,0.38 	"/>
	<path class="st1" d="M9,5.09l0.07-0.46L8.21,4.49l0,0.01C8.53,4.66,8.8,4.85,9,5.09z"/>
</g>
</svg>
