<?xml version="1.0" encoding="utf-8"?>
<!-- Generator: Adobe Illustrator 23.0.0, SVG Export Plug-In . SVG Version: 6.00 Build 0)  -->
<svg version="1.1" id="图层_1" xmlns="http://www.w3.org/2000/svg" xmlns:xlink="http://www.w3.org/1999/xlink" x="0px" y="0px"
	 viewBox="0 0 30 20" style="enable-background:new 0 0 30 20;" xml:space="preserve">
<style type="text/css">
	.st0{fill:#6C89A4;}
</style>
<g>
	<path class="st0" d="M28,4L2,4C0.9,4,0,3.1,0,2v0c0-1.1,0.9-2,2-2l26,0c1.1,0,2,0.9,2,2v0C30,3.1,29.1,4,28,4z"/>
	<path class="st0" d="M28,12H2c-1.1,0-2-0.9-2-2v0c0-1.1,0.9-2,2-2h26c1.1,0,2,0.9,2,2v0C30,11.1,29.1,12,28,12z"/>
	<path class="st0" d="M28,20H2c-1.1,0-2-0.9-2-2v0c0-1.1,0.9-2,2-2h26c1.1,0,2,0.9,2,2v0C30,19.1,29.1,20,28,20z"/>
</g>
</svg>
